G04*
G04 #@! TF.GenerationSoftware,Altium Limited,Altium Designer,23.4.1 (23)*
G04*
G04 Layer_Color=32896*
%FSLAX25Y25*%
%MOIN*%
G70*
G04*
G04 #@! TF.SameCoordinates,34C706FF-D981-4061-8AA4-72CC7803A1E3*
G04*
G04*
G04 #@! TF.FilePolarity,Positive*
G04*
G01*
G75*
G36*
X122582Y114890D02*
X122751D01*
Y114721D01*
X122920D01*
Y114552D01*
X123089D01*
Y114383D01*
X123258D01*
Y114214D01*
X123426D01*
Y114046D01*
X123595D01*
Y113877D01*
X123764D01*
Y113708D01*
X123933D01*
Y113539D01*
X124102D01*
Y113370D01*
X124270D01*
Y113201D01*
X124439D01*
Y113033D01*
X124608D01*
Y112864D01*
X124777D01*
Y112695D01*
X124946D01*
Y112526D01*
X125115D01*
Y112357D01*
X125283D01*
Y112188D01*
X125452D01*
Y112020D01*
X125621D01*
Y111851D01*
X125790D01*
Y111682D01*
X125959D01*
Y111513D01*
X126128D01*
Y111344D01*
X126296D01*
Y111176D01*
X126465D01*
Y111007D01*
X126634D01*
Y110838D01*
X126803D01*
Y110669D01*
X126972D01*
Y110500D01*
X127140D01*
Y110331D01*
X127309D01*
Y110163D01*
X127478D01*
Y109994D01*
X127647D01*
Y109825D01*
X127816D01*
Y109656D01*
X127984D01*
Y109487D01*
X128153D01*
Y109319D01*
X128322D01*
Y109150D01*
X128491D01*
Y108981D01*
X128660D01*
Y108812D01*
X128829D01*
Y108643D01*
X128997D01*
Y108475D01*
X129166D01*
Y108306D01*
X129335D01*
Y108137D01*
X129504D01*
Y107968D01*
X129673D01*
Y107799D01*
X129841D01*
Y107630D01*
X130010D01*
Y107462D01*
X130179D01*
Y107293D01*
X130348D01*
Y107124D01*
X130517D01*
Y106955D01*
X130686D01*
Y106786D01*
X130854D01*
Y106617D01*
X131023D01*
Y106449D01*
X131192D01*
Y106280D01*
X131361D01*
Y106111D01*
X131530D01*
Y105942D01*
X131699D01*
Y105773D01*
X131867D01*
Y105605D01*
X132036D01*
Y105436D01*
X132205D01*
Y105267D01*
X132374D01*
Y105098D01*
X132543D01*
Y104929D01*
X132711D01*
Y104761D01*
X132880D01*
Y104592D01*
X133049D01*
Y104423D01*
X133218D01*
Y104254D01*
X133387D01*
Y104085D01*
X133555D01*
Y103917D01*
X133724D01*
Y103748D01*
X133893D01*
Y103579D01*
X134062D01*
Y103410D01*
X134231D01*
Y103241D01*
X134400D01*
Y103072D01*
X134568D01*
Y102903D01*
X134737D01*
Y102735D01*
X134906D01*
Y102566D01*
X135075D01*
Y102397D01*
X135244D01*
Y102228D01*
X135413D01*
Y102059D01*
X135581D01*
Y101891D01*
X135750D01*
Y101722D01*
X135919D01*
Y101553D01*
X136088D01*
Y101384D01*
X136257D01*
Y101215D01*
X136425D01*
Y101047D01*
X136594D01*
Y100878D01*
X136763D01*
Y100709D01*
X136932D01*
Y100540D01*
X137101D01*
Y100371D01*
X137269D01*
Y100202D01*
X137438D01*
Y100034D01*
X137607D01*
Y99865D01*
X137776D01*
Y99696D01*
X137945D01*
Y99527D01*
X138114D01*
Y99358D01*
X138282D01*
Y99190D01*
X138451D01*
Y99021D01*
X138620D01*
Y98852D01*
X138789D01*
Y98683D01*
X138958D01*
Y98514D01*
X139127D01*
Y98346D01*
X139295D01*
Y98177D01*
X139464D01*
Y98008D01*
X139633D01*
Y97839D01*
X139802D01*
Y97670D01*
X139971D01*
Y97501D01*
X140139D01*
Y97333D01*
X140308D01*
Y97164D01*
X140477D01*
Y96995D01*
X140646D01*
Y96826D01*
X140815D01*
Y96657D01*
X140983D01*
Y96488D01*
X141152D01*
Y96320D01*
X141321D01*
Y96151D01*
X141490D01*
Y95982D01*
X141659D01*
Y95813D01*
X141828D01*
Y95644D01*
X141996D01*
Y95476D01*
X142165D01*
Y95307D01*
X142334D01*
Y95138D01*
X142503D01*
Y94969D01*
X142672D01*
Y94800D01*
X142841D01*
Y94631D01*
X143009D01*
Y94463D01*
X143178D01*
Y94294D01*
X143347D01*
Y94125D01*
X143516D01*
Y93956D01*
X143685D01*
Y93787D01*
X143853D01*
Y93619D01*
X144022D01*
Y93450D01*
X144191D01*
Y93281D01*
X144360D01*
Y93112D01*
X144529D01*
Y92943D01*
X144697D01*
Y92774D01*
X144866D01*
Y92606D01*
X145035D01*
Y92437D01*
X145204D01*
Y92268D01*
X145373D01*
Y92099D01*
X145542D01*
Y91930D01*
X145710D01*
Y91762D01*
X145879D01*
Y91593D01*
X146048D01*
Y91424D01*
X146217D01*
Y91255D01*
X146386D01*
Y91086D01*
X146555D01*
Y90917D01*
X146723D01*
Y90749D01*
X146892D01*
Y90580D01*
X147061D01*
Y90411D01*
X147230D01*
Y90242D01*
X147399D01*
Y90073D01*
X147567D01*
Y89736D01*
X147399D01*
Y89567D01*
X147230D01*
Y89398D01*
X147061D01*
Y89229D01*
X146892D01*
Y89060D01*
X146723D01*
Y88892D01*
X146555D01*
Y88723D01*
X146386D01*
Y88554D01*
X146217D01*
Y88385D01*
X146048D01*
Y88216D01*
X145879D01*
Y88048D01*
X145710D01*
Y87879D01*
X145542D01*
Y87710D01*
X145373D01*
Y87541D01*
X145204D01*
Y87372D01*
X145035D01*
Y87204D01*
X144866D01*
Y87035D01*
X144697D01*
Y86866D01*
X144529D01*
Y86697D01*
X144360D01*
Y86528D01*
X144191D01*
Y86359D01*
X144022D01*
Y86191D01*
X143853D01*
Y86022D01*
X143685D01*
Y85853D01*
X143516D01*
Y85684D01*
X143347D01*
Y85515D01*
X143178D01*
Y85347D01*
X143009D01*
Y85178D01*
X142841D01*
Y85009D01*
X142672D01*
Y84840D01*
X142503D01*
Y84671D01*
X142334D01*
Y84502D01*
X142165D01*
Y84334D01*
X141996D01*
Y84165D01*
X141828D01*
Y83996D01*
X141659D01*
Y83827D01*
X141490D01*
Y83658D01*
X141321D01*
Y83490D01*
X141152D01*
Y83321D01*
X140983D01*
Y83152D01*
X140815D01*
Y82983D01*
X140646D01*
Y82814D01*
X140477D01*
Y82645D01*
X140308D01*
Y82477D01*
X140139D01*
Y82308D01*
X139971D01*
Y82139D01*
X139802D01*
Y81970D01*
X139633D01*
Y81801D01*
X139464D01*
Y81633D01*
X139295D01*
Y81464D01*
X139127D01*
Y81295D01*
X138958D01*
Y81126D01*
X138789D01*
Y80957D01*
X138620D01*
Y80788D01*
X138451D01*
Y80620D01*
X138282D01*
Y80451D01*
X138114D01*
Y80282D01*
X137945D01*
Y80113D01*
X137776D01*
Y79944D01*
X137607D01*
Y79776D01*
X137438D01*
Y79607D01*
X137269D01*
Y79438D01*
X137101D01*
Y79269D01*
X136932D01*
Y79100D01*
X136763D01*
Y78931D01*
X136594D01*
Y78763D01*
X136425D01*
Y78594D01*
X136257D01*
Y78425D01*
X136088D01*
Y78256D01*
X135919D01*
Y78087D01*
X135750D01*
Y77918D01*
X135581D01*
Y77750D01*
X135413D01*
Y77581D01*
X135244D01*
Y77412D01*
X135075D01*
Y77243D01*
X134906D01*
Y77074D01*
X134737D01*
Y76906D01*
X134568D01*
Y76737D01*
X134400D01*
Y76568D01*
X134231D01*
Y76399D01*
X134062D01*
Y76230D01*
X133893D01*
Y76061D01*
X133724D01*
Y75893D01*
X133555D01*
Y75724D01*
X133387D01*
Y75555D01*
X133218D01*
Y75386D01*
X133049D01*
Y75217D01*
X132880D01*
Y75049D01*
X132711D01*
Y74880D01*
X132543D01*
Y74711D01*
X132374D01*
Y74542D01*
X132205D01*
Y74373D01*
X132036D01*
Y74204D01*
X131867D01*
Y74036D01*
X131699D01*
Y73867D01*
X131530D01*
Y73698D01*
X131361D01*
Y73529D01*
X131192D01*
Y73360D01*
X131023D01*
Y73192D01*
X130854D01*
Y73023D01*
X130686D01*
Y72854D01*
X130517D01*
Y72685D01*
X130348D01*
Y72516D01*
X130179D01*
Y72347D01*
X130010D01*
Y72179D01*
X129841D01*
Y72010D01*
X129673D01*
Y71841D01*
X129504D01*
Y71672D01*
X129335D01*
Y71503D01*
X129166D01*
Y71335D01*
X128997D01*
Y71166D01*
X128829D01*
Y70997D01*
X128660D01*
Y70828D01*
X128491D01*
Y70659D01*
X128322D01*
Y70490D01*
X128153D01*
Y70322D01*
X127984D01*
Y70153D01*
X127816D01*
Y69984D01*
X127647D01*
Y69815D01*
X127478D01*
Y69646D01*
X127309D01*
Y69478D01*
X127140D01*
Y69309D01*
X126972D01*
Y69140D01*
X126803D01*
Y68971D01*
X126634D01*
Y68802D01*
X126465D01*
Y68634D01*
X126296D01*
Y68465D01*
X126128D01*
Y68296D01*
X125959D01*
Y68127D01*
X125790D01*
Y67958D01*
X125621D01*
Y67789D01*
X125452D01*
Y67621D01*
X125283D01*
Y67452D01*
X125115D01*
Y67283D01*
X124946D01*
Y67114D01*
X124777D01*
Y66945D01*
X124608D01*
Y66777D01*
X124439D01*
Y66608D01*
X124270D01*
Y66439D01*
X124102D01*
Y66270D01*
X123933D01*
Y66101D01*
X123764D01*
Y65932D01*
X123595D01*
Y65764D01*
X123426D01*
Y65595D01*
X123258D01*
Y65426D01*
X123089D01*
Y65257D01*
X122920D01*
Y65088D01*
X122751D01*
Y64920D01*
X122582D01*
Y64751D01*
X122245D01*
Y64920D01*
X122076D01*
Y65088D01*
X121907D01*
Y65257D01*
X121738D01*
Y65426D01*
X121569D01*
Y65595D01*
X121401D01*
Y65764D01*
X121232D01*
Y65932D01*
X121063D01*
Y66101D01*
X120894D01*
Y66270D01*
X120725D01*
Y66439D01*
X120556D01*
Y66608D01*
X120388D01*
Y66777D01*
X120219D01*
Y66945D01*
X120050D01*
Y67114D01*
X119881D01*
Y67283D01*
X119712D01*
Y67452D01*
X119544D01*
Y67621D01*
X119375D01*
Y67789D01*
X119206D01*
Y67958D01*
X119037D01*
Y68127D01*
X118868D01*
Y68296D01*
X118700D01*
Y68465D01*
X118531D01*
Y68634D01*
X118362D01*
Y68802D01*
X118193D01*
Y68971D01*
X118024D01*
Y69140D01*
X117855D01*
Y69309D01*
X117687D01*
Y69478D01*
X117518D01*
Y69646D01*
X117349D01*
Y69815D01*
X117180D01*
Y69984D01*
X117011D01*
Y70153D01*
X116842D01*
Y70322D01*
X116674D01*
Y70490D01*
X116505D01*
Y70659D01*
X116336D01*
Y70828D01*
X116167D01*
Y70997D01*
X115998D01*
Y71166D01*
X115830D01*
Y71335D01*
X115661D01*
Y71503D01*
X115492D01*
Y71672D01*
X115323D01*
Y71841D01*
X115154D01*
Y72010D01*
X114986D01*
Y72179D01*
X114817D01*
Y72347D01*
X114648D01*
Y72516D01*
X114479D01*
Y72685D01*
X114310D01*
Y72854D01*
X114141D01*
Y73023D01*
X113973D01*
Y73192D01*
X113804D01*
Y73360D01*
X113635D01*
Y73529D01*
X113466D01*
Y73698D01*
X113297D01*
Y73867D01*
X113128D01*
Y74036D01*
X112960D01*
Y74204D01*
X112791D01*
Y74373D01*
X112622D01*
Y74542D01*
X112453D01*
Y74711D01*
X112284D01*
Y74880D01*
X112116D01*
Y75049D01*
X111947D01*
Y75217D01*
X111778D01*
Y75386D01*
X111609D01*
Y75555D01*
X111440D01*
Y75724D01*
X111272D01*
Y75893D01*
X111103D01*
Y76061D01*
X110934D01*
Y76230D01*
X110765D01*
Y76399D01*
X110596D01*
Y76568D01*
X110427D01*
Y76737D01*
X110259D01*
Y76906D01*
X110090D01*
Y77074D01*
X109921D01*
Y77243D01*
X109752D01*
Y77412D01*
X109583D01*
Y77581D01*
X109415D01*
Y77750D01*
X109246D01*
Y77918D01*
X109077D01*
Y78087D01*
X108908D01*
Y78256D01*
X108739D01*
Y78425D01*
X108571D01*
Y78594D01*
X108402D01*
Y78763D01*
X108233D01*
Y78931D01*
X108064D01*
Y79100D01*
X107895D01*
Y79269D01*
X107726D01*
Y79438D01*
X107558D01*
Y79607D01*
X107389D01*
Y79776D01*
X107220D01*
Y79944D01*
X107051D01*
Y80113D01*
X106882D01*
Y80282D01*
X106713D01*
Y80451D01*
X106545D01*
Y80620D01*
X106376D01*
Y80788D01*
X106207D01*
Y80957D01*
X106038D01*
Y81126D01*
X105869D01*
Y81295D01*
X105701D01*
Y81464D01*
X105532D01*
Y81633D01*
X105363D01*
Y81801D01*
X105194D01*
Y81970D01*
X105025D01*
Y82139D01*
X104857D01*
Y82308D01*
X104688D01*
Y82477D01*
X104519D01*
Y82645D01*
X104350D01*
Y82814D01*
X104181D01*
Y82983D01*
X104012D01*
Y83152D01*
X103844D01*
Y83321D01*
X103675D01*
Y83490D01*
X103506D01*
Y83658D01*
X103337D01*
Y83827D01*
X103168D01*
Y83996D01*
X102999D01*
Y84165D01*
X102831D01*
Y84334D01*
X102662D01*
Y84502D01*
X102493D01*
Y84671D01*
X102324D01*
Y84840D01*
X102155D01*
Y85009D01*
X101987D01*
Y85178D01*
X101818D01*
Y85347D01*
X101649D01*
Y85515D01*
X101480D01*
Y85684D01*
X101311D01*
Y85853D01*
X101143D01*
Y86022D01*
X100974D01*
Y86191D01*
X100805D01*
Y86359D01*
X100636D01*
Y86528D01*
X100467D01*
Y86697D01*
X100298D01*
Y86866D01*
X100130D01*
Y87035D01*
X99961D01*
Y87204D01*
X99792D01*
Y87372D01*
X99623D01*
Y87541D01*
X99454D01*
Y87710D01*
X99286D01*
Y87879D01*
X99117D01*
Y88048D01*
X98948D01*
Y88216D01*
X98779D01*
Y88385D01*
X98610D01*
Y88554D01*
X98441D01*
Y88723D01*
X98273D01*
Y88892D01*
X98104D01*
Y89060D01*
X97935D01*
Y89229D01*
X97766D01*
Y89398D01*
X97597D01*
Y89567D01*
X97429D01*
Y89736D01*
X97260D01*
Y90073D01*
X97429D01*
Y90242D01*
X97597D01*
Y90411D01*
X97766D01*
Y90580D01*
X97935D01*
Y90749D01*
X98104D01*
Y90917D01*
X98273D01*
Y91086D01*
X98441D01*
Y91255D01*
X98610D01*
Y91424D01*
X98779D01*
Y91593D01*
X98948D01*
Y91762D01*
X99117D01*
Y91930D01*
X99286D01*
Y92099D01*
X99454D01*
Y92268D01*
X99623D01*
Y92437D01*
X99792D01*
Y92606D01*
X99961D01*
Y92774D01*
X100130D01*
Y92943D01*
X100298D01*
Y93112D01*
X100467D01*
Y93281D01*
X100636D01*
Y93450D01*
X100805D01*
Y93619D01*
X100974D01*
Y93787D01*
X101143D01*
Y93956D01*
X101311D01*
Y94125D01*
X101480D01*
Y94294D01*
X101649D01*
Y94463D01*
X101818D01*
Y94631D01*
X101987D01*
Y94800D01*
X102155D01*
Y94969D01*
X102324D01*
Y95138D01*
X102493D01*
Y95307D01*
X102662D01*
Y95476D01*
X102831D01*
Y95644D01*
X102999D01*
Y95813D01*
X103168D01*
Y95982D01*
X103337D01*
Y96151D01*
X103506D01*
Y96320D01*
X103675D01*
Y96488D01*
X103844D01*
Y96657D01*
X104012D01*
Y96826D01*
X104181D01*
Y96995D01*
X104350D01*
Y97164D01*
X104519D01*
Y97333D01*
X104688D01*
Y97501D01*
X104857D01*
Y97670D01*
X105025D01*
Y97839D01*
X105194D01*
Y98008D01*
X105363D01*
Y98177D01*
X105532D01*
Y98346D01*
X105701D01*
Y98514D01*
X105869D01*
Y98683D01*
X106038D01*
Y98852D01*
X106207D01*
Y99021D01*
X106376D01*
Y99190D01*
X106545D01*
Y99358D01*
X106713D01*
Y99527D01*
X106882D01*
Y99696D01*
X107051D01*
Y99865D01*
X107220D01*
Y100034D01*
X107389D01*
Y100202D01*
X107558D01*
Y100371D01*
X107726D01*
Y100540D01*
X107895D01*
Y100709D01*
X108064D01*
Y100878D01*
X108233D01*
Y101047D01*
X108402D01*
Y101215D01*
X108571D01*
Y101384D01*
X108739D01*
Y101553D01*
X108908D01*
Y101722D01*
X109077D01*
Y101891D01*
X109246D01*
Y102059D01*
X109415D01*
Y102228D01*
X109583D01*
Y102397D01*
X109752D01*
Y102566D01*
X109921D01*
Y102735D01*
X110090D01*
Y102903D01*
X110259D01*
Y103072D01*
X110427D01*
Y103241D01*
X110596D01*
Y103410D01*
X110765D01*
Y103579D01*
X110934D01*
Y103748D01*
X111103D01*
Y103917D01*
X111272D01*
Y104085D01*
X111440D01*
Y104254D01*
X111609D01*
Y104423D01*
X111778D01*
Y104592D01*
X111947D01*
Y104761D01*
X112116D01*
Y104929D01*
X112284D01*
Y105098D01*
X112453D01*
Y105267D01*
X112622D01*
Y105436D01*
X112791D01*
Y105605D01*
X112960D01*
Y105773D01*
X113128D01*
Y105942D01*
X113297D01*
Y106111D01*
X113466D01*
Y106280D01*
X113635D01*
Y106449D01*
X113804D01*
Y106617D01*
X113973D01*
Y106786D01*
X114141D01*
Y106955D01*
X114310D01*
Y107124D01*
X114479D01*
Y107293D01*
X114648D01*
Y107462D01*
X114817D01*
Y107630D01*
X114986D01*
Y107799D01*
X115154D01*
Y107968D01*
X115323D01*
Y108137D01*
X115492D01*
Y108306D01*
X115661D01*
Y108475D01*
X115830D01*
Y108643D01*
X115998D01*
Y108812D01*
X116167D01*
Y108981D01*
X116336D01*
Y109150D01*
X116505D01*
Y109319D01*
X116674D01*
Y109487D01*
X116842D01*
Y109656D01*
X117011D01*
Y109825D01*
X117180D01*
Y109994D01*
X117349D01*
Y110163D01*
X117518D01*
Y110331D01*
X117687D01*
Y110500D01*
X117855D01*
Y110669D01*
X118024D01*
Y110838D01*
X118193D01*
Y111007D01*
X118362D01*
Y111176D01*
X118531D01*
Y111344D01*
X118700D01*
Y111513D01*
X118868D01*
Y111682D01*
X119037D01*
Y111851D01*
X119206D01*
Y112020D01*
X119375D01*
Y112188D01*
X119544D01*
Y112357D01*
X119712D01*
Y112526D01*
X119881D01*
Y112695D01*
X120050D01*
Y112864D01*
X120219D01*
Y113033D01*
X120388D01*
Y113201D01*
X120556D01*
Y113370D01*
X120725D01*
Y113539D01*
X120894D01*
Y113708D01*
X121063D01*
Y113877D01*
X121232D01*
Y114046D01*
X121401D01*
Y114214D01*
X121569D01*
Y114383D01*
X121738D01*
Y114552D01*
X121907D01*
Y114721D01*
X122076D01*
Y114890D01*
X122245D01*
Y115058D01*
X122582D01*
Y114890D01*
D02*
G37*
G36*
X120050Y59855D02*
X118868D01*
Y60530D01*
Y60699D01*
Y61037D01*
X120050D01*
Y59855D01*
D02*
G37*
G36*
X113804Y54790D02*
Y54622D01*
Y52089D01*
X112622D01*
Y57323D01*
X112453D01*
Y57491D01*
X110427D01*
Y57323D01*
X110259D01*
Y52089D01*
X109077D01*
Y56816D01*
X109246D01*
Y57491D01*
X109415D01*
Y57829D01*
X109583D01*
Y57998D01*
X109752D01*
Y58167D01*
X109921D01*
Y58336D01*
X110427D01*
Y58504D01*
X112284D01*
Y58336D01*
X112791D01*
Y58504D01*
X113804D01*
Y54790D01*
D02*
G37*
G36*
X130348Y60868D02*
X130179D01*
Y60024D01*
X130010D01*
Y59180D01*
X129841D01*
Y58504D01*
X129673D01*
Y57660D01*
X129504D01*
Y56816D01*
X129335D01*
Y55972D01*
X129166D01*
Y55128D01*
X128997D01*
Y54453D01*
X128829D01*
Y53609D01*
X128660D01*
Y52765D01*
X128491D01*
Y52089D01*
X126972D01*
Y52427D01*
X126803D01*
Y53271D01*
X126634D01*
Y54115D01*
X126465D01*
Y54790D01*
X126296D01*
Y55634D01*
X126128D01*
Y56310D01*
X125959D01*
Y57154D01*
X125790D01*
Y57829D01*
X125621D01*
Y58673D01*
X125452D01*
Y59348D01*
X125283D01*
Y60193D01*
X125115D01*
Y60868D01*
X124946D01*
Y61037D01*
X126128D01*
Y60193D01*
X126296D01*
Y59348D01*
X126465D01*
Y58504D01*
X126634D01*
Y57829D01*
X126803D01*
Y56985D01*
X126972D01*
Y56141D01*
X127140D01*
Y55297D01*
X127309D01*
Y54453D01*
X127478D01*
Y53777D01*
X127647D01*
Y53440D01*
X127816D01*
Y54115D01*
X127984D01*
Y55128D01*
X128153D01*
Y55466D01*
Y55634D01*
Y55972D01*
X128322D01*
Y56816D01*
X128491D01*
Y57660D01*
X128660D01*
Y58504D01*
X128829D01*
Y59348D01*
X128997D01*
Y60361D01*
X129166D01*
Y61037D01*
X130348D01*
Y60868D01*
D02*
G37*
G36*
X137945Y52089D02*
X134568D01*
Y52258D01*
X134062D01*
Y52427D01*
X133893D01*
Y52596D01*
X133724D01*
Y52765D01*
X133555D01*
Y53102D01*
X133387D01*
Y53946D01*
X133218D01*
Y54453D01*
Y54622D01*
Y59180D01*
X133387D01*
Y60024D01*
X133555D01*
Y60361D01*
X133724D01*
Y60530D01*
X133893D01*
Y60699D01*
X134231D01*
Y60868D01*
X134737D01*
Y61037D01*
X137945D01*
Y52089D01*
D02*
G37*
G36*
X121907Y57660D02*
X121738D01*
Y57491D01*
X120050D01*
Y52089D01*
X117180D01*
Y52934D01*
Y53102D01*
X119037D01*
Y58504D01*
X121907D01*
Y57660D01*
D02*
G37*
G36*
X108064Y48882D02*
X107389D01*
Y49220D01*
Y49388D01*
Y49557D01*
X108064D01*
Y48882D01*
D02*
G37*
G36*
X128322Y47531D02*
X127816D01*
Y44661D01*
X128322D01*
Y44155D01*
X126465D01*
Y44661D01*
X127140D01*
Y44830D01*
X127309D01*
Y47025D01*
X127140D01*
Y47363D01*
X126803D01*
Y47531D01*
X125959D01*
Y48038D01*
X126972D01*
Y47869D01*
X127309D01*
Y48038D01*
X128322D01*
Y47531D01*
D02*
G37*
G36*
X99454Y44155D02*
X98779D01*
Y47363D01*
X98441D01*
Y47531D01*
X97597D01*
Y47363D01*
X97429D01*
Y47194D01*
X97260D01*
Y44155D01*
X96584D01*
Y47025D01*
X96753D01*
Y47531D01*
X96922D01*
Y47700D01*
X97091D01*
Y47869D01*
X97260D01*
Y48038D01*
X98610D01*
Y47869D01*
X98779D01*
Y48038D01*
X99454D01*
Y44155D01*
D02*
G37*
G36*
X152801D02*
X152126D01*
Y46350D01*
X150606D01*
Y46518D01*
X150268D01*
Y46687D01*
X150100D01*
Y49051D01*
X150268D01*
Y49220D01*
X150437D01*
Y49388D01*
X150775D01*
Y49557D01*
X152801D01*
Y44155D01*
D02*
G37*
G36*
X146892Y49388D02*
X147230D01*
Y49220D01*
X147399D01*
Y49051D01*
X147567D01*
Y48713D01*
X147736D01*
Y44999D01*
X147567D01*
Y44661D01*
X147399D01*
Y44493D01*
X147230D01*
Y44324D01*
X146892D01*
Y44155D01*
X145373D01*
Y44661D01*
X146723D01*
Y44830D01*
X146892D01*
Y44999D01*
X147061D01*
Y48713D01*
X146892D01*
Y48882D01*
X146723D01*
Y49051D01*
X145373D01*
Y49557D01*
X146892D01*
Y49388D01*
D02*
G37*
G36*
X143009Y45843D02*
Y45674D01*
Y44155D01*
X140983D01*
Y44324D01*
X140646D01*
Y44493D01*
X140477D01*
Y44661D01*
X140308D01*
Y46687D01*
X140477D01*
Y46856D01*
X140646D01*
Y47194D01*
X140477D01*
Y47531D01*
X140308D01*
Y48713D01*
X140477D01*
Y49220D01*
X140646D01*
Y49388D01*
X140983D01*
Y49557D01*
X143009D01*
Y45843D01*
D02*
G37*
G36*
X132374Y47869D02*
X132711D01*
Y47700D01*
X132880D01*
Y47363D01*
X133049D01*
Y44830D01*
X132880D01*
Y44493D01*
X132711D01*
Y44324D01*
X132374D01*
Y44155D01*
X130854D01*
Y44661D01*
X132036D01*
Y44830D01*
X132374D01*
Y45168D01*
X132543D01*
Y46518D01*
Y46687D01*
Y47025D01*
X132374D01*
Y47363D01*
X132036D01*
Y47531D01*
X130854D01*
Y48038D01*
X132374D01*
Y47869D01*
D02*
G37*
G36*
X122920D02*
X123258D01*
Y47700D01*
X123426D01*
Y47363D01*
X123595D01*
Y45168D01*
Y44999D01*
X123426D01*
Y44493D01*
X123258D01*
Y44324D01*
X122920D01*
Y44155D01*
X121232D01*
Y44661D01*
X122582D01*
Y44830D01*
X122920D01*
Y45843D01*
X120894D01*
Y47194D01*
X121063D01*
Y47700D01*
X121232D01*
Y47869D01*
X121569D01*
Y48038D01*
X122920D01*
Y47869D01*
D02*
G37*
G36*
X118700Y47531D02*
X117349D01*
Y47363D01*
X117011D01*
Y47025D01*
X116842D01*
Y46687D01*
X117011D01*
Y46518D01*
X118531D01*
Y46350D01*
X118700D01*
Y46181D01*
X118868D01*
Y45674D01*
X119037D01*
Y44999D01*
X118868D01*
Y44493D01*
X118700D01*
Y44324D01*
X118362D01*
Y44155D01*
X117011D01*
Y44324D01*
X116505D01*
Y44155D01*
X115998D01*
Y44661D01*
X116167D01*
Y44830D01*
X116336D01*
Y47531D01*
X116505D01*
Y47700D01*
X116674D01*
Y47869D01*
X117011D01*
Y48038D01*
X118700D01*
Y47531D01*
D02*
G37*
G36*
X112960Y48882D02*
X113128D01*
Y48375D01*
Y48206D01*
Y48038D01*
X113804D01*
Y47531D01*
X113128D01*
Y44661D01*
X112960D01*
Y44324D01*
X112622D01*
Y44155D01*
X111440D01*
Y44661D01*
X112284D01*
Y44830D01*
X112453D01*
Y47531D01*
X111440D01*
Y48038D01*
X112453D01*
Y48882D01*
X112622D01*
Y49051D01*
X112960D01*
Y48882D01*
D02*
G37*
G36*
X109077Y47531D02*
X108064D01*
Y47025D01*
Y46856D01*
Y44155D01*
X106376D01*
Y44661D01*
X107389D01*
Y48038D01*
X109077D01*
Y47531D01*
D02*
G37*
G36*
X103506Y47869D02*
X103844D01*
Y47700D01*
X104012D01*
Y47531D01*
X104181D01*
Y47194D01*
X104350D01*
Y45168D01*
Y44999D01*
X104181D01*
Y44661D01*
X104012D01*
Y44493D01*
X103844D01*
Y44324D01*
X103506D01*
Y44155D01*
X102155D01*
Y44324D01*
X101818D01*
Y44493D01*
X101649D01*
Y44830D01*
X101480D01*
Y47363D01*
X101649D01*
Y47700D01*
X101818D01*
Y47869D01*
X102155D01*
Y48038D01*
X103506D01*
Y47869D01*
D02*
G37*
G36*
X93714D02*
X94052D01*
Y47700D01*
X94221D01*
Y47363D01*
X94390D01*
Y47194D01*
Y46518D01*
X94221D01*
Y46181D01*
X94052D01*
Y46012D01*
X93714D01*
Y45843D01*
X92702D01*
Y44830D01*
X92870D01*
Y44661D01*
X94221D01*
Y44155D01*
X92702D01*
Y44324D01*
X92364D01*
Y44493D01*
X92195D01*
Y44661D01*
X92026D01*
Y45843D01*
X92195D01*
Y46181D01*
X92364D01*
Y46350D01*
X93546D01*
Y46518D01*
X93714D01*
Y47363D01*
X93377D01*
Y47531D01*
X92195D01*
Y48038D01*
X93714D01*
Y47869D01*
D02*
G37*
G36*
X201248Y22592D02*
X201162D01*
Y22620D01*
X201248D01*
Y22592D01*
D02*
G37*
G36*
X201162Y22563D02*
X201276D01*
Y22535D01*
X201191D01*
Y22506D01*
X201248D01*
Y22478D01*
X201276D01*
Y22449D01*
X201248D01*
Y22421D01*
X201305D01*
Y22335D01*
X201362D01*
Y22307D01*
X201333D01*
Y22250D01*
X201391D01*
Y22221D01*
X201362D01*
Y22193D01*
X201419D01*
Y22164D01*
X201391D01*
Y22107D01*
X201419D01*
Y22021D01*
X201448D01*
Y21936D01*
X201419D01*
Y21907D01*
X201391D01*
Y21936D01*
X201362D01*
Y21907D01*
X201333D01*
Y21936D01*
X201305D01*
Y21907D01*
X201333D01*
Y21879D01*
X201362D01*
Y21850D01*
X201333D01*
Y21879D01*
X201248D01*
Y21907D01*
X201220D01*
Y21879D01*
X201248D01*
Y21850D01*
X201276D01*
Y21822D01*
X201248D01*
Y21850D01*
X201162D01*
Y21879D01*
X201134D01*
Y21850D01*
X201162D01*
Y21822D01*
X201077D01*
Y21850D01*
X201048D01*
Y21822D01*
X201077D01*
Y21793D01*
X201020D01*
Y21765D01*
X200963D01*
Y21736D01*
X200906D01*
Y21765D01*
X200849D01*
Y21736D01*
X200906D01*
Y21708D01*
X200820D01*
Y21736D01*
X200792D01*
Y21708D01*
X200820D01*
Y21679D01*
X200792D01*
Y21708D01*
X200735D01*
Y21679D01*
X200649D01*
Y21651D01*
X200678D01*
Y21622D01*
X200649D01*
Y21651D01*
X200621D01*
Y21594D01*
X200592D01*
Y21622D01*
X200564D01*
Y21565D01*
X200592D01*
Y21537D01*
X200564D01*
Y21565D01*
X200535D01*
Y21594D01*
X200506D01*
Y21537D01*
X200535D01*
Y21508D01*
X200506D01*
Y21537D01*
X200449D01*
Y21565D01*
X200421D01*
Y21537D01*
X200449D01*
Y21508D01*
X200478D01*
Y21480D01*
X200449D01*
Y21508D01*
X200392D01*
Y21537D01*
X200364D01*
Y21508D01*
X200392D01*
Y21480D01*
X200421D01*
Y21451D01*
X200392D01*
Y21480D01*
X200335D01*
Y21451D01*
X200364D01*
Y21423D01*
X200335D01*
Y21451D01*
X200307D01*
Y21480D01*
X200278D01*
Y21451D01*
X200307D01*
Y21423D01*
X200250D01*
Y21451D01*
X200221D01*
Y21423D01*
X200250D01*
Y21394D01*
X200193D01*
Y21337D01*
X200107D01*
Y21280D01*
X200079D01*
Y21337D01*
X200050D01*
Y21280D01*
X199965D01*
Y21223D01*
X199993D01*
Y21194D01*
X199965D01*
Y21166D01*
X199936D01*
Y21137D01*
X199908D01*
Y21194D01*
X199879D01*
Y21166D01*
X199851D01*
Y21137D01*
X199765D01*
Y21052D01*
X199736D01*
Y21023D01*
X199708D01*
Y20995D01*
X199679D01*
Y21023D01*
X199651D01*
Y20995D01*
X199679D01*
Y20966D01*
X199651D01*
Y20995D01*
X199594D01*
Y20966D01*
X199651D01*
Y20938D01*
X199594D01*
Y20909D01*
X199565D01*
Y20938D01*
X199537D01*
Y20909D01*
X199508D01*
Y20881D01*
X199480D01*
Y20852D01*
X199451D01*
Y20824D01*
X199423D01*
Y20795D01*
X199394D01*
Y20767D01*
X199366D01*
Y20738D01*
X199394D01*
Y20710D01*
X199366D01*
Y20738D01*
X199337D01*
Y20710D01*
X199366D01*
Y20681D01*
X199337D01*
Y20710D01*
X199309D01*
Y20681D01*
X199337D01*
Y20652D01*
X199309D01*
Y20681D01*
X199280D01*
Y20652D01*
X199309D01*
Y20624D01*
X199280D01*
Y20652D01*
X199252D01*
Y20624D01*
X199280D01*
Y20595D01*
X199252D01*
Y20567D01*
X199223D01*
Y20538D01*
X199195D01*
Y20510D01*
X199166D01*
Y20481D01*
X199109D01*
Y20453D01*
X199081D01*
Y20424D01*
X199138D01*
Y20396D01*
X199109D01*
Y20367D01*
X199081D01*
Y20424D01*
X199052D01*
Y20396D01*
X199023D01*
Y20367D01*
X198995D01*
Y20310D01*
X198967D01*
Y20196D01*
X198938D01*
Y20168D01*
X198909D01*
Y20139D01*
X198881D01*
Y20111D01*
X198852D01*
Y20139D01*
X198824D01*
Y20111D01*
X198852D01*
Y20082D01*
X198824D01*
Y20025D01*
X198795D01*
Y20054D01*
X198767D01*
Y20025D01*
X198795D01*
Y19997D01*
X198824D01*
Y19968D01*
X198795D01*
Y19997D01*
X198767D01*
Y19940D01*
X198795D01*
Y19911D01*
X198767D01*
Y19883D01*
X198738D01*
Y19911D01*
X198710D01*
Y19854D01*
X198738D01*
Y19826D01*
X198710D01*
Y19854D01*
X198653D01*
Y19826D01*
X198681D01*
Y19797D01*
X198710D01*
Y19769D01*
X198681D01*
Y19797D01*
X198624D01*
Y19769D01*
X198653D01*
Y19740D01*
X198624D01*
Y19683D01*
X198596D01*
Y19711D01*
X198567D01*
Y19683D01*
X198596D01*
Y19626D01*
X198567D01*
Y19654D01*
X198539D01*
Y19626D01*
X198567D01*
Y19569D01*
X198539D01*
Y19597D01*
X198510D01*
Y19569D01*
X198539D01*
Y19483D01*
X198510D01*
Y19540D01*
X198482D01*
Y19483D01*
X198510D01*
Y19426D01*
X198482D01*
Y19455D01*
X198453D01*
Y19426D01*
X198482D01*
Y19369D01*
X198453D01*
Y19312D01*
X198425D01*
Y19255D01*
X198396D01*
Y19284D01*
X198368D01*
Y19255D01*
X198396D01*
Y19170D01*
X198425D01*
Y19141D01*
X198396D01*
Y19170D01*
X198368D01*
Y19198D01*
X198339D01*
Y19170D01*
X198368D01*
Y19084D01*
X198396D01*
Y19056D01*
X198368D01*
Y19084D01*
X198339D01*
Y19113D01*
X198310D01*
Y19084D01*
X198339D01*
Y19056D01*
X198310D01*
Y19027D01*
X198339D01*
Y18999D01*
X198368D01*
Y18970D01*
X198339D01*
Y18999D01*
X198310D01*
Y18970D01*
X198282D01*
Y18941D01*
X198310D01*
Y18913D01*
X198282D01*
Y18884D01*
X198254D01*
Y18799D01*
X198225D01*
Y18685D01*
X198196D01*
Y18628D01*
X198225D01*
Y18599D01*
X198196D01*
Y18571D01*
X198168D01*
Y18485D01*
X198196D01*
Y18285D01*
X198168D01*
Y18400D01*
X198139D01*
Y18285D01*
X198168D01*
Y18029D01*
X198139D01*
Y18171D01*
X198111D01*
Y18029D01*
X198139D01*
Y17744D01*
X197398D01*
Y17772D01*
X197369D01*
Y18200D01*
X197398D01*
Y18000D01*
X197426D01*
Y18200D01*
X197398D01*
Y18457D01*
X197426D01*
Y18342D01*
X197455D01*
Y18457D01*
X197426D01*
Y18628D01*
X197455D01*
Y18770D01*
X197484D01*
Y18884D01*
X197512D01*
Y18970D01*
X197484D01*
Y18999D01*
X197540D01*
Y19084D01*
X197569D01*
Y19170D01*
X197598D01*
Y19255D01*
X197569D01*
Y19284D01*
X197626D01*
Y19341D01*
X197598D01*
Y19369D01*
X197655D01*
Y19398D01*
X197626D01*
Y19426D01*
X197712D01*
Y19455D01*
X197683D01*
Y19483D01*
X197655D01*
Y19512D01*
X197740D01*
Y19540D01*
X197712D01*
Y19569D01*
X197769D01*
Y19597D01*
X197740D01*
Y19626D01*
X197797D01*
Y19654D01*
X197769D01*
Y19683D01*
X197826D01*
Y19740D01*
X197797D01*
Y19797D01*
X197826D01*
Y19854D01*
X197854D01*
Y19911D01*
X197883D01*
Y19968D01*
X197911D01*
Y20025D01*
X197940D01*
Y20082D01*
X197968D01*
Y20111D01*
X197940D01*
Y20139D01*
X197968D01*
Y20168D01*
X197997D01*
Y20139D01*
X198025D01*
Y20196D01*
X197997D01*
Y20225D01*
X198025D01*
Y20196D01*
X198054D01*
Y20253D01*
X198025D01*
Y20282D01*
X198054D01*
Y20310D01*
X198082D01*
Y20282D01*
X198139D01*
Y20310D01*
X198111D01*
Y20339D01*
X198168D01*
Y20367D01*
X198139D01*
Y20396D01*
X198168D01*
Y20367D01*
X198196D01*
Y20396D01*
X198168D01*
Y20424D01*
X198225D01*
Y20453D01*
X198196D01*
Y20481D01*
X198225D01*
Y20453D01*
X198254D01*
Y20481D01*
X198225D01*
Y20538D01*
X198254D01*
Y20510D01*
X198282D01*
Y20538D01*
X198254D01*
Y20567D01*
X198282D01*
Y20538D01*
X198310D01*
Y20567D01*
X198282D01*
Y20595D01*
X198310D01*
Y20652D01*
X198339D01*
Y20624D01*
X198368D01*
Y20652D01*
X198339D01*
Y20681D01*
X198368D01*
Y20710D01*
X198396D01*
Y20767D01*
X198425D01*
Y20795D01*
X198453D01*
Y20824D01*
X198482D01*
Y20852D01*
X198567D01*
Y20909D01*
X198539D01*
Y20881D01*
X198482D01*
Y20909D01*
X198510D01*
Y20938D01*
X198539D01*
Y20966D01*
X198567D01*
Y20995D01*
X198624D01*
Y21023D01*
X198653D01*
Y21052D01*
X198681D01*
Y21109D01*
X198710D01*
Y21137D01*
X198738D01*
Y21166D01*
X198767D01*
Y21194D01*
X198795D01*
Y21223D01*
X198824D01*
Y21251D01*
X198852D01*
Y21194D01*
X198881D01*
Y21223D01*
X198909D01*
Y21251D01*
X198938D01*
Y21280D01*
X198967D01*
Y21308D01*
X198995D01*
Y21337D01*
X198938D01*
Y21308D01*
X198909D01*
Y21280D01*
X198881D01*
Y21251D01*
X198852D01*
Y21308D01*
X198881D01*
Y21337D01*
X198909D01*
Y21365D01*
X198967D01*
Y21394D01*
X198995D01*
Y21423D01*
X199052D01*
Y21451D01*
X199081D01*
Y21480D01*
X199109D01*
Y21508D01*
X199138D01*
Y21537D01*
X199195D01*
Y21565D01*
X199223D01*
Y21594D01*
X199252D01*
Y21622D01*
X199280D01*
Y21594D01*
X199337D01*
Y21622D01*
X199280D01*
Y21651D01*
X199337D01*
Y21679D01*
X199366D01*
Y21651D01*
X199394D01*
Y21679D01*
X199366D01*
Y21736D01*
X199451D01*
Y21765D01*
X199480D01*
Y21736D01*
X199508D01*
Y21765D01*
X199480D01*
Y21793D01*
X199508D01*
Y21765D01*
X199537D01*
Y21793D01*
X199508D01*
Y21822D01*
X199565D01*
Y21793D01*
X199594D01*
Y21822D01*
X199565D01*
Y21850D01*
X199594D01*
Y21907D01*
X199622D01*
Y21936D01*
X199651D01*
Y21907D01*
X199679D01*
Y21964D01*
X199708D01*
Y21936D01*
X199736D01*
Y21907D01*
X199765D01*
Y21936D01*
X199736D01*
Y21964D01*
X199794D01*
Y21936D01*
X199822D01*
Y21964D01*
X199794D01*
Y21993D01*
X199851D01*
Y21964D01*
X199879D01*
Y21993D01*
X199851D01*
Y22021D01*
X199879D01*
Y21993D01*
X199908D01*
Y22021D01*
X199879D01*
Y22050D01*
X199936D01*
Y22021D01*
X199965D01*
Y22050D01*
X199936D01*
Y22079D01*
X199993D01*
Y22050D01*
X200022D01*
Y22079D01*
X199993D01*
Y22107D01*
X200022D01*
Y22164D01*
X200079D01*
Y22193D01*
X200136D01*
Y22221D01*
X200193D01*
Y22250D01*
X200250D01*
Y22278D01*
X200335D01*
Y22307D01*
X200392D01*
Y22335D01*
X200478D01*
Y22364D01*
X200506D01*
Y22392D01*
X200564D01*
Y22421D01*
X200678D01*
Y22449D01*
X200763D01*
Y22478D01*
X200820D01*
Y22506D01*
X200906D01*
Y22535D01*
X200963D01*
Y22563D01*
X201048D01*
Y22592D01*
X201162D01*
Y22563D01*
D02*
G37*
G36*
X201590Y21537D02*
X201533D01*
Y21508D01*
X201647D01*
Y21480D01*
X201619D01*
Y21451D01*
X201590D01*
Y21423D01*
X201676D01*
Y21394D01*
X201647D01*
Y21337D01*
X201704D01*
Y21308D01*
X201647D01*
Y21280D01*
X201704D01*
Y21251D01*
X201647D01*
Y21223D01*
X201704D01*
Y21194D01*
X201733D01*
Y21166D01*
X201676D01*
Y21137D01*
X201790D01*
Y21109D01*
X201761D01*
Y21052D01*
X201818D01*
Y21023D01*
X201790D01*
Y20966D01*
X201847D01*
Y20938D01*
X201818D01*
Y20881D01*
X201847D01*
Y20824D01*
X201875D01*
Y20738D01*
X201904D01*
Y20652D01*
X201932D01*
Y20567D01*
X201961D01*
Y20510D01*
X201904D01*
Y20481D01*
X201818D01*
Y20453D01*
X201761D01*
Y20481D01*
X201733D01*
Y20453D01*
X201704D01*
Y20481D01*
X201676D01*
Y20453D01*
X201619D01*
Y20424D01*
X201562D01*
Y20396D01*
X201505D01*
Y20339D01*
X201476D01*
Y20367D01*
X201448D01*
Y20339D01*
X201419D01*
Y20310D01*
X201362D01*
Y20282D01*
X201391D01*
Y20253D01*
X201362D01*
Y20282D01*
X201305D01*
Y20253D01*
X201333D01*
Y20225D01*
X201305D01*
Y20196D01*
X201276D01*
Y20225D01*
X201220D01*
Y20253D01*
X201191D01*
Y20225D01*
X201220D01*
Y20196D01*
X201248D01*
Y20168D01*
X201220D01*
Y20196D01*
X201162D01*
Y20225D01*
X201134D01*
Y20196D01*
X201162D01*
Y20168D01*
X201134D01*
Y20196D01*
X201105D01*
Y20168D01*
X201134D01*
Y20139D01*
X201077D01*
Y20168D01*
X201048D01*
Y20139D01*
X201077D01*
Y20111D01*
X201020D01*
Y20082D01*
X200991D01*
Y20111D01*
X200963D01*
Y20082D01*
X200991D01*
Y20025D01*
X200963D01*
Y20082D01*
X200934D01*
Y20025D01*
X200906D01*
Y19997D01*
X200934D01*
Y19968D01*
X200906D01*
Y19940D01*
X200877D01*
Y20025D01*
X200849D01*
Y19997D01*
X200820D01*
Y19940D01*
X200849D01*
Y19911D01*
X200820D01*
Y19883D01*
X200792D01*
Y19854D01*
X200763D01*
Y19826D01*
X200735D01*
Y19911D01*
X200706D01*
Y19883D01*
X200678D01*
Y19854D01*
X200706D01*
Y19826D01*
X200649D01*
Y19797D01*
X200621D01*
Y19740D01*
X200592D01*
Y19711D01*
X200535D01*
Y19683D01*
X200506D01*
Y19654D01*
X200478D01*
Y19626D01*
X200421D01*
Y19597D01*
X200392D01*
Y19569D01*
X200449D01*
Y19597D01*
X200506D01*
Y19569D01*
X200478D01*
Y19540D01*
X200449D01*
Y19512D01*
X200421D01*
Y19483D01*
X200392D01*
Y19455D01*
X200364D01*
Y19483D01*
X200307D01*
Y19455D01*
X200335D01*
Y19426D01*
X200364D01*
Y19398D01*
X200335D01*
Y19426D01*
X200307D01*
Y19455D01*
X200278D01*
Y19426D01*
X200307D01*
Y19398D01*
X200278D01*
Y19312D01*
X200221D01*
Y19341D01*
X200193D01*
Y19312D01*
X200221D01*
Y19255D01*
X200193D01*
Y19284D01*
X200164D01*
Y19255D01*
X200193D01*
Y19227D01*
X200164D01*
Y19255D01*
X200136D01*
Y19227D01*
X200164D01*
Y19170D01*
X200136D01*
Y19198D01*
X200107D01*
Y19170D01*
X200136D01*
Y19141D01*
X200164D01*
Y19113D01*
X200136D01*
Y19141D01*
X200107D01*
Y19170D01*
X200079D01*
Y19141D01*
X200107D01*
Y19084D01*
X200136D01*
Y19056D01*
X200107D01*
Y19084D01*
X200079D01*
Y19113D01*
X200050D01*
Y19084D01*
X200079D01*
Y19027D01*
X200107D01*
Y18999D01*
X200079D01*
Y19027D01*
X200050D01*
Y18970D01*
X200079D01*
Y18941D01*
X200050D01*
Y18970D01*
X199993D01*
Y18941D01*
X200022D01*
Y18913D01*
X199965D01*
Y18884D01*
X199993D01*
Y18856D01*
X199936D01*
Y18799D01*
X199908D01*
Y18713D01*
X199879D01*
Y18656D01*
X199851D01*
Y18599D01*
X199879D01*
Y18571D01*
X199851D01*
Y18542D01*
X199879D01*
Y18485D01*
X199851D01*
Y18400D01*
X199822D01*
Y18457D01*
X199794D01*
Y18400D01*
X199822D01*
Y18257D01*
X199794D01*
Y18342D01*
X199765D01*
Y18257D01*
X199794D01*
Y18086D01*
X199765D01*
Y17772D01*
X199736D01*
Y17744D01*
X198596D01*
Y17772D01*
X198567D01*
Y17801D01*
X198596D01*
Y17772D01*
X198624D01*
Y17801D01*
X198596D01*
Y17943D01*
X198567D01*
Y17972D01*
X198596D01*
Y18057D01*
X198624D01*
Y18228D01*
X198596D01*
Y18285D01*
X198624D01*
Y18314D01*
X198653D01*
Y18428D01*
X198624D01*
Y18571D01*
X198653D01*
Y18485D01*
X198681D01*
Y18571D01*
X198653D01*
Y18685D01*
X198681D01*
Y18770D01*
X198710D01*
Y18742D01*
X198738D01*
Y18770D01*
X198710D01*
Y18884D01*
X198738D01*
Y18970D01*
X198767D01*
Y19027D01*
X198795D01*
Y19113D01*
X198824D01*
Y19198D01*
X198852D01*
Y19255D01*
X198881D01*
Y19284D01*
X198852D01*
Y19312D01*
X198909D01*
Y19341D01*
X198881D01*
Y19369D01*
X198938D01*
Y19398D01*
X198909D01*
Y19426D01*
X198938D01*
Y19398D01*
X198967D01*
Y19455D01*
X198938D01*
Y19483D01*
X198967D01*
Y19455D01*
X199023D01*
Y19483D01*
X198995D01*
Y19512D01*
X199052D01*
Y19540D01*
X199023D01*
Y19569D01*
X199081D01*
Y19597D01*
X199052D01*
Y19654D01*
X199081D01*
Y19626D01*
X199109D01*
Y19654D01*
X199081D01*
Y19711D01*
X199109D01*
Y19683D01*
X199138D01*
Y19711D01*
X199109D01*
Y19740D01*
X199138D01*
Y19711D01*
X199166D01*
Y19740D01*
X199138D01*
Y19797D01*
X199166D01*
Y19769D01*
X199195D01*
Y19797D01*
X199166D01*
Y19826D01*
X199195D01*
Y19883D01*
X199223D01*
Y19911D01*
X199252D01*
Y19968D01*
X199280D01*
Y19997D01*
X199366D01*
Y20054D01*
X199337D01*
Y20025D01*
X199309D01*
Y20082D01*
X199337D01*
Y20111D01*
X199366D01*
Y20139D01*
X199423D01*
Y20111D01*
X199451D01*
Y20139D01*
X199480D01*
Y20196D01*
X199451D01*
Y20225D01*
X199480D01*
Y20253D01*
X199508D01*
Y20282D01*
X199537D01*
Y20339D01*
X199594D01*
Y20310D01*
X199622D01*
Y20339D01*
X199594D01*
Y20367D01*
X199622D01*
Y20339D01*
X199651D01*
Y20367D01*
X199622D01*
Y20424D01*
X199679D01*
Y20396D01*
X199708D01*
Y20424D01*
X199679D01*
Y20510D01*
X199708D01*
Y20538D01*
X199736D01*
Y20567D01*
X199765D01*
Y20595D01*
X199794D01*
Y20624D01*
X199822D01*
Y20652D01*
X199908D01*
Y20681D01*
X199936D01*
Y20710D01*
X199965D01*
Y20738D01*
X199993D01*
Y20767D01*
X200050D01*
Y20795D01*
X200079D01*
Y20824D01*
X200107D01*
Y20852D01*
X200136D01*
Y20795D01*
X200164D01*
Y20824D01*
X200193D01*
Y20852D01*
X200136D01*
Y20881D01*
X200164D01*
Y20909D01*
X200193D01*
Y20938D01*
X200250D01*
Y20966D01*
X200307D01*
Y20938D01*
X200364D01*
Y20995D01*
X200335D01*
Y21023D01*
X200392D01*
Y21052D01*
X200449D01*
Y21109D01*
X200478D01*
Y21137D01*
X200506D01*
Y21109D01*
X200535D01*
Y21080D01*
X200564D01*
Y21109D01*
X200535D01*
Y21166D01*
X200592D01*
Y21194D01*
X200649D01*
Y21223D01*
X200735D01*
Y21251D01*
X200792D01*
Y21280D01*
X200849D01*
Y21308D01*
X200877D01*
Y21337D01*
X200934D01*
Y21365D01*
X200991D01*
Y21394D01*
X201048D01*
Y21423D01*
X201162D01*
Y21451D01*
X201220D01*
Y21394D01*
X201248D01*
Y21451D01*
X201220D01*
Y21480D01*
X201276D01*
Y21508D01*
X201333D01*
Y21537D01*
X201419D01*
Y21565D01*
X201533D01*
Y21594D01*
X201590D01*
Y21537D01*
D02*
G37*
G36*
X199822Y21080D02*
X199794D01*
Y21109D01*
X199822D01*
Y21080D01*
D02*
G37*
G36*
X200335Y20966D02*
X200307D01*
Y20995D01*
X200335D01*
Y20966D01*
D02*
G37*
G36*
X201704Y20396D02*
X201676D01*
Y20424D01*
X201704D01*
Y20396D01*
D02*
G37*
G36*
X201619Y20367D02*
X201590D01*
Y20396D01*
X201619D01*
Y20367D01*
D02*
G37*
G36*
X199052Y20310D02*
X199023D01*
Y20339D01*
X199052D01*
Y20310D01*
D02*
G37*
G36*
X199451Y20168D02*
X199394D01*
Y20196D01*
X199451D01*
Y20168D01*
D02*
G37*
G36*
X221553Y15719D02*
X222694D01*
Y17401D01*
X222837D01*
Y17373D01*
X222894D01*
Y17344D01*
X222865D01*
Y15633D01*
X222894D01*
Y15719D01*
X222922D01*
Y15747D01*
X222979D01*
Y15776D01*
X223036D01*
Y15804D01*
X223065D01*
Y15776D01*
X223093D01*
Y15833D01*
X223122D01*
Y15804D01*
X223150D01*
Y15833D01*
X223207D01*
Y15861D01*
X223264D01*
Y15890D01*
X223322D01*
Y15918D01*
X223378D01*
Y15947D01*
X223407D01*
Y15976D01*
X223464D01*
Y16004D01*
X223521D01*
Y16033D01*
X223578D01*
Y16061D01*
X223635D01*
Y16090D01*
X223692D01*
Y16118D01*
X223749D01*
Y16147D01*
X223778D01*
Y16175D01*
X223835D01*
Y16204D01*
X223863D01*
Y16232D01*
X223892D01*
Y16204D01*
X223920D01*
Y16232D01*
X223977D01*
Y16261D01*
X224035D01*
Y16289D01*
X224092D01*
Y16318D01*
X224149D01*
Y16346D01*
X224206D01*
Y16375D01*
X224234D01*
Y16403D01*
X224291D01*
Y16432D01*
X224348D01*
Y16460D01*
X224405D01*
Y16489D01*
X224462D01*
Y16517D01*
X224519D01*
Y16546D01*
X224576D01*
Y16574D01*
X224605D01*
Y16603D01*
X224662D01*
Y16631D01*
X224719D01*
Y16660D01*
X224833D01*
Y16689D01*
X224890D01*
Y16717D01*
X224947D01*
Y16746D01*
X225004D01*
Y16774D01*
X225061D01*
Y16803D01*
X225090D01*
Y16831D01*
X225147D01*
Y16860D01*
X225204D01*
Y16888D01*
X225261D01*
Y16917D01*
X225289D01*
Y16945D01*
X225346D01*
Y16974D01*
X225403D01*
Y17002D01*
X225460D01*
Y17031D01*
X225489D01*
Y17059D01*
X225517D01*
Y17031D01*
X225546D01*
Y17059D01*
X225603D01*
Y17088D01*
X225660D01*
Y17116D01*
X225717D01*
Y17145D01*
X225774D01*
Y17173D01*
X225831D01*
Y17202D01*
X225860D01*
Y17230D01*
X225917D01*
Y17259D01*
X225974D01*
Y17287D01*
X226031D01*
Y17316D01*
X226088D01*
Y17344D01*
X226145D01*
Y17373D01*
X226202D01*
Y17401D01*
X226230D01*
Y17373D01*
X226287D01*
Y15719D01*
X227571D01*
Y16033D01*
X227599D01*
Y16061D01*
X227571D01*
Y16403D01*
X232961D01*
Y15548D01*
X232989D01*
Y14977D01*
X227542D01*
Y15519D01*
X227571D01*
Y15548D01*
X226259D01*
Y15519D01*
X226287D01*
Y13837D01*
X226316D01*
Y13808D01*
X226287D01*
Y13837D01*
X226259D01*
Y13865D01*
X226230D01*
Y13837D01*
X226202D01*
Y13894D01*
X226173D01*
Y13865D01*
X226145D01*
Y13922D01*
X226088D01*
Y13951D01*
X226031D01*
Y13922D01*
X226002D01*
Y13951D01*
X225945D01*
Y13979D01*
X225888D01*
Y14008D01*
X225831D01*
Y14036D01*
X225774D01*
Y14065D01*
X225746D01*
Y14093D01*
X225689D01*
Y14122D01*
X225631D01*
Y14150D01*
X225574D01*
Y14179D01*
X225517D01*
Y14236D01*
X225489D01*
Y14207D01*
X225460D01*
Y14264D01*
X225432D01*
Y14236D01*
X225403D01*
Y14293D01*
X225375D01*
Y14264D01*
X225346D01*
Y14321D01*
X225289D01*
Y14350D01*
X225261D01*
Y14378D01*
X225204D01*
Y14407D01*
X225147D01*
Y14435D01*
X225118D01*
Y14407D01*
X225147D01*
Y14378D01*
X225204D01*
Y14350D01*
X225232D01*
Y14321D01*
X225204D01*
Y14350D01*
X225147D01*
Y14378D01*
X225090D01*
Y14407D01*
X225033D01*
Y14435D01*
X224976D01*
Y14464D01*
X224947D01*
Y14492D01*
X224890D01*
Y14521D01*
X224862D01*
Y14549D01*
X224804D01*
Y14578D01*
X224747D01*
Y14607D01*
X224690D01*
Y14635D01*
X224633D01*
Y14692D01*
X224605D01*
Y14664D01*
X224576D01*
Y14721D01*
X224548D01*
Y14692D01*
X224519D01*
Y14749D01*
X224491D01*
Y14721D01*
X224434D01*
Y14749D01*
X224377D01*
Y14778D01*
X224320D01*
Y14806D01*
X224263D01*
Y14835D01*
X224206D01*
Y14863D01*
X224149D01*
Y14892D01*
X224120D01*
Y14920D01*
X224063D01*
Y14949D01*
X224006D01*
Y14977D01*
X223949D01*
Y15006D01*
X223892D01*
Y15063D01*
X223863D01*
Y15034D01*
X223835D01*
Y15091D01*
X223806D01*
Y15063D01*
X223778D01*
Y15120D01*
X223749D01*
Y15091D01*
X223721D01*
Y15148D01*
X223692D01*
Y15120D01*
X223635D01*
Y15148D01*
X223578D01*
Y15177D01*
X223521D01*
Y15205D01*
X223464D01*
Y15234D01*
X223436D01*
Y15262D01*
X223378D01*
Y15291D01*
X223322D01*
Y15319D01*
X223293D01*
Y15348D01*
X223236D01*
Y15377D01*
X223179D01*
Y15405D01*
X223122D01*
Y15434D01*
X223065D01*
Y15491D01*
X223036D01*
Y15462D01*
X223008D01*
Y15519D01*
X222979D01*
Y15491D01*
X222951D01*
Y15548D01*
X222922D01*
Y15519D01*
X222894D01*
Y15576D01*
X222865D01*
Y13780D01*
X222894D01*
Y13751D01*
X222922D01*
Y13723D01*
X222894D01*
Y13694D01*
X222865D01*
Y13723D01*
X222837D01*
Y13751D01*
X222780D01*
Y13780D01*
X222751D01*
Y15548D01*
X221553D01*
Y11298D01*
X219529D01*
Y11327D01*
X219500D01*
Y15747D01*
Y15776D01*
Y17744D01*
X219529D01*
Y17772D01*
X219243D01*
Y17744D01*
X219101D01*
Y17715D01*
X219015D01*
Y17687D01*
X218901D01*
Y17658D01*
X218844D01*
Y17630D01*
X218787D01*
Y17601D01*
X218730D01*
Y17572D01*
X218702D01*
Y17544D01*
X218644D01*
Y17515D01*
X218616D01*
Y17487D01*
X218559D01*
Y17458D01*
X218530D01*
Y17430D01*
X218502D01*
Y17401D01*
X218473D01*
Y17373D01*
X218416D01*
Y17344D01*
X218388D01*
Y17316D01*
X218359D01*
Y17287D01*
X218331D01*
Y17259D01*
X218302D01*
Y17230D01*
X218274D01*
Y17202D01*
X218245D01*
Y17173D01*
X218217D01*
Y17116D01*
X218188D01*
Y17088D01*
X218160D01*
Y17059D01*
X218131D01*
Y17031D01*
X218103D01*
Y17002D01*
X218074D01*
Y16945D01*
X218045D01*
Y16917D01*
X218017D01*
Y16888D01*
X217988D01*
Y16860D01*
X217960D01*
Y16831D01*
X217931D01*
Y16803D01*
X217903D01*
Y16746D01*
X217874D01*
Y16717D01*
X217846D01*
Y16689D01*
X217817D01*
Y16660D01*
X217789D01*
Y16631D01*
X217760D01*
Y16603D01*
X217732D01*
Y16546D01*
X217675D01*
Y16517D01*
X217646D01*
Y16489D01*
X217618D01*
Y16432D01*
X217589D01*
Y16403D01*
X217561D01*
Y16346D01*
X217532D01*
Y16318D01*
X217504D01*
Y16289D01*
X217475D01*
Y16261D01*
X217447D01*
Y16232D01*
X217418D01*
Y16204D01*
X217390D01*
Y16175D01*
X217361D01*
Y16147D01*
X217333D01*
Y16118D01*
X217304D01*
Y16090D01*
X217276D01*
Y16061D01*
X217247D01*
Y16004D01*
X217218D01*
Y15976D01*
X217190D01*
Y15947D01*
X217161D01*
Y15918D01*
X217133D01*
Y15890D01*
X217104D01*
Y15833D01*
X217076D01*
Y15804D01*
X217047D01*
Y15776D01*
X217019D01*
Y15747D01*
X216990D01*
Y15719D01*
X216962D01*
Y15690D01*
X216933D01*
Y15633D01*
X216905D01*
Y15605D01*
X216876D01*
Y15576D01*
X216848D01*
Y15548D01*
X216819D01*
Y15519D01*
X216791D01*
Y15491D01*
X216762D01*
Y15434D01*
X216734D01*
Y15405D01*
X216705D01*
Y15377D01*
X216677D01*
Y15348D01*
X216648D01*
Y15319D01*
X216620D01*
Y15262D01*
X216591D01*
Y15234D01*
X216563D01*
Y15205D01*
X216534D01*
Y15177D01*
X216506D01*
Y15148D01*
X216477D01*
Y15120D01*
X216448D01*
Y15063D01*
X216420D01*
Y15034D01*
X216391D01*
Y15006D01*
X216363D01*
Y14977D01*
X216334D01*
Y14949D01*
X216306D01*
Y14892D01*
X216277D01*
Y14863D01*
X216249D01*
Y14835D01*
X216220D01*
Y14806D01*
X216192D01*
Y14778D01*
X216163D01*
Y14749D01*
X216135D01*
Y14692D01*
X216106D01*
Y14664D01*
X216078D01*
Y14635D01*
X216049D01*
Y14607D01*
X216021D01*
Y14578D01*
X215992D01*
Y14549D01*
X215964D01*
Y14492D01*
X215935D01*
Y14464D01*
X215907D01*
Y14435D01*
X215878D01*
Y14407D01*
X215850D01*
Y14378D01*
X215821D01*
Y14321D01*
X215792D01*
Y14293D01*
X215764D01*
Y14264D01*
X215736D01*
Y14236D01*
X215707D01*
Y14207D01*
X215679D01*
Y14179D01*
X215650D01*
Y14122D01*
X215621D01*
Y14093D01*
X215593D01*
Y14065D01*
X215564D01*
Y14036D01*
X215536D01*
Y14008D01*
X215507D01*
Y13951D01*
X215479D01*
Y13922D01*
X215450D01*
Y13894D01*
X215422D01*
Y13865D01*
X215393D01*
Y13837D01*
X215365D01*
Y13808D01*
X215336D01*
Y13751D01*
X215308D01*
Y13723D01*
X215251D01*
Y13694D01*
X215222D01*
Y13666D01*
X215194D01*
Y13637D01*
X215165D01*
Y13580D01*
X215137D01*
Y13551D01*
X215108D01*
Y13523D01*
X215080D01*
Y13494D01*
X215051D01*
Y13466D01*
X215022D01*
Y13409D01*
X214994D01*
Y13380D01*
X214966D01*
Y13352D01*
X214937D01*
Y13323D01*
X214909D01*
Y13295D01*
X214880D01*
Y13266D01*
X214851D01*
Y13209D01*
X214823D01*
Y13181D01*
X214794D01*
Y13152D01*
X214766D01*
Y13124D01*
X214737D01*
Y13095D01*
X214709D01*
Y13067D01*
X214680D01*
Y13010D01*
X214652D01*
Y12981D01*
X214623D01*
Y12953D01*
X214595D01*
Y12924D01*
X214566D01*
Y12895D01*
X214538D01*
Y12838D01*
X214509D01*
Y12810D01*
X214481D01*
Y12781D01*
X214452D01*
Y12753D01*
X214424D01*
Y12724D01*
X214395D01*
Y12696D01*
X214367D01*
Y12639D01*
X214338D01*
Y12610D01*
X214310D01*
Y12582D01*
X214281D01*
Y12553D01*
X214252D01*
Y12525D01*
X214224D01*
Y12468D01*
X214195D01*
Y12439D01*
X214167D01*
Y12411D01*
X214139D01*
Y12382D01*
X214110D01*
Y12354D01*
X214081D01*
Y12325D01*
X214053D01*
Y12297D01*
X214024D01*
Y12268D01*
X213996D01*
Y12240D01*
X213967D01*
Y12211D01*
X213939D01*
Y12183D01*
X213910D01*
Y12154D01*
X213882D01*
Y12125D01*
X213853D01*
Y12097D01*
X213825D01*
Y12068D01*
X213796D01*
Y12040D01*
X213768D01*
Y12011D01*
X213739D01*
Y11983D01*
X213682D01*
Y11954D01*
X213654D01*
Y11926D01*
X213625D01*
Y11897D01*
X213568D01*
Y11869D01*
X213540D01*
Y11840D01*
X213511D01*
Y11812D01*
X213454D01*
Y11755D01*
X213397D01*
Y11726D01*
X213340D01*
Y11698D01*
X213311D01*
Y11669D01*
X213254D01*
Y11641D01*
X213197D01*
Y11612D01*
X213140D01*
Y11584D01*
X213083D01*
Y11555D01*
X213055D01*
Y11584D01*
X213026D01*
Y11555D01*
X212969D01*
Y11527D01*
X212884D01*
Y11498D01*
X212827D01*
Y11469D01*
X212713D01*
Y11441D01*
X212655D01*
Y11412D01*
X212541D01*
Y11384D01*
X212399D01*
Y11355D01*
X212228D01*
Y11327D01*
X211943D01*
Y11298D01*
X209490D01*
Y19797D01*
X211515D01*
Y13323D01*
X211828D01*
Y13352D01*
X211943D01*
Y13380D01*
X212028D01*
Y13409D01*
X212114D01*
Y13437D01*
X212199D01*
Y13466D01*
X212256D01*
Y13494D01*
X212285D01*
Y13523D01*
X212342D01*
Y13551D01*
X212370D01*
Y13580D01*
X212427D01*
Y13608D01*
X212456D01*
Y13637D01*
X212484D01*
Y13666D01*
X212541D01*
Y13723D01*
X212570D01*
Y13751D01*
X212598D01*
Y13780D01*
X212627D01*
Y13808D01*
X212684D01*
Y13837D01*
X212713D01*
Y13865D01*
X212741D01*
Y13894D01*
X212770D01*
Y13922D01*
X212798D01*
Y13951D01*
X212827D01*
Y13979D01*
X212855D01*
Y14008D01*
X212884D01*
Y14036D01*
X212912D01*
Y14093D01*
X212941D01*
Y14122D01*
X212969D01*
Y14150D01*
X212998D01*
Y14179D01*
X213026D01*
Y14207D01*
X213055D01*
Y14236D01*
X213083D01*
Y14264D01*
X213112D01*
Y14321D01*
X213140D01*
Y14350D01*
X213169D01*
Y14378D01*
X213197D01*
Y14407D01*
X213226D01*
Y14435D01*
X213254D01*
Y14464D01*
X213283D01*
Y14521D01*
X213311D01*
Y14549D01*
X213340D01*
Y14578D01*
X213368D01*
Y14607D01*
X213397D01*
Y14635D01*
X213425D01*
Y14664D01*
X213454D01*
Y14721D01*
X213482D01*
Y14749D01*
X213511D01*
Y14778D01*
X213540D01*
Y14806D01*
X213568D01*
Y14835D01*
X213597D01*
Y14863D01*
X213625D01*
Y14920D01*
X213654D01*
Y14949D01*
X213682D01*
Y14977D01*
X213711D01*
Y15006D01*
X213739D01*
Y15034D01*
X213768D01*
Y15063D01*
X213796D01*
Y15091D01*
X213825D01*
Y15148D01*
X213853D01*
Y15177D01*
X213882D01*
Y15205D01*
X213910D01*
Y15234D01*
X213939D01*
Y15262D01*
X213967D01*
Y15319D01*
X213996D01*
Y15348D01*
X214024D01*
Y15377D01*
X214081D01*
Y15405D01*
X214110D01*
Y15434D01*
X214139D01*
Y15462D01*
X214167D01*
Y15519D01*
X214195D01*
Y15548D01*
X214224D01*
Y15576D01*
X214252D01*
Y15605D01*
X214281D01*
Y15662D01*
X214310D01*
Y15690D01*
X214338D01*
Y15719D01*
X214367D01*
Y15747D01*
X214395D01*
Y15776D01*
X214424D01*
Y15804D01*
X214452D01*
Y15833D01*
X214481D01*
Y15861D01*
X214509D01*
Y15918D01*
X214538D01*
Y15947D01*
X214566D01*
Y15976D01*
X214595D01*
Y16004D01*
X214623D01*
Y16033D01*
X214652D01*
Y16061D01*
X214680D01*
Y16118D01*
X214709D01*
Y16147D01*
X214737D01*
Y16175D01*
X214766D01*
Y16204D01*
X214794D01*
Y16232D01*
X214823D01*
Y16261D01*
X214851D01*
Y16318D01*
X214880D01*
Y16346D01*
X214909D01*
Y16375D01*
X214937D01*
Y16403D01*
X214966D01*
Y16432D01*
X214994D01*
Y16460D01*
X215022D01*
Y16489D01*
X215051D01*
Y16546D01*
X215080D01*
Y16574D01*
X215108D01*
Y16603D01*
X215137D01*
Y16631D01*
X215165D01*
Y16660D01*
X215194D01*
Y16717D01*
X215222D01*
Y16746D01*
X215251D01*
Y16774D01*
X215279D01*
Y16803D01*
X215308D01*
Y16831D01*
X215336D01*
Y16860D01*
X215365D01*
Y16888D01*
X215393D01*
Y16945D01*
X215422D01*
Y16974D01*
X215450D01*
Y17002D01*
X215479D01*
Y17031D01*
X215507D01*
Y17059D01*
X215536D01*
Y17116D01*
X215564D01*
Y17145D01*
X215593D01*
Y17173D01*
X215621D01*
Y17202D01*
X215650D01*
Y17230D01*
X215679D01*
Y17259D01*
X215707D01*
Y17287D01*
X215736D01*
Y17344D01*
X215764D01*
Y17373D01*
X215792D01*
Y17401D01*
X215821D01*
Y17430D01*
X215850D01*
Y17458D01*
X215878D01*
Y17487D01*
X215907D01*
Y17544D01*
X215935D01*
Y17572D01*
X215964D01*
Y17601D01*
X215992D01*
Y17630D01*
X216021D01*
Y17658D01*
X216049D01*
Y17687D01*
X216078D01*
Y17744D01*
X216106D01*
Y17772D01*
X216135D01*
Y17801D01*
X216163D01*
Y17829D01*
X216192D01*
Y17858D01*
X216220D01*
Y17886D01*
X216249D01*
Y17915D01*
X216277D01*
Y17972D01*
X216306D01*
Y18000D01*
X216334D01*
Y18029D01*
X216363D01*
Y18057D01*
X216391D01*
Y18086D01*
X216420D01*
Y18143D01*
X216448D01*
Y18171D01*
X216477D01*
Y18200D01*
X216506D01*
Y18228D01*
X216563D01*
Y18257D01*
X216591D01*
Y18285D01*
X216620D01*
Y18342D01*
X216648D01*
Y18371D01*
X216677D01*
Y18400D01*
X216705D01*
Y18428D01*
X216734D01*
Y18457D01*
X216762D01*
Y18514D01*
X216791D01*
Y18542D01*
X216819D01*
Y18571D01*
X216848D01*
Y18599D01*
X216876D01*
Y18628D01*
X216905D01*
Y18656D01*
X216933D01*
Y18685D01*
X216962D01*
Y18713D01*
X216990D01*
Y18742D01*
X217019D01*
Y18770D01*
X217047D01*
Y18827D01*
X217076D01*
Y18856D01*
X217133D01*
Y18884D01*
X217161D01*
Y18913D01*
X217190D01*
Y18941D01*
X217218D01*
Y18970D01*
X217247D01*
Y18999D01*
X217276D01*
Y19027D01*
X217304D01*
Y19056D01*
X217333D01*
Y19113D01*
X217418D01*
Y19141D01*
X217447D01*
Y19198D01*
X217532D01*
Y19227D01*
X217561D01*
Y19255D01*
X217589D01*
Y19284D01*
X217618D01*
Y19312D01*
X217675D01*
Y19341D01*
X217703D01*
Y19369D01*
X217760D01*
Y19398D01*
X217789D01*
Y19426D01*
X217846D01*
Y19455D01*
X217903D01*
Y19483D01*
X217960D01*
Y19512D01*
X218017D01*
Y19540D01*
X218074D01*
Y19569D01*
X218103D01*
Y19540D01*
X218131D01*
Y19569D01*
X218188D01*
Y19597D01*
X218245D01*
Y19626D01*
X218331D01*
Y19654D01*
X218445D01*
Y19683D01*
X218559D01*
Y19711D01*
X218702D01*
Y19740D01*
X218844D01*
Y19769D01*
X219129D01*
Y19797D01*
X221553D01*
Y15719D01*
D02*
G37*
G36*
X199965Y18713D02*
X199936D01*
Y18742D01*
X199965D01*
Y18713D01*
D02*
G37*
G36*
X198282D02*
X198254D01*
Y18742D01*
X198282D01*
Y18713D01*
D02*
G37*
G36*
X199936Y18628D02*
X199908D01*
Y18656D01*
X199936D01*
Y18628D01*
D02*
G37*
G36*
X198567Y17744D02*
X198539D01*
Y17772D01*
X198567D01*
Y17744D01*
D02*
G37*
G36*
X226316Y17373D02*
X226287D01*
Y17401D01*
X226316D01*
Y17373D01*
D02*
G37*
G36*
X222922D02*
X222894D01*
Y17401D01*
X222922D01*
Y17373D01*
D02*
G37*
G36*
X223008Y15434D02*
X222979D01*
Y15462D01*
X223008D01*
Y15434D01*
D02*
G37*
G36*
X223065Y15405D02*
X223036D01*
Y15434D01*
X223065D01*
Y15405D01*
D02*
G37*
G36*
X223122Y15377D02*
X223093D01*
Y15405D01*
X223122D01*
Y15377D01*
D02*
G37*
G36*
X223179Y15348D02*
X223150D01*
Y15377D01*
X223179D01*
Y15348D01*
D02*
G37*
G36*
X223778Y15034D02*
X223749D01*
Y15063D01*
X223778D01*
Y15034D01*
D02*
G37*
G36*
X223835Y15006D02*
X223806D01*
Y15034D01*
X223835D01*
Y15006D01*
D02*
G37*
G36*
X223892Y14977D02*
X223863D01*
Y15006D01*
X223892D01*
Y14977D01*
D02*
G37*
G36*
X223949Y14949D02*
X223920D01*
Y14977D01*
X223949D01*
Y14949D01*
D02*
G37*
G36*
X227571Y14920D02*
X227542D01*
Y14949D01*
X227571D01*
Y14920D01*
D02*
G37*
G36*
X224006D02*
X223977D01*
Y14949D01*
X224006D01*
Y14920D01*
D02*
G37*
G36*
X224633Y14607D02*
X224605D01*
Y14635D01*
X224633D01*
Y14607D01*
D02*
G37*
G36*
X224690Y14578D02*
X224662D01*
Y14607D01*
X224690D01*
Y14578D01*
D02*
G37*
G36*
X224747Y14549D02*
X224719D01*
Y14578D01*
X224747D01*
Y14549D01*
D02*
G37*
G36*
X224804Y14521D02*
X224776D01*
Y14549D01*
X224804D01*
Y14521D01*
D02*
G37*
G36*
X224862Y14492D02*
X224833D01*
Y14521D01*
X224862D01*
Y14492D01*
D02*
G37*
G36*
X225460Y14179D02*
X225432D01*
Y14207D01*
X225460D01*
Y14179D01*
D02*
G37*
G36*
X225517Y14150D02*
X225489D01*
Y14179D01*
X225517D01*
Y14150D01*
D02*
G37*
G36*
X225574Y14122D02*
X225546D01*
Y14150D01*
X225574D01*
Y14122D01*
D02*
G37*
G36*
X225631Y14093D02*
X225603D01*
Y14122D01*
X225631D01*
Y14093D01*
D02*
G37*
G36*
X225689Y14065D02*
X225660D01*
Y14093D01*
X225689D01*
Y14065D01*
D02*
G37*
G36*
X226088Y13894D02*
X226059D01*
Y13922D01*
X226088D01*
Y13894D01*
D02*
G37*
G36*
X222723Y14464D02*
Y14435D01*
Y13780D01*
X222751D01*
Y13751D01*
X222780D01*
Y13723D01*
X222751D01*
Y13694D01*
X222723D01*
Y13723D01*
X222694D01*
Y13751D01*
X222723D01*
Y13780D01*
X222694D01*
Y15519D01*
X222723D01*
Y14464D01*
D02*
G37*
G36*
X193291Y19769D02*
X193605D01*
Y19740D01*
X193805D01*
Y19711D01*
X193947D01*
Y19683D01*
X194033D01*
Y19654D01*
X194147D01*
Y19626D01*
X194261D01*
Y19597D01*
X194375D01*
Y19569D01*
X194460D01*
Y19540D01*
X194518D01*
Y19512D01*
X194575D01*
Y19483D01*
X194632D01*
Y19455D01*
X194689D01*
Y19426D01*
X194717D01*
Y19398D01*
X194774D01*
Y19369D01*
X194803D01*
Y19341D01*
X194831D01*
Y19312D01*
X194860D01*
Y19284D01*
X194917D01*
Y19255D01*
X194945D01*
Y19227D01*
X194974D01*
Y19198D01*
X195002D01*
Y19170D01*
X195031D01*
Y19141D01*
X195059D01*
Y19113D01*
X195116D01*
Y19084D01*
X195145D01*
Y19056D01*
X195174D01*
Y18999D01*
X195202D01*
Y18941D01*
X195259D01*
Y18913D01*
X195230D01*
Y18884D01*
X195259D01*
Y18856D01*
X195288D01*
Y18799D01*
X195316D01*
Y18770D01*
X195345D01*
Y18713D01*
X195373D01*
Y18656D01*
X195402D01*
Y18571D01*
X195430D01*
Y18485D01*
X195459D01*
Y18400D01*
X195487D01*
Y18314D01*
X195516D01*
Y18171D01*
X195544D01*
Y17915D01*
X195573D01*
Y13181D01*
X195544D01*
Y12924D01*
X195516D01*
Y12810D01*
X195487D01*
Y12696D01*
X195459D01*
Y12610D01*
X195430D01*
Y12525D01*
X195402D01*
Y12439D01*
X195373D01*
Y12411D01*
X195345D01*
Y12354D01*
X195316D01*
Y12297D01*
X195288D01*
Y12240D01*
X195259D01*
Y12211D01*
X195230D01*
Y12154D01*
X195202D01*
Y12125D01*
X195174D01*
Y12097D01*
X195145D01*
Y12040D01*
X195116D01*
Y12011D01*
X195088D01*
Y11983D01*
X195059D01*
Y11954D01*
X195031D01*
Y11926D01*
X195002D01*
Y11897D01*
X194974D01*
Y11869D01*
X194945D01*
Y11840D01*
X194917D01*
Y11812D01*
X194860D01*
Y11783D01*
X194831D01*
Y11755D01*
X194803D01*
Y11726D01*
X194746D01*
Y11698D01*
X194689D01*
Y11669D01*
X194660D01*
Y11641D01*
X194603D01*
Y11612D01*
X194518D01*
Y11584D01*
X194460D01*
Y11555D01*
X194404D01*
Y11527D01*
X194346D01*
Y11498D01*
X194261D01*
Y11469D01*
X194175D01*
Y11441D01*
X194061D01*
Y11412D01*
X193947D01*
Y11384D01*
X193833D01*
Y11355D01*
X193633D01*
Y11327D01*
X193348D01*
Y11298D01*
X183310D01*
Y12867D01*
X183338D01*
Y13323D01*
X193177D01*
Y13352D01*
X193206D01*
Y13323D01*
X193263D01*
Y13352D01*
X193320D01*
Y13380D01*
X193348D01*
Y13409D01*
X193377D01*
Y13437D01*
X193405D01*
Y13494D01*
X193434D01*
Y17544D01*
X193405D01*
Y17601D01*
X193377D01*
Y17658D01*
X193348D01*
Y17687D01*
X193291D01*
Y17715D01*
X193263D01*
Y17744D01*
X193149D01*
Y17772D01*
X183338D01*
Y19483D01*
X183367D01*
Y19797D01*
X193291D01*
Y19769D01*
D02*
G37*
G36*
X233389Y19940D02*
X233759D01*
Y19911D01*
X233959D01*
Y19883D01*
X234102D01*
Y19854D01*
X234244D01*
Y19826D01*
X234330D01*
Y19797D01*
X234415D01*
Y19769D01*
X234501D01*
Y19740D01*
X234586D01*
Y19711D01*
X234643D01*
Y19683D01*
X234700D01*
Y19654D01*
X234786D01*
Y19626D01*
X234843D01*
Y19597D01*
X234900D01*
Y19569D01*
X234957D01*
Y19540D01*
X234986D01*
Y19512D01*
X235043D01*
Y19483D01*
X235071D01*
Y19455D01*
X235100D01*
Y19426D01*
X235157D01*
Y19369D01*
X235185D01*
Y19341D01*
X235214D01*
Y19312D01*
X235242D01*
Y19284D01*
X235271D01*
Y19255D01*
X235299D01*
Y19227D01*
X235328D01*
Y19198D01*
X235356D01*
Y19141D01*
X235413D01*
Y19113D01*
X235442D01*
Y19056D01*
X235471D01*
Y19027D01*
X235499D01*
Y18970D01*
X235527D01*
Y18913D01*
X235556D01*
Y18856D01*
X235585D01*
Y18799D01*
X235613D01*
Y18713D01*
X235642D01*
Y18685D01*
X235613D01*
Y18656D01*
X235642D01*
Y18571D01*
X235670D01*
Y18457D01*
X235699D01*
Y18342D01*
X235727D01*
Y18114D01*
X235756D01*
Y13295D01*
X235727D01*
Y13067D01*
X235699D01*
Y12924D01*
X235670D01*
Y12838D01*
X235642D01*
Y12753D01*
X235613D01*
Y12696D01*
X235585D01*
Y12610D01*
X235556D01*
Y12525D01*
X235527D01*
Y12468D01*
X235499D01*
Y12411D01*
X235471D01*
Y12382D01*
X235442D01*
Y12325D01*
X235413D01*
Y12297D01*
X235385D01*
Y12240D01*
X235356D01*
Y12211D01*
X235328D01*
Y12183D01*
X235299D01*
Y12154D01*
X235271D01*
Y12125D01*
X235242D01*
Y12097D01*
X235214D01*
Y12068D01*
X235185D01*
Y12040D01*
X235157D01*
Y12011D01*
X235128D01*
Y11983D01*
X235100D01*
Y11954D01*
X235043D01*
Y11926D01*
X235014D01*
Y11897D01*
X234957D01*
Y11869D01*
X234929D01*
Y11840D01*
X234872D01*
Y11812D01*
X234815D01*
Y11783D01*
X234757D01*
Y11755D01*
X234700D01*
Y11726D01*
X234643D01*
Y11698D01*
X234615D01*
Y11669D01*
X234529D01*
Y11641D01*
X234444D01*
Y11612D01*
X234358D01*
Y11584D01*
X234273D01*
Y11555D01*
X234216D01*
Y11584D01*
X234187D01*
Y11555D01*
X234045D01*
Y11527D01*
X233873D01*
Y11498D01*
X233617D01*
Y11469D01*
X223521D01*
Y13437D01*
X223550D01*
Y13466D01*
X233389D01*
Y13494D01*
X233446D01*
Y13523D01*
X233503D01*
Y13551D01*
X233531D01*
Y13580D01*
X233560D01*
Y13608D01*
X233588D01*
Y13637D01*
X233617D01*
Y13723D01*
X233645D01*
Y17687D01*
X233617D01*
Y17744D01*
X233588D01*
Y17801D01*
X233560D01*
Y17829D01*
X233531D01*
Y17858D01*
X233474D01*
Y17886D01*
X233417D01*
Y17915D01*
X233332D01*
Y17943D01*
X223550D01*
Y19911D01*
X223578D01*
Y19940D01*
X224120D01*
Y19968D01*
X233389D01*
Y19940D01*
D02*
G37*
G36*
X202075Y20139D02*
X202103D01*
Y20054D01*
X202132D01*
Y19968D01*
X202161D01*
Y19911D01*
X202189D01*
Y19854D01*
X202218D01*
Y19769D01*
X202246D01*
Y19683D01*
X202275D01*
Y19597D01*
X202303D01*
Y19569D01*
X207921D01*
Y19540D01*
X207950D01*
Y17544D01*
X202988D01*
Y17173D01*
X203016D01*
Y11441D01*
X202988D01*
Y11070D01*
X200906D01*
Y11099D01*
X200877D01*
Y17772D01*
X200193D01*
Y18086D01*
X200221D01*
Y18257D01*
X200250D01*
Y18371D01*
X200278D01*
Y18457D01*
X200307D01*
Y18542D01*
X200335D01*
Y18628D01*
X200364D01*
Y18713D01*
X200392D01*
Y18799D01*
X200421D01*
Y18856D01*
X200449D01*
Y18913D01*
X200478D01*
Y18970D01*
X200506D01*
Y19027D01*
X200564D01*
Y19084D01*
X200592D01*
Y19113D01*
X200621D01*
Y19170D01*
X200649D01*
Y19198D01*
X200678D01*
Y19227D01*
X200706D01*
Y19284D01*
X200735D01*
Y19312D01*
X200763D01*
Y19341D01*
X200792D01*
Y19369D01*
X200820D01*
Y19398D01*
X200849D01*
Y19426D01*
X200877D01*
Y19483D01*
X200906D01*
Y19512D01*
X200963D01*
Y19540D01*
X200991D01*
Y19569D01*
X201020D01*
Y19597D01*
X201048D01*
Y19626D01*
X201077D01*
Y19654D01*
X201105D01*
Y19683D01*
X201162D01*
Y19711D01*
X201191D01*
Y19740D01*
X201220D01*
Y19769D01*
X201276D01*
Y19826D01*
X201333D01*
Y19854D01*
X201362D01*
Y19883D01*
X201419D01*
Y19911D01*
X201476D01*
Y19940D01*
X201505D01*
Y19968D01*
X201562D01*
Y19997D01*
X201647D01*
Y20025D01*
X201733D01*
Y20054D01*
X201790D01*
Y20082D01*
X201875D01*
Y20111D01*
X201932D01*
Y20139D01*
X202018D01*
Y20168D01*
X202075D01*
Y20139D01*
D02*
G37*
G36*
X226173Y9160D02*
X225860D01*
Y9217D01*
Y9245D01*
Y9359D01*
X226173D01*
Y9160D01*
D02*
G37*
G36*
X204556Y9274D02*
Y9245D01*
Y9160D01*
X204242D01*
Y9302D01*
X204214D01*
Y9359D01*
X204556D01*
Y9274D01*
D02*
G37*
G36*
X200820Y9160D02*
X200506D01*
Y9188D01*
X200478D01*
Y9217D01*
X200506D01*
Y9331D01*
X200478D01*
Y9359D01*
X200820D01*
Y9160D01*
D02*
G37*
G36*
X191922D02*
X191637D01*
Y9188D01*
X191609D01*
Y9359D01*
X191922D01*
Y9160D01*
D02*
G37*
G36*
X186418Y9188D02*
X186390D01*
Y9160D01*
X186105D01*
Y9188D01*
X186076D01*
Y9331D01*
Y9359D01*
X186418D01*
Y9188D01*
D02*
G37*
G36*
X202817Y8817D02*
X202788D01*
Y8789D01*
X202731D01*
Y8817D01*
X202588D01*
Y8789D01*
X202218D01*
Y8817D01*
X202046D01*
Y8789D01*
X201961D01*
Y8760D01*
X201932D01*
Y8675D01*
X202702D01*
Y8646D01*
X202760D01*
Y8618D01*
X202788D01*
Y8561D01*
X202817D01*
Y8247D01*
X202788D01*
Y8190D01*
X202760D01*
Y8161D01*
X202702D01*
Y8133D01*
X201790D01*
Y8161D01*
X201733D01*
Y8190D01*
X201676D01*
Y8218D01*
X201647D01*
Y8275D01*
X201619D01*
Y8874D01*
X201647D01*
Y8931D01*
X201676D01*
Y8988D01*
X201733D01*
Y9017D01*
X201790D01*
Y9045D01*
X202817D01*
Y8817D01*
D02*
G37*
G36*
X207380Y8304D02*
X207351D01*
Y8247D01*
X207323D01*
Y8218D01*
X207294D01*
Y8190D01*
X207237D01*
Y8161D01*
X207180D01*
Y8133D01*
X206353D01*
Y8161D01*
X206267D01*
Y8190D01*
X206239D01*
Y8218D01*
X206210D01*
Y8247D01*
X206182D01*
Y8275D01*
X206153D01*
Y8332D01*
X206125D01*
Y9017D01*
X206467D01*
Y8389D01*
X207037D01*
Y8418D01*
X207066D01*
Y9017D01*
X207380D01*
Y8304D01*
D02*
G37*
G36*
X196485Y9331D02*
X196571D01*
Y9302D01*
X196628D01*
Y9274D01*
X196656D01*
Y9245D01*
X196685D01*
Y9188D01*
X196713D01*
Y8304D01*
X196685D01*
Y8275D01*
X196656D01*
Y8218D01*
X196628D01*
Y8190D01*
X196571D01*
Y8161D01*
X196485D01*
Y8133D01*
X194888D01*
Y8418D01*
X196314D01*
Y8389D01*
X196343D01*
Y8418D01*
X196371D01*
Y8589D01*
X194917D01*
Y8846D01*
X195487D01*
Y8874D01*
X196371D01*
Y9045D01*
X196343D01*
Y9074D01*
X194888D01*
Y9331D01*
X195059D01*
Y9359D01*
X196485D01*
Y9331D01*
D02*
G37*
G36*
X235385D02*
X235471D01*
Y9302D01*
X235527D01*
Y9274D01*
X235556D01*
Y9245D01*
X235585D01*
Y9188D01*
X235613D01*
Y8275D01*
X235556D01*
Y8218D01*
X235527D01*
Y8190D01*
X235471D01*
Y8161D01*
X235413D01*
Y8133D01*
X233788D01*
Y8332D01*
X233816D01*
Y8361D01*
X233788D01*
Y8389D01*
X233816D01*
Y8418D01*
X235299D01*
Y8589D01*
X233816D01*
Y8846D01*
X234045D01*
Y8874D01*
X235299D01*
Y9045D01*
X235271D01*
Y9074D01*
X233788D01*
Y9331D01*
X233845D01*
Y9359D01*
X235385D01*
Y9331D01*
D02*
G37*
G36*
X233674D02*
Y8133D01*
X233332D01*
Y8332D01*
X233360D01*
Y9302D01*
X233332D01*
Y9359D01*
X233674D01*
Y9331D01*
D02*
G37*
G36*
X232989Y9017D02*
X233075D01*
Y8988D01*
X233103D01*
Y8960D01*
X233132D01*
Y8931D01*
X233160D01*
Y8903D01*
X233189D01*
Y8304D01*
X233160D01*
Y8247D01*
X233132D01*
Y8218D01*
X233103D01*
Y8190D01*
X233075D01*
Y8161D01*
X233018D01*
Y8133D01*
X232020D01*
Y8389D01*
X232847D01*
Y8418D01*
X232875D01*
Y8504D01*
X232105D01*
Y8532D01*
X232077D01*
Y8561D01*
X232048D01*
Y8589D01*
X232020D01*
Y8618D01*
X231991D01*
Y8931D01*
X232020D01*
Y8960D01*
X232048D01*
Y8988D01*
X232077D01*
Y9017D01*
X232134D01*
Y9045D01*
X232989D01*
Y9017D01*
D02*
G37*
G36*
X231649D02*
X231734D01*
Y8988D01*
X231792D01*
Y8960D01*
X231820D01*
Y8874D01*
X231849D01*
Y8275D01*
X231820D01*
Y8218D01*
X231792D01*
Y8190D01*
X231734D01*
Y8161D01*
X231649D01*
Y8133D01*
X230736D01*
Y8389D01*
X231506D01*
Y8418D01*
X231535D01*
Y8789D01*
X231506D01*
Y8817D01*
X230736D01*
Y9045D01*
X231649D01*
Y9017D01*
D02*
G37*
G36*
X230508Y9302D02*
X230537D01*
Y9045D01*
X230679D01*
Y8817D01*
X230537D01*
Y8789D01*
X230508D01*
Y8675D01*
X230480D01*
Y8646D01*
X230508D01*
Y8161D01*
X230537D01*
Y8133D01*
X230194D01*
Y8817D01*
X230023D01*
Y8846D01*
Y8874D01*
Y8960D01*
X229995D01*
Y9045D01*
X230194D01*
Y9302D01*
X230451D01*
Y9331D01*
X230508D01*
Y9302D01*
D02*
G37*
G36*
X229710Y9017D02*
X229795D01*
Y8988D01*
X229852D01*
Y8960D01*
X229881D01*
Y8903D01*
X229909D01*
Y8874D01*
X229938D01*
Y8133D01*
X229596D01*
Y8218D01*
X229624D01*
Y8646D01*
Y8675D01*
Y8760D01*
X229596D01*
Y8789D01*
X229567D01*
Y8817D01*
X229139D01*
Y9045D01*
X229710D01*
Y9017D01*
D02*
G37*
G36*
X228826D02*
X228883D01*
Y8988D01*
X228940D01*
Y8960D01*
X228968D01*
Y8903D01*
X229025D01*
Y8304D01*
X228997D01*
Y8275D01*
X228968D01*
Y8218D01*
X228940D01*
Y8190D01*
X228883D01*
Y8161D01*
X228797D01*
Y8133D01*
X227941D01*
Y8161D01*
X227913D01*
Y8190D01*
X227856D01*
Y8218D01*
X227828D01*
Y8247D01*
X227799D01*
Y8275D01*
X227770D01*
Y8332D01*
X227742D01*
Y8646D01*
Y8675D01*
Y8817D01*
X227770D01*
Y8874D01*
X227799D01*
Y8931D01*
X227828D01*
Y8960D01*
X227856D01*
Y8988D01*
X227913D01*
Y9017D01*
X227941D01*
Y9045D01*
X228826D01*
Y9017D01*
D02*
G37*
G36*
X227628Y8817D02*
X227599D01*
Y8332D01*
X227628D01*
Y8133D01*
X227286D01*
Y8817D01*
X226715D01*
Y8789D01*
X226687D01*
Y8133D01*
X226316D01*
Y8817D01*
X226344D01*
Y8874D01*
X226373D01*
Y8931D01*
X226401D01*
Y8960D01*
X226430D01*
Y8988D01*
X226487D01*
Y9017D01*
X226544D01*
Y9045D01*
X227628D01*
Y8817D01*
D02*
G37*
G36*
X226173Y8133D02*
X225831D01*
Y8304D01*
X225860D01*
Y9045D01*
X226173D01*
Y8133D01*
D02*
G37*
G36*
X225489Y9017D02*
X225546D01*
Y8988D01*
X225603D01*
Y8960D01*
X225631D01*
Y8903D01*
X225660D01*
Y8874D01*
X225689D01*
Y8304D01*
X225660D01*
Y8275D01*
X225631D01*
Y8218D01*
X225603D01*
Y8190D01*
X225546D01*
Y8161D01*
X225489D01*
Y8133D01*
X224576D01*
Y8389D01*
X225346D01*
Y8418D01*
X225375D01*
Y8789D01*
X225318D01*
Y8817D01*
X224576D01*
Y9045D01*
X225489D01*
Y9017D01*
D02*
G37*
G36*
X223664Y8817D02*
X223635D01*
Y8789D01*
X222837D01*
Y8760D01*
X222808D01*
Y8732D01*
X222780D01*
Y8675D01*
X223550D01*
Y8646D01*
X223607D01*
Y8618D01*
X223635D01*
Y8561D01*
X223664D01*
Y8275D01*
X223635D01*
Y8190D01*
X223607D01*
Y8161D01*
X223550D01*
Y8133D01*
X222637D01*
Y8161D01*
X222580D01*
Y8190D01*
X222551D01*
Y8218D01*
X222523D01*
Y8247D01*
X222466D01*
Y8874D01*
X222494D01*
Y8960D01*
X222523D01*
Y8988D01*
X222580D01*
Y9017D01*
X222637D01*
Y9045D01*
X223664D01*
Y8817D01*
D02*
G37*
G36*
X222323Y8133D02*
X222010D01*
Y8817D01*
X221439D01*
Y8789D01*
X221411D01*
Y8760D01*
X221382D01*
Y8589D01*
X221354D01*
Y8561D01*
X221382D01*
Y8133D01*
X221040D01*
Y8817D01*
X221069D01*
Y8874D01*
X221097D01*
Y8931D01*
X221126D01*
Y8960D01*
X221154D01*
Y8988D01*
X221211D01*
Y9017D01*
X221240D01*
Y9045D01*
X222323D01*
Y8133D01*
D02*
G37*
G36*
X219956Y9045D02*
X220669D01*
Y9017D01*
X220755D01*
Y8988D01*
X220812D01*
Y8960D01*
X220840D01*
Y8903D01*
X220869D01*
Y8874D01*
X220897D01*
Y8304D01*
X220869D01*
Y8275D01*
X220840D01*
Y8218D01*
X220812D01*
Y8190D01*
X220755D01*
Y8161D01*
X220669D01*
Y8133D01*
X219814D01*
Y8161D01*
X219757D01*
Y8190D01*
X219700D01*
Y8218D01*
X219671D01*
Y8247D01*
X219643D01*
Y8275D01*
X219614D01*
Y8361D01*
X219586D01*
Y8532D01*
X219614D01*
Y9359D01*
X219956D01*
Y9045D01*
D02*
G37*
G36*
X218388Y9331D02*
X218702D01*
Y9074D01*
X217960D01*
Y8133D01*
X217618D01*
Y8532D01*
X217646D01*
Y8561D01*
X217618D01*
Y9074D01*
X216876D01*
Y9331D01*
X216905D01*
Y9359D01*
X218388D01*
Y9331D01*
D02*
G37*
G36*
X216705Y9017D02*
X216791D01*
Y8960D01*
X216819D01*
Y8931D01*
X216876D01*
Y8304D01*
X216848D01*
Y8247D01*
X216819D01*
Y8218D01*
X216791D01*
Y8161D01*
X216705D01*
Y8133D01*
X215707D01*
Y8389D01*
X216534D01*
Y8418D01*
X216563D01*
Y8504D01*
X215792D01*
Y8532D01*
X215764D01*
Y8561D01*
X215736D01*
Y8589D01*
X215707D01*
Y8618D01*
X215679D01*
Y8903D01*
X215707D01*
Y8960D01*
X215736D01*
Y8988D01*
X215764D01*
Y9017D01*
X215821D01*
Y9045D01*
X216705D01*
Y9017D01*
D02*
G37*
G36*
X215536Y8732D02*
X215507D01*
Y8304D01*
X215536D01*
Y8133D01*
X215194D01*
Y9103D01*
Y9131D01*
Y9359D01*
X215536D01*
Y8732D01*
D02*
G37*
G36*
X214851Y9017D02*
X214937D01*
Y8988D01*
X214966D01*
Y8960D01*
X214994D01*
Y8931D01*
X215022D01*
Y8903D01*
X215051D01*
Y8304D01*
X215022D01*
Y8247D01*
X214994D01*
Y8218D01*
X214966D01*
Y8190D01*
X214937D01*
Y8161D01*
X214851D01*
Y8133D01*
X213853D01*
Y8389D01*
X214709D01*
Y8504D01*
X213939D01*
Y8532D01*
X213910D01*
Y8561D01*
X213882D01*
Y8589D01*
X213853D01*
Y8618D01*
X213825D01*
Y8903D01*
X213853D01*
Y8960D01*
X213882D01*
Y8988D01*
X213910D01*
Y9017D01*
X213967D01*
Y9045D01*
X214851D01*
Y9017D01*
D02*
G37*
G36*
X213482D02*
X213568D01*
Y8988D01*
X213625D01*
Y8960D01*
X213654D01*
Y8903D01*
X213682D01*
Y8874D01*
X213711D01*
Y8304D01*
X213682D01*
Y8275D01*
X213654D01*
Y8218D01*
X213625D01*
Y8190D01*
X213568D01*
Y8161D01*
X213482D01*
Y8133D01*
X212570D01*
Y8361D01*
X212598D01*
Y8389D01*
X213368D01*
Y8418D01*
X213397D01*
Y8760D01*
X213368D01*
Y8789D01*
X213340D01*
Y8817D01*
X212570D01*
Y9045D01*
X213482D01*
Y9017D01*
D02*
G37*
G36*
X212256D02*
X212313D01*
Y8988D01*
X212370D01*
Y8960D01*
X212399D01*
Y8903D01*
X212427D01*
Y8874D01*
X212456D01*
Y8304D01*
X212427D01*
Y8275D01*
X212399D01*
Y8218D01*
X212370D01*
Y8190D01*
X212313D01*
Y8161D01*
X212228D01*
Y8133D01*
X211372D01*
Y8161D01*
X211315D01*
Y8190D01*
X211287D01*
Y8218D01*
X211258D01*
Y8247D01*
X211229D01*
Y8275D01*
X211201D01*
Y8332D01*
X211173D01*
Y8532D01*
Y8561D01*
Y8846D01*
X211201D01*
Y8903D01*
X211229D01*
Y8931D01*
X211258D01*
Y8988D01*
X211315D01*
Y9017D01*
X211372D01*
Y9045D01*
X212256D01*
Y9017D01*
D02*
G37*
G36*
X211030Y8133D02*
X210716D01*
Y8817D01*
X210374D01*
Y8646D01*
X210317D01*
Y8618D01*
X210374D01*
Y8133D01*
X210003D01*
Y8475D01*
X210032D01*
Y8789D01*
X210003D01*
Y8817D01*
X209747D01*
Y8789D01*
X209718D01*
Y8760D01*
X209689D01*
Y8418D01*
X209718D01*
Y8133D01*
X209347D01*
Y8817D01*
X209376D01*
Y8903D01*
X209404D01*
Y8931D01*
X209433D01*
Y8960D01*
X209461D01*
Y8988D01*
X209518D01*
Y9017D01*
X209576D01*
Y9045D01*
X211030D01*
Y8133D01*
D02*
G37*
G36*
X209205D02*
X208862D01*
Y8817D01*
X208549D01*
Y8789D01*
X208520D01*
Y8133D01*
X208178D01*
Y8817D01*
X207893D01*
Y8789D01*
X207864D01*
Y8133D01*
X207494D01*
Y8190D01*
X207522D01*
Y8846D01*
X207551D01*
Y8874D01*
X207522D01*
Y8903D01*
X207551D01*
Y8931D01*
X207579D01*
Y8960D01*
X207608D01*
Y8988D01*
X207665D01*
Y9017D01*
X207722D01*
Y9045D01*
X209205D01*
Y8133D01*
D02*
G37*
G36*
X205982Y8846D02*
Y8817D01*
X205954D01*
Y8332D01*
X205982D01*
Y8133D01*
X205640D01*
Y8817D01*
X205269D01*
Y8789D01*
X205041D01*
Y8133D01*
X204670D01*
Y8817D01*
X204699D01*
Y8874D01*
X204727D01*
Y8931D01*
X204756D01*
Y8960D01*
X204784D01*
Y8988D01*
X204841D01*
Y9017D01*
X204898D01*
Y9045D01*
X205982D01*
Y8846D01*
D02*
G37*
G36*
X204556Y8133D02*
X204214D01*
Y8218D01*
X204242D01*
Y8275D01*
Y8304D01*
Y9045D01*
X204556D01*
Y8133D01*
D02*
G37*
G36*
X203843Y9017D02*
X203929D01*
Y8988D01*
X203986D01*
Y8960D01*
X204014D01*
Y8903D01*
X204071D01*
Y8304D01*
X204043D01*
Y8275D01*
X204014D01*
Y8218D01*
X203986D01*
Y8190D01*
X203929D01*
Y8161D01*
X203872D01*
Y8133D01*
X202931D01*
Y8161D01*
X202959D01*
Y8389D01*
X203729D01*
Y8418D01*
X203758D01*
Y8760D01*
X203729D01*
Y8789D01*
X203701D01*
Y8817D01*
X202959D01*
Y8960D01*
X202931D01*
Y9045D01*
X203843D01*
Y9017D01*
D02*
G37*
G36*
X201391Y9302D02*
X201419D01*
Y9045D01*
X201562D01*
Y8817D01*
X201419D01*
Y8789D01*
X201391D01*
Y8218D01*
X201419D01*
Y8133D01*
X201077D01*
Y8817D01*
X200906D01*
Y8903D01*
X200877D01*
Y9045D01*
X201077D01*
Y9074D01*
Y9302D01*
X201333D01*
Y9331D01*
X201391D01*
Y9302D01*
D02*
G37*
G36*
X200820Y8133D02*
X200478D01*
Y8304D01*
X200506D01*
Y9045D01*
X200820D01*
Y8133D01*
D02*
G37*
G36*
X200107Y9017D02*
X200193D01*
Y8988D01*
X200250D01*
Y8960D01*
X200278D01*
Y8903D01*
X200307D01*
Y8874D01*
X200335D01*
Y8304D01*
X200307D01*
Y8275D01*
X200278D01*
Y8218D01*
X200250D01*
Y8190D01*
X200193D01*
Y8161D01*
X200136D01*
Y8133D01*
X199252D01*
Y8161D01*
X199195D01*
Y8190D01*
X199166D01*
Y8218D01*
X199138D01*
Y8247D01*
X199109D01*
Y8275D01*
X199081D01*
Y8332D01*
X199052D01*
Y8817D01*
X199081D01*
Y8874D01*
X199109D01*
Y8931D01*
X199138D01*
Y8960D01*
X199166D01*
Y8988D01*
X199223D01*
Y9017D01*
X199252D01*
Y9045D01*
X200107D01*
Y9017D01*
D02*
G37*
G36*
X198909Y8161D02*
X198938D01*
Y8133D01*
X198596D01*
Y8817D01*
X198025D01*
Y8789D01*
X197997D01*
Y8760D01*
Y8732D01*
Y8133D01*
X197626D01*
Y8817D01*
X197655D01*
Y8874D01*
X197683D01*
Y8931D01*
X197712D01*
Y8960D01*
X197740D01*
Y8988D01*
X197797D01*
Y9017D01*
X197854D01*
Y9045D01*
X198909D01*
Y8161D01*
D02*
G37*
G36*
X194746Y8618D02*
X194774D01*
Y8161D01*
X194746D01*
Y8133D01*
X194432D01*
Y8817D01*
X193976D01*
Y8789D01*
X193833D01*
Y8133D01*
X193462D01*
Y8846D01*
X193491D01*
Y8874D01*
X193519D01*
Y8931D01*
X193548D01*
Y8960D01*
X193576D01*
Y8988D01*
X193633D01*
Y9017D01*
X193691D01*
Y9045D01*
X194746D01*
Y8618D01*
D02*
G37*
G36*
X191922Y8133D02*
X191609D01*
Y8846D01*
Y8874D01*
Y9045D01*
X191922D01*
Y8133D01*
D02*
G37*
G36*
X191437Y8304D02*
X191466D01*
Y8133D01*
X191124D01*
Y8817D01*
X190553D01*
Y8789D01*
X190525D01*
Y8760D01*
X190496D01*
Y8190D01*
X190525D01*
Y8133D01*
X190154D01*
Y8846D01*
X190183D01*
Y8874D01*
X190211D01*
Y8931D01*
X190240D01*
Y8960D01*
X190268D01*
Y8988D01*
X190325D01*
Y9017D01*
X190382D01*
Y9045D01*
X191437D01*
Y8304D01*
D02*
G37*
G36*
X189840Y9017D02*
X189926D01*
Y8988D01*
X189955D01*
Y8960D01*
X189983D01*
Y8931D01*
X190012D01*
Y8903D01*
X190040D01*
Y8304D01*
X190012D01*
Y8247D01*
X189983D01*
Y8218D01*
X189955D01*
Y8190D01*
X189926D01*
Y8161D01*
X189840D01*
Y8133D01*
X188842D01*
Y8389D01*
X189698D01*
Y8504D01*
X188928D01*
Y8532D01*
X188899D01*
Y8561D01*
X188871D01*
Y8589D01*
X188842D01*
Y8960D01*
X188871D01*
Y8988D01*
X188899D01*
Y9017D01*
X188956D01*
Y9045D01*
X189840D01*
Y9017D01*
D02*
G37*
G36*
X188500D02*
X188557D01*
Y8988D01*
X188586D01*
Y8960D01*
X188614D01*
Y8931D01*
X188643D01*
Y8903D01*
X188671D01*
Y8304D01*
X188643D01*
Y8247D01*
X188614D01*
Y8218D01*
X188586D01*
Y8190D01*
X188557D01*
Y8161D01*
X188500D01*
Y8133D01*
X187502D01*
Y8161D01*
X187473D01*
Y8275D01*
X187502D01*
Y8389D01*
X188329D01*
Y8418D01*
X188357D01*
Y8504D01*
X187559D01*
Y8561D01*
X187531D01*
Y8589D01*
X187502D01*
Y8618D01*
X187473D01*
Y8931D01*
X187502D01*
Y8960D01*
X187531D01*
Y8988D01*
X187559D01*
Y9017D01*
X187587D01*
Y9045D01*
X188500D01*
Y9017D01*
D02*
G37*
G36*
X187103D02*
X187188D01*
Y8988D01*
X187245D01*
Y8960D01*
X187274D01*
Y8903D01*
X187302D01*
Y8133D01*
X186989D01*
Y8389D01*
Y8418D01*
Y8789D01*
X186960D01*
Y8817D01*
X186504D01*
Y9045D01*
X187103D01*
Y9017D01*
D02*
G37*
G36*
X186418Y8874D02*
X186390D01*
Y8389D01*
X186418D01*
Y8133D01*
X186076D01*
Y8361D01*
Y8389D01*
Y9045D01*
X186418D01*
Y8874D01*
D02*
G37*
G36*
X185962D02*
X185933D01*
Y8389D01*
X185962D01*
Y8133D01*
X185620D01*
Y8817D01*
X185249D01*
Y8789D01*
X185021D01*
Y8133D01*
X184679D01*
Y8874D01*
X184707D01*
Y8931D01*
X184736D01*
Y8960D01*
X184764D01*
Y8988D01*
X184821D01*
Y9017D01*
X184878D01*
Y9045D01*
X185962D01*
Y8874D01*
D02*
G37*
G36*
X193149Y9017D02*
X193234D01*
Y8988D01*
X193263D01*
Y8960D01*
X193291D01*
Y8931D01*
X193320D01*
Y8903D01*
X193348D01*
Y8418D01*
X193320D01*
Y8361D01*
X193291D01*
Y8332D01*
X193263D01*
Y8304D01*
X193206D01*
Y8275D01*
X192407D01*
Y8104D01*
X192464D01*
Y8076D01*
X193291D01*
Y7848D01*
X192265D01*
Y7876D01*
X192208D01*
Y7905D01*
X192150D01*
Y7933D01*
X192122D01*
Y7962D01*
X192094D01*
Y8047D01*
X192065D01*
Y8903D01*
X192094D01*
Y8931D01*
X192122D01*
Y8988D01*
X192179D01*
Y9017D01*
X192265D01*
Y9045D01*
X193149D01*
Y9017D01*
D02*
G37*
G36*
X184336D02*
X184393D01*
Y8988D01*
X184422D01*
Y8960D01*
X184450D01*
Y8931D01*
X184479D01*
Y8903D01*
X184508D01*
Y8418D01*
X184479D01*
Y8361D01*
X184450D01*
Y8332D01*
X184422D01*
Y8304D01*
X184393D01*
Y8275D01*
X183566D01*
Y8133D01*
X183623D01*
Y8104D01*
X183652D01*
Y8076D01*
X184422D01*
Y8104D01*
X184450D01*
Y7848D01*
X183424D01*
Y7876D01*
X183367D01*
Y7905D01*
X183310D01*
Y7933D01*
X183281D01*
Y7990D01*
X183253D01*
Y8047D01*
X183224D01*
Y8903D01*
X183253D01*
Y8931D01*
X183281D01*
Y8960D01*
X183310D01*
Y8988D01*
X183367D01*
Y9017D01*
X183424D01*
Y9045D01*
X184336D01*
Y9017D01*
D02*
G37*
%LPC*%
G36*
X122582Y113201D02*
X122245D01*
Y113033D01*
X122076D01*
Y112864D01*
X121907D01*
Y112695D01*
X121738D01*
Y112526D01*
X121569D01*
Y112357D01*
X121401D01*
Y112188D01*
X121232D01*
Y112020D01*
X121063D01*
Y111851D01*
X120894D01*
Y111682D01*
X120725D01*
Y111513D01*
X120556D01*
Y111344D01*
X120388D01*
Y111176D01*
X120219D01*
Y111007D01*
X120050D01*
Y110838D01*
X119881D01*
Y110669D01*
X119712D01*
Y110500D01*
X119544D01*
Y110331D01*
X119375D01*
Y110163D01*
X119206D01*
Y109994D01*
X119037D01*
Y109825D01*
X118868D01*
Y109656D01*
X118700D01*
Y109487D01*
X118531D01*
Y109319D01*
X118362D01*
Y109150D01*
X118193D01*
Y108981D01*
X118024D01*
Y108812D01*
X117855D01*
Y108643D01*
X117687D01*
Y108475D01*
X117518D01*
Y108306D01*
X117349D01*
Y108137D01*
X117180D01*
Y107968D01*
X117011D01*
Y107799D01*
X116842D01*
Y107630D01*
X116674D01*
Y107462D01*
X116505D01*
Y107293D01*
X116336D01*
Y107124D01*
X116167D01*
Y106955D01*
X115998D01*
Y106786D01*
X115830D01*
Y106617D01*
X115661D01*
Y106449D01*
X115492D01*
Y106280D01*
X115323D01*
Y106111D01*
X115154D01*
Y105942D01*
X114986D01*
Y105773D01*
X114817D01*
Y105605D01*
X114648D01*
Y105436D01*
X114479D01*
Y105267D01*
X114310D01*
Y105098D01*
X114141D01*
Y104929D01*
X113973D01*
Y104761D01*
X113804D01*
Y104592D01*
X113635D01*
Y104423D01*
X113466D01*
Y104254D01*
X113297D01*
Y104085D01*
X113128D01*
Y103917D01*
X112960D01*
Y103748D01*
X112791D01*
Y103579D01*
X112622D01*
Y103410D01*
X112453D01*
Y103241D01*
X112284D01*
Y103072D01*
X112116D01*
Y102903D01*
X111947D01*
Y102735D01*
X111778D01*
Y102566D01*
X111609D01*
Y102397D01*
X111440D01*
Y102228D01*
X111272D01*
Y102059D01*
X111103D01*
Y101891D01*
X110934D01*
Y101722D01*
X110765D01*
Y101553D01*
X110596D01*
Y101384D01*
X110427D01*
Y101215D01*
X110259D01*
Y101047D01*
X110090D01*
Y100878D01*
X109921D01*
Y100709D01*
X109752D01*
Y100540D01*
X109583D01*
Y100371D01*
X109415D01*
Y100202D01*
X109246D01*
Y100034D01*
X109077D01*
Y99865D01*
X108908D01*
Y99696D01*
X108739D01*
Y99527D01*
X108571D01*
Y99358D01*
X108402D01*
Y99190D01*
X108233D01*
Y99021D01*
X108064D01*
Y98852D01*
X107895D01*
Y98683D01*
X107726D01*
Y98514D01*
X107558D01*
Y98346D01*
X107389D01*
Y98177D01*
X107220D01*
Y98008D01*
X107051D01*
Y97839D01*
X106882D01*
Y97670D01*
X106713D01*
Y97501D01*
X106545D01*
Y97333D01*
X106376D01*
Y97164D01*
X106207D01*
Y96995D01*
X106038D01*
Y96826D01*
X105869D01*
Y96657D01*
X105701D01*
Y96488D01*
X105532D01*
Y96320D01*
X105363D01*
Y96151D01*
X105194D01*
Y95982D01*
X105025D01*
Y95813D01*
X104857D01*
Y95644D01*
X104688D01*
Y95476D01*
X104519D01*
Y95307D01*
X104350D01*
Y95138D01*
X104181D01*
Y94969D01*
X104012D01*
Y94800D01*
X103844D01*
Y94631D01*
X103675D01*
Y94463D01*
X103506D01*
Y94294D01*
X103337D01*
Y94125D01*
X103168D01*
Y93956D01*
X102999D01*
Y93787D01*
X102831D01*
Y93619D01*
X102662D01*
Y93450D01*
X102493D01*
Y93281D01*
X102324D01*
Y93112D01*
X102155D01*
Y92943D01*
X101987D01*
Y92774D01*
X101818D01*
Y92606D01*
X101649D01*
Y92437D01*
X101480D01*
Y92268D01*
X101311D01*
Y92099D01*
X101143D01*
Y91930D01*
X100974D01*
Y91762D01*
X100805D01*
Y91593D01*
X100636D01*
Y91424D01*
X100467D01*
Y91255D01*
X100298D01*
Y91086D01*
X100130D01*
Y90917D01*
X99961D01*
Y90749D01*
X99792D01*
Y90580D01*
X99623D01*
Y90411D01*
X99454D01*
Y90242D01*
X99286D01*
Y90073D01*
X99117D01*
Y89904D01*
X98948D01*
Y89736D01*
X99117D01*
Y89567D01*
X99286D01*
Y89398D01*
X99454D01*
Y89229D01*
X99623D01*
Y89060D01*
X99792D01*
Y88892D01*
X99961D01*
Y88723D01*
X100130D01*
Y88554D01*
X100298D01*
Y88385D01*
X100467D01*
Y88216D01*
X100636D01*
Y88048D01*
X100805D01*
Y87879D01*
X100974D01*
Y87710D01*
X101143D01*
Y87541D01*
X101311D01*
Y87372D01*
X101480D01*
Y87204D01*
X101649D01*
Y87035D01*
X101818D01*
Y86866D01*
X101987D01*
Y86697D01*
X102155D01*
Y86528D01*
X102324D01*
Y86359D01*
X102493D01*
Y86191D01*
X102662D01*
Y86022D01*
X102831D01*
Y85853D01*
X102999D01*
Y85684D01*
X103168D01*
Y85515D01*
X103337D01*
Y85347D01*
X103506D01*
Y85178D01*
X103675D01*
Y85009D01*
X103844D01*
Y84840D01*
X104012D01*
Y84671D01*
X104181D01*
Y84502D01*
X104350D01*
Y84334D01*
X104519D01*
Y84165D01*
X104688D01*
Y83996D01*
X104857D01*
Y83827D01*
X105025D01*
Y83658D01*
X105194D01*
Y83490D01*
X105363D01*
Y83321D01*
X105532D01*
Y83152D01*
X105701D01*
Y82983D01*
X105869D01*
Y82814D01*
X106038D01*
Y82645D01*
X106207D01*
Y82477D01*
X106376D01*
Y82308D01*
X106545D01*
Y82139D01*
X106713D01*
Y81970D01*
X106882D01*
Y81801D01*
X107051D01*
Y81633D01*
X107220D01*
Y81464D01*
X107389D01*
Y81295D01*
X107558D01*
Y81126D01*
X107726D01*
Y80957D01*
X107895D01*
Y80788D01*
X108064D01*
Y80620D01*
X108233D01*
Y80451D01*
X108402D01*
Y80282D01*
X108571D01*
Y80113D01*
X108739D01*
Y79944D01*
X108908D01*
Y79776D01*
X109077D01*
Y79607D01*
X109246D01*
Y79438D01*
X109415D01*
Y79269D01*
X109583D01*
Y79100D01*
X109752D01*
Y78931D01*
X109921D01*
Y78763D01*
X110090D01*
Y78594D01*
X110259D01*
Y78425D01*
X110427D01*
Y78256D01*
X110596D01*
Y78087D01*
X110765D01*
Y77918D01*
X110934D01*
Y77750D01*
X111103D01*
Y77581D01*
X111272D01*
Y77412D01*
X111440D01*
Y77243D01*
X111609D01*
Y77074D01*
X111778D01*
Y76906D01*
X111947D01*
Y76737D01*
X112116D01*
Y76568D01*
X112284D01*
Y76399D01*
X112453D01*
Y76230D01*
X112622D01*
Y76061D01*
X112791D01*
Y75893D01*
X112960D01*
Y75724D01*
X113128D01*
Y75555D01*
X113297D01*
Y75386D01*
X113466D01*
Y75217D01*
X113635D01*
Y75049D01*
X113804D01*
Y74880D01*
X113973D01*
Y74711D01*
X114141D01*
Y74542D01*
X114310D01*
Y74373D01*
X114479D01*
Y74204D01*
X114648D01*
Y74036D01*
X114817D01*
Y73867D01*
X114986D01*
Y73698D01*
X115154D01*
Y73529D01*
X115323D01*
Y73360D01*
X115492D01*
Y73192D01*
X115661D01*
Y73023D01*
X115830D01*
Y72854D01*
X115998D01*
Y72685D01*
X116167D01*
Y72516D01*
X116336D01*
Y72347D01*
X116505D01*
Y72179D01*
X116674D01*
Y72010D01*
X116842D01*
Y71841D01*
X117011D01*
Y71672D01*
X117180D01*
Y71503D01*
X117349D01*
Y71335D01*
X117518D01*
Y71166D01*
X117687D01*
Y70997D01*
X117855D01*
Y70828D01*
X118024D01*
Y70659D01*
X118193D01*
Y70490D01*
X118362D01*
Y70322D01*
X118531D01*
Y70153D01*
X118700D01*
Y69984D01*
X118868D01*
Y69815D01*
X119037D01*
Y69646D01*
X119206D01*
Y69478D01*
X119375D01*
Y69309D01*
X119544D01*
Y69140D01*
X119712D01*
Y68971D01*
X119881D01*
Y68802D01*
X120050D01*
Y68634D01*
X120219D01*
Y68465D01*
X120388D01*
Y68296D01*
X120556D01*
Y68127D01*
X120725D01*
Y67958D01*
X120894D01*
Y67789D01*
X121063D01*
Y67621D01*
X121232D01*
Y67452D01*
X121401D01*
Y67283D01*
X121569D01*
Y67114D01*
X121738D01*
Y66945D01*
X121907D01*
Y66777D01*
X122076D01*
Y66608D01*
X122245D01*
Y66439D01*
X122582D01*
Y66608D01*
X122751D01*
Y66777D01*
X122920D01*
Y66945D01*
X123089D01*
Y67114D01*
X123258D01*
Y67283D01*
X123426D01*
Y67452D01*
X123595D01*
Y67621D01*
X123764D01*
Y67789D01*
X123933D01*
Y67958D01*
X124102D01*
Y68127D01*
X124270D01*
Y68296D01*
X124439D01*
Y68465D01*
X124608D01*
Y68634D01*
X124777D01*
Y68802D01*
X124946D01*
Y68971D01*
X125115D01*
Y69140D01*
X125283D01*
Y69309D01*
X125452D01*
Y69478D01*
X125621D01*
Y69646D01*
X125790D01*
Y69815D01*
X125959D01*
Y69984D01*
X126128D01*
Y70153D01*
X126296D01*
Y70322D01*
X126465D01*
Y70490D01*
X126634D01*
Y70659D01*
X126803D01*
Y70828D01*
X126972D01*
Y70997D01*
X127140D01*
Y71166D01*
X127309D01*
Y71335D01*
X127478D01*
Y71503D01*
X127647D01*
Y71672D01*
X127816D01*
Y71841D01*
X127984D01*
Y72010D01*
X128153D01*
Y72179D01*
X128322D01*
Y72347D01*
X128491D01*
Y72516D01*
X128660D01*
Y72685D01*
X128829D01*
Y72854D01*
X128997D01*
Y73023D01*
X129166D01*
Y73192D01*
X129335D01*
Y73360D01*
X129504D01*
Y73529D01*
X129673D01*
Y73698D01*
X129841D01*
Y73867D01*
X130010D01*
Y74036D01*
X130179D01*
Y74204D01*
X130348D01*
Y74373D01*
X130517D01*
Y74542D01*
X130686D01*
Y74711D01*
X130854D01*
Y74880D01*
X131023D01*
Y75049D01*
X131192D01*
Y75217D01*
X131361D01*
Y75386D01*
X131530D01*
Y75555D01*
X131699D01*
Y75724D01*
X131867D01*
Y75893D01*
X132036D01*
Y76061D01*
X132205D01*
Y76230D01*
X132374D01*
Y76399D01*
X132543D01*
Y76568D01*
X132711D01*
Y76737D01*
X132880D01*
Y76906D01*
X133049D01*
Y77074D01*
X133218D01*
Y77243D01*
X133387D01*
Y77412D01*
X133555D01*
Y77581D01*
X133724D01*
Y77750D01*
X133893D01*
Y77918D01*
X134062D01*
Y78087D01*
X134231D01*
Y78256D01*
X134400D01*
Y78425D01*
X134568D01*
Y78594D01*
X134737D01*
Y78763D01*
X134906D01*
Y78931D01*
X135075D01*
Y79100D01*
X135244D01*
Y79269D01*
X135413D01*
Y79438D01*
X135581D01*
Y79607D01*
X135750D01*
Y79776D01*
X135919D01*
Y79944D01*
X136088D01*
Y80113D01*
X136257D01*
Y80282D01*
X136425D01*
Y80451D01*
X136594D01*
Y80620D01*
X136763D01*
Y80788D01*
X136932D01*
Y80957D01*
X137101D01*
Y81126D01*
X137269D01*
Y81295D01*
X137438D01*
Y81464D01*
X137607D01*
Y81633D01*
X137776D01*
Y81801D01*
X137945D01*
Y81970D01*
X138114D01*
Y82139D01*
X138282D01*
Y82308D01*
X138451D01*
Y82477D01*
X138620D01*
Y82645D01*
X138789D01*
Y82814D01*
X138958D01*
Y82983D01*
X139127D01*
Y83152D01*
X139295D01*
Y83321D01*
X139464D01*
Y83490D01*
X139633D01*
Y83658D01*
X139802D01*
Y83827D01*
X139971D01*
Y83996D01*
X140139D01*
Y84165D01*
X140308D01*
Y84334D01*
X140477D01*
Y84502D01*
X140646D01*
Y84671D01*
X140815D01*
Y84840D01*
X140983D01*
Y85009D01*
X141152D01*
Y85178D01*
X141321D01*
Y85347D01*
X141490D01*
Y85515D01*
X141659D01*
Y85684D01*
X141828D01*
Y85853D01*
X141996D01*
Y86022D01*
X142165D01*
Y86191D01*
X142334D01*
Y86359D01*
X142503D01*
Y86528D01*
X142672D01*
Y86697D01*
X142841D01*
Y86866D01*
X143009D01*
Y87035D01*
X143178D01*
Y87204D01*
X143347D01*
Y87372D01*
X143516D01*
Y87541D01*
X143685D01*
Y87710D01*
X143853D01*
Y87879D01*
X144022D01*
Y88048D01*
X144191D01*
Y88216D01*
X144360D01*
Y88385D01*
X144529D01*
Y88554D01*
X144697D01*
Y88723D01*
X144866D01*
Y88892D01*
X145035D01*
Y89060D01*
X145204D01*
Y89229D01*
X145373D01*
Y89398D01*
X145542D01*
Y89567D01*
X145710D01*
Y89736D01*
X145879D01*
Y89904D01*
X145710D01*
Y90073D01*
X145542D01*
Y90242D01*
X145373D01*
Y90411D01*
X145204D01*
Y90580D01*
X145035D01*
Y90749D01*
X144866D01*
Y90917D01*
X144697D01*
Y91086D01*
X144529D01*
Y91255D01*
X144360D01*
Y91424D01*
X144191D01*
Y91593D01*
X144022D01*
Y91762D01*
X143853D01*
Y91930D01*
X143685D01*
Y92099D01*
X143516D01*
Y92268D01*
X143347D01*
Y92437D01*
X143178D01*
Y92606D01*
X143009D01*
Y92774D01*
X142841D01*
Y92943D01*
X142672D01*
Y93112D01*
X142503D01*
Y93281D01*
X142334D01*
Y93450D01*
X142165D01*
Y93619D01*
X141996D01*
Y93787D01*
X141828D01*
Y93956D01*
X141659D01*
Y94125D01*
X141490D01*
Y94294D01*
X141321D01*
Y94463D01*
X141152D01*
Y94631D01*
X140983D01*
Y94800D01*
X140815D01*
Y94969D01*
X140646D01*
Y95138D01*
X140477D01*
Y95307D01*
X140308D01*
Y95476D01*
X140139D01*
Y95644D01*
X139971D01*
Y95813D01*
X139802D01*
Y95982D01*
X139633D01*
Y96151D01*
X139464D01*
Y96320D01*
X139295D01*
Y96488D01*
X139127D01*
Y96657D01*
X138958D01*
Y96826D01*
X138789D01*
Y96995D01*
X138620D01*
Y97164D01*
X138451D01*
Y97333D01*
X138282D01*
Y97501D01*
X138114D01*
Y97670D01*
X137945D01*
Y97839D01*
X137776D01*
Y98008D01*
X137607D01*
Y98177D01*
X137438D01*
Y98346D01*
X137269D01*
Y98514D01*
X137101D01*
Y98683D01*
X136932D01*
Y98852D01*
X136763D01*
Y99021D01*
X136594D01*
Y99190D01*
X136425D01*
Y99358D01*
X136257D01*
Y99527D01*
X136088D01*
Y99696D01*
X135919D01*
Y99865D01*
X135750D01*
Y100034D01*
X135581D01*
Y100202D01*
X135413D01*
Y100371D01*
X135244D01*
Y100540D01*
X135075D01*
Y100709D01*
X134906D01*
Y100878D01*
X134737D01*
Y101047D01*
X134568D01*
Y101215D01*
X134400D01*
Y101384D01*
X134231D01*
Y101553D01*
X134062D01*
Y101722D01*
X133893D01*
Y101891D01*
X133724D01*
Y102059D01*
X133555D01*
Y102228D01*
X133387D01*
Y102397D01*
X133218D01*
Y102566D01*
X133049D01*
Y102735D01*
X132880D01*
Y102903D01*
X132711D01*
Y103072D01*
X132543D01*
Y103241D01*
X132374D01*
Y103410D01*
X132205D01*
Y103579D01*
X132036D01*
Y103748D01*
X131867D01*
Y103917D01*
X131699D01*
Y104085D01*
X131530D01*
Y104254D01*
X131361D01*
Y104423D01*
X131192D01*
Y104592D01*
X131023D01*
Y104761D01*
X130854D01*
Y104929D01*
X130686D01*
Y105098D01*
X130517D01*
Y105267D01*
X130348D01*
Y105436D01*
X130179D01*
Y105605D01*
X130010D01*
Y105773D01*
X129841D01*
Y105942D01*
X129673D01*
Y106111D01*
X129504D01*
Y106280D01*
X129335D01*
Y106449D01*
X129166D01*
Y106617D01*
X128997D01*
Y106786D01*
X128829D01*
Y106955D01*
X128660D01*
Y107124D01*
X128491D01*
Y107293D01*
X128322D01*
Y107462D01*
X128153D01*
Y107630D01*
X127984D01*
Y107799D01*
X127816D01*
Y107968D01*
X127647D01*
Y108137D01*
X127478D01*
Y108306D01*
X127309D01*
Y108475D01*
X127140D01*
Y108643D01*
X126972D01*
Y108812D01*
X126803D01*
Y108981D01*
X126634D01*
Y109150D01*
X126465D01*
Y109319D01*
X126296D01*
Y109487D01*
X126128D01*
Y109656D01*
X125959D01*
Y109825D01*
X125790D01*
Y109994D01*
X125621D01*
Y110163D01*
X125452D01*
Y110331D01*
X125283D01*
Y110500D01*
X125115D01*
Y110669D01*
X124946D01*
Y110838D01*
X124777D01*
Y111007D01*
X124608D01*
Y111176D01*
X124439D01*
Y111344D01*
X124270D01*
Y111513D01*
X124102D01*
Y111682D01*
X123933D01*
Y111851D01*
X123764D01*
Y112020D01*
X123595D01*
Y112188D01*
X123426D01*
Y112357D01*
X123258D01*
Y112526D01*
X123089D01*
Y112695D01*
X122920D01*
Y112864D01*
X122751D01*
Y113033D01*
X122582D01*
Y113201D01*
D02*
G37*
%LPD*%
G36*
Y99865D02*
X123933D01*
Y99696D01*
X124777D01*
Y99527D01*
X125452D01*
Y99358D01*
X125959D01*
Y99190D01*
X126296D01*
Y99021D01*
X126634D01*
Y98852D01*
X126972D01*
Y98683D01*
X127309D01*
Y98514D01*
X127647D01*
Y98346D01*
X127816D01*
Y98177D01*
X128153D01*
Y98008D01*
X128322D01*
Y97839D01*
X128660D01*
Y97670D01*
X128829D01*
Y97501D01*
X128997D01*
Y97333D01*
X129166D01*
Y97164D01*
X129504D01*
Y96826D01*
X129673D01*
Y96657D01*
X129841D01*
Y96488D01*
X130010D01*
Y96320D01*
X130179D01*
Y95982D01*
X130348D01*
Y95813D01*
X130517D01*
Y95644D01*
X130686D01*
Y95307D01*
X130854D01*
Y95138D01*
X131023D01*
Y94800D01*
X131192D01*
Y94463D01*
X131361D01*
Y94125D01*
X131530D01*
Y93956D01*
X131699D01*
Y93450D01*
X131867D01*
Y92943D01*
X132036D01*
Y92268D01*
X132205D01*
Y91424D01*
X132374D01*
Y90073D01*
X132543D01*
Y89567D01*
X132374D01*
Y88385D01*
X132205D01*
Y87541D01*
X132036D01*
Y86866D01*
X131867D01*
Y86359D01*
X131699D01*
Y85853D01*
X131530D01*
Y85515D01*
X131361D01*
Y85178D01*
X131192D01*
Y84840D01*
X131023D01*
Y84671D01*
X130854D01*
Y84334D01*
X130686D01*
Y84165D01*
X130517D01*
Y83827D01*
X130348D01*
Y83658D01*
X130179D01*
Y83490D01*
X130010D01*
Y83152D01*
X129841D01*
Y82983D01*
X129673D01*
Y82645D01*
X129335D01*
Y82477D01*
X129166D01*
Y82308D01*
X128997D01*
Y82139D01*
X128660D01*
Y81970D01*
X128491D01*
Y81801D01*
X128322D01*
Y81633D01*
X127984D01*
Y81464D01*
X127816D01*
Y81295D01*
X127478D01*
Y81126D01*
X127140D01*
Y80957D01*
X126803D01*
Y80788D01*
X126465D01*
Y80620D01*
X126296D01*
Y80451D01*
X125790D01*
Y80282D01*
X125283D01*
Y80113D01*
X124608D01*
Y79944D01*
X123595D01*
Y79776D01*
X121401D01*
Y79944D01*
X120219D01*
Y80113D01*
X119544D01*
Y80282D01*
X119037D01*
Y80451D01*
X118531D01*
Y80620D01*
X118193D01*
Y80788D01*
X117855D01*
Y80957D01*
X117518D01*
Y81126D01*
X117180D01*
Y81295D01*
X117011D01*
Y81464D01*
X116674D01*
Y81633D01*
X116505D01*
Y81801D01*
X116167D01*
Y81970D01*
X115998D01*
Y82139D01*
X115830D01*
Y82308D01*
X115661D01*
Y82477D01*
X115323D01*
Y82645D01*
X115154D01*
Y82814D01*
X114986D01*
Y83152D01*
X114817D01*
Y83321D01*
X114648D01*
Y83490D01*
X114479D01*
Y83827D01*
X114310D01*
Y83996D01*
X114141D01*
Y84165D01*
X113973D01*
Y84334D01*
Y84502D01*
X113804D01*
Y84840D01*
X113635D01*
Y85178D01*
X113466D01*
Y85515D01*
X113297D01*
Y85684D01*
X113128D01*
Y86191D01*
X112960D01*
Y86697D01*
X112791D01*
Y87204D01*
X112622D01*
Y87879D01*
X112453D01*
Y89229D01*
X112284D01*
Y90242D01*
X112453D01*
Y91930D01*
X112622D01*
Y92606D01*
X112791D01*
Y93112D01*
X112960D01*
Y93956D01*
X113128D01*
Y94125D01*
X113297D01*
Y94294D01*
X113466D01*
Y94631D01*
X113635D01*
Y94969D01*
X113804D01*
Y95138D01*
X113973D01*
Y95476D01*
X114141D01*
Y95644D01*
X114310D01*
Y95982D01*
X114479D01*
Y96151D01*
X114648D01*
Y96320D01*
X114817D01*
Y96488D01*
X114986D01*
Y96826D01*
X115154D01*
Y96995D01*
X115323D01*
Y97164D01*
X115492D01*
Y97333D01*
X115830D01*
Y97501D01*
X115998D01*
Y97670D01*
X116167D01*
Y97839D01*
X116336D01*
Y98008D01*
X116674D01*
Y98177D01*
X116842D01*
Y98346D01*
X117180D01*
Y98514D01*
X117349D01*
Y98683D01*
X117687D01*
Y98852D01*
X118024D01*
Y99021D01*
X118362D01*
Y99190D01*
X118868D01*
Y99358D01*
X119375D01*
Y99527D01*
X119881D01*
Y99696D01*
X120725D01*
Y99865D01*
X122245D01*
Y100034D01*
X122582D01*
Y99865D01*
D02*
G37*
%LPC*%
G36*
X123933Y98346D02*
X123089D01*
Y96995D01*
Y96826D01*
X123595D01*
Y96657D01*
X124439D01*
Y96995D01*
X124608D01*
Y97501D01*
X124777D01*
Y97839D01*
X124946D01*
Y98008D01*
X124608D01*
Y98177D01*
X123933D01*
Y98346D01*
D02*
G37*
G36*
X121569D02*
X120894D01*
Y98177D01*
X120219D01*
Y98008D01*
X119881D01*
Y97670D01*
X120050D01*
Y97333D01*
X120219D01*
Y96826D01*
X120388D01*
Y96657D01*
X121232D01*
Y96826D01*
X121569D01*
Y98346D01*
D02*
G37*
G36*
X126634Y97333D02*
X126296D01*
Y97164D01*
X126128D01*
Y96657D01*
X125959D01*
Y96320D01*
X125790D01*
Y95813D01*
X126128D01*
Y95644D01*
X126296D01*
Y95476D01*
X126634D01*
Y95307D01*
X126803D01*
Y95476D01*
X126972D01*
Y95644D01*
X127140D01*
Y95813D01*
X127309D01*
Y95982D01*
X127478D01*
Y96151D01*
X127647D01*
Y96320D01*
X127816D01*
Y96488D01*
X127647D01*
Y96657D01*
X127309D01*
Y96826D01*
X127140D01*
Y96995D01*
X126972D01*
Y97164D01*
X126634D01*
Y97333D01*
D02*
G37*
G36*
X118531D02*
X118193D01*
Y97164D01*
X117855D01*
Y96995D01*
X117518D01*
Y96826D01*
X117349D01*
Y96657D01*
X117180D01*
Y96488D01*
X117011D01*
Y96320D01*
X117180D01*
Y96151D01*
X117349D01*
Y95982D01*
X117518D01*
Y95813D01*
X117687D01*
Y95644D01*
X117855D01*
Y95476D01*
X118024D01*
Y95307D01*
X118193D01*
Y95476D01*
X118362D01*
Y95644D01*
X118700D01*
Y95813D01*
X118868D01*
Y95982D01*
X119037D01*
Y96151D01*
X118868D01*
Y96488D01*
X118700D01*
Y96995D01*
X118531D01*
Y97164D01*
Y97333D01*
D02*
G37*
G36*
X128997Y95307D02*
X128829D01*
Y95138D01*
X128660D01*
Y94969D01*
X128491D01*
Y94800D01*
X128322D01*
Y94631D01*
X128153D01*
Y94463D01*
X127984D01*
Y94294D01*
X127816D01*
Y94125D01*
X127984D01*
Y93787D01*
X128153D01*
Y93619D01*
X128322D01*
Y93450D01*
Y93281D01*
X128829D01*
Y93450D01*
X129166D01*
Y93619D01*
X129673D01*
Y93787D01*
X129841D01*
Y94125D01*
X129673D01*
Y94463D01*
X129504D01*
Y94631D01*
X129335D01*
Y94800D01*
X129166D01*
Y95138D01*
X128997D01*
Y95307D01*
D02*
G37*
G36*
X115998D02*
X115830D01*
Y95138D01*
X115661D01*
Y94969D01*
X115492D01*
Y94800D01*
X115323D01*
Y94463D01*
X115154D01*
Y94294D01*
X114986D01*
Y93956D01*
X114817D01*
Y93787D01*
X115154D01*
Y93619D01*
X115492D01*
Y93450D01*
X115998D01*
Y93281D01*
X116336D01*
Y93450D01*
X116505D01*
Y93619D01*
X116674D01*
Y93956D01*
X116842D01*
Y94463D01*
X116674D01*
Y94631D01*
X116505D01*
Y94800D01*
X116336D01*
Y94969D01*
X116167D01*
Y95138D01*
X115998D01*
Y95307D01*
D02*
G37*
G36*
X130517Y92437D02*
X130348D01*
Y92268D01*
X130010D01*
Y92099D01*
X129504D01*
Y91930D01*
X129166D01*
Y91086D01*
Y90917D01*
Y90749D01*
X129335D01*
Y90580D01*
X130854D01*
Y91255D01*
X130686D01*
Y91930D01*
X130517D01*
Y92437D01*
D02*
G37*
G36*
X114817Y92268D02*
X114141D01*
Y91593D01*
X113973D01*
Y90580D01*
X115492D01*
Y91424D01*
X115661D01*
Y91930D01*
X115154D01*
Y92099D01*
X114817D01*
Y92268D01*
D02*
G37*
G36*
X130854Y89060D02*
X129335D01*
Y88723D01*
X129166D01*
Y88048D01*
X128997D01*
Y87879D01*
X129335D01*
Y87710D01*
X129841D01*
Y87541D01*
X130179D01*
Y87372D01*
X130517D01*
Y87710D01*
X130686D01*
Y88554D01*
X130854D01*
Y89060D01*
D02*
G37*
G36*
X115492D02*
X113973D01*
Y88554D01*
Y88385D01*
Y88048D01*
X114141D01*
Y87372D01*
X114479D01*
Y87541D01*
X114986D01*
Y87710D01*
X115323D01*
Y87879D01*
X115661D01*
Y88385D01*
X115492D01*
Y89060D01*
D02*
G37*
G36*
X116336Y86528D02*
X116167D01*
Y86359D01*
X115830D01*
Y86191D01*
X115323D01*
Y86022D01*
X114986D01*
Y85853D01*
X114817D01*
Y85684D01*
X114986D01*
Y85515D01*
X115154D01*
Y85178D01*
X115323D01*
Y85009D01*
X115492D01*
Y84671D01*
X115661D01*
Y84502D01*
X115998D01*
Y84671D01*
X116167D01*
Y84840D01*
X116336D01*
Y85009D01*
X116505D01*
Y85178D01*
X116674D01*
Y85347D01*
X116842D01*
Y85684D01*
X116674D01*
Y86022D01*
X116505D01*
Y86191D01*
X116336D01*
Y86528D01*
D02*
G37*
G36*
X128660D02*
X128491D01*
Y86359D01*
X128322D01*
Y86191D01*
X128153D01*
Y85853D01*
X127984D01*
Y85684D01*
X127816D01*
Y85347D01*
X127984D01*
Y85178D01*
X128153D01*
Y85009D01*
X128322D01*
Y84840D01*
X128491D01*
Y84671D01*
X128660D01*
Y84502D01*
X128829D01*
Y84334D01*
X128997D01*
Y84502D01*
X129166D01*
Y84840D01*
X129335D01*
Y85009D01*
X129504D01*
Y85347D01*
X129673D01*
Y85515D01*
X129841D01*
Y86022D01*
X129335D01*
Y86191D01*
X128997D01*
Y86359D01*
X128660D01*
Y86528D01*
D02*
G37*
G36*
X123258Y95307D02*
X121401D01*
Y95138D01*
X120725D01*
Y94969D01*
X120388D01*
Y94800D01*
X119881D01*
Y94631D01*
X119544D01*
Y94463D01*
X119375D01*
Y94294D01*
X119206D01*
Y94125D01*
X118868D01*
Y93956D01*
X118700D01*
Y93787D01*
X118531D01*
Y93619D01*
X118362D01*
Y93450D01*
X118193D01*
Y93281D01*
X118024D01*
Y92943D01*
X117855D01*
Y92774D01*
X117687D01*
Y92437D01*
X117518D01*
Y92099D01*
X117349D01*
Y91593D01*
X117180D01*
Y91086D01*
X117011D01*
Y88723D01*
X117180D01*
Y88048D01*
X117349D01*
Y87541D01*
X117518D01*
Y87204D01*
X117687D01*
Y87035D01*
X117855D01*
Y86697D01*
X118024D01*
Y86528D01*
X118193D01*
Y86359D01*
X118362D01*
Y86191D01*
X118531D01*
Y86022D01*
X118700D01*
Y85853D01*
X118868D01*
Y85684D01*
X119037D01*
Y85515D01*
X119206D01*
Y85347D01*
X119544D01*
Y85178D01*
X119712D01*
Y85009D01*
X120050D01*
Y84840D01*
X120556D01*
Y84671D01*
X121063D01*
Y84502D01*
X122245D01*
Y84334D01*
X122582D01*
Y84502D01*
X123764D01*
Y84671D01*
X124270D01*
Y84840D01*
X124608D01*
Y85009D01*
X124946D01*
Y85178D01*
X125283D01*
Y85347D01*
X125452D01*
Y85515D01*
X125790D01*
Y85684D01*
X125959D01*
Y85853D01*
X126128D01*
Y86022D01*
X126296D01*
Y86191D01*
X126465D01*
Y86359D01*
X126634D01*
Y86528D01*
X126803D01*
Y86866D01*
X126972D01*
Y87035D01*
X127140D01*
Y87372D01*
X127309D01*
Y87879D01*
X127478D01*
Y88216D01*
X127647D01*
Y89060D01*
X127816D01*
Y90749D01*
X127647D01*
Y91424D01*
X127478D01*
Y91930D01*
X127309D01*
Y92268D01*
X127140D01*
Y92606D01*
X126972D01*
Y92943D01*
X126803D01*
Y93112D01*
X126634D01*
Y93281D01*
X126465D01*
Y93450D01*
X126296D01*
Y93787D01*
X125959D01*
Y93956D01*
X125790D01*
Y94125D01*
X125621D01*
Y94294D01*
X125452D01*
Y94463D01*
X125115D01*
Y94631D01*
X124777D01*
Y94800D01*
X124439D01*
Y94969D01*
X123933D01*
Y95138D01*
X123258D01*
Y95307D01*
D02*
G37*
G36*
X126972Y84334D02*
X126465D01*
Y84165D01*
X126296D01*
Y83996D01*
X125959D01*
Y83827D01*
X125790D01*
Y83321D01*
X125959D01*
Y82983D01*
X126128D01*
Y82645D01*
X126296D01*
Y82308D01*
X126465D01*
Y82477D01*
X126803D01*
Y82645D01*
X127140D01*
Y82814D01*
X127309D01*
Y82983D01*
X127478D01*
Y83152D01*
X127816D01*
Y83321D01*
X127647D01*
Y83490D01*
X127478D01*
Y83658D01*
X127309D01*
Y83827D01*
X127140D01*
Y83996D01*
X126972D01*
Y84334D01*
D02*
G37*
G36*
X118193D02*
X117855D01*
Y84165D01*
X117687D01*
Y83996D01*
X117518D01*
Y83827D01*
X117349D01*
Y83658D01*
X117180D01*
Y83490D01*
X117011D01*
Y83152D01*
X117180D01*
Y82983D01*
X117349D01*
Y82814D01*
X117687D01*
Y82645D01*
X118024D01*
Y82477D01*
X118193D01*
Y82308D01*
X118531D01*
Y82814D01*
X118700D01*
Y83152D01*
X118868D01*
Y83490D01*
X119037D01*
Y83827D01*
X118700D01*
Y83996D01*
X118531D01*
Y84165D01*
X118193D01*
Y84334D01*
D02*
G37*
G36*
X124439Y83152D02*
X123933D01*
Y82983D01*
X123258D01*
Y82814D01*
X123089D01*
Y81464D01*
X124270D01*
Y81633D01*
X124777D01*
Y82308D01*
X124608D01*
Y82645D01*
X124439D01*
Y83152D01*
D02*
G37*
G36*
X120725D02*
X120388D01*
Y82814D01*
X120219D01*
Y82477D01*
X120050D01*
Y81970D01*
X119881D01*
Y81633D01*
X120556D01*
Y81464D01*
X121401D01*
Y81295D01*
X121569D01*
Y82983D01*
X120725D01*
Y83152D01*
D02*
G37*
%LPD*%
G36*
X124270Y92606D02*
X124439D01*
Y92437D01*
X124608D01*
Y92268D01*
X124777D01*
Y92099D01*
X124946D01*
Y91930D01*
X125115D01*
Y91762D01*
X125283D01*
Y91593D01*
X125115D01*
Y91424D01*
X124946D01*
Y91255D01*
X124777D01*
Y91086D01*
X124608D01*
Y90917D01*
X124439D01*
Y90749D01*
X124270D01*
Y90580D01*
X124102D01*
Y90411D01*
X123933D01*
Y90242D01*
X123764D01*
Y90073D01*
X123595D01*
Y89736D01*
X123764D01*
Y89567D01*
X123933D01*
Y89398D01*
X124102D01*
Y89229D01*
X124270D01*
Y89060D01*
X124439D01*
Y88892D01*
X124608D01*
Y88723D01*
X124777D01*
Y88554D01*
X124946D01*
Y88385D01*
X125115D01*
Y88216D01*
X125283D01*
Y88048D01*
X125115D01*
Y87879D01*
X124946D01*
Y87710D01*
X124777D01*
Y87541D01*
X124608D01*
Y87372D01*
X124439D01*
Y87204D01*
X124270D01*
Y87035D01*
X123933D01*
Y87204D01*
X123764D01*
Y87372D01*
X123595D01*
Y87541D01*
X123426D01*
Y87710D01*
X123258D01*
Y87879D01*
X123089D01*
Y88048D01*
X122920D01*
Y88216D01*
X122751D01*
Y88385D01*
X122582D01*
Y88554D01*
X122414D01*
Y88723D01*
X122245D01*
Y88554D01*
X122076D01*
Y88385D01*
X121907D01*
Y88216D01*
X121738D01*
Y88048D01*
X121569D01*
Y87879D01*
X121401D01*
Y87710D01*
X121232D01*
Y87541D01*
X121063D01*
Y87372D01*
X120894D01*
Y87204D01*
X120725D01*
Y87035D01*
X120388D01*
Y87204D01*
X120219D01*
Y87372D01*
X120050D01*
Y87541D01*
X119881D01*
Y87710D01*
X119712D01*
Y87879D01*
X119544D01*
Y88216D01*
X119712D01*
Y88385D01*
X119881D01*
Y88554D01*
X120050D01*
Y88723D01*
X120219D01*
Y88892D01*
X120388D01*
Y89060D01*
X120556D01*
Y89229D01*
X120725D01*
Y89398D01*
X120894D01*
Y89567D01*
X121063D01*
Y89736D01*
X121232D01*
Y89904D01*
X121063D01*
Y90073D01*
X120894D01*
Y90242D01*
X120725D01*
Y90411D01*
X120556D01*
Y90580D01*
X120388D01*
Y90749D01*
X120219D01*
Y90917D01*
X120050D01*
Y91086D01*
X119881D01*
Y91255D01*
X119712D01*
Y91424D01*
X119544D01*
Y91762D01*
X119712D01*
Y91930D01*
X119881D01*
Y92099D01*
X120050D01*
Y92268D01*
X120219D01*
Y92437D01*
X120388D01*
Y92606D01*
X120556D01*
Y92774D01*
X120725D01*
Y92606D01*
X120894D01*
Y92437D01*
X121063D01*
Y92268D01*
X121232D01*
Y92099D01*
X121401D01*
Y91930D01*
X121569D01*
Y91762D01*
X121738D01*
Y91593D01*
X121907D01*
Y91424D01*
X122076D01*
Y91255D01*
X122245D01*
Y91086D01*
X122582D01*
Y91255D01*
X122751D01*
Y91424D01*
X122920D01*
Y91593D01*
X123089D01*
Y91762D01*
X123258D01*
Y91930D01*
X123426D01*
Y92099D01*
X123595D01*
Y92268D01*
X123764D01*
Y92437D01*
X123933D01*
Y92606D01*
X124102D01*
Y92774D01*
X124270D01*
Y92606D01*
D02*
G37*
%LPC*%
G36*
X136932Y60024D02*
X134737D01*
Y59855D01*
X134568D01*
Y59686D01*
X134400D01*
Y53440D01*
X134568D01*
Y53271D01*
X134737D01*
Y53102D01*
X136932D01*
Y58673D01*
Y58842D01*
Y60024D01*
D02*
G37*
G36*
X152126Y49051D02*
X150944D01*
Y48882D01*
X150775D01*
Y48713D01*
X150606D01*
Y47025D01*
X150775D01*
Y46856D01*
X152126D01*
Y49051D01*
D02*
G37*
G36*
X142334D02*
X141321D01*
Y48882D01*
X141152D01*
Y48713D01*
X140983D01*
Y47531D01*
X141152D01*
Y47363D01*
X141321D01*
Y47194D01*
X142334D01*
Y47363D01*
X142503D01*
Y47700D01*
Y47869D01*
Y48882D01*
X142334D01*
Y49051D01*
D02*
G37*
G36*
X142503Y46687D02*
X141152D01*
Y46518D01*
X140983D01*
Y44830D01*
X141321D01*
Y44661D01*
X142334D01*
Y44830D01*
X142503D01*
Y46687D01*
D02*
G37*
G36*
X122582Y47531D02*
X121907D01*
Y47363D01*
X121569D01*
Y46350D01*
X122920D01*
Y47363D01*
X122582D01*
Y47531D01*
D02*
G37*
G36*
X118193Y46012D02*
X116842D01*
Y44999D01*
X117011D01*
Y44830D01*
X117180D01*
Y44661D01*
X118193D01*
Y44830D01*
X118362D01*
Y45843D01*
X118193D01*
Y46012D01*
D02*
G37*
G36*
X103337Y47531D02*
X102493D01*
Y47363D01*
X102155D01*
Y44830D01*
X102493D01*
Y44661D01*
X103337D01*
Y44830D01*
X103506D01*
Y44999D01*
X103675D01*
Y45168D01*
Y45337D01*
Y47194D01*
X103506D01*
Y47363D01*
X103337D01*
Y47531D01*
D02*
G37*
G36*
X201134Y22563D02*
X201077D01*
Y22535D01*
X201134D01*
Y22563D01*
D02*
G37*
G36*
X201048Y22535D02*
X200991D01*
Y22506D01*
X201048D01*
Y22535D01*
D02*
G37*
G36*
X200963Y22506D02*
X200934D01*
Y22478D01*
X200963D01*
Y22506D01*
D02*
G37*
G36*
X200877Y22478D02*
X200849D01*
Y22449D01*
X200877D01*
Y22478D01*
D02*
G37*
G36*
X200820Y22449D02*
X200792D01*
Y22421D01*
X200820D01*
Y22449D01*
D02*
G37*
G36*
X200735Y22421D02*
X200706D01*
Y22392D01*
X200735D01*
Y22421D01*
D02*
G37*
G36*
X200678Y22392D02*
X200649D01*
Y22364D01*
X200678D01*
Y22392D01*
D02*
G37*
G36*
X200592Y22364D02*
X200564D01*
Y22335D01*
X200592D01*
Y22364D01*
D02*
G37*
G36*
X200421Y22278D02*
X200392D01*
Y22250D01*
X200421D01*
Y22278D01*
D02*
G37*
G36*
X200364Y22250D02*
X200335D01*
Y22221D01*
X200364D01*
Y22250D01*
D02*
G37*
G36*
X201333Y22221D02*
X201305D01*
Y22193D01*
X201333D01*
Y22221D01*
D02*
G37*
G36*
X200307D02*
X200278D01*
Y22193D01*
X200307D01*
Y22221D01*
D02*
G37*
G36*
X200250Y22193D02*
X200221D01*
Y22164D01*
X200250D01*
Y22193D01*
D02*
G37*
G36*
X201362Y22164D02*
X201333D01*
Y22136D01*
X201362D01*
Y22164D01*
D02*
G37*
G36*
X200164D02*
X200136D01*
Y22136D01*
X200164D01*
Y22164D01*
D02*
G37*
G36*
X200107Y22136D02*
X200079D01*
X200050Y22107D01*
Y22079D01*
X200079D01*
Y22107D01*
X200107D01*
Y22136D01*
D02*
G37*
G36*
X201391Y22079D02*
X201362D01*
Y22050D01*
X201391D01*
Y22079D01*
D02*
G37*
G36*
X201419Y21993D02*
X201391D01*
Y21964D01*
X201419D01*
Y21993D01*
D02*
G37*
G36*
X199679Y21879D02*
X199651D01*
Y21850D01*
X199679D01*
Y21879D01*
D02*
G37*
G36*
X200934Y21793D02*
X200906D01*
Y21765D01*
X200934D01*
Y21793D01*
D02*
G37*
G36*
X199423Y21708D02*
X199394D01*
Y21679D01*
X199423D01*
Y21708D01*
D02*
G37*
G36*
X199195Y21508D02*
X199166D01*
Y21480D01*
X199195D01*
Y21508D01*
D02*
G37*
G36*
X199166Y21480D02*
X199138D01*
Y21451D01*
X199166D01*
Y21480D01*
D02*
G37*
G36*
X199138Y21451D02*
X199109D01*
Y21423D01*
X199138D01*
Y21451D01*
D02*
G37*
G36*
X200164Y21394D02*
X200136D01*
Y21365D01*
X200164D01*
Y21394D01*
D02*
G37*
G36*
X199936Y21223D02*
X199908D01*
Y21194D01*
X199936D01*
Y21223D01*
D02*
G37*
G36*
X198852Y21194D02*
X198824D01*
Y21166D01*
X198852D01*
Y21194D01*
D02*
G37*
G36*
X198824Y21166D02*
X198795D01*
Y21137D01*
X198824D01*
Y21166D01*
D02*
G37*
G36*
X198795Y21137D02*
X198767D01*
Y21109D01*
X198795D01*
Y21137D01*
D02*
G37*
G36*
X198767Y21109D02*
X198738D01*
Y21080D01*
X198767D01*
Y21109D01*
D02*
G37*
G36*
X198738Y21080D02*
X198710D01*
Y21052D01*
X198738D01*
Y21080D01*
D02*
G37*
G36*
X198596Y20938D02*
X198567D01*
Y20909D01*
X198596D01*
Y20938D01*
D02*
G37*
G36*
X198453Y20738D02*
X198425D01*
Y20710D01*
X198453D01*
Y20738D01*
D02*
G37*
G36*
X198938Y20253D02*
X198909D01*
Y20225D01*
X198938D01*
Y20253D01*
D02*
G37*
G36*
X198111D02*
X198082D01*
Y20225D01*
X198111D01*
Y20253D01*
D02*
G37*
G36*
X198909Y20225D02*
X198881D01*
Y20196D01*
X198909D01*
Y20225D01*
D02*
G37*
G36*
X198025Y20111D02*
X197997D01*
Y20082D01*
X198025D01*
Y20111D01*
D02*
G37*
G36*
X197997Y20054D02*
X197968D01*
Y20025D01*
X197997D01*
Y20054D01*
D02*
G37*
G36*
X197968Y19997D02*
X197940D01*
Y19968D01*
X197968D01*
Y19997D01*
D02*
G37*
G36*
X198738Y19968D02*
X198710D01*
Y19940D01*
X198738D01*
Y19968D01*
D02*
G37*
G36*
X197940Y19940D02*
X197911D01*
Y19911D01*
X197940D01*
Y19940D01*
D02*
G37*
G36*
X197883Y19826D02*
X197854D01*
Y19797D01*
X197883D01*
Y19826D01*
D02*
G37*
G36*
X197854Y19769D02*
X197826D01*
Y19740D01*
X197854D01*
Y19769D01*
D02*
G37*
G36*
X197683Y19341D02*
X197655D01*
Y19312D01*
X197683D01*
Y19341D01*
D02*
G37*
G36*
X197655Y19255D02*
X197626D01*
Y19227D01*
X197655D01*
Y19255D01*
D02*
G37*
G36*
X197598Y19056D02*
X197569D01*
Y19027D01*
X197598D01*
Y19056D01*
D02*
G37*
G36*
X197569Y18970D02*
X197540D01*
Y18941D01*
X197569D01*
Y18970D01*
D02*
G37*
G36*
X197540Y18856D02*
X197512D01*
Y18827D01*
X197540D01*
Y18856D01*
D02*
G37*
G36*
X197512Y18742D02*
X197484D01*
Y18713D01*
Y18685D01*
X197512D01*
Y18742D01*
D02*
G37*
G36*
X197484Y18599D02*
X197455D01*
Y18542D01*
X197484D01*
Y18571D01*
Y18599D01*
D02*
G37*
G36*
X198111Y17801D02*
X198082D01*
Y17772D01*
X198111D01*
Y17801D01*
D02*
G37*
G36*
X197426D02*
X197398D01*
Y17772D01*
X197426D01*
Y17801D01*
D02*
G37*
G36*
X201476Y21508D02*
X201448D01*
Y21480D01*
X201476D01*
Y21508D01*
D02*
G37*
G36*
X201105Y21394D02*
X201077D01*
Y21365D01*
Y21337D01*
X201105D01*
Y21394D01*
D02*
G37*
G36*
X201048Y21365D02*
X201020D01*
Y21337D01*
X201048D01*
Y21365D01*
D02*
G37*
G36*
X200963Y21308D02*
X200934D01*
Y21280D01*
X200963D01*
Y21308D01*
D02*
G37*
G36*
X200906Y21280D02*
X200877D01*
Y21251D01*
X200906D01*
Y21280D01*
D02*
G37*
G36*
X200849Y21251D02*
X200820D01*
Y21223D01*
X200849D01*
Y21251D01*
D02*
G37*
G36*
X200792Y21223D02*
X200763D01*
Y21194D01*
X200792D01*
Y21223D01*
D02*
G37*
G36*
X200735Y21194D02*
X200706D01*
Y21166D01*
X200735D01*
Y21194D01*
D02*
G37*
G36*
X200678Y21166D02*
X200649D01*
Y21137D01*
X200678D01*
Y21166D01*
D02*
G37*
G36*
X200621Y21137D02*
X200592D01*
Y21109D01*
X200621D01*
Y21137D01*
D02*
G37*
G36*
X201761Y21023D02*
X201733D01*
Y20995D01*
X201761D01*
Y21023D01*
D02*
G37*
G36*
X201790Y20938D02*
X201761D01*
Y20909D01*
X201790D01*
Y20938D01*
D02*
G37*
G36*
X200250Y20909D02*
X200221D01*
Y20881D01*
X200250D01*
Y20909D01*
D02*
G37*
G36*
X201818Y20852D02*
X201790D01*
Y20824D01*
X201818D01*
Y20852D01*
D02*
G37*
G36*
X201847Y20795D02*
X201818D01*
Y20767D01*
X201847D01*
Y20795D01*
D02*
G37*
G36*
X200050Y20738D02*
X200022D01*
Y20710D01*
X200050D01*
Y20738D01*
D02*
G37*
G36*
X201875Y20710D02*
X201847D01*
Y20681D01*
X201875D01*
Y20710D01*
D02*
G37*
G36*
X200022D02*
X199993D01*
Y20681D01*
X200022D01*
Y20710D01*
D02*
G37*
G36*
X201904Y20624D02*
X201875D01*
Y20595D01*
X201904D01*
Y20624D01*
D02*
G37*
G36*
X201932Y20567D02*
X201904D01*
Y20538D01*
X201932D01*
Y20567D01*
D02*
G37*
G36*
X201875Y20538D02*
X201847D01*
Y20510D01*
X201875D01*
Y20538D01*
D02*
G37*
G36*
X201790Y20510D02*
X201761D01*
Y20481D01*
X201790D01*
Y20510D01*
D02*
G37*
G36*
X199879Y20624D02*
X199851D01*
Y20595D01*
X199822D01*
Y20567D01*
X199794D01*
Y20538D01*
X199765D01*
Y20481D01*
X199794D01*
Y20510D01*
X199822D01*
Y20538D01*
X199851D01*
Y20567D01*
X199879D01*
Y20624D01*
D02*
G37*
G36*
X199765Y20481D02*
X199736D01*
Y20453D01*
X199765D01*
Y20481D01*
D02*
G37*
G36*
X199736Y20453D02*
X199708D01*
Y20424D01*
X199736D01*
Y20453D01*
D02*
G37*
G36*
X199679Y20396D02*
X199651D01*
Y20367D01*
X199679D01*
Y20396D01*
D02*
G37*
G36*
X199594Y20310D02*
X199565D01*
Y20282D01*
X199594D01*
Y20310D01*
D02*
G37*
G36*
X201276Y20282D02*
X201248D01*
Y20253D01*
X201276D01*
Y20282D01*
D02*
G37*
G36*
X200763Y19940D02*
X200735D01*
Y19911D01*
X200763D01*
Y19940D01*
D02*
G37*
G36*
X200392Y19569D02*
X200364D01*
Y19540D01*
X200392D01*
Y19569D01*
D02*
G37*
G36*
X200250Y19369D02*
X200221D01*
Y19341D01*
X200250D01*
Y19369D01*
D02*
G37*
G36*
X198938Y19284D02*
X198909D01*
Y19255D01*
X198938D01*
Y19284D01*
D02*
G37*
G36*
X198909Y19227D02*
X198881D01*
Y19198D01*
X198909D01*
Y19227D01*
D02*
G37*
G36*
X198881Y19170D02*
X198852D01*
Y19141D01*
X198881D01*
Y19170D01*
D02*
G37*
G36*
X198795Y18941D02*
X198767D01*
Y18913D01*
X198795D01*
Y18941D01*
D02*
G37*
G36*
X198767Y18856D02*
X198738D01*
Y18827D01*
X198767D01*
Y18856D01*
D02*
G37*
G36*
X198710Y18656D02*
X198681D01*
Y18628D01*
X198710D01*
Y18656D01*
D02*
G37*
G36*
X199851Y18542D02*
X199822D01*
Y18514D01*
X199851D01*
Y18542D01*
D02*
G37*
G36*
X199765Y18171D02*
X199736D01*
Y18114D01*
X199765D01*
Y18171D01*
D02*
G37*
G36*
X199736Y17829D02*
X199708D01*
Y17801D01*
X199736D01*
Y17829D01*
D02*
G37*
G36*
X226002Y17230D02*
X225974D01*
Y17202D01*
X226002D01*
Y17230D01*
D02*
G37*
G36*
X225945Y17202D02*
X225917D01*
Y17173D01*
X225945D01*
Y17202D01*
D02*
G37*
G36*
X225888Y17173D02*
X225860D01*
Y17145D01*
X225888D01*
Y17173D01*
D02*
G37*
G36*
X225831Y17145D02*
X225803D01*
Y17116D01*
X225831D01*
Y17145D01*
D02*
G37*
G36*
X225774Y17116D02*
X225746D01*
Y17088D01*
X225774D01*
Y17116D01*
D02*
G37*
G36*
X225717Y17088D02*
X225689D01*
Y17059D01*
X225717D01*
Y17088D01*
D02*
G37*
G36*
X225660Y17059D02*
X225631D01*
Y17031D01*
X225660D01*
Y17059D01*
D02*
G37*
G36*
X225603Y17031D02*
X225574D01*
Y17002D01*
X225603D01*
Y17031D01*
D02*
G37*
G36*
X225546Y17002D02*
X225517D01*
Y16974D01*
X225546D01*
Y17002D01*
D02*
G37*
G36*
X225403Y16945D02*
X225375D01*
Y16917D01*
Y16888D01*
X225403D01*
Y16945D01*
D02*
G37*
G36*
X225346Y16917D02*
X225318D01*
Y16860D01*
X225346D01*
Y16917D01*
D02*
G37*
G36*
X224947Y16689D02*
X224919D01*
Y16660D01*
X224947D01*
Y16689D01*
D02*
G37*
G36*
X224890Y16660D02*
X224862D01*
Y16631D01*
X224890D01*
Y16660D01*
D02*
G37*
G36*
X224833Y16631D02*
X224804D01*
Y16603D01*
X224833D01*
Y16631D01*
D02*
G37*
G36*
X224776Y16603D02*
X224747D01*
Y16574D01*
X224776D01*
Y16603D01*
D02*
G37*
G36*
X224576Y16517D02*
X224548D01*
Y16489D01*
X224576D01*
Y16517D01*
D02*
G37*
G36*
X224519Y16489D02*
X224491D01*
Y16460D01*
X224519D01*
Y16489D01*
D02*
G37*
G36*
X224462Y16460D02*
X224434D01*
Y16432D01*
X224462D01*
Y16460D01*
D02*
G37*
G36*
X224405Y16432D02*
X224377D01*
Y16403D01*
X224405D01*
Y16432D01*
D02*
G37*
G36*
X224377Y16403D02*
X224320D01*
Y16375D01*
X224377D01*
Y16403D01*
D02*
G37*
G36*
X224320Y16375D02*
X224291D01*
Y16346D01*
X224320D01*
Y16375D01*
D02*
G37*
G36*
X224263Y16346D02*
X224234D01*
Y16318D01*
X224263D01*
Y16346D01*
D02*
G37*
G36*
X224206Y16318D02*
X224177D01*
Y16289D01*
X224206D01*
Y16318D01*
D02*
G37*
G36*
X224149Y16289D02*
X224120D01*
Y16261D01*
X224149D01*
Y16289D01*
D02*
G37*
G36*
X224092Y16261D02*
X224063D01*
Y16232D01*
X224092D01*
Y16261D01*
D02*
G37*
G36*
X224035Y16232D02*
X224006D01*
Y16204D01*
X224035D01*
Y16232D01*
D02*
G37*
G36*
X223977Y16204D02*
X223949D01*
Y16175D01*
X223977D01*
Y16204D01*
D02*
G37*
G36*
X223920Y16175D02*
X223892D01*
Y16147D01*
X223920D01*
Y16175D01*
D02*
G37*
G36*
X223635Y16033D02*
X223607D01*
Y16004D01*
X223635D01*
Y16033D01*
D02*
G37*
G36*
X223436Y15918D02*
X223407D01*
Y15890D01*
X223436D01*
Y15918D01*
D02*
G37*
G36*
X223378Y15890D02*
X223350D01*
Y15861D01*
X223378D01*
Y15890D01*
D02*
G37*
G36*
X223322Y15861D02*
X223293D01*
Y15833D01*
X223322D01*
Y15861D01*
D02*
G37*
G36*
X223264Y15833D02*
X223236D01*
Y15804D01*
X223264D01*
Y15833D01*
D02*
G37*
G36*
X223207Y15804D02*
X223179D01*
Y15776D01*
X223207D01*
Y15804D01*
D02*
G37*
G36*
X223150Y15776D02*
X223122D01*
Y15747D01*
X223150D01*
Y15776D01*
D02*
G37*
G36*
X223093Y15747D02*
X223065D01*
Y15719D01*
X223093D01*
Y15747D01*
D02*
G37*
G36*
X227571Y15690D02*
X226259D01*
Y15662D01*
X227571D01*
Y15690D01*
D02*
G37*
G36*
X222951D02*
X222922D01*
Y15662D01*
X222951D01*
Y15690D01*
D02*
G37*
G36*
X222751Y17344D02*
X222723D01*
Y16774D01*
Y16746D01*
Y15690D01*
X221582D01*
Y15662D01*
X222751D01*
Y17344D01*
D02*
G37*
G36*
X223493Y15262D02*
X223464D01*
Y15234D01*
X223493D01*
Y15262D01*
D02*
G37*
G36*
X223550Y15234D02*
X223521D01*
Y15205D01*
X223550D01*
Y15234D01*
D02*
G37*
G36*
X223607Y15205D02*
X223578D01*
Y15177D01*
X223607D01*
Y15205D01*
D02*
G37*
G36*
X223664Y15177D02*
X223635D01*
Y15148D01*
X223664D01*
Y15177D01*
D02*
G37*
G36*
X223977Y15034D02*
X223949D01*
Y15006D01*
X223977D01*
Y15034D01*
D02*
G37*
G36*
X224035Y15006D02*
X224006D01*
Y14977D01*
X224035D01*
Y15006D01*
D02*
G37*
G36*
X224092Y14977D02*
X224063D01*
Y14949D01*
X224092D01*
Y14977D01*
D02*
G37*
G36*
X224149Y14949D02*
X224120D01*
Y14920D01*
X224149D01*
Y14949D01*
D02*
G37*
G36*
X224348Y14835D02*
X224320D01*
Y14806D01*
X224348D01*
Y14835D01*
D02*
G37*
G36*
X224405Y14806D02*
X224377D01*
Y14778D01*
X224405D01*
Y14806D01*
D02*
G37*
G36*
X224462Y14778D02*
X224434D01*
Y14749D01*
X224462D01*
Y14778D01*
D02*
G37*
G36*
X224833Y14607D02*
X224804D01*
Y14578D01*
X224833D01*
Y14607D01*
D02*
G37*
G36*
X224919Y14549D02*
X224890D01*
Y14521D01*
X224919D01*
Y14549D01*
D02*
G37*
G36*
X224976Y14521D02*
X224947D01*
Y14492D01*
X224976D01*
Y14521D01*
D02*
G37*
G36*
X225033Y14492D02*
X225004D01*
Y14464D01*
X225033D01*
Y14492D01*
D02*
G37*
G36*
X225090Y14464D02*
X225061D01*
Y14435D01*
X225090D01*
Y14464D01*
D02*
G37*
G36*
X225603Y14207D02*
X225574D01*
Y14179D01*
X225603D01*
Y14207D01*
D02*
G37*
G36*
X225660Y14179D02*
X225631D01*
Y14150D01*
X225660D01*
Y14179D01*
D02*
G37*
G36*
X225717Y14150D02*
X225689D01*
Y14122D01*
X225717D01*
Y14150D01*
D02*
G37*
G36*
X225774Y14122D02*
X225746D01*
Y14093D01*
X225774D01*
Y14122D01*
D02*
G37*
G36*
X222865Y13780D02*
X222837D01*
Y13751D01*
X222865D01*
Y13780D01*
D02*
G37*
G36*
X202474Y8504D02*
X201932D01*
Y8418D01*
X201961D01*
Y8389D01*
X202474D01*
Y8418D01*
X202503D01*
Y8475D01*
X202474D01*
Y8504D01*
D02*
G37*
G36*
X232875Y8846D02*
X232305D01*
Y8789D01*
X232276D01*
Y8703D01*
X232305D01*
Y8646D01*
X232904D01*
Y8817D01*
X232875D01*
Y8846D01*
D02*
G37*
G36*
X228655Y8817D02*
X228141D01*
Y8789D01*
X228084D01*
Y8418D01*
X228113D01*
Y8389D01*
X228683D01*
Y8418D01*
X228712D01*
Y8789D01*
X228655D01*
Y8817D01*
D02*
G37*
G36*
X223322Y8504D02*
X222780D01*
Y8418D01*
X222808D01*
Y8389D01*
X223036D01*
Y8361D01*
X223065D01*
Y8389D01*
X223322D01*
Y8418D01*
X223350D01*
Y8475D01*
X223322D01*
Y8504D01*
D02*
G37*
G36*
X220527Y8817D02*
X219956D01*
Y8703D01*
Y8675D01*
Y8418D01*
X219985D01*
Y8389D01*
X220555D01*
Y8789D01*
X220527D01*
Y8817D01*
D02*
G37*
G36*
X216534D02*
X216049D01*
Y8789D01*
X216021D01*
Y8760D01*
X215992D01*
Y8732D01*
X216021D01*
Y8675D01*
X216563D01*
Y8789D01*
X216534D01*
Y8817D01*
D02*
G37*
G36*
X214680D02*
X214195D01*
Y8789D01*
X214167D01*
Y8732D01*
X214195D01*
Y8675D01*
X214709D01*
Y8789D01*
X214680D01*
Y8817D01*
D02*
G37*
G36*
X212085D02*
X211543D01*
Y8789D01*
X211515D01*
Y8418D01*
X211543D01*
Y8389D01*
X212114D01*
Y8418D01*
X212142D01*
Y8760D01*
X212114D01*
Y8789D01*
X212085D01*
Y8817D01*
D02*
G37*
G36*
X199965D02*
X199423D01*
Y8789D01*
X199394D01*
Y8418D01*
X199423D01*
Y8389D01*
X199993D01*
Y8418D01*
X200022D01*
Y8760D01*
X199993D01*
Y8789D01*
X199965D01*
Y8817D01*
D02*
G37*
G36*
X189698Y8789D02*
X189185D01*
Y8760D01*
X189156D01*
Y8732D01*
X189185D01*
Y8675D01*
X189698D01*
Y8789D01*
D02*
G37*
G36*
X188301Y8817D02*
X187816D01*
Y8760D01*
X187787D01*
Y8732D01*
X187816D01*
Y8675D01*
X188357D01*
Y8760D01*
X188329D01*
Y8789D01*
X188301D01*
Y8817D01*
D02*
G37*
G36*
X193006Y8789D02*
X192436D01*
Y8760D01*
X192407D01*
Y8504D01*
X192977D01*
Y8532D01*
X193006D01*
Y8789D01*
D02*
G37*
G36*
X184137Y8817D02*
X183595D01*
Y8789D01*
X183566D01*
Y8532D01*
X183595D01*
Y8504D01*
X184165D01*
Y8532D01*
X184194D01*
Y8760D01*
X184165D01*
Y8789D01*
X184137D01*
Y8817D01*
D02*
G37*
%LPD*%
M02*
