M48
;Layer_Color=9474304
;FILE_FORMAT=2:4
INCH,TZ
;TYPE=PLATED
T1F00S00C0.0197
T3F00S00C0.0280
T4F00S00C0.0315
T5F00S00C0.0335
T7F00S00C0.0362
T8F00S00C0.0402
T9F00S00C0.0433
T10F00S00C0.0500
T11F00S00C0.0787
T12F00S00C0.0906
T13F00S00C0.1285
%
T01
X9744Y3543
X10254Y4007
X8858Y9449
X16181Y7047
X20669Y7579
X5315Y8071
X5375Y9017
T03
X22146Y14272
X20965Y12274
X18297
X17254Y12559
X17717Y14872
X18917Y14222
X16329Y10305
X16331Y9525
X14150Y7726
T04
X8268Y1969
X9055
X11024
X11811
X13780
X14567
X14370Y11181
X15157
X11280Y12024
X9280
X8780Y11024
X7780
X7831Y12605
X6831
X5831
Y5505
X6831
X7280Y6024
X8280
X7831Y5505
X4831
X5280Y6024
X3831Y5505
X2831
X1831
X831
Y12605
X1831
X2831
X3831
X4831
X4280Y12024
X4124Y11348
X3337
X3280Y12024
X1575Y13937
Y14724
T05
X22835Y16555
X20866
T07
X6299Y13941
X7283
X11417Y13937
X12402
X13189
X14173
X5512Y13941
X4528
T08
X5906Y4528
X6906
X7906
X20209Y4449
X21209
X20295Y10484
Y11484
X18520Y17087
X17520
T09
X9843Y7638
X19124Y10896
T10
X12280Y12323
X13280
X14280
X15280
X1732Y11055
Y10055
Y9055
Y8055
Y7055
T11
X24606Y1181
Y17028
T12
X8492Y15008
X10209Y15004
X15382
X3319Y15008
T13
X16535Y1575
X1575Y16535
M30
