G04*
G04 #@! TF.GenerationSoftware,Altium Limited,Altium Designer,23.4.1 (23)*
G04*
G04 Layer_Color=8388736*
%FSLAX25Y25*%
%MOIN*%
G70*
G04*
G04 #@! TF.SameCoordinates,34C706FF-D981-4061-8AA4-72CC7803A1E3*
G04*
G04*
G04 #@! TF.FilePolarity,Negative*
G04*
G01*
G75*
%ADD17C,0.01968*%
%ADD18R,0.06496X0.08071*%
%ADD19R,0.06299X0.22441*%
%ADD20R,0.05512X0.02953*%
%ADD21R,0.03937X0.05906*%
%ADD22R,0.03197X0.02985*%
%ADD23R,0.03740X0.05315*%
%ADD24R,0.04331X0.04724*%
%ADD25R,0.05315X0.03150*%
%ADD26R,0.02165X0.05906*%
%ADD27R,0.02756X0.05118*%
%ADD28R,0.06693X0.06614*%
%ADD29O,0.07087X0.02756*%
%ADD30O,0.02756X0.07087*%
%ADD31R,0.22638X0.08858*%
%ADD32R,0.10484X0.13984*%
%ADD33R,0.06594X0.03347*%
%ADD34R,0.06398X0.02362*%
%ADD35R,0.05118X0.02756*%
%ADD36R,0.05906X0.03937*%
%ADD37R,0.05315X0.03740*%
%ADD38C,0.15748*%
G04:AMPARAMS|DCode=39|XSize=84.65mil|YSize=45.28mil|CornerRadius=12.8mil|HoleSize=0mil|Usage=FLASHONLY|Rotation=270.000|XOffset=0mil|YOffset=0mil|HoleType=Round|Shape=RoundedRectangle|*
%AMROUNDEDRECTD39*
21,1,0.08465,0.01968,0,0,270.0*
21,1,0.05906,0.04528,0,0,270.0*
1,1,0.02559,-0.00984,-0.02953*
1,1,0.02559,-0.00984,0.02953*
1,1,0.02559,0.00984,0.02953*
1,1,0.02559,0.00984,-0.02953*
%
%ADD39ROUNDEDRECTD39*%
%ADD40C,0.14173*%
%ADD41C,0.06299*%
%ADD42C,0.05740*%
%ADD43R,0.05740X0.05740*%
%ADD44C,0.06102*%
%ADD45C,0.06890*%
%ADD46C,0.07677*%
%ADD47R,0.07677X0.07677*%
%ADD48O,0.11614X0.06102*%
%ADD49O,0.06102X0.11614*%
%ADD50C,0.06181*%
%ADD51C,0.06693*%
%ADD52R,0.06693X0.06693*%
%ADD53R,0.05118X0.05118*%
%ADD54C,0.05118*%
%ADD55R,0.06181X0.06181*%
%ADD56C,0.06181*%
%ADD57R,0.07677X0.07677*%
%ADD58R,0.06181X0.06181*%
%ADD59R,0.05118X0.05118*%
%ADD60C,0.04528*%
%ADD61C,0.12402*%
%ADD62C,0.05591*%
G36*
X209495Y180214D02*
X209540Y180203D01*
X209583Y180185D01*
X209623Y180161D01*
X209658Y180131D01*
X209688Y180095D01*
X209713Y180056D01*
X209731Y180013D01*
X209741Y179968D01*
X209745Y179921D01*
Y172441D01*
X209741Y172395D01*
X209731Y172349D01*
X209713Y172307D01*
X209688Y172267D01*
X209658Y172231D01*
X209623Y172201D01*
X209583Y172177D01*
X209540Y172159D01*
X209495Y172148D01*
X209449Y172145D01*
X204331D01*
X204284Y172148D01*
X204239Y172159D01*
X204196Y172177D01*
X204157Y172201D01*
X204121Y172231D01*
X204091Y172267D01*
X204067Y172307D01*
X204049Y172349D01*
X204038Y172395D01*
X204034Y172441D01*
Y174113D01*
X202362D01*
X202316Y174117D01*
X202271Y174128D01*
X202228Y174145D01*
X202188Y174170D01*
X202158Y174196D01*
X202153Y174200D01*
Y174200D01*
X202153D01*
X202148Y174205D01*
X202123Y174235D01*
X202098Y174275D01*
X202081Y174318D01*
X202070Y174363D01*
X202066Y174409D01*
X202066Y177953D01*
Y177953D01*
D01*
X202070Y177999D01*
X202080Y178044D01*
X202098Y178087D01*
X202123Y178127D01*
X202148Y178157D01*
X202153Y178162D01*
X202153D01*
Y178162D01*
X202158Y178167D01*
X202188Y178192D01*
X202228Y178217D01*
X202271Y178234D01*
X202316Y178245D01*
X202362Y178249D01*
D01*
X202362D01*
X204034D01*
Y179921D01*
X204038Y179968D01*
X204049Y180013D01*
X204067Y180056D01*
X204091Y180095D01*
X204121Y180131D01*
X204157Y180161D01*
X204196Y180185D01*
X204239Y180203D01*
X204284Y180214D01*
X204331Y180218D01*
X209449D01*
X209495Y180214D01*
D02*
G37*
G36*
X232723D02*
X232769Y180203D01*
X232812Y180185D01*
X232851Y180161D01*
X232887Y180131D01*
X232917Y180095D01*
X232941Y180056D01*
X232959Y180013D01*
X232970Y179968D01*
X232973Y179921D01*
Y178249D01*
X234646D01*
X234692Y178245D01*
X234737Y178235D01*
X234780Y178217D01*
X234820Y178192D01*
X234850Y178167D01*
X234855Y178162D01*
Y178162D01*
X234855D01*
X234859Y178157D01*
X234885Y178127D01*
X234910Y178087D01*
X234927Y178044D01*
X234938Y177999D01*
X234942Y177953D01*
X234942Y174409D01*
Y174409D01*
D01*
X234938Y174363D01*
X234927Y174318D01*
X234910Y174275D01*
X234885Y174235D01*
X234859Y174205D01*
X234855Y174200D01*
X234855D01*
Y174200D01*
X234850Y174196D01*
X234820Y174170D01*
X234780Y174145D01*
X234737Y174128D01*
X234692Y174117D01*
X234646Y174113D01*
D01*
X234646D01*
X232973D01*
Y172441D01*
X232970Y172395D01*
X232959Y172349D01*
X232941Y172307D01*
X232917Y172267D01*
X232887Y172231D01*
X232851Y172201D01*
X232812Y172177D01*
X232769Y172159D01*
X232723Y172148D01*
X232677Y172145D01*
X227559D01*
X227513Y172148D01*
X227467Y172159D01*
X227425Y172177D01*
X227385Y172201D01*
X227350Y172231D01*
X227319Y172267D01*
X227295Y172307D01*
X227277Y172349D01*
X227267Y172395D01*
X227263Y172441D01*
Y179921D01*
X227267Y179968D01*
X227277Y180013D01*
X227295Y180056D01*
X227319Y180095D01*
X227350Y180131D01*
X227385Y180161D01*
X227425Y180185D01*
X227467Y180203D01*
X227513Y180214D01*
X227559Y180218D01*
X232677D01*
X232723Y180214D01*
D02*
G37*
D17*
X233661Y177953D02*
X233169Y178805D01*
X232185D01*
X231693Y177953D01*
X232185Y177100D01*
X233169D01*
X233661Y177953D01*
Y174409D02*
X233169Y175262D01*
X232185D01*
X231693Y174409D01*
X232185Y173557D01*
X233169D01*
X233661Y174409D01*
X205315Y177953D02*
X204823Y178805D01*
X203839D01*
X203346Y177953D01*
X203839Y177100D01*
X204823D01*
X205315Y177953D01*
Y174409D02*
X204823Y175262D01*
X203839D01*
X203346Y174409D01*
X203839Y173557D01*
X204823D01*
X205315Y174409D01*
D18*
X222441Y176181D02*
D03*
X214567D02*
D03*
D19*
X219390Y90453D02*
D03*
X237894D02*
D03*
D20*
X210138Y61693D02*
D03*
Y67716D02*
D03*
Y73740D02*
D03*
D21*
X189567Y135039D02*
D03*
X196063D02*
D03*
X164665Y131299D02*
D03*
X158169D02*
D03*
X100492Y100295D02*
D03*
X93996D02*
D03*
X242323Y157874D02*
D03*
X248819D02*
D03*
X242323Y149114D02*
D03*
X248819D02*
D03*
D22*
X191535Y122728D02*
D03*
Y127665D02*
D03*
D23*
X193898Y76279D02*
D03*
X199803D02*
D03*
X199606Y65945D02*
D03*
X193701D02*
D03*
D24*
X234449Y149114D02*
D03*
X226181D02*
D03*
X226673Y157874D02*
D03*
X234941D02*
D03*
D25*
X172539Y138779D02*
D03*
Y135039D02*
D03*
Y131299D02*
D03*
X182382D02*
D03*
Y135039D02*
D03*
Y138779D02*
D03*
D26*
X223622Y165551D02*
D03*
X221063D02*
D03*
X218504D02*
D03*
X215945D02*
D03*
X213386D02*
D03*
D27*
X128937Y44882D02*
D03*
X121457D02*
D03*
X90945Y86614D02*
D03*
X98425D02*
D03*
X128543Y103937D02*
D03*
X136024D02*
D03*
D28*
X194035Y90256D02*
D03*
X208130D02*
D03*
D29*
X118504Y66929D02*
D03*
Y70079D02*
D03*
Y73228D02*
D03*
Y76378D02*
D03*
Y79528D02*
D03*
Y82677D02*
D03*
Y85827D02*
D03*
Y88976D02*
D03*
X151575D02*
D03*
Y85827D02*
D03*
Y82677D02*
D03*
Y79528D02*
D03*
Y76378D02*
D03*
Y73228D02*
D03*
Y70079D02*
D03*
Y66929D02*
D03*
D30*
X124016Y94488D02*
D03*
X127165D02*
D03*
X130315D02*
D03*
X133465D02*
D03*
X136614D02*
D03*
X139764D02*
D03*
X142913D02*
D03*
X146063D02*
D03*
Y61417D02*
D03*
X142913D02*
D03*
X139764D02*
D03*
X136614D02*
D03*
X133465D02*
D03*
X130315D02*
D03*
X127165D02*
D03*
X124016D02*
D03*
D31*
X142913Y44882D02*
D03*
X180315D02*
D03*
D32*
X226476Y130020D02*
D03*
D33*
X237154Y137520D02*
D03*
Y132520D02*
D03*
Y127520D02*
D03*
Y122520D02*
D03*
X215799D02*
D03*
Y127520D02*
D03*
Y132520D02*
D03*
Y137520D02*
D03*
D34*
X166071Y156898D02*
D03*
Y154339D02*
D03*
Y151779D02*
D03*
Y149221D02*
D03*
X189205D02*
D03*
Y151779D02*
D03*
Y154339D02*
D03*
Y156898D02*
D03*
D35*
X162205Y64370D02*
D03*
Y56890D02*
D03*
D36*
X202756Y155807D02*
D03*
Y149311D02*
D03*
D37*
X217520Y156102D02*
D03*
Y150197D02*
D03*
X203346Y133760D02*
D03*
Y127854D02*
D03*
D38*
X165354Y15748D02*
D03*
X15748Y165354D02*
D03*
D39*
X232283Y176181D02*
D03*
X204724D02*
D03*
D40*
X153819Y150039D02*
D03*
X102087D02*
D03*
X84921Y150079D02*
D03*
X33189D02*
D03*
D41*
X228346Y165551D02*
D03*
X208661D02*
D03*
D42*
X48307Y126051D02*
D03*
X38307D02*
D03*
X48307Y55051D02*
D03*
X38307D02*
D03*
X28307Y126051D02*
D03*
X58307D02*
D03*
Y55051D02*
D03*
X28307D02*
D03*
X68307Y126051D02*
D03*
Y55051D02*
D03*
X18307Y126051D02*
D03*
Y55051D02*
D03*
X78307D02*
D03*
X8307Y126051D02*
D03*
Y55051D02*
D03*
D43*
X78307Y126051D02*
D03*
D44*
X87795Y110236D02*
D03*
X77795D02*
D03*
X52795Y60236D02*
D03*
X72795D02*
D03*
X82795D02*
D03*
X42795Y120236D02*
D03*
X92795D02*
D03*
X112795D02*
D03*
X32795D02*
D03*
D45*
X98425Y76378D02*
D03*
X191240Y108957D02*
D03*
D46*
X142795Y123228D02*
D03*
X132795D02*
D03*
X152795D02*
D03*
X17323Y110551D02*
D03*
Y80551D02*
D03*
Y90551D02*
D03*
Y100551D02*
D03*
D47*
X122795Y123228D02*
D03*
D48*
X23425Y6102D02*
D03*
X40748Y44291D02*
D03*
X35236Y34055D02*
D03*
D49*
X53347Y8071D02*
D03*
X10039Y23819D02*
D03*
D50*
X72835Y139409D02*
D03*
X45276D02*
D03*
X62992D02*
D03*
X55118D02*
D03*
X124016Y139370D02*
D03*
X131890D02*
D03*
X114173D02*
D03*
X141732D02*
D03*
D51*
X59055Y45276D02*
D03*
X69055D02*
D03*
D52*
X79055D02*
D03*
D53*
X33366Y113484D02*
D03*
X151575Y111811D02*
D03*
X110236Y19685D02*
D03*
X145669D02*
D03*
X82677D02*
D03*
D54*
X41240Y113484D02*
D03*
X143701Y111811D02*
D03*
X15748Y147244D02*
D03*
X118110Y19685D02*
D03*
X137795D02*
D03*
X90551D02*
D03*
D55*
X202953Y114842D02*
D03*
D56*
Y104842D02*
D03*
X202087Y44488D02*
D03*
X175197Y170866D02*
D03*
D57*
X17323Y70551D02*
D03*
D58*
X212087Y44488D02*
D03*
X185197Y170866D02*
D03*
D59*
X15748Y139370D02*
D03*
D60*
X97441Y35433D02*
D03*
X206693Y75787D02*
D03*
X88583Y94488D02*
D03*
X102539Y40074D02*
D03*
X53150Y80709D02*
D03*
X53754Y90171D02*
D03*
X161811Y70472D02*
D03*
D61*
X246063Y11811D02*
D03*
Y170276D02*
D03*
D62*
X221457Y142717D02*
D03*
X141495Y77261D02*
D03*
X163309Y95254D02*
D03*
X163287Y103051D02*
D03*
X172539Y125591D02*
D03*
X182972Y122736D02*
D03*
X177165Y148721D02*
D03*
X209646Y122736D02*
D03*
X189173Y142224D02*
D03*
M02*
