G04*
G04 #@! TF.GenerationSoftware,Altium Limited,Altium Designer,23.4.1 (23)*
G04*
G04 Layer_Physical_Order=2*
G04 Layer_Color=16711680*
%FSLAX25Y25*%
%MOIN*%
G70*
G04*
G04 #@! TF.SameCoordinates,34C706FF-D981-4061-8AA4-72CC7803A1E3*
G04*
G04*
G04 #@! TF.FilePolarity,Positive*
G04*
G01*
G75*
%ADD17C,0.01968*%
%ADD38C,0.15748*%
%ADD53R,0.05118X0.05118*%
%ADD54C,0.05118*%
%ADD55R,0.06181X0.06181*%
%ADD56C,0.06181*%
%ADD58R,0.06181X0.06181*%
%ADD59R,0.05118X0.05118*%
%ADD75C,0.02756*%
G04:AMPARAMS|DCode=76|XSize=78.74mil|YSize=39.37mil|CornerRadius=9.84mil|HoleSize=0mil|Usage=FLASHONLY|Rotation=270.000|XOffset=0mil|YOffset=0mil|HoleType=Round|Shape=RoundedRectangle|*
%AMROUNDEDRECTD76*
21,1,0.07874,0.01968,0,0,270.0*
21,1,0.05906,0.03937,0,0,270.0*
1,1,0.01968,-0.00984,-0.02953*
1,1,0.01968,-0.00984,0.02953*
1,1,0.01968,0.00984,0.02953*
1,1,0.01968,0.00984,-0.02953*
%
%ADD76ROUNDEDRECTD76*%
%ADD77C,0.13583*%
%ADD78C,0.05709*%
%ADD79C,0.05150*%
%ADD80R,0.05150X0.05150*%
%ADD81C,0.05512*%
%ADD82C,0.06299*%
%ADD83C,0.07087*%
%ADD84R,0.07087X0.07087*%
%ADD85O,0.11024X0.05512*%
%ADD86O,0.05512X0.11024*%
%ADD87C,0.05591*%
%ADD88C,0.06102*%
%ADD89R,0.06102X0.06102*%
%ADD90R,0.07087X0.07087*%
%ADD91C,0.03937*%
%ADD92C,0.11811*%
%ADD93C,0.05000*%
G36*
X257071Y803D02*
X803D01*
Y181284D01*
X257071D01*
Y803D01*
D02*
G37*
%LPC*%
G36*
X233268Y180647D02*
X231299D01*
X230720Y180532D01*
X230229Y180204D01*
X229901Y179713D01*
X229786Y179134D01*
Y173228D01*
X229901Y172649D01*
X230229Y172158D01*
X230720Y171830D01*
X231299Y171715D01*
X233268D01*
X233847Y171830D01*
X234338Y172158D01*
X234666Y172649D01*
X234781Y173228D01*
Y179134D01*
X234666Y179713D01*
X234338Y180204D01*
X233847Y180532D01*
X233268Y180647D01*
D02*
G37*
G36*
X205709D02*
X203740D01*
X203161Y180532D01*
X202670Y180204D01*
X202342Y179713D01*
X202227Y179134D01*
Y173228D01*
X202342Y172649D01*
X202670Y172158D01*
X203161Y171830D01*
X203740Y171715D01*
X205709D01*
X206288Y171830D01*
X206779Y172158D01*
X207107Y172649D01*
X207222Y173228D01*
Y179134D01*
X207107Y179713D01*
X206779Y180204D01*
X206288Y180532D01*
X205709Y180647D01*
D02*
G37*
G36*
X188787Y174457D02*
X181606D01*
Y167276D01*
X188787D01*
Y174457D01*
D02*
G37*
G36*
X228788Y168905D02*
X227905D01*
X227052Y168677D01*
X226287Y168235D01*
X225662Y167611D01*
X225221Y166846D01*
X224992Y165993D01*
Y165110D01*
X225221Y164257D01*
X225662Y163492D01*
X226287Y162867D01*
X227052Y162425D01*
X227905Y162197D01*
X228788D01*
X229641Y162425D01*
X230406Y162867D01*
X231031Y163492D01*
X231472Y164257D01*
X231701Y165110D01*
Y165993D01*
X231472Y166846D01*
X231031Y167611D01*
X230406Y168235D01*
X229641Y168677D01*
X228788Y168905D01*
D02*
G37*
G36*
X209103D02*
X208220D01*
X207367Y168677D01*
X206602Y168235D01*
X205977Y167611D01*
X205536Y166846D01*
X205307Y165993D01*
Y165110D01*
X205536Y164257D01*
X205977Y163492D01*
X206602Y162867D01*
X207367Y162425D01*
X208220Y162197D01*
X209103D01*
X209956Y162425D01*
X210721Y162867D01*
X211346Y163492D01*
X211787Y164257D01*
X212016Y165110D01*
Y165993D01*
X211787Y166846D01*
X211346Y167611D01*
X210721Y168235D01*
X209956Y168677D01*
X209103Y168905D01*
D02*
G37*
G36*
X18807Y142429D02*
X12689D01*
Y136311D01*
X18807D01*
Y142429D01*
D02*
G37*
G36*
X73269Y142705D02*
X72401D01*
X71563Y142480D01*
X70811Y142046D01*
X70198Y141433D01*
X69764Y140681D01*
X69539Y139843D01*
Y138976D01*
X69764Y138137D01*
X70198Y137386D01*
X70811Y136773D01*
X71563Y136339D01*
X72401Y136114D01*
X73269D01*
X74107Y136339D01*
X74858Y136773D01*
X75472Y137386D01*
X75905Y138137D01*
X76130Y138976D01*
Y139843D01*
X75905Y140681D01*
X75472Y141433D01*
X74858Y142046D01*
X74107Y142480D01*
X73269Y142705D01*
D02*
G37*
G36*
X63426D02*
X62558D01*
X61720Y142480D01*
X60969Y142046D01*
X60355Y141433D01*
X59921Y140681D01*
X59697Y139843D01*
Y138976D01*
X59921Y138137D01*
X60355Y137386D01*
X60969Y136773D01*
X61720Y136339D01*
X62558Y136114D01*
X63426D01*
X64264Y136339D01*
X65016Y136773D01*
X65629Y137386D01*
X66063Y138137D01*
X66287Y138976D01*
Y139843D01*
X66063Y140681D01*
X65629Y141433D01*
X65016Y142046D01*
X64264Y142480D01*
X63426Y142705D01*
D02*
G37*
G36*
X55552D02*
X54684D01*
X53846Y142480D01*
X53095Y142046D01*
X52481Y141433D01*
X52047Y140681D01*
X51823Y139843D01*
Y138976D01*
X52047Y138137D01*
X52481Y137386D01*
X53095Y136773D01*
X53846Y136339D01*
X54684Y136114D01*
X55552D01*
X56390Y136339D01*
X57141Y136773D01*
X57755Y137386D01*
X58189Y138137D01*
X58413Y138976D01*
Y139843D01*
X58189Y140681D01*
X57755Y141433D01*
X57141Y142046D01*
X56390Y142480D01*
X55552Y142705D01*
D02*
G37*
G36*
X132324Y142665D02*
X131456D01*
X130618Y142441D01*
X129866Y142007D01*
X129253Y141393D01*
X128819Y140642D01*
X128595Y139804D01*
Y138936D01*
X128819Y138098D01*
X129253Y137347D01*
X129866Y136733D01*
X130618Y136299D01*
X131456Y136075D01*
X132324D01*
X133162Y136299D01*
X133913Y136733D01*
X134527Y137347D01*
X134960Y138098D01*
X135185Y138936D01*
Y139804D01*
X134960Y140642D01*
X134527Y141393D01*
X133913Y142007D01*
X133162Y142441D01*
X132324Y142665D01*
D02*
G37*
G36*
X124450D02*
X123582D01*
X122744Y142441D01*
X121992Y142007D01*
X121379Y141393D01*
X120945Y140642D01*
X120721Y139804D01*
Y138936D01*
X120945Y138098D01*
X121379Y137347D01*
X121992Y136733D01*
X122744Y136299D01*
X123582Y136075D01*
X124450D01*
X125288Y136299D01*
X126039Y136733D01*
X126653Y137347D01*
X127086Y138098D01*
X127311Y138936D01*
Y139804D01*
X127086Y140642D01*
X126653Y141393D01*
X126039Y142007D01*
X125288Y142441D01*
X124450Y142665D01*
D02*
G37*
G36*
X142166D02*
X141298D01*
X140460Y142441D01*
X139709Y142007D01*
X139095Y141393D01*
X138662Y140642D01*
X138437Y139804D01*
Y138936D01*
X138662Y138098D01*
X139095Y137347D01*
X139709Y136733D01*
X140460Y136299D01*
X141298Y136075D01*
X142166D01*
X143004Y136299D01*
X143756Y136733D01*
X144253Y137231D01*
X145002D01*
X149897Y132336D01*
X149690Y131836D01*
X91269D01*
X90537Y131690D01*
X89915Y131275D01*
X89915Y131275D01*
X81882Y123242D01*
X81382Y123449D01*
Y129126D01*
X75232D01*
Y122976D01*
X80910D01*
X81117Y122476D01*
X76402Y117762D01*
X75987Y117141D01*
X75841Y116408D01*
X75841Y116408D01*
Y112868D01*
X75796Y112842D01*
X75190Y112235D01*
X74761Y111493D01*
X74539Y110665D01*
Y109808D01*
X74761Y108979D01*
X75190Y108237D01*
X75726Y107701D01*
X75668Y107413D01*
X75543Y107201D01*
X49663D01*
X44190Y112674D01*
X44299Y113082D01*
Y113887D01*
X44091Y114665D01*
X43688Y115363D01*
X43119Y115932D01*
X42421Y116335D01*
X41643Y116543D01*
X40837D01*
X40059Y116335D01*
X39362Y115932D01*
X38792Y115363D01*
X38390Y114665D01*
X38181Y113887D01*
Y113082D01*
X38390Y112303D01*
X38792Y111606D01*
X39362Y111036D01*
X40059Y110634D01*
X40837Y110425D01*
X41643D01*
X42050Y110534D01*
X47966Y104618D01*
X47966Y104618D01*
X48457Y104290D01*
X49036Y104175D01*
X49036Y104175D01*
X152248D01*
X160407Y96015D01*
X160309Y95649D01*
Y94859D01*
X160514Y94096D01*
X160909Y93412D01*
X161467Y92853D01*
X162151Y92458D01*
X162914Y92254D01*
X163521D01*
X163745Y91771D01*
X163349Y91375D01*
X161060D01*
X150972Y101464D01*
X150481Y101792D01*
X149902Y101907D01*
X149901Y101907D01*
X47084D01*
X36425Y112565D01*
Y116543D01*
X33525D01*
X33459Y117043D01*
X34052Y117202D01*
X34795Y117631D01*
X35401Y118237D01*
X35829Y118980D01*
X36051Y119808D01*
Y120665D01*
X35829Y121493D01*
X35401Y122235D01*
X34795Y122842D01*
X34269Y123145D01*
Y126038D01*
X34764Y126533D01*
X35232Y126294D01*
Y125646D01*
X35442Y124864D01*
X35847Y124163D01*
X36419Y123591D01*
X37120Y123186D01*
X37902Y122976D01*
X38712D01*
X39494Y123186D01*
X40195Y123591D01*
X40767Y124163D01*
X41172Y124864D01*
X41382Y125646D01*
Y126456D01*
X41172Y127238D01*
X40767Y127939D01*
X40310Y128397D01*
X40472Y128897D01*
X46142D01*
X46304Y128397D01*
X45847Y127939D01*
X45442Y127238D01*
X45232Y126456D01*
Y125646D01*
X45442Y124864D01*
X45847Y124163D01*
X46419Y123591D01*
X47120Y123186D01*
X47902Y122976D01*
X48712D01*
X49494Y123186D01*
X50195Y123591D01*
X50767Y124163D01*
X51172Y124864D01*
X51382Y125646D01*
Y126456D01*
X51172Y127238D01*
X50767Y127939D01*
X50310Y128397D01*
X50472Y128897D01*
X53321D01*
X55344Y126874D01*
X55232Y126456D01*
Y125646D01*
X55442Y124864D01*
X55847Y124163D01*
X56419Y123591D01*
X57120Y123186D01*
X57902Y122976D01*
X58712D01*
X59494Y123186D01*
X60195Y123591D01*
X60768Y124163D01*
X61172Y124864D01*
X61382Y125646D01*
Y126456D01*
X61172Y127238D01*
X60768Y127939D01*
X60195Y128512D01*
X59494Y128916D01*
X58712Y129126D01*
X57902D01*
X57484Y129014D01*
X55018Y131480D01*
X54527Y131808D01*
X53948Y131924D01*
X53948Y131924D01*
X36502D01*
X36502Y131924D01*
X35922Y131808D01*
X35431Y131480D01*
X35431Y131480D01*
X31686Y127735D01*
X31566Y127556D01*
X30978Y127575D01*
X30768Y127939D01*
X30195Y128512D01*
X29494Y128916D01*
X28712Y129126D01*
X27902D01*
X27120Y128916D01*
X26419Y128512D01*
X25847Y127939D01*
X25442Y127238D01*
X25232Y126456D01*
Y125646D01*
X25442Y124864D01*
X25847Y124163D01*
X26419Y123591D01*
X27120Y123186D01*
X27902Y122976D01*
X28712D01*
X29494Y123186D01*
X30195Y123591D01*
X30743Y124138D01*
X30856Y124130D01*
X31243Y123986D01*
Y123099D01*
X30796Y122842D01*
X30190Y122235D01*
X29761Y121493D01*
X29539Y120665D01*
Y119808D01*
X29761Y118980D01*
X30190Y118237D01*
X30796Y117631D01*
X31539Y117202D01*
X32132Y117043D01*
X32066Y116543D01*
X30307D01*
Y110425D01*
X34285D01*
X45387Y99324D01*
X45387Y99324D01*
X45878Y98996D01*
X46457Y98880D01*
X149275D01*
X159363Y88792D01*
X159854Y88464D01*
X160433Y88349D01*
X160433Y88349D01*
X163976D01*
X163976Y88349D01*
X164556Y88464D01*
X165047Y88792D01*
X169968Y93713D01*
X169968Y93713D01*
X170296Y94204D01*
X170411Y94784D01*
X170411Y94784D01*
Y97441D01*
X170411Y97441D01*
X170296Y98020D01*
X169968Y98511D01*
X169968Y98511D01*
X166189Y102290D01*
X166287Y102656D01*
Y103446D01*
X166083Y104209D01*
X165688Y104893D01*
X165129Y105452D01*
X164445Y105847D01*
X163682Y106051D01*
X162892D01*
X162129Y105847D01*
X161445Y105452D01*
X160887Y104893D01*
X160492Y104209D01*
X160287Y103446D01*
Y102656D01*
X160492Y101893D01*
X160887Y101209D01*
X161445Y100651D01*
X162129Y100256D01*
X162892Y100051D01*
X163682D01*
X164049Y100149D01*
X167384Y96814D01*
Y95410D01*
X166792Y94818D01*
X166309Y95042D01*
Y95649D01*
X166105Y96412D01*
X165710Y97096D01*
X165151Y97654D01*
X164467Y98049D01*
X163704Y98254D01*
X162914D01*
X162548Y98156D01*
X153945Y106758D01*
X153454Y107086D01*
X152875Y107201D01*
X152875Y107201D01*
X90047D01*
X89923Y107413D01*
X89865Y107701D01*
X90401Y108237D01*
X90449Y108321D01*
X129803D01*
X129803Y108321D01*
X130536Y108467D01*
X131157Y108882D01*
X141630Y119355D01*
X142263Y119185D01*
X143328D01*
X144356Y119461D01*
X145278Y119993D01*
X146031Y120746D01*
X146563Y121668D01*
X146839Y122696D01*
Y123761D01*
X146563Y124789D01*
X146031Y125711D01*
X145278Y126464D01*
X144356Y126996D01*
X143328Y127272D01*
X142263D01*
X141235Y126996D01*
X140313Y126464D01*
X139560Y125711D01*
X139028Y124789D01*
X138752Y123761D01*
Y122696D01*
X138922Y122063D01*
X129010Y112151D01*
X90449D01*
X90401Y112235D01*
X89794Y112842D01*
X89052Y113270D01*
X88224Y113492D01*
X87367D01*
X86538Y113270D01*
X85796Y112842D01*
X85190Y112235D01*
X84761Y111493D01*
X84539Y110665D01*
Y109808D01*
X84761Y108979D01*
X85190Y108237D01*
X85725Y107701D01*
X85668Y107413D01*
X85543Y107201D01*
X80047D01*
X79923Y107413D01*
X79865Y107701D01*
X80401Y108237D01*
X80829Y108979D01*
X81051Y109808D01*
Y110665D01*
X80829Y111493D01*
X80401Y112235D01*
X79794Y112842D01*
X79671Y112913D01*
Y115615D01*
X92062Y128006D01*
X149198D01*
X150152Y127052D01*
Y126303D01*
X149560Y125711D01*
X149028Y124789D01*
X148752Y123761D01*
Y122696D01*
X149028Y121668D01*
X149560Y120746D01*
X150313Y119993D01*
X151235Y119461D01*
X152263Y119185D01*
X153328D01*
X154356Y119461D01*
X155278Y119993D01*
X156031Y120746D01*
X156563Y121668D01*
X156839Y122696D01*
Y123761D01*
X156563Y124789D01*
X156325Y125201D01*
X156726Y125508D01*
X174630Y107603D01*
X174630Y107603D01*
X175251Y107188D01*
X175984Y107042D01*
X175984Y107042D01*
X188131D01*
X188320Y106716D01*
X188999Y106036D01*
X189831Y105556D01*
X190760Y105307D01*
X191721D01*
X192649Y105556D01*
X193481Y106036D01*
X194161Y106716D01*
X194641Y107548D01*
X194890Y108476D01*
Y109437D01*
X194641Y110365D01*
X194161Y111198D01*
X193481Y111877D01*
X192649Y112358D01*
X191721Y112606D01*
X190760D01*
X189831Y112358D01*
X188999Y111877D01*
X188320Y111198D01*
X188131Y110871D01*
X176777D01*
X147149Y140500D01*
X146528Y140915D01*
X145795Y141060D01*
X145795Y141060D01*
X144561D01*
X144369Y141393D01*
X143756Y142007D01*
X143004Y142441D01*
X142166Y142665D01*
D02*
G37*
G36*
X8712Y129126D02*
X7902D01*
X7120Y128916D01*
X6419Y128512D01*
X5847Y127939D01*
X5442Y127238D01*
X5232Y126456D01*
Y125646D01*
X5442Y124864D01*
X5847Y124163D01*
X6419Y123591D01*
X7120Y123186D01*
X7902Y122976D01*
X8712D01*
X9494Y123186D01*
X10195Y123591D01*
X10768Y124163D01*
X11172Y124864D01*
X11382Y125646D01*
Y126456D01*
X11172Y127238D01*
X10768Y127939D01*
X10195Y128512D01*
X9494Y128916D01*
X8712Y129126D01*
D02*
G37*
G36*
X68712D02*
X67902D01*
X67120Y128916D01*
X66419Y128512D01*
X65847Y127939D01*
X65442Y127238D01*
X65232Y126456D01*
Y125646D01*
X65344Y125229D01*
X61865Y121749D01*
X45681D01*
X45401Y122235D01*
X44794Y122842D01*
X44052Y123270D01*
X43224Y123492D01*
X42367D01*
X41539Y123270D01*
X40796Y122842D01*
X40190Y122235D01*
X39761Y121493D01*
X39539Y120665D01*
Y119808D01*
X39761Y118980D01*
X40190Y118237D01*
X40796Y117631D01*
X41539Y117202D01*
X42367Y116980D01*
X43224D01*
X44052Y117202D01*
X44794Y117631D01*
X45401Y118237D01*
X45681Y118723D01*
X62492D01*
X62492Y118723D01*
X63071Y118838D01*
X63562Y119166D01*
X67484Y123088D01*
X67902Y122976D01*
X68712D01*
X69494Y123186D01*
X70195Y123591D01*
X70767Y124163D01*
X71172Y124864D01*
X71382Y125646D01*
Y126456D01*
X71172Y127238D01*
X70767Y127939D01*
X70195Y128512D01*
X69494Y128916D01*
X68712Y129126D01*
D02*
G37*
G36*
X221852Y145717D02*
X221062D01*
X220299Y145512D01*
X219615Y145117D01*
X219056Y144559D01*
X218661Y143875D01*
X218457Y143112D01*
Y142322D01*
X218661Y141559D01*
X219056Y140875D01*
X219615Y140316D01*
X219699Y140267D01*
Y135498D01*
X209938Y125736D01*
X209251D01*
X208488Y125532D01*
X207804Y125137D01*
X207245Y124578D01*
X206850Y123894D01*
X206646Y123131D01*
Y122341D01*
X206850Y121578D01*
X207245Y120894D01*
X207804Y120336D01*
X208488Y119941D01*
X209251Y119736D01*
X210041D01*
X210804Y119941D01*
X211488Y120336D01*
X212046Y120894D01*
X212441Y121578D01*
X212646Y122341D01*
Y123028D01*
X222968Y133351D01*
X222968Y133351D01*
X223383Y133972D01*
X223529Y134705D01*
X223529Y134705D01*
Y140546D01*
X223857Y140875D01*
X224252Y141559D01*
X224457Y142322D01*
Y143112D01*
X224252Y143875D01*
X223857Y144559D01*
X223299Y145117D01*
X222615Y145512D01*
X221852Y145717D01*
D02*
G37*
G36*
X133328Y127272D02*
X132263D01*
X131235Y126996D01*
X130313Y126464D01*
X129560Y125711D01*
X129027Y124789D01*
X128752Y123761D01*
Y122696D01*
X129027Y121668D01*
X129560Y120746D01*
X129704Y120601D01*
X126320Y117217D01*
X98483D01*
X96018Y119682D01*
X96051Y119808D01*
Y120665D01*
X95829Y121493D01*
X95401Y122235D01*
X94794Y122842D01*
X94052Y123270D01*
X93224Y123492D01*
X92367D01*
X91539Y123270D01*
X90796Y122842D01*
X90190Y122235D01*
X89761Y121493D01*
X89539Y120665D01*
Y119808D01*
X89761Y118980D01*
X90190Y118237D01*
X90796Y117631D01*
X91539Y117202D01*
X92367Y116980D01*
X93224D01*
X93287Y116997D01*
X96336Y113949D01*
X96336Y113948D01*
X96957Y113533D01*
X97690Y113388D01*
X127113D01*
X127113Y113388D01*
X127846Y113533D01*
X128467Y113948D01*
X133320Y118802D01*
X133321Y118802D01*
X133631Y119266D01*
X134356Y119461D01*
X135278Y119993D01*
X136031Y120746D01*
X136563Y121668D01*
X136839Y122696D01*
Y123761D01*
X136563Y124789D01*
X136031Y125711D01*
X135278Y126464D01*
X134356Y126996D01*
X133328Y127272D01*
D02*
G37*
G36*
X177560Y151720D02*
X176770D01*
X176007Y151516D01*
X175323Y151121D01*
X174765Y150563D01*
X174370Y149878D01*
X174165Y149115D01*
Y148428D01*
X163213Y137476D01*
X162798Y136855D01*
X162652Y136122D01*
X162652Y136122D01*
Y126575D01*
X162652Y126575D01*
X162798Y125842D01*
X163213Y125221D01*
X171087Y117347D01*
X171087Y117347D01*
X171708Y116932D01*
X172441Y116786D01*
X172441Y116786D01*
X178937D01*
X178937Y116786D01*
X179670Y116932D01*
X180291Y117347D01*
X182680Y119736D01*
X183367D01*
X184130Y119941D01*
X184815Y120336D01*
X185373Y120894D01*
X185768Y121578D01*
X185972Y122341D01*
Y123131D01*
X185768Y123894D01*
X185373Y124578D01*
X184815Y125137D01*
X184130Y125532D01*
X183367Y125736D01*
X182578D01*
X181815Y125532D01*
X181130Y125137D01*
X180572Y124578D01*
X180177Y123894D01*
X179972Y123131D01*
Y122444D01*
X178144Y120615D01*
X173234D01*
X171642Y122207D01*
X171901Y122656D01*
X172144Y122591D01*
X172934D01*
X173697Y122795D01*
X174381Y123190D01*
X174940Y123749D01*
X175335Y124433D01*
X175539Y125196D01*
Y125883D01*
X188881Y139224D01*
X189568D01*
X190331Y139429D01*
X191015Y139824D01*
X191574Y140382D01*
X191969Y141067D01*
X192173Y141829D01*
Y142619D01*
X191969Y143382D01*
X191574Y144067D01*
X191015Y144625D01*
X190331Y145020D01*
X189568Y145224D01*
X188778D01*
X188015Y145020D01*
X187331Y144625D01*
X186773Y144067D01*
X186378Y143382D01*
X186173Y142619D01*
Y141932D01*
X172831Y128591D01*
X172144D01*
X171381Y128386D01*
X170697Y127991D01*
X170139Y127433D01*
X169744Y126749D01*
X169539Y125986D01*
Y125196D01*
X169605Y124952D01*
X169156Y124693D01*
X166482Y127368D01*
Y135329D01*
X176873Y145721D01*
X177560D01*
X178323Y145925D01*
X179007Y146320D01*
X179566Y146878D01*
X179961Y147563D01*
X180165Y148326D01*
Y149115D01*
X179961Y149878D01*
X179566Y150563D01*
X179007Y151121D01*
X178323Y151516D01*
X177560Y151720D01*
D02*
G37*
G36*
X192913Y163332D02*
X192913Y163332D01*
X29921D01*
X29188Y163186D01*
X28567Y162771D01*
X28567Y162771D01*
X16099Y150303D01*
X15345D01*
X14567Y150095D01*
X13870Y149692D01*
X13300Y149122D01*
X12898Y148425D01*
X12689Y147647D01*
Y146841D01*
X12898Y146063D01*
X13300Y145366D01*
X13870Y144796D01*
X14567Y144394D01*
X15345Y144185D01*
X16151D01*
X16929Y144394D01*
X17626Y144796D01*
X18196Y145366D01*
X18599Y146063D01*
X18807Y146841D01*
Y147595D01*
X30714Y159503D01*
X192120D01*
X201038Y150585D01*
Y118433D01*
X199362D01*
Y111252D01*
X206543D01*
Y118433D01*
X204868D01*
Y151378D01*
X204868Y151378D01*
X204722Y152111D01*
X204307Y152732D01*
X204307Y152732D01*
X194267Y162771D01*
X193646Y163186D01*
X192913Y163332D01*
D02*
G37*
G36*
X154634Y114870D02*
X148516D01*
Y108752D01*
X154634D01*
Y114870D01*
D02*
G37*
G36*
X144104D02*
X143298D01*
X142520Y114662D01*
X141823Y114259D01*
X141253Y113689D01*
X140850Y112992D01*
X140642Y112214D01*
Y111408D01*
X140850Y110630D01*
X141253Y109933D01*
X141823Y109363D01*
X142520Y108960D01*
X143298Y108752D01*
X144104D01*
X144881Y108960D01*
X145579Y109363D01*
X146149Y109933D01*
X146551Y110630D01*
X146760Y111408D01*
Y112214D01*
X146551Y112992D01*
X146149Y113689D01*
X145579Y114259D01*
X144881Y114662D01*
X144104Y114870D01*
D02*
G37*
G36*
X17855Y114594D02*
X16791D01*
X15762Y114319D01*
X14840Y113787D01*
X14087Y113034D01*
X13555Y112112D01*
X13280Y111083D01*
Y110019D01*
X13555Y108991D01*
X14087Y108069D01*
X14840Y107316D01*
X15762Y106783D01*
X16791Y106508D01*
X17855D01*
X18883Y106783D01*
X19805Y107316D01*
X20558Y108069D01*
X21091Y108991D01*
X21366Y110019D01*
Y111083D01*
X21091Y112112D01*
X20558Y113034D01*
X19805Y113787D01*
X18883Y114319D01*
X17855Y114594D01*
D02*
G37*
G36*
X203426Y108433D02*
X202480D01*
X201567Y108188D01*
X200748Y107716D01*
X200080Y107047D01*
X199607Y106228D01*
X199362Y105315D01*
Y104370D01*
X199607Y103457D01*
X200080Y102638D01*
X200748Y101969D01*
X201567Y101497D01*
X202480Y101252D01*
X203426D01*
X204339Y101497D01*
X205157Y101969D01*
X205826Y102638D01*
X206299Y103457D01*
X206543Y104370D01*
Y105315D01*
X206299Y106228D01*
X205826Y107047D01*
X205157Y107716D01*
X204339Y108188D01*
X203426Y108433D01*
D02*
G37*
G36*
X17855Y104595D02*
X16791D01*
X15762Y104319D01*
X14840Y103787D01*
X14087Y103034D01*
X13555Y102112D01*
X13280Y101084D01*
Y100019D01*
X13555Y98990D01*
X14087Y98068D01*
X14840Y97316D01*
X15762Y96783D01*
X16791Y96508D01*
X17855D01*
X18883Y96783D01*
X19805Y97316D01*
X20558Y98068D01*
X21091Y98990D01*
X21366Y100019D01*
Y101084D01*
X21091Y102112D01*
X20558Y103034D01*
X19805Y103787D01*
X18883Y104319D01*
X17855Y104595D01*
D02*
G37*
G36*
Y94595D02*
X16791D01*
X15762Y94319D01*
X14840Y93787D01*
X14087Y93034D01*
X13555Y92112D01*
X13280Y91084D01*
Y90019D01*
X13555Y88990D01*
X14087Y88068D01*
X14840Y87316D01*
X15762Y86783D01*
X16791Y86508D01*
X17855D01*
X18883Y86783D01*
X19805Y87316D01*
X20558Y88068D01*
X21091Y88990D01*
X21366Y90019D01*
Y91084D01*
X21091Y92112D01*
X20558Y93034D01*
X19805Y93787D01*
X18883Y94319D01*
X17855Y94595D01*
D02*
G37*
G36*
X89074Y96957D02*
X88092D01*
X87184Y96581D01*
X86490Y95886D01*
X86114Y94979D01*
Y93997D01*
X86490Y93090D01*
X87184Y92396D01*
X88092Y92020D01*
X88343D01*
X100243Y80120D01*
X99936Y79720D01*
X99834Y79779D01*
X98906Y80028D01*
X97945D01*
X97017Y79779D01*
X96184Y79298D01*
X95505Y78619D01*
X95024Y77787D01*
X94776Y76858D01*
Y75898D01*
X95024Y74969D01*
X95505Y74137D01*
X96184Y73457D01*
X97017Y72977D01*
X97945Y72728D01*
X98906D01*
X99834Y72977D01*
X100666Y73457D01*
X101346Y74137D01*
X101826Y74969D01*
X102075Y75898D01*
Y76858D01*
X101826Y77787D01*
X101767Y77889D01*
X102167Y78196D01*
X104456Y75907D01*
X104456Y75907D01*
X105077Y75492D01*
X105810Y75346D01*
X105810Y75346D01*
X139167D01*
X139653Y74860D01*
X140337Y74465D01*
X141100Y74261D01*
X141890D01*
X142653Y74465D01*
X143337Y74860D01*
X143896Y75419D01*
X144291Y76103D01*
X144495Y76866D01*
Y77656D01*
X144291Y78419D01*
X143896Y79103D01*
X143337Y79662D01*
X142653Y80056D01*
X141890Y80261D01*
X141100D01*
X140337Y80056D01*
X139653Y79662D01*
X139167Y79176D01*
X106603D01*
X91051Y94727D01*
Y94979D01*
X90675Y95886D01*
X89981Y96581D01*
X89074Y96957D01*
D02*
G37*
G36*
X17855Y84595D02*
X16791D01*
X15762Y84319D01*
X14840Y83787D01*
X14087Y83034D01*
X13555Y82112D01*
X13280Y81084D01*
Y80019D01*
X13555Y78991D01*
X14087Y78069D01*
X14840Y77316D01*
X15762Y76783D01*
X16791Y76508D01*
X17855D01*
X18883Y76783D01*
X19805Y77316D01*
X20558Y78069D01*
X21091Y78991D01*
X21366Y80019D01*
Y81084D01*
X21091Y82112D01*
X20558Y83034D01*
X19805Y83787D01*
X18883Y84319D01*
X17855Y84595D01*
D02*
G37*
G36*
X73224Y63492D02*
X72367D01*
X71539Y63270D01*
X70796Y62842D01*
X70190Y62235D01*
X69761Y61493D01*
X69539Y60665D01*
Y59808D01*
X69761Y58979D01*
X70190Y58237D01*
X70796Y57631D01*
X70951Y57541D01*
X70945Y57469D01*
X70428Y57279D01*
X70195Y57512D01*
X69494Y57916D01*
X68712Y58126D01*
X67902D01*
X67120Y57916D01*
X66419Y57512D01*
X65847Y56939D01*
X65442Y56238D01*
X65232Y55456D01*
Y54646D01*
X65442Y53864D01*
X65847Y53163D01*
X66419Y52591D01*
X67120Y52186D01*
X67902Y51976D01*
X68712D01*
X69494Y52186D01*
X70195Y52591D01*
X70743Y53138D01*
X70856Y53130D01*
X71243Y52986D01*
Y48691D01*
X70749Y48398D01*
X70426Y48585D01*
X69523Y48827D01*
X68588D01*
X67684Y48585D01*
X66875Y48117D01*
X66214Y47456D01*
X65746Y46646D01*
X65504Y45743D01*
Y44808D01*
X65746Y43905D01*
X66214Y43095D01*
X66875Y42434D01*
X67684Y41966D01*
X68588Y41724D01*
X69523D01*
X70426Y41966D01*
X71236Y42434D01*
X71897Y43095D01*
X72206Y43631D01*
X72706Y43497D01*
Y41485D01*
X72706Y41485D01*
X72822Y40906D01*
X73150Y40415D01*
X79202Y34363D01*
X79202Y34363D01*
X79693Y34035D01*
X80272Y33920D01*
X80272Y33920D01*
X95463D01*
X96043Y33340D01*
X96950Y32965D01*
X97932D01*
X98839Y33340D01*
X99534Y34035D01*
X99909Y34942D01*
Y35924D01*
X99534Y36831D01*
X98839Y37526D01*
X97932Y37902D01*
X96950D01*
X96043Y37526D01*
X95463Y36946D01*
X80899D01*
X76583Y41263D01*
X76774Y41724D01*
X82606D01*
Y48827D01*
X75504D01*
Y48512D01*
X75004Y48305D01*
X74269Y49040D01*
Y57328D01*
X74794Y57631D01*
X75401Y58237D01*
X75829Y58979D01*
X76051Y59808D01*
Y60665D01*
X75829Y61493D01*
X75401Y62235D01*
X74794Y62842D01*
X74052Y63270D01*
X73224Y63492D01*
D02*
G37*
G36*
X53224D02*
X52367D01*
X51538Y63270D01*
X50796Y62842D01*
X50190Y62235D01*
X49761Y61493D01*
X49539Y60665D01*
Y59808D01*
X49761Y58979D01*
X50190Y58237D01*
X50796Y57631D01*
X51538Y57202D01*
X52367Y56980D01*
X53224D01*
X54052Y57202D01*
X54794Y57631D01*
X55401Y58237D01*
X55829Y58979D01*
X56051Y59808D01*
Y60665D01*
X55829Y61493D01*
X55401Y62235D01*
X54794Y62842D01*
X54052Y63270D01*
X53224Y63492D01*
D02*
G37*
G36*
X54245Y92640D02*
X53263D01*
X52356Y92264D01*
X51661Y91569D01*
X51286Y90662D01*
Y90411D01*
X22071Y61196D01*
X21656Y60575D01*
X21510Y59842D01*
X21510Y59842D01*
Y56652D01*
X21011Y56518D01*
X20767Y56939D01*
X20195Y57512D01*
X19494Y57916D01*
X18712Y58126D01*
X17902D01*
X17120Y57916D01*
X16419Y57512D01*
X15847Y56939D01*
X15442Y56238D01*
X15232Y55456D01*
Y54646D01*
X15442Y53864D01*
X15847Y53163D01*
X16419Y52591D01*
X17120Y52186D01*
X17902Y51976D01*
X18712D01*
X19494Y52186D01*
X20195Y52591D01*
X20767Y53163D01*
X21011Y53584D01*
X21510Y53450D01*
Y9386D01*
X20669D01*
X19819Y9274D01*
X19027Y8946D01*
X18347Y8424D01*
X17825Y7744D01*
X17497Y6952D01*
X17385Y6102D01*
X17497Y5252D01*
X17825Y4460D01*
X18347Y3780D01*
X19027Y3258D01*
X19819Y2930D01*
X20669Y2818D01*
X26181D01*
X27031Y2930D01*
X27823Y3258D01*
X28503Y3780D01*
X29025Y4460D01*
X29353Y5252D01*
X29465Y6102D01*
X29353Y6952D01*
X29025Y7744D01*
X28503Y8424D01*
X27823Y8946D01*
X27031Y9274D01*
X26181Y9386D01*
X25340D01*
Y53041D01*
X25840Y53175D01*
X25847Y53163D01*
X26419Y52591D01*
X27120Y52186D01*
X27902Y51976D01*
X28712D01*
X29494Y52186D01*
X30195Y52591D01*
X30768Y53163D01*
X31172Y53864D01*
X31382Y54646D01*
Y55456D01*
X31172Y56238D01*
X30768Y56939D01*
X30195Y57512D01*
X29494Y57916D01*
X28712Y58126D01*
X27902D01*
X27120Y57916D01*
X26419Y57512D01*
X25847Y56939D01*
X25840Y56928D01*
X25340Y57061D01*
Y59049D01*
X53993Y87703D01*
X54245D01*
X55152Y88078D01*
X55847Y88773D01*
X56223Y89680D01*
Y90662D01*
X55847Y91569D01*
X55152Y92264D01*
X54245Y92640D01*
D02*
G37*
G36*
X53641Y83177D02*
X52659D01*
X51751Y82801D01*
X51057Y82107D01*
X50681Y81200D01*
Y80218D01*
X51009Y79426D01*
Y75844D01*
X42118Y66953D01*
X41703Y66332D01*
X41557Y65599D01*
X41557Y65599D01*
Y56572D01*
X41057Y56438D01*
X40767Y56939D01*
X40195Y57512D01*
X39494Y57916D01*
X38712Y58126D01*
X37902D01*
X37120Y57916D01*
X36419Y57512D01*
X35847Y56939D01*
X35442Y56238D01*
X35232Y55456D01*
Y54646D01*
X35442Y53864D01*
X35847Y53163D01*
X36419Y52591D01*
X37120Y52186D01*
X37902Y51976D01*
X38712D01*
X39494Y52186D01*
X40195Y52591D01*
X40767Y53163D01*
X41057Y53665D01*
X41557Y53531D01*
Y47575D01*
X37992D01*
X37142Y47463D01*
X36350Y47135D01*
X35670Y46613D01*
X35148Y45933D01*
X34820Y45141D01*
X34708Y44291D01*
X34820Y43441D01*
X35148Y42649D01*
X35670Y41969D01*
X36350Y41447D01*
X37142Y41119D01*
X37992Y41007D01*
X43504D01*
X44354Y41119D01*
X45146Y41447D01*
X45826Y41969D01*
X46348Y42649D01*
X46676Y43441D01*
X46788Y44291D01*
X46676Y45141D01*
X46348Y45933D01*
X45826Y46613D01*
X45386Y46951D01*
Y52960D01*
X45711Y53104D01*
X45886Y53123D01*
X46419Y52591D01*
X47120Y52186D01*
X47902Y51976D01*
X48712D01*
X49494Y52186D01*
X50195Y52591D01*
X50767Y53163D01*
X51172Y53864D01*
X51382Y54646D01*
Y55456D01*
X51172Y56238D01*
X50767Y56939D01*
X50195Y57512D01*
X49494Y57916D01*
X48712Y58126D01*
X47902D01*
X47120Y57916D01*
X46419Y57512D01*
X45886Y56979D01*
X45711Y56999D01*
X45386Y57142D01*
Y64806D01*
X54277Y73697D01*
X54277Y73697D01*
X54693Y74318D01*
X54838Y75051D01*
X54838Y75051D01*
Y78906D01*
X55242Y79310D01*
X55618Y80218D01*
Y81200D01*
X55242Y82107D01*
X54548Y82801D01*
X53641Y83177D01*
D02*
G37*
G36*
X78712Y58126D02*
X77902D01*
X77120Y57916D01*
X76419Y57512D01*
X75847Y56939D01*
X75442Y56238D01*
X75232Y55456D01*
Y54646D01*
X75442Y53864D01*
X75847Y53163D01*
X76419Y52591D01*
X77120Y52186D01*
X77902Y51976D01*
X78712D01*
X79494Y52186D01*
X80195Y52591D01*
X80768Y53163D01*
X81172Y53864D01*
X81382Y54646D01*
Y55456D01*
X81172Y56238D01*
X80768Y56939D01*
X80195Y57512D01*
X79494Y57916D01*
X78712Y58126D01*
D02*
G37*
G36*
X58712D02*
X57902D01*
X57120Y57916D01*
X56419Y57512D01*
X55847Y56939D01*
X55442Y56238D01*
X55232Y55456D01*
Y54646D01*
X55442Y53864D01*
X55847Y53163D01*
X56419Y52591D01*
X57120Y52186D01*
X57902Y51976D01*
X58712D01*
X59494Y52186D01*
X60195Y52591D01*
X60768Y53163D01*
X61172Y53864D01*
X61382Y54646D01*
Y55456D01*
X61172Y56238D01*
X60768Y56939D01*
X60195Y57512D01*
X59494Y57916D01*
X58712Y58126D01*
D02*
G37*
G36*
X8712D02*
X7902D01*
X7120Y57916D01*
X6419Y57512D01*
X5847Y56939D01*
X5442Y56238D01*
X5232Y55456D01*
Y54646D01*
X5442Y53864D01*
X5847Y53163D01*
X6419Y52591D01*
X7120Y52186D01*
X7902Y51976D01*
X8712D01*
X9494Y52186D01*
X10195Y52591D01*
X10768Y53163D01*
X11172Y53864D01*
X11382Y54646D01*
Y55456D01*
X11172Y56238D01*
X10768Y56939D01*
X10195Y57512D01*
X9494Y57916D01*
X8712Y58126D01*
D02*
G37*
G36*
X215677Y48079D02*
X208496D01*
Y40898D01*
X215677D01*
Y48079D01*
D02*
G37*
G36*
X202559D02*
X201614D01*
X200701Y47834D01*
X199882Y47361D01*
X199214Y46693D01*
X198741Y45874D01*
X198496Y44961D01*
Y44015D01*
X198741Y43102D01*
X199214Y42283D01*
X199882Y41615D01*
X200701Y41142D01*
X201614Y40898D01*
X202559D01*
X203472Y41142D01*
X204291Y41615D01*
X204960Y42283D01*
X205433Y43102D01*
X205677Y44015D01*
Y44961D01*
X205433Y45874D01*
X204960Y46693D01*
X204291Y47361D01*
X203472Y47834D01*
X202559Y48079D01*
D02*
G37*
G36*
X83224Y63492D02*
X82367D01*
X81538Y63270D01*
X80796Y62842D01*
X80190Y62235D01*
X79761Y61493D01*
X79539Y60665D01*
Y59808D01*
X79761Y58979D01*
X80190Y58237D01*
X80796Y57631D01*
X81538Y57202D01*
X82367Y56980D01*
X83224D01*
X83479Y57049D01*
X100071Y40457D01*
Y39583D01*
X100446Y38676D01*
X101141Y37981D01*
X102048Y37606D01*
X103030D01*
X103937Y37981D01*
X104632Y38676D01*
X105008Y39583D01*
Y40565D01*
X104632Y41472D01*
X103937Y42167D01*
X103662Y42281D01*
X86051Y59892D01*
Y60665D01*
X85829Y61493D01*
X85401Y62235D01*
X84794Y62842D01*
X84052Y63270D01*
X83224Y63492D01*
D02*
G37*
G36*
X162302Y72941D02*
X161320D01*
X160413Y72565D01*
X159718Y71871D01*
X159343Y70964D01*
Y70712D01*
X120073Y31442D01*
X75596D01*
X62527Y44512D01*
X62606Y44808D01*
Y45743D01*
X62364Y46646D01*
X61897Y47456D01*
X61236Y48117D01*
X60426Y48585D01*
X59523Y48827D01*
X58588D01*
X57684Y48585D01*
X56875Y48117D01*
X56213Y47456D01*
X55746Y46646D01*
X55504Y45743D01*
Y44808D01*
X55746Y43905D01*
X56213Y43095D01*
X56875Y42434D01*
X57684Y41966D01*
X58588Y41724D01*
X59523D01*
X59819Y41804D01*
X73449Y28174D01*
X73449Y28174D01*
X74070Y27759D01*
X74803Y27613D01*
X74803Y27613D01*
X120866D01*
X120866Y27613D01*
X121599Y27759D01*
X122220Y28174D01*
X162050Y68004D01*
X162302D01*
X163209Y68380D01*
X163904Y69074D01*
X164279Y69981D01*
Y70964D01*
X163904Y71871D01*
X163209Y72565D01*
X162302Y72941D01*
D02*
G37*
G36*
X37992Y37339D02*
X32480D01*
X31630Y37227D01*
X30838Y36899D01*
X30158Y36377D01*
X29636Y35697D01*
X29308Y34905D01*
X29196Y34055D01*
X29308Y33205D01*
X29636Y32413D01*
X30158Y31733D01*
X30838Y31211D01*
X31630Y30883D01*
X32480Y30771D01*
X37992D01*
X38842Y30883D01*
X39634Y31211D01*
X40314Y31733D01*
X40836Y32413D01*
X41164Y33205D01*
X41276Y34055D01*
X41164Y34905D01*
X40836Y35697D01*
X40314Y36377D01*
X39634Y36899D01*
X38842Y37227D01*
X37992Y37339D01*
D02*
G37*
G36*
X148728Y22744D02*
X142610D01*
Y16626D01*
X148728D01*
Y22744D01*
D02*
G37*
G36*
X113295D02*
X107177D01*
Y16626D01*
X113295D01*
Y22744D01*
D02*
G37*
G36*
X85736D02*
X79618D01*
Y16626D01*
X85736D01*
Y22744D01*
D02*
G37*
G36*
X53347Y14111D02*
X52496Y13999D01*
X51705Y13671D01*
X51024Y13149D01*
X50502Y12469D01*
X50174Y11677D01*
X50063Y10827D01*
Y5315D01*
X50174Y4465D01*
X50502Y3673D01*
X51024Y2993D01*
X51705Y2471D01*
X52496Y2143D01*
X53347Y2031D01*
X54196Y2143D01*
X54988Y2471D01*
X55669Y2993D01*
X56191Y3673D01*
X56519Y4465D01*
X56630Y5315D01*
Y10827D01*
X56519Y11677D01*
X56191Y12469D01*
X55669Y13149D01*
X54988Y13671D01*
X54196Y13999D01*
X53347Y14111D01*
D02*
G37*
%LPD*%
D17*
X74220Y41485D02*
X80272Y35433D01*
X97441D01*
X33366Y113484D02*
X46457Y100394D01*
X149902D02*
X160433Y89862D01*
X46457Y100394D02*
X149902D01*
X49036Y105688D02*
X152875D01*
X163309Y95254D01*
X74220Y41485D02*
Y46949D01*
X72756Y48413D02*
Y60236D01*
Y48413D02*
X74220Y46949D01*
X102539Y40074D02*
Y40264D01*
X41240Y113484D02*
X49036Y105688D01*
X168898Y94784D02*
Y97441D01*
X163976Y89862D02*
X168898Y94784D01*
X160433Y89862D02*
X163976D01*
X32756Y120236D02*
Y126665D01*
X36502Y130410D02*
X53948D01*
X32756Y126665D02*
X36502Y130410D01*
X163287Y103051D02*
X168898Y97441D01*
X53948Y130410D02*
X58307Y126051D01*
X62492Y120236D02*
X68307Y126051D01*
X42756Y120236D02*
X62492D01*
D38*
X165354Y15748D02*
D03*
X15748Y165354D02*
D03*
D53*
X33366Y113484D02*
D03*
X151575Y111811D02*
D03*
X110236Y19685D02*
D03*
X145669D02*
D03*
X82677D02*
D03*
D54*
X41240Y113484D02*
D03*
X143701Y111811D02*
D03*
X15748Y147244D02*
D03*
X118110Y19685D02*
D03*
X137795D02*
D03*
X90551D02*
D03*
D55*
X202953Y114842D02*
D03*
D56*
Y104842D02*
D03*
X202087Y44488D02*
D03*
X175197Y170866D02*
D03*
D58*
X212087Y44488D02*
D03*
X185197Y170866D02*
D03*
D59*
X15748Y139370D02*
D03*
D75*
X59055Y45276D02*
X74803Y29528D01*
X120866D02*
X161811Y70472D01*
X74803Y29528D02*
X120866D01*
X83188Y60047D02*
X102313Y40922D01*
Y40490D02*
X102539Y40264D01*
X102313Y40490D02*
Y40922D01*
X82756Y60047D02*
X83188D01*
X127113Y115302D02*
X131967Y120156D01*
X92756Y120236D02*
X97690Y115302D01*
X127113D01*
X221614Y134705D02*
Y142559D01*
X221457Y142717D02*
X221614Y142559D01*
X209646Y122736D02*
X221614Y134705D01*
X88583Y94488D02*
X105810Y77261D01*
X141495D01*
X43472Y65599D02*
X52924Y75051D01*
Y80483D02*
X53150Y80709D01*
X52924Y75051D02*
Y80483D01*
X23425Y6102D02*
Y59842D01*
X53754Y90171D01*
X40748Y44291D02*
X42199D01*
X43472Y45564D01*
Y65599D01*
X77756Y116408D02*
X91269Y129921D01*
X77756Y110236D02*
Y116408D01*
X91269Y129921D02*
X149991D01*
X131967Y122400D02*
X132795Y123228D01*
X131967Y120156D02*
Y122400D01*
X152067Y123957D02*
Y127845D01*
X149991Y129921D02*
X152067Y127845D01*
Y123957D02*
X152795Y123228D01*
X129803Y110236D02*
X142795Y123228D01*
X87756Y110236D02*
X129803D01*
X202953Y114842D02*
Y151378D01*
X192913Y161417D02*
X202953Y151378D01*
X29921Y161417D02*
X192913D01*
X15748Y147244D02*
X29921Y161417D01*
X175984Y108957D02*
X191240D01*
X145795Y139146D02*
X175984Y108957D01*
X141732Y139370D02*
X141957Y139146D01*
X145795D01*
X164567Y126575D02*
Y136122D01*
Y126575D02*
X172441Y118701D01*
X164567Y136122D02*
X177165Y148721D01*
X172539Y125591D02*
X189173Y142224D01*
X172441Y118701D02*
X178937D01*
X182972Y122736D01*
D76*
X232283Y176181D02*
D03*
X204724D02*
D03*
D77*
X153819Y150039D02*
D03*
X102087D02*
D03*
X84921Y150079D02*
D03*
X33189D02*
D03*
D78*
X228346Y165551D02*
D03*
X208661D02*
D03*
D79*
X48307Y126051D02*
D03*
X38307D02*
D03*
X48307Y55051D02*
D03*
X38307D02*
D03*
X28307Y126051D02*
D03*
X58307D02*
D03*
Y55051D02*
D03*
X28307D02*
D03*
X68307Y126051D02*
D03*
Y55051D02*
D03*
X18307Y126051D02*
D03*
Y55051D02*
D03*
X78307D02*
D03*
X8307Y126051D02*
D03*
Y55051D02*
D03*
D80*
X78307Y126051D02*
D03*
D81*
X87795Y110236D02*
D03*
X77795D02*
D03*
X52795Y60236D02*
D03*
X72795D02*
D03*
X82795D02*
D03*
X42795Y120236D02*
D03*
X92795D02*
D03*
X112795D02*
D03*
X32795D02*
D03*
D82*
X98425Y76378D02*
D03*
X191240Y108957D02*
D03*
D83*
X142795Y123228D02*
D03*
X132795D02*
D03*
X152795D02*
D03*
X17323Y110551D02*
D03*
Y80551D02*
D03*
Y90551D02*
D03*
Y100551D02*
D03*
D84*
X122795Y123228D02*
D03*
D85*
X23425Y6102D02*
D03*
X40748Y44291D02*
D03*
X35236Y34055D02*
D03*
D86*
X53347Y8071D02*
D03*
X10039Y23819D02*
D03*
D87*
X72835Y139409D02*
D03*
X45276D02*
D03*
X62992D02*
D03*
X55118D02*
D03*
X124016Y139370D02*
D03*
X131890D02*
D03*
X114173D02*
D03*
X141732D02*
D03*
D88*
X59055Y45276D02*
D03*
X69055D02*
D03*
D89*
X79055D02*
D03*
D90*
X17323Y70551D02*
D03*
D91*
X97441Y35433D02*
D03*
X206693Y75787D02*
D03*
X88583Y94488D02*
D03*
X102539Y40074D02*
D03*
X53150Y80709D02*
D03*
X53754Y90171D02*
D03*
X161811Y70472D02*
D03*
D92*
X246063Y11811D02*
D03*
Y170276D02*
D03*
D93*
X221457Y142717D02*
D03*
X141495Y77261D02*
D03*
X163309Y95254D02*
D03*
X163287Y103051D02*
D03*
X172539Y125591D02*
D03*
X182972Y122736D02*
D03*
X177165Y148721D02*
D03*
X209646Y122736D02*
D03*
X189173Y142224D02*
D03*
M02*
