G04*
G04 #@! TF.GenerationSoftware,Altium Limited,Altium Designer,23.4.1 (23)*
G04*
G04 Layer_Color=16711935*
%FSLAX25Y25*%
%MOIN*%
G70*
G04*
G04 #@! TF.SameCoordinates,34C706FF-D981-4061-8AA4-72CC7803A1E3*
G04*
G04*
G04 #@! TF.FilePolarity,Positive*
G04*
G01*
G75*
%ADD13C,0.00394*%
%ADD16C,0.01000*%
D13*
X200925Y181890D02*
X237008D01*
X246850Y182283D02*
Y181103D01*
X246260D01*
X246063Y181299D01*
Y181693D01*
X246260Y181890D01*
X246850D01*
X244882Y181299D02*
X245079Y181103D01*
X245473D01*
X245670Y181299D01*
Y182087D01*
X245473Y182283D01*
X245079D01*
X244882Y182087D01*
X244489Y181103D02*
Y182283D01*
X243899D01*
X243702Y182087D01*
Y181890D01*
X243899Y181693D01*
X244489D01*
X243899D01*
X243702Y181496D01*
Y181299D01*
X243899Y181103D01*
X244489D01*
X241340D02*
X242127D01*
Y182283D01*
X241340D01*
X242127Y181693D02*
X241734D01*
X240947Y181103D02*
Y182283D01*
X240356D01*
X240160Y182087D01*
Y181299D01*
X240356Y181103D01*
X240947D01*
X238979Y181299D02*
X239176Y181103D01*
X239569D01*
X239766Y181299D01*
Y182087D01*
X239569Y182283D01*
X239176D01*
X238979Y182087D01*
Y181693D01*
X239372D01*
X237798Y181103D02*
X238585D01*
Y182283D01*
X237798D01*
X238585Y181693D02*
X238192D01*
D16*
X591Y689D02*
X93947D01*
X591Y181398D02*
X257283D01*
X591D02*
X591Y689D01*
X171407D02*
X257283D01*
X257283Y181398D02*
X257283Y689D01*
X93947D02*
X171407D01*
M02*
