G04*
G04 #@! TF.GenerationSoftware,Altium Limited,Altium Designer,23.4.1 (23)*
G04*
G04 Layer_Color=65535*
%FSLAX25Y25*%
%MOIN*%
G70*
G04*
G04 #@! TF.SameCoordinates,34C706FF-D981-4061-8AA4-72CC7803A1E3*
G04*
G04*
G04 #@! TF.FilePolarity,Positive*
G04*
G01*
G75*
%ADD10C,0.00591*%
%ADD11C,0.00984*%
%ADD12C,0.02362*%
%ADD13C,0.00394*%
%ADD14C,0.00787*%
%ADD15C,0.00500*%
%ADD16C,0.01000*%
G36*
X238860Y62690D02*
X238942D01*
Y62608D01*
X239023D01*
Y62527D01*
X239105D01*
Y62445D01*
X239187D01*
Y62363D01*
X239268D01*
Y62282D01*
X239350D01*
Y62200D01*
X239431D01*
Y62118D01*
X239513D01*
Y62037D01*
X239595D01*
Y61955D01*
X239676D01*
Y61873D01*
X239758D01*
Y61792D01*
X239840D01*
Y61710D01*
X239921D01*
Y61628D01*
X240003D01*
Y61547D01*
X240085D01*
Y61465D01*
X240166D01*
Y61383D01*
X240248D01*
Y61302D01*
X240330D01*
Y61220D01*
X240411D01*
Y61138D01*
X240493D01*
Y61057D01*
X240575D01*
Y60975D01*
X240656D01*
Y60893D01*
X240738D01*
Y60812D01*
X240820D01*
Y60730D01*
X240901D01*
Y60649D01*
X240983D01*
Y60567D01*
X241065D01*
Y60485D01*
X241146D01*
Y60404D01*
X241228D01*
Y60322D01*
X241309D01*
Y60240D01*
X241391D01*
Y60158D01*
X241473D01*
Y60077D01*
X241554D01*
Y59995D01*
X241636D01*
Y59914D01*
X241718D01*
Y59832D01*
X241799D01*
Y59750D01*
X241881D01*
Y59669D01*
X241963D01*
Y59587D01*
X242044D01*
Y59505D01*
X242126D01*
Y59424D01*
X242208D01*
Y59342D01*
X242289D01*
Y59260D01*
X242371D01*
Y59179D01*
X242453D01*
Y59097D01*
X242534D01*
Y59015D01*
X242616D01*
Y58934D01*
X242698D01*
Y58852D01*
X242779D01*
Y58770D01*
X242861D01*
Y58689D01*
X242943D01*
Y58607D01*
X243024D01*
Y58526D01*
X243106D01*
Y58444D01*
X243187D01*
Y58362D01*
X243269D01*
Y58280D01*
X243351D01*
Y58199D01*
X243432D01*
Y58117D01*
X243514D01*
Y58036D01*
X243596D01*
Y57954D01*
X243677D01*
Y57872D01*
X243759D01*
Y57791D01*
X243841D01*
Y57709D01*
X243922D01*
Y57627D01*
X244004D01*
Y57546D01*
X244086D01*
Y57464D01*
X244167D01*
Y57382D01*
X244249D01*
Y57301D01*
X244331D01*
Y57219D01*
X244412D01*
Y57137D01*
X244494D01*
Y57056D01*
X244576D01*
Y56974D01*
X244657D01*
Y56892D01*
X244739D01*
Y56811D01*
X244820D01*
Y56729D01*
X244902D01*
Y56647D01*
X244984D01*
Y56566D01*
X245065D01*
Y56484D01*
X245147D01*
Y56402D01*
X245229D01*
Y56321D01*
X245310D01*
Y56239D01*
X245392D01*
Y56157D01*
X245474D01*
Y56076D01*
X245555D01*
Y55994D01*
X245637D01*
Y55913D01*
X245719D01*
Y55831D01*
X245800D01*
Y55749D01*
X245882D01*
Y55668D01*
X245964D01*
Y55586D01*
X246045D01*
Y55504D01*
X246127D01*
Y55423D01*
X246209D01*
Y55341D01*
X246290D01*
Y55259D01*
X246372D01*
Y55178D01*
X246454D01*
Y55096D01*
X246535D01*
Y55014D01*
X246617D01*
Y54933D01*
X246699D01*
Y54851D01*
X246780D01*
Y54769D01*
X246862D01*
Y54688D01*
X246943D01*
Y54606D01*
X247025D01*
Y54524D01*
X247107D01*
Y54443D01*
X247188D01*
Y54361D01*
X247270D01*
Y54280D01*
X247352D01*
Y54198D01*
X247433D01*
Y54116D01*
X247515D01*
Y54035D01*
X247597D01*
Y53953D01*
X247678D01*
Y53871D01*
X247760D01*
Y53790D01*
X247842D01*
Y53708D01*
X247923D01*
Y53626D01*
X248005D01*
Y53545D01*
X248087D01*
Y53463D01*
X248168D01*
Y53381D01*
X248250D01*
Y53300D01*
X248332D01*
Y53218D01*
X248413D01*
Y53136D01*
X248495D01*
Y53055D01*
X248577D01*
Y52973D01*
X248658D01*
Y52891D01*
X248740D01*
Y52810D01*
X248821D01*
Y52728D01*
X248903D01*
Y52646D01*
X248985D01*
Y52565D01*
X249066D01*
Y52483D01*
X249148D01*
Y52402D01*
X249230D01*
Y52320D01*
X249311D01*
Y52238D01*
X249393D01*
Y52157D01*
X249475D01*
Y52075D01*
X249556D01*
Y51993D01*
X249638D01*
Y51912D01*
X249720D01*
Y51830D01*
X249801D01*
Y51748D01*
X249883D01*
Y51667D01*
X249965D01*
Y51585D01*
X250046D01*
Y51503D01*
X250128D01*
Y51422D01*
X250210D01*
Y51340D01*
X250291D01*
Y51258D01*
X250373D01*
Y51177D01*
X250455D01*
Y51095D01*
X250536D01*
Y51013D01*
X250618D01*
Y50932D01*
X250700D01*
Y50850D01*
X250781D01*
Y50768D01*
X250863D01*
Y50687D01*
X250944D01*
Y50524D01*
X250863D01*
Y50442D01*
X250781D01*
Y50360D01*
X250700D01*
Y50279D01*
X250618D01*
Y50197D01*
X250536D01*
Y50115D01*
X250455D01*
Y50033D01*
X250373D01*
Y49952D01*
X250291D01*
Y49870D01*
X250210D01*
Y49789D01*
X250128D01*
Y49707D01*
X250046D01*
Y49625D01*
X249965D01*
Y49544D01*
X249883D01*
Y49462D01*
X249801D01*
Y49380D01*
X249720D01*
Y49299D01*
X249638D01*
Y49217D01*
X249556D01*
Y49135D01*
X249475D01*
Y49054D01*
X249393D01*
Y48972D01*
X249311D01*
Y48890D01*
X249230D01*
Y48809D01*
X249148D01*
Y48727D01*
X249066D01*
Y48645D01*
X248985D01*
Y48564D01*
X248903D01*
Y48482D01*
X248821D01*
Y48401D01*
X248740D01*
Y48319D01*
X248658D01*
Y48237D01*
X248577D01*
Y48156D01*
X248495D01*
Y48074D01*
X248413D01*
Y47992D01*
X248332D01*
Y47911D01*
X248250D01*
Y47829D01*
X248168D01*
Y47747D01*
X248087D01*
Y47666D01*
X248005D01*
Y47584D01*
X247923D01*
Y47502D01*
X247842D01*
Y47421D01*
X247760D01*
Y47339D01*
X247678D01*
Y47257D01*
X247597D01*
Y47176D01*
X247515D01*
Y47094D01*
X247433D01*
Y47012D01*
X247352D01*
Y46931D01*
X247270D01*
Y46849D01*
X247188D01*
Y46767D01*
X247107D01*
Y46686D01*
X247025D01*
Y46604D01*
X246943D01*
Y46522D01*
X246862D01*
Y46441D01*
X246780D01*
Y46359D01*
X246699D01*
Y46277D01*
X246617D01*
Y46196D01*
X246535D01*
Y46114D01*
X246454D01*
Y46033D01*
X246372D01*
Y45951D01*
X246290D01*
Y45869D01*
X246209D01*
Y45788D01*
X246127D01*
Y45706D01*
X246045D01*
Y45624D01*
X245964D01*
Y45543D01*
X245882D01*
Y45461D01*
X245800D01*
Y45379D01*
X245719D01*
Y45298D01*
X245637D01*
Y45216D01*
X245555D01*
Y45134D01*
X245474D01*
Y45053D01*
X245392D01*
Y44971D01*
X245310D01*
Y44889D01*
X245229D01*
Y44808D01*
X245147D01*
Y44726D01*
X245065D01*
Y44644D01*
X244984D01*
Y44563D01*
X244902D01*
Y44481D01*
X244820D01*
Y44399D01*
X244739D01*
Y44318D01*
X244657D01*
Y44236D01*
X244576D01*
Y44155D01*
X244494D01*
Y44073D01*
X244412D01*
Y43991D01*
X244331D01*
Y43910D01*
X244249D01*
Y43828D01*
X244167D01*
Y43746D01*
X244086D01*
Y43665D01*
X244004D01*
Y43583D01*
X243922D01*
Y43501D01*
X243841D01*
Y43420D01*
X243759D01*
Y43338D01*
X243677D01*
Y43256D01*
X243596D01*
Y43175D01*
X243514D01*
Y43093D01*
X243432D01*
Y43011D01*
X243351D01*
Y42930D01*
X243269D01*
Y42848D01*
X243187D01*
Y42766D01*
X243106D01*
Y42685D01*
X243024D01*
Y42603D01*
X242943D01*
Y42521D01*
X242861D01*
Y42440D01*
X242779D01*
Y42358D01*
X242698D01*
Y42276D01*
X242616D01*
Y42195D01*
X242534D01*
Y42113D01*
X242453D01*
Y42031D01*
X242371D01*
Y41950D01*
X242289D01*
Y41868D01*
X242208D01*
Y41787D01*
X242126D01*
Y41705D01*
X242044D01*
Y41623D01*
X241963D01*
Y41542D01*
X241881D01*
Y41460D01*
X241799D01*
Y41378D01*
X241718D01*
Y41297D01*
X241636D01*
Y41215D01*
X241554D01*
Y41133D01*
X241473D01*
Y41052D01*
X241391D01*
Y40970D01*
X241309D01*
Y40888D01*
X241228D01*
Y40807D01*
X241146D01*
Y40725D01*
X241065D01*
Y40643D01*
X240983D01*
Y40562D01*
X240901D01*
Y40480D01*
X240820D01*
Y40398D01*
X240738D01*
Y40317D01*
X240656D01*
Y40235D01*
X240575D01*
Y40154D01*
X240493D01*
Y40072D01*
X240411D01*
Y39990D01*
X240330D01*
Y39908D01*
X240248D01*
Y39827D01*
X240166D01*
Y39745D01*
X240085D01*
Y39664D01*
X240003D01*
Y39582D01*
X239921D01*
Y39500D01*
X239840D01*
Y39419D01*
X239758D01*
Y39337D01*
X239676D01*
Y39255D01*
X239595D01*
Y39174D01*
X239513D01*
Y39092D01*
X239431D01*
Y39010D01*
X239350D01*
Y38929D01*
X239268D01*
Y38847D01*
X239187D01*
Y38765D01*
X239105D01*
Y38684D01*
X239023D01*
Y38602D01*
X238942D01*
Y38520D01*
X238860D01*
Y38439D01*
X238697D01*
Y38520D01*
X238615D01*
Y38602D01*
X238533D01*
Y38684D01*
X238452D01*
Y38765D01*
X238370D01*
Y38847D01*
X238288D01*
Y38929D01*
X238207D01*
Y39010D01*
X238125D01*
Y39092D01*
X238043D01*
Y39174D01*
X237962D01*
Y39255D01*
X237880D01*
Y39337D01*
X237798D01*
Y39419D01*
X237717D01*
Y39500D01*
X237635D01*
Y39582D01*
X237553D01*
Y39664D01*
X237472D01*
Y39745D01*
X237390D01*
Y39827D01*
X237308D01*
Y39908D01*
X237227D01*
Y39990D01*
X237145D01*
Y40072D01*
X237064D01*
Y40154D01*
X236982D01*
Y40235D01*
X236900D01*
Y40317D01*
X236819D01*
Y40398D01*
X236737D01*
Y40480D01*
X236655D01*
Y40562D01*
X236574D01*
Y40643D01*
X236492D01*
Y40725D01*
X236410D01*
Y40807D01*
X236329D01*
Y40888D01*
X236247D01*
Y40970D01*
X236165D01*
Y41052D01*
X236084D01*
Y41133D01*
X236002D01*
Y41215D01*
X235920D01*
Y41297D01*
X235839D01*
Y41378D01*
X235757D01*
Y41460D01*
X235675D01*
Y41542D01*
X235594D01*
Y41623D01*
X235512D01*
Y41705D01*
X235430D01*
Y41787D01*
X235349D01*
Y41868D01*
X235267D01*
Y41950D01*
X235186D01*
Y42031D01*
X235104D01*
Y42113D01*
X235022D01*
Y42195D01*
X234941D01*
Y42276D01*
X234859D01*
Y42358D01*
X234777D01*
Y42440D01*
X234696D01*
Y42521D01*
X234614D01*
Y42603D01*
X234532D01*
Y42685D01*
X234451D01*
Y42766D01*
X234369D01*
Y42848D01*
X234287D01*
Y42930D01*
X234206D01*
Y43011D01*
X234124D01*
Y43093D01*
X234042D01*
Y43175D01*
X233961D01*
Y43256D01*
X233879D01*
Y43338D01*
X233797D01*
Y43420D01*
X233716D01*
Y43501D01*
X233634D01*
Y43583D01*
X233552D01*
Y43665D01*
X233471D01*
Y43746D01*
X233389D01*
Y43828D01*
X233307D01*
Y43910D01*
X233226D01*
Y43991D01*
X233144D01*
Y44073D01*
X233063D01*
Y44155D01*
X232981D01*
Y44236D01*
X232899D01*
Y44318D01*
X232818D01*
Y44399D01*
X232736D01*
Y44481D01*
X232654D01*
Y44563D01*
X232573D01*
Y44644D01*
X232491D01*
Y44726D01*
X232409D01*
Y44808D01*
X232328D01*
Y44889D01*
X232246D01*
Y44971D01*
X232164D01*
Y45053D01*
X232083D01*
Y45134D01*
X232001D01*
Y45216D01*
X231919D01*
Y45298D01*
X231838D01*
Y45379D01*
X231756D01*
Y45461D01*
X231674D01*
Y45543D01*
X231593D01*
Y45624D01*
X231511D01*
Y45706D01*
X231429D01*
Y45788D01*
X231348D01*
Y45869D01*
X231266D01*
Y45951D01*
X231185D01*
Y46033D01*
X231103D01*
Y46114D01*
X231021D01*
Y46196D01*
X230940D01*
Y46277D01*
X230858D01*
Y46359D01*
X230776D01*
Y46441D01*
X230695D01*
Y46522D01*
X230613D01*
Y46604D01*
X230531D01*
Y46686D01*
X230450D01*
Y46767D01*
X230368D01*
Y46849D01*
X230286D01*
Y46931D01*
X230205D01*
Y47012D01*
X230123D01*
Y47094D01*
X230041D01*
Y47176D01*
X229960D01*
Y47257D01*
X229878D01*
Y47339D01*
X229796D01*
Y47421D01*
X229715D01*
Y47502D01*
X229633D01*
Y47584D01*
X229551D01*
Y47666D01*
X229470D01*
Y47747D01*
X229388D01*
Y47829D01*
X229306D01*
Y47911D01*
X229225D01*
Y47992D01*
X229143D01*
Y48074D01*
X229062D01*
Y48156D01*
X228980D01*
Y48237D01*
X228898D01*
Y48319D01*
X228817D01*
Y48401D01*
X228735D01*
Y48482D01*
X228653D01*
Y48564D01*
X228572D01*
Y48645D01*
X228490D01*
Y48727D01*
X228408D01*
Y48809D01*
X228327D01*
Y48890D01*
X228245D01*
Y48972D01*
X228163D01*
Y49054D01*
X228082D01*
Y49135D01*
X228000D01*
Y49217D01*
X227918D01*
Y49299D01*
X227837D01*
Y49380D01*
X227755D01*
Y49462D01*
X227673D01*
Y49544D01*
X227592D01*
Y49625D01*
X227510D01*
Y49707D01*
X227428D01*
Y49789D01*
X227347D01*
Y49870D01*
X227265D01*
Y49952D01*
X227183D01*
Y50033D01*
X227102D01*
Y50115D01*
X227020D01*
Y50197D01*
X226939D01*
Y50279D01*
X226857D01*
Y50360D01*
X226775D01*
Y50442D01*
X226694D01*
Y50524D01*
X226612D01*
Y50687D01*
X226694D01*
Y50768D01*
X226775D01*
Y50850D01*
X226857D01*
Y50932D01*
X226939D01*
Y51013D01*
X227020D01*
Y51095D01*
X227102D01*
Y51177D01*
X227183D01*
Y51258D01*
X227265D01*
Y51340D01*
X227347D01*
Y51422D01*
X227428D01*
Y51503D01*
X227510D01*
Y51585D01*
X227592D01*
Y51667D01*
X227673D01*
Y51748D01*
X227755D01*
Y51830D01*
X227837D01*
Y51912D01*
X227918D01*
Y51993D01*
X228000D01*
Y52075D01*
X228082D01*
Y52157D01*
X228163D01*
Y52238D01*
X228245D01*
Y52320D01*
X228327D01*
Y52402D01*
X228408D01*
Y52483D01*
X228490D01*
Y52565D01*
X228572D01*
Y52646D01*
X228653D01*
Y52728D01*
X228735D01*
Y52810D01*
X228817D01*
Y52891D01*
X228898D01*
Y52973D01*
X228980D01*
Y53055D01*
X229062D01*
Y53136D01*
X229143D01*
Y53218D01*
X229225D01*
Y53300D01*
X229306D01*
Y53381D01*
X229388D01*
Y53463D01*
X229470D01*
Y53545D01*
X229551D01*
Y53626D01*
X229633D01*
Y53708D01*
X229715D01*
Y53790D01*
X229796D01*
Y53871D01*
X229878D01*
Y53953D01*
X229960D01*
Y54035D01*
X230041D01*
Y54116D01*
X230123D01*
Y54198D01*
X230205D01*
Y54280D01*
X230286D01*
Y54361D01*
X230368D01*
Y54443D01*
X230450D01*
Y54524D01*
X230531D01*
Y54606D01*
X230613D01*
Y54688D01*
X230695D01*
Y54769D01*
X230776D01*
Y54851D01*
X230858D01*
Y54933D01*
X230940D01*
Y55014D01*
X231021D01*
Y55096D01*
X231103D01*
Y55178D01*
X231185D01*
Y55259D01*
X231266D01*
Y55341D01*
X231348D01*
Y55423D01*
X231429D01*
Y55504D01*
X231511D01*
Y55586D01*
X231593D01*
Y55668D01*
X231674D01*
Y55749D01*
X231756D01*
Y55831D01*
X231838D01*
Y55913D01*
X231919D01*
Y55994D01*
X232001D01*
Y56076D01*
X232083D01*
Y56157D01*
X232164D01*
Y56239D01*
X232246D01*
Y56321D01*
X232328D01*
Y56402D01*
X232409D01*
Y56484D01*
X232491D01*
Y56566D01*
X232573D01*
Y56647D01*
X232654D01*
Y56729D01*
X232736D01*
Y56811D01*
X232818D01*
Y56892D01*
X232899D01*
Y56974D01*
X232981D01*
Y57056D01*
X233063D01*
Y57137D01*
X233144D01*
Y57219D01*
X233226D01*
Y57301D01*
X233307D01*
Y57382D01*
X233389D01*
Y57464D01*
X233471D01*
Y57546D01*
X233552D01*
Y57627D01*
X233634D01*
Y57709D01*
X233716D01*
Y57791D01*
X233797D01*
Y57872D01*
X233879D01*
Y57954D01*
X233961D01*
Y58036D01*
X234042D01*
Y58117D01*
X234124D01*
Y58199D01*
X234206D01*
Y58280D01*
X234287D01*
Y58362D01*
X234369D01*
Y58444D01*
X234451D01*
Y58526D01*
X234532D01*
Y58607D01*
X234614D01*
Y58689D01*
X234696D01*
Y58770D01*
X234777D01*
Y58852D01*
X234859D01*
Y58934D01*
X234941D01*
Y59015D01*
X235022D01*
Y59097D01*
X235104D01*
Y59179D01*
X235186D01*
Y59260D01*
X235267D01*
Y59342D01*
X235349D01*
Y59424D01*
X235430D01*
Y59505D01*
X235512D01*
Y59587D01*
X235594D01*
Y59669D01*
X235675D01*
Y59750D01*
X235757D01*
Y59832D01*
X235839D01*
Y59914D01*
X235920D01*
Y59995D01*
X236002D01*
Y60077D01*
X236084D01*
Y60158D01*
X236165D01*
Y60240D01*
X236247D01*
Y60322D01*
X236329D01*
Y60404D01*
X236410D01*
Y60485D01*
X236492D01*
Y60567D01*
X236574D01*
Y60649D01*
X236655D01*
Y60730D01*
X236737D01*
Y60812D01*
X236819D01*
Y60893D01*
X236900D01*
Y60975D01*
X236982D01*
Y61057D01*
X237064D01*
Y61138D01*
X237145D01*
Y61220D01*
X237227D01*
Y61302D01*
X237308D01*
Y61383D01*
X237390D01*
Y61465D01*
X237472D01*
Y61547D01*
X237553D01*
Y61628D01*
X237635D01*
Y61710D01*
X237717D01*
Y61792D01*
X237798D01*
Y61873D01*
X237880D01*
Y61955D01*
X237962D01*
Y62037D01*
X238043D01*
Y62118D01*
X238125D01*
Y62200D01*
X238207D01*
Y62282D01*
X238288D01*
Y62363D01*
X238370D01*
Y62445D01*
X238452D01*
Y62527D01*
X238533D01*
Y62608D01*
X238615D01*
Y62690D01*
X238697D01*
Y62771D01*
X238860D01*
Y62690D01*
D02*
G37*
G36*
X240493Y36479D02*
Y36397D01*
Y36071D01*
X239921D01*
Y36642D01*
X240493D01*
Y36479D01*
D02*
G37*
G36*
X244576Y35336D02*
X244820D01*
Y35254D01*
X244902D01*
Y35173D01*
X244984D01*
Y35091D01*
X245065D01*
Y34928D01*
X245147D01*
Y34601D01*
X245229D01*
Y32315D01*
X244657D01*
Y34846D01*
X244576D01*
Y34928D01*
X243596D01*
Y34846D01*
X243514D01*
Y32315D01*
X242943D01*
Y33540D01*
Y33621D01*
Y35418D01*
X243432D01*
Y35336D01*
X243677D01*
Y35418D01*
X244576D01*
Y35336D01*
D02*
G37*
G36*
X237553Y36561D02*
X237472D01*
Y36234D01*
X237390D01*
Y35826D01*
X237308D01*
Y35499D01*
X237227D01*
Y35091D01*
X237145D01*
Y34764D01*
X237064D01*
Y34356D01*
X236982D01*
Y34029D01*
X236900D01*
Y33621D01*
X236819D01*
Y33295D01*
X236737D01*
Y32886D01*
X236655D01*
Y32478D01*
X236574D01*
Y32315D01*
X235839D01*
Y32641D01*
X235757D01*
Y33050D01*
X235675D01*
Y33458D01*
X235594D01*
Y33785D01*
X235512D01*
Y34193D01*
X235430D01*
Y34601D01*
X235349D01*
Y35009D01*
X235267D01*
Y35418D01*
X235186D01*
Y35744D01*
X235104D01*
Y36152D01*
X235022D01*
Y36561D01*
X234941D01*
Y36642D01*
X235512D01*
Y36316D01*
X235594D01*
Y35826D01*
X235675D01*
Y35418D01*
X235757D01*
Y35009D01*
X235839D01*
Y34601D01*
X235920D01*
Y34193D01*
X236002D01*
Y34029D01*
Y33948D01*
Y33785D01*
X236084D01*
Y33295D01*
X236165D01*
Y32968D01*
X236247D01*
Y33131D01*
X236329D01*
Y33458D01*
X236410D01*
Y33866D01*
X236492D01*
Y34275D01*
X236574D01*
Y34683D01*
X236655D01*
Y35091D01*
X236737D01*
Y35418D01*
X236819D01*
Y35826D01*
X236900D01*
Y36234D01*
X236982D01*
Y36642D01*
X237553D01*
Y36561D01*
D02*
G37*
G36*
X240411Y32805D02*
X241309D01*
Y32723D01*
Y32315D01*
X239921D01*
Y34928D01*
X239105D01*
Y35009D01*
X239023D01*
Y35418D01*
X240411D01*
Y32805D01*
D02*
G37*
G36*
X232818Y36561D02*
X233063D01*
Y36479D01*
X233226D01*
Y36397D01*
X233307D01*
Y36316D01*
X233389D01*
Y36152D01*
X233471D01*
Y35744D01*
X233552D01*
Y33540D01*
Y33458D01*
Y33213D01*
X233471D01*
Y32805D01*
X233389D01*
Y32641D01*
X233307D01*
Y32560D01*
X233226D01*
Y32478D01*
X233144D01*
Y32396D01*
X232899D01*
Y32315D01*
X231266D01*
Y36642D01*
X232818D01*
Y36561D01*
D02*
G37*
G36*
X246045Y31008D02*
Y30927D01*
Y30763D01*
X245719D01*
Y31090D01*
X246045D01*
Y31008D01*
D02*
G37*
G36*
X250944Y30274D02*
X251026D01*
Y30192D01*
X251108D01*
Y30110D01*
X251189D01*
Y29865D01*
X251271D01*
Y28477D01*
X250944D01*
Y29947D01*
X250863D01*
Y30029D01*
X250781D01*
Y30110D01*
X250373D01*
Y30029D01*
X250210D01*
Y28477D01*
X249883D01*
Y30355D01*
X250210D01*
Y30274D01*
X250291D01*
Y30355D01*
X250944D01*
Y30274D01*
D02*
G37*
G36*
X237064Y30110D02*
X236655D01*
Y30029D01*
X236492D01*
Y29865D01*
X236410D01*
Y28804D01*
X236492D01*
Y28722D01*
X236819D01*
Y28477D01*
X235920D01*
Y28722D01*
X236165D01*
Y30110D01*
X235920D01*
Y30355D01*
X236410D01*
Y30274D01*
X236574D01*
Y30355D01*
X237064D01*
Y30110D01*
D02*
G37*
G36*
X253394D02*
X252823D01*
Y30029D01*
X252659D01*
Y29620D01*
X252741D01*
Y29539D01*
X253312D01*
Y29457D01*
X253394D01*
Y29294D01*
X253476D01*
Y28722D01*
X253394D01*
Y28640D01*
X253312D01*
Y28559D01*
X253149D01*
Y28477D01*
X252414D01*
Y28722D01*
X253067D01*
Y28804D01*
X253149D01*
Y29294D01*
X252659D01*
Y29375D01*
X252496D01*
Y29457D01*
X252414D01*
Y29620D01*
X252333D01*
Y29947D01*
Y30029D01*
X252414D01*
Y30192D01*
X252496D01*
Y30274D01*
X252659D01*
Y30355D01*
X253394D01*
Y30110D01*
D02*
G37*
G36*
X248577Y30274D02*
X248740D01*
Y30192D01*
X248821D01*
Y30029D01*
X248903D01*
Y28804D01*
X248821D01*
Y28640D01*
X248740D01*
Y28559D01*
X248577D01*
Y28477D01*
X247923D01*
Y28559D01*
X247760D01*
Y28640D01*
X247678D01*
Y28722D01*
X247597D01*
Y28885D01*
X247515D01*
Y28967D01*
Y29947D01*
X247597D01*
Y30110D01*
X247678D01*
Y30192D01*
X247760D01*
Y30274D01*
X247923D01*
Y30355D01*
X248577D01*
Y30274D01*
D02*
G37*
G36*
X246045Y28722D02*
X246535D01*
Y28477D01*
X245719D01*
Y29784D01*
Y29865D01*
Y30110D01*
X245229D01*
Y30355D01*
X246045D01*
Y28722D01*
D02*
G37*
G36*
X243514Y30763D02*
X243596D01*
Y30355D01*
X244086D01*
Y30110D01*
X243596D01*
Y28804D01*
X243677D01*
Y28722D01*
X244086D01*
Y28477D01*
X243514D01*
Y28559D01*
X243351D01*
Y28722D01*
X243269D01*
Y30110D01*
X242943D01*
Y30355D01*
X243269D01*
Y30437D01*
Y30518D01*
Y30763D01*
X243351D01*
Y30845D01*
X243514D01*
Y30763D01*
D02*
G37*
G36*
X241391Y30274D02*
X241554D01*
Y30192D01*
X241636D01*
Y30110D01*
X241718D01*
Y28804D01*
X241799D01*
Y28722D01*
X241881D01*
Y28477D01*
X241636D01*
Y28559D01*
X241391D01*
Y28477D01*
X240738D01*
Y28559D01*
X240575D01*
Y28640D01*
X240493D01*
Y28885D01*
X240411D01*
Y29212D01*
X240493D01*
Y29457D01*
X240575D01*
Y29539D01*
X240656D01*
Y29620D01*
X241391D01*
Y29702D01*
X241473D01*
Y29865D01*
X241391D01*
Y30029D01*
X241228D01*
Y30110D01*
X240575D01*
Y30355D01*
X241391D01*
Y30274D01*
D02*
G37*
G36*
X239187D02*
X239350D01*
Y30192D01*
X239431D01*
Y29947D01*
X239513D01*
Y29294D01*
X238533D01*
Y28804D01*
X238697D01*
Y28722D01*
X239350D01*
Y28477D01*
X238533D01*
Y28559D01*
X238370D01*
Y28640D01*
X238288D01*
Y28885D01*
X238207D01*
Y28967D01*
Y30029D01*
X238288D01*
Y30192D01*
X238370D01*
Y30274D01*
X238533D01*
Y30355D01*
X239187D01*
Y30274D01*
D02*
G37*
G36*
X234696Y30110D02*
X234124D01*
Y30029D01*
X233961D01*
Y29865D01*
X233879D01*
Y29702D01*
Y29620D01*
Y28967D01*
X233961D01*
Y28804D01*
X234124D01*
Y28722D01*
X234696D01*
Y28477D01*
X233961D01*
Y28559D01*
X233797D01*
Y28640D01*
X233716D01*
Y28804D01*
X233634D01*
Y30029D01*
X233716D01*
Y30192D01*
X233797D01*
Y30274D01*
X233961D01*
Y30355D01*
X234696D01*
Y30110D01*
D02*
G37*
G36*
X229796Y31008D02*
X229960D01*
Y30927D01*
X230041D01*
Y30682D01*
X230123D01*
Y30110D01*
X230041D01*
Y29947D01*
X229960D01*
Y29784D01*
X230041D01*
Y29702D01*
X230123D01*
Y28722D01*
X230041D01*
Y28640D01*
X229960D01*
Y28559D01*
X229796D01*
Y28477D01*
X228817D01*
Y29212D01*
Y29294D01*
Y31090D01*
X229796D01*
Y31008D01*
D02*
G37*
G36*
X227673Y30845D02*
X227020D01*
Y30763D01*
X226939D01*
Y30682D01*
X226857D01*
Y28885D01*
X226939D01*
Y28804D01*
X227020D01*
Y28722D01*
X227673D01*
Y28477D01*
X226939D01*
Y28559D01*
X226775D01*
Y28640D01*
X226694D01*
Y28722D01*
X226612D01*
Y28885D01*
X226530D01*
Y30682D01*
X226612D01*
Y30845D01*
X226694D01*
Y30927D01*
X226775D01*
Y31008D01*
X226939D01*
Y31090D01*
X227673D01*
Y30845D01*
D02*
G37*
G36*
X225061Y31008D02*
X225224D01*
Y30927D01*
X225305D01*
Y30845D01*
X225387D01*
Y29702D01*
X225305D01*
Y29620D01*
X225142D01*
Y29539D01*
X224407D01*
Y28477D01*
X224081D01*
Y31090D01*
X225061D01*
Y31008D01*
D02*
G37*
G36*
X216985Y21851D02*
X216957D01*
Y21880D01*
X216985D01*
Y21851D01*
D02*
G37*
G36*
X217071Y21823D02*
X217042D01*
Y21851D01*
X217071D01*
Y21823D01*
D02*
G37*
G36*
X217670Y21623D02*
X217641D01*
Y21651D01*
X217670D01*
Y21623D01*
D02*
G37*
G36*
X217755Y21537D02*
X217727D01*
Y21566D01*
X217755D01*
Y21537D01*
D02*
G37*
G36*
X217812Y21509D02*
X217784D01*
Y21537D01*
X217812D01*
Y21509D01*
D02*
G37*
G36*
X217869Y21480D02*
X217841D01*
Y21509D01*
X217869D01*
Y21480D01*
D02*
G37*
G36*
X217927Y21452D02*
X217898D01*
Y21480D01*
X217927D01*
Y21452D01*
D02*
G37*
G36*
X217984Y21423D02*
X217955D01*
Y21452D01*
X217984D01*
Y21423D01*
D02*
G37*
G36*
X218525Y21081D02*
X218497D01*
Y21110D01*
X218525D01*
Y21081D01*
D02*
G37*
G36*
X217156Y22592D02*
X217270D01*
Y22564D01*
X217356D01*
Y22535D01*
X217413D01*
Y22507D01*
X217499D01*
Y22479D01*
X217556D01*
Y22450D01*
X217641D01*
Y22421D01*
X217755D01*
Y22393D01*
X217812D01*
Y22364D01*
X217841D01*
Y22336D01*
X217927D01*
Y22307D01*
X217984D01*
Y22279D01*
X218069D01*
Y22250D01*
X218126D01*
Y22222D01*
X218183D01*
Y22193D01*
X218240D01*
Y22165D01*
X218297D01*
Y22108D01*
X218326D01*
Y22079D01*
X218383D01*
Y22051D01*
X218440D01*
Y22022D01*
X218468D01*
Y21994D01*
X218525D01*
Y21965D01*
X218582D01*
Y21937D01*
X218611D01*
Y21965D01*
X218639D01*
Y21908D01*
X218668D01*
Y21937D01*
X218696D01*
Y21908D01*
X218725D01*
Y21851D01*
X218754D01*
Y21823D01*
X218811D01*
Y21794D01*
X218839D01*
Y21766D01*
X218868D01*
Y21737D01*
X218953D01*
Y21680D01*
X218982D01*
Y21651D01*
X219039D01*
Y21623D01*
X219067D01*
Y21594D01*
X219096D01*
Y21566D01*
X219124D01*
Y21537D01*
X219181D01*
Y21509D01*
X219210D01*
Y21480D01*
X219238D01*
Y21452D01*
X219267D01*
Y21423D01*
X219324D01*
Y21395D01*
X219352D01*
Y21366D01*
X219409D01*
Y21338D01*
X219438D01*
Y21309D01*
X219466D01*
Y21252D01*
X219495D01*
Y21224D01*
X219524D01*
Y21195D01*
X219552D01*
Y21167D01*
X219581D01*
Y21138D01*
X219609D01*
Y21110D01*
X219638D01*
Y21053D01*
X219666D01*
Y21024D01*
X219695D01*
Y20996D01*
X219752D01*
Y20967D01*
X219780D01*
Y20938D01*
X219809D01*
Y20910D01*
X219837D01*
Y20881D01*
X219780D01*
Y20910D01*
X219752D01*
Y20938D01*
X219723D01*
Y20910D01*
X219752D01*
Y20853D01*
X219837D01*
Y20824D01*
X219866D01*
Y20796D01*
X219894D01*
Y20767D01*
X219923D01*
Y20710D01*
X219951D01*
Y20682D01*
X219980D01*
Y20653D01*
X220008D01*
Y20596D01*
X220037D01*
Y20568D01*
X220065D01*
Y20539D01*
X220094D01*
Y20482D01*
X220122D01*
Y20454D01*
X220094D01*
Y20482D01*
X220065D01*
Y20454D01*
X220094D01*
Y20425D01*
X220151D01*
Y20397D01*
X220179D01*
Y20368D01*
X220151D01*
Y20397D01*
X220122D01*
Y20368D01*
X220151D01*
Y20339D01*
X220208D01*
Y20311D01*
X220179D01*
Y20282D01*
X220236D01*
Y20311D01*
X220265D01*
Y20282D01*
X220293D01*
Y20254D01*
X220265D01*
Y20197D01*
X220293D01*
Y20140D01*
X220322D01*
Y20168D01*
X220351D01*
Y20140D01*
X220379D01*
Y20111D01*
X220351D01*
Y20083D01*
X220379D01*
Y20026D01*
X220408D01*
Y19969D01*
X220436D01*
Y19912D01*
X220465D01*
Y19855D01*
X220493D01*
Y19798D01*
X220522D01*
Y19741D01*
X220493D01*
Y19769D01*
X220465D01*
Y19741D01*
X220493D01*
Y19684D01*
X220550D01*
Y19655D01*
X220522D01*
Y19627D01*
X220579D01*
Y19598D01*
X220550D01*
Y19569D01*
X220607D01*
Y19541D01*
X220579D01*
Y19512D01*
X220664D01*
Y19484D01*
X220636D01*
Y19455D01*
X220607D01*
Y19427D01*
X220693D01*
Y19398D01*
X220664D01*
Y19370D01*
X220721D01*
Y19341D01*
X220693D01*
Y19284D01*
X220750D01*
Y19256D01*
X220721D01*
Y19170D01*
X220750D01*
Y19085D01*
X220778D01*
Y18999D01*
X220835D01*
Y18971D01*
X220807D01*
Y18885D01*
X220835D01*
Y18771D01*
X220864D01*
Y18628D01*
X220892D01*
Y18457D01*
X220921D01*
Y18201D01*
X220949D01*
Y17773D01*
X220921D01*
Y17801D01*
X220892D01*
Y17773D01*
X220921D01*
Y17744D01*
X220179D01*
Y18030D01*
X220151D01*
Y18286D01*
X220122D01*
Y18486D01*
X220151D01*
Y18571D01*
X220122D01*
Y18600D01*
X220094D01*
Y18628D01*
X220122D01*
Y18686D01*
X220094D01*
Y18800D01*
X220065D01*
Y18885D01*
X220037D01*
Y18914D01*
X220008D01*
Y18942D01*
X220037D01*
Y18971D01*
X220008D01*
Y18999D01*
X219980D01*
Y19028D01*
X220008D01*
Y19056D01*
X219980D01*
Y19085D01*
X219951D01*
Y19170D01*
X219923D01*
Y19256D01*
X219894D01*
Y19313D01*
X219866D01*
Y19370D01*
X219837D01*
Y19427D01*
X219809D01*
Y19484D01*
X219780D01*
Y19569D01*
X219752D01*
Y19627D01*
X219723D01*
Y19684D01*
X219695D01*
Y19741D01*
X219666D01*
Y19769D01*
X219695D01*
Y19798D01*
X219638D01*
Y19826D01*
X219666D01*
Y19855D01*
X219609D01*
Y19912D01*
X219581D01*
Y19883D01*
X219552D01*
Y19912D01*
X219524D01*
Y19940D01*
X219552D01*
Y19997D01*
X219524D01*
Y20026D01*
X219495D01*
Y20083D01*
X219466D01*
Y20111D01*
X219438D01*
Y20140D01*
X219409D01*
Y20168D01*
X219381D01*
Y20197D01*
X219352D01*
Y20311D01*
X219324D01*
Y20368D01*
X219295D01*
Y20397D01*
X219267D01*
Y20425D01*
X219238D01*
Y20454D01*
X219210D01*
Y20482D01*
X219153D01*
Y20511D01*
X219124D01*
Y20539D01*
X219096D01*
Y20568D01*
X219067D01*
Y20596D01*
X219039D01*
Y20625D01*
X219010D01*
Y20653D01*
X218982D01*
Y20682D01*
X218953D01*
Y20710D01*
X218925D01*
Y20739D01*
X218953D01*
Y20710D01*
X218982D01*
Y20682D01*
X219010D01*
Y20653D01*
X219039D01*
Y20625D01*
X219067D01*
Y20653D01*
X219039D01*
Y20682D01*
X219010D01*
Y20710D01*
X218982D01*
Y20739D01*
X218953D01*
Y20767D01*
X218925D01*
Y20796D01*
X218896D01*
Y20824D01*
X218868D01*
Y20853D01*
X218839D01*
Y20881D01*
X218811D01*
Y20910D01*
X218782D01*
Y20938D01*
X218754D01*
Y20910D01*
X218725D01*
Y20938D01*
X218668D01*
Y20967D01*
X218639D01*
Y20996D01*
X218611D01*
Y21024D01*
X218582D01*
Y21053D01*
X218554D01*
Y21138D01*
X218468D01*
Y21167D01*
X218440D01*
Y21195D01*
X218411D01*
Y21224D01*
X218383D01*
Y21195D01*
X218411D01*
Y21138D01*
X218383D01*
Y21167D01*
X218354D01*
Y21195D01*
X218326D01*
Y21224D01*
X218354D01*
Y21281D01*
X218269D01*
Y21338D01*
X218240D01*
Y21281D01*
X218212D01*
Y21338D01*
X218126D01*
Y21395D01*
X218069D01*
Y21423D01*
X218012D01*
Y21452D01*
X217984D01*
Y21480D01*
X217927D01*
Y21509D01*
X217869D01*
Y21537D01*
X217812D01*
Y21594D01*
X217784D01*
Y21566D01*
X217755D01*
Y21623D01*
X217727D01*
Y21594D01*
X217698D01*
Y21651D01*
X217670D01*
Y21680D01*
X217584D01*
Y21708D01*
X217527D01*
Y21737D01*
X217499D01*
Y21708D01*
X217527D01*
Y21680D01*
X217499D01*
Y21708D01*
X217413D01*
Y21737D01*
X217356D01*
Y21766D01*
X217299D01*
Y21794D01*
X217242D01*
Y21823D01*
X217156D01*
Y21851D01*
X217071D01*
Y21880D01*
X216985D01*
Y21908D01*
X216957D01*
Y21937D01*
X216928D01*
Y21908D01*
X216900D01*
Y21937D01*
X216871D01*
Y22022D01*
X216900D01*
Y22108D01*
X216928D01*
Y22165D01*
X216900D01*
Y22193D01*
X216957D01*
Y22222D01*
X216928D01*
Y22250D01*
X216985D01*
Y22307D01*
X216957D01*
Y22336D01*
X217014D01*
Y22421D01*
X217071D01*
Y22450D01*
X217042D01*
Y22479D01*
X217071D01*
Y22507D01*
X217128D01*
Y22535D01*
X217042D01*
Y22564D01*
X217156D01*
Y22592D01*
X217071D01*
Y22621D01*
X217156D01*
Y22592D01*
D02*
G37*
G36*
X216786Y21566D02*
X216900D01*
Y21537D01*
X216985D01*
Y21509D01*
X217042D01*
Y21480D01*
X217099D01*
Y21452D01*
X217156D01*
Y21423D01*
X217270D01*
Y21395D01*
X217328D01*
Y21366D01*
X217385D01*
Y21338D01*
X217442D01*
Y21309D01*
X217470D01*
Y21281D01*
X217527D01*
Y21252D01*
X217584D01*
Y21224D01*
X217670D01*
Y21195D01*
X217727D01*
Y21167D01*
X217784D01*
Y21110D01*
X217812D01*
Y21138D01*
X217841D01*
Y21110D01*
X217869D01*
Y21053D01*
X217927D01*
Y21024D01*
X217984D01*
Y20996D01*
X218012D01*
Y20967D01*
X218069D01*
Y20938D01*
X218126D01*
Y20910D01*
X218155D01*
Y20881D01*
X218183D01*
Y20853D01*
X218212D01*
Y20824D01*
X218240D01*
Y20796D01*
X218269D01*
Y20767D01*
X218326D01*
Y20739D01*
X218354D01*
Y20710D01*
X218383D01*
Y20682D01*
X218411D01*
Y20653D01*
X218497D01*
Y20625D01*
X218525D01*
Y20596D01*
X218554D01*
Y20568D01*
X218582D01*
Y20539D01*
X218611D01*
Y20511D01*
X218639D01*
Y20425D01*
X218696D01*
Y20368D01*
X218725D01*
Y20339D01*
X218782D01*
Y20282D01*
X218811D01*
Y20254D01*
X218839D01*
Y20225D01*
X218868D01*
Y20197D01*
X218925D01*
Y20168D01*
X218868D01*
Y20197D01*
X218839D01*
Y20140D01*
X218868D01*
Y20111D01*
X218896D01*
Y20140D01*
X218953D01*
Y20111D01*
X218982D01*
Y20083D01*
X219010D01*
Y20026D01*
X218982D01*
Y20054D01*
X218953D01*
Y19997D01*
X219039D01*
Y19969D01*
X219067D01*
Y19912D01*
X219096D01*
Y19883D01*
X219124D01*
Y19826D01*
X219153D01*
Y19798D01*
X219181D01*
Y19741D01*
X219210D01*
Y19712D01*
X219238D01*
Y19655D01*
X219267D01*
Y19598D01*
X219238D01*
Y19569D01*
X219295D01*
Y19541D01*
X219267D01*
Y19512D01*
X219324D01*
Y19484D01*
X219295D01*
Y19455D01*
X219352D01*
Y19398D01*
X219381D01*
Y19370D01*
X219438D01*
Y19341D01*
X219409D01*
Y19313D01*
X219466D01*
Y19284D01*
X219438D01*
Y19256D01*
X219466D01*
Y19199D01*
X219495D01*
Y19113D01*
X219524D01*
Y19028D01*
X219552D01*
Y18971D01*
X219581D01*
Y18885D01*
X219609D01*
Y18771D01*
X219638D01*
Y18686D01*
X219666D01*
Y18571D01*
X219695D01*
Y18429D01*
X219666D01*
Y18315D01*
X219695D01*
Y18286D01*
X219723D01*
Y18229D01*
X219695D01*
Y18058D01*
X219723D01*
Y17973D01*
X219752D01*
Y17944D01*
X219723D01*
Y17801D01*
X219752D01*
Y17773D01*
X219780D01*
Y17744D01*
X219752D01*
Y17773D01*
X219723D01*
Y17801D01*
X219695D01*
Y17773D01*
X219723D01*
Y17744D01*
X218582D01*
Y17773D01*
X218554D01*
Y18087D01*
X218525D01*
Y18258D01*
X218497D01*
Y18400D01*
X218468D01*
Y18486D01*
X218440D01*
Y18543D01*
X218468D01*
Y18514D01*
X218497D01*
Y18543D01*
X218468D01*
Y18571D01*
X218440D01*
Y18600D01*
X218468D01*
Y18657D01*
X218440D01*
Y18714D01*
X218411D01*
Y18800D01*
X218383D01*
Y18857D01*
X218326D01*
Y18885D01*
X218354D01*
Y18914D01*
X218297D01*
Y18942D01*
X218326D01*
Y18971D01*
X218269D01*
Y19028D01*
X218240D01*
Y19085D01*
X218212D01*
Y19142D01*
X218183D01*
Y19170D01*
X218155D01*
Y19227D01*
X218126D01*
Y19256D01*
X218098D01*
Y19313D01*
X218040D01*
Y19398D01*
X218012D01*
Y19427D01*
X217984D01*
Y19455D01*
X218012D01*
Y19427D01*
X218040D01*
Y19455D01*
X218012D01*
Y19484D01*
X217955D01*
Y19455D01*
X217927D01*
Y19484D01*
X217898D01*
Y19512D01*
X217869D01*
Y19541D01*
X217841D01*
Y19569D01*
X217812D01*
Y19598D01*
X217869D01*
Y19569D01*
X217927D01*
Y19541D01*
X217955D01*
Y19569D01*
X217927D01*
Y19598D01*
X217898D01*
Y19627D01*
X217841D01*
Y19655D01*
X217812D01*
Y19684D01*
X217784D01*
Y19712D01*
X217727D01*
Y19741D01*
X217698D01*
Y19798D01*
X217670D01*
Y19826D01*
X217613D01*
Y19855D01*
X217641D01*
Y19883D01*
X217613D01*
Y19912D01*
X217584D01*
Y19940D01*
X217556D01*
Y19912D01*
X217584D01*
Y19826D01*
X217556D01*
Y19855D01*
X217527D01*
Y19883D01*
X217499D01*
Y19912D01*
X217470D01*
Y19940D01*
X217499D01*
Y19997D01*
X217470D01*
Y20026D01*
X217442D01*
Y19940D01*
X217413D01*
Y19969D01*
X217385D01*
Y19997D01*
X217413D01*
Y20026D01*
X217385D01*
Y20083D01*
X217356D01*
Y20111D01*
X217328D01*
Y20083D01*
X217356D01*
Y20026D01*
X217328D01*
Y20083D01*
X217299D01*
Y20111D01*
X217242D01*
Y20140D01*
X217185D01*
Y20168D01*
X217156D01*
Y20197D01*
X217099D01*
Y20225D01*
X217042D01*
Y20197D01*
X217014D01*
Y20225D01*
X216985D01*
Y20254D01*
X217014D01*
Y20282D01*
X216957D01*
Y20311D01*
X216900D01*
Y20339D01*
X216871D01*
Y20368D01*
X216843D01*
Y20339D01*
X216814D01*
Y20397D01*
X216757D01*
Y20425D01*
X216700D01*
Y20454D01*
X216643D01*
Y20482D01*
X216615D01*
Y20454D01*
X216586D01*
Y20482D01*
X216558D01*
Y20511D01*
X216529D01*
Y20482D01*
X216558D01*
Y20454D01*
X216500D01*
Y20482D01*
X216415D01*
Y20511D01*
X216358D01*
Y20568D01*
X216387D01*
Y20539D01*
X216415D01*
Y20568D01*
X216387D01*
Y20653D01*
X216415D01*
Y20739D01*
X216443D01*
Y20824D01*
X216472D01*
Y20881D01*
X216500D01*
Y20938D01*
X216472D01*
Y20967D01*
X216529D01*
Y21024D01*
X216500D01*
Y21053D01*
X216558D01*
Y21110D01*
X216529D01*
Y21138D01*
X216643D01*
Y21167D01*
X216586D01*
Y21195D01*
X216615D01*
Y21224D01*
X216672D01*
Y21252D01*
X216615D01*
Y21281D01*
X216672D01*
Y21309D01*
X216615D01*
Y21338D01*
X216672D01*
Y21395D01*
X216643D01*
Y21423D01*
X216729D01*
Y21452D01*
X216700D01*
Y21480D01*
X216672D01*
Y21509D01*
X216786D01*
Y21537D01*
X216729D01*
Y21594D01*
X216786D01*
Y21566D01*
D02*
G37*
G36*
X216643Y20397D02*
X216615D01*
Y20425D01*
X216643D01*
Y20397D01*
D02*
G37*
G36*
X219238Y20368D02*
X219210D01*
Y20397D01*
X219181D01*
Y20425D01*
X219238D01*
Y20368D01*
D02*
G37*
G36*
X216729D02*
X216700D01*
Y20397D01*
X216729D01*
Y20368D01*
D02*
G37*
G36*
X219295Y20311D02*
X219267D01*
Y20339D01*
X219295D01*
Y20311D01*
D02*
G37*
G36*
X216957Y20254D02*
X216928D01*
Y20282D01*
X216957D01*
Y20254D01*
D02*
G37*
G36*
X220322Y20197D02*
X220293D01*
Y20225D01*
X220322D01*
Y20197D01*
D02*
G37*
G36*
X217099Y20168D02*
X217071D01*
Y20197D01*
X217099D01*
Y20168D01*
D02*
G37*
G36*
X219524Y19969D02*
X219495D01*
Y19997D01*
X219524D01*
Y19969D01*
D02*
G37*
G36*
X219609Y19826D02*
X219581D01*
Y19855D01*
X219609D01*
Y19826D01*
D02*
G37*
G36*
X219638Y19769D02*
X219609D01*
Y19798D01*
X219638D01*
Y19769D01*
D02*
G37*
G36*
X219381Y19455D02*
X219352D01*
Y19484D01*
X219381D01*
Y19455D01*
D02*
G37*
G36*
X219409Y19398D02*
X219381D01*
Y19427D01*
X219409D01*
Y19398D01*
D02*
G37*
G36*
X217984D02*
X217955D01*
Y19427D01*
X217984D01*
Y19398D01*
D02*
G37*
G36*
X219923Y19142D02*
X219894D01*
Y19170D01*
X219923D01*
Y19142D01*
D02*
G37*
G36*
X218183Y19113D02*
X218155D01*
Y19142D01*
X218183D01*
Y19113D01*
D02*
G37*
G36*
X219951Y19056D02*
X219923D01*
Y19085D01*
X219951D01*
Y19056D01*
D02*
G37*
G36*
X218212D02*
X218183D01*
Y19085D01*
X218212D01*
Y19056D01*
D02*
G37*
G36*
X218240Y18999D02*
X218212D01*
Y19028D01*
X218240D01*
Y18999D01*
D02*
G37*
G36*
X219980Y18971D02*
X219951D01*
Y18999D01*
X219980D01*
Y18971D01*
D02*
G37*
G36*
X218269Y18942D02*
X218240D01*
Y18971D01*
X218269D01*
Y18942D01*
D02*
G37*
G36*
X220065Y18714D02*
X220037D01*
Y18743D01*
X220065D01*
Y18714D01*
D02*
G37*
G36*
X218383D02*
X218354D01*
Y18743D01*
X218383D01*
Y18714D01*
D02*
G37*
G36*
X218411Y18628D02*
X218383D01*
Y18657D01*
X218411D01*
Y18628D01*
D02*
G37*
G36*
X190777Y14921D02*
X190748D01*
Y14950D01*
X190777D01*
Y14921D01*
D02*
G37*
G36*
X193115Y14322D02*
X193087D01*
Y14351D01*
X193115D01*
Y14322D01*
D02*
G37*
G36*
X192031Y13809D02*
X192003D01*
Y13837D01*
X192031D01*
Y13809D01*
D02*
G37*
G36*
X195625Y13780D02*
X195596D01*
Y14436D01*
Y14465D01*
Y15520D01*
X195625D01*
Y13780D01*
D02*
G37*
G36*
X195454Y13752D02*
X195482D01*
Y13723D01*
X195454D01*
Y13695D01*
X195425D01*
Y13723D01*
X195397D01*
Y13752D01*
X195425D01*
Y13780D01*
X195454D01*
Y13752D01*
D02*
G37*
G36*
X208829Y11299D02*
X206376D01*
Y11328D01*
X206091D01*
Y11356D01*
X205920D01*
Y11385D01*
X205778D01*
Y11413D01*
X205663D01*
Y11442D01*
X205606D01*
Y11470D01*
X205492D01*
Y11499D01*
X205435D01*
Y11527D01*
X205350D01*
Y11556D01*
X205293D01*
Y11584D01*
X205264D01*
Y11556D01*
X205236D01*
Y11584D01*
X205179D01*
Y11613D01*
X205121D01*
Y11641D01*
X205065D01*
Y11670D01*
X205008D01*
Y11698D01*
X204979D01*
Y11727D01*
X204922D01*
Y11755D01*
X204865D01*
Y11812D01*
X204808D01*
Y11841D01*
X204779D01*
Y11869D01*
X204751D01*
Y11898D01*
X204694D01*
Y11926D01*
X204665D01*
Y11955D01*
X204637D01*
Y11984D01*
X204580D01*
Y12012D01*
X204551D01*
Y12041D01*
X204523D01*
Y12069D01*
X204494D01*
Y12098D01*
X204466D01*
Y12126D01*
X204437D01*
Y12155D01*
X204409D01*
Y12183D01*
X204380D01*
Y12212D01*
X204351D01*
Y12240D01*
X204323D01*
Y12269D01*
X204294D01*
Y12297D01*
X204266D01*
Y12326D01*
X204237D01*
Y12354D01*
X204209D01*
Y12383D01*
X204180D01*
Y12411D01*
X204152D01*
Y12440D01*
X204123D01*
Y12468D01*
X204095D01*
Y12525D01*
X204066D01*
Y12554D01*
X204038D01*
Y12583D01*
X204009D01*
Y12611D01*
X203981D01*
Y12640D01*
X203952D01*
Y12697D01*
X203924D01*
Y12725D01*
X203895D01*
Y12754D01*
X203867D01*
Y12782D01*
X203838D01*
Y12811D01*
X203810D01*
Y12839D01*
X203781D01*
Y12896D01*
X203753D01*
Y12925D01*
X203724D01*
Y12953D01*
X203696D01*
Y12982D01*
X203667D01*
Y13010D01*
X203639D01*
Y13067D01*
X203610D01*
Y13096D01*
X203582D01*
Y13124D01*
X203553D01*
Y13153D01*
X203524D01*
Y13181D01*
X203496D01*
Y13210D01*
X203467D01*
Y13267D01*
X203439D01*
Y13295D01*
X203410D01*
Y13324D01*
X203382D01*
Y13352D01*
X203353D01*
Y13381D01*
X203325D01*
Y13409D01*
X203296D01*
Y13466D01*
X203268D01*
Y13495D01*
X203239D01*
Y13524D01*
X203211D01*
Y13552D01*
X203182D01*
Y13581D01*
X203154D01*
Y13638D01*
X203125D01*
Y13666D01*
X203097D01*
Y13695D01*
X203068D01*
Y13723D01*
X203011D01*
Y13752D01*
X202983D01*
Y13809D01*
X202954D01*
Y13837D01*
X202926D01*
Y13866D01*
X202897D01*
Y13894D01*
X202869D01*
Y13923D01*
X202840D01*
Y13951D01*
X202812D01*
Y14008D01*
X202783D01*
Y14037D01*
X202754D01*
Y14065D01*
X202726D01*
Y14094D01*
X202697D01*
Y14122D01*
X202669D01*
Y14179D01*
X202640D01*
Y14208D01*
X202612D01*
Y14236D01*
X202583D01*
Y14265D01*
X202555D01*
Y14294D01*
X202526D01*
Y14322D01*
X202498D01*
Y14379D01*
X202469D01*
Y14408D01*
X202441D01*
Y14436D01*
X202412D01*
Y14465D01*
X202384D01*
Y14493D01*
X202355D01*
Y14550D01*
X202327D01*
Y14579D01*
X202298D01*
Y14607D01*
X202270D01*
Y14636D01*
X202241D01*
Y14664D01*
X202213D01*
Y14693D01*
X202184D01*
Y14750D01*
X202156D01*
Y14778D01*
X202127D01*
Y14807D01*
X202098D01*
Y14835D01*
X202070D01*
Y14864D01*
X202042D01*
Y14893D01*
X202013D01*
Y14950D01*
X201985D01*
Y14978D01*
X201956D01*
Y15007D01*
X201927D01*
Y15035D01*
X201899D01*
Y15064D01*
X201870D01*
Y15121D01*
X201842D01*
Y15149D01*
X201813D01*
Y15178D01*
X201785D01*
Y15206D01*
X201756D01*
Y15235D01*
X201728D01*
Y15263D01*
X201699D01*
Y15320D01*
X201671D01*
Y15349D01*
X201642D01*
Y15377D01*
X201614D01*
Y15406D01*
X201585D01*
Y15434D01*
X201557D01*
Y15491D01*
X201528D01*
Y15520D01*
X201500D01*
Y15548D01*
X201471D01*
Y15577D01*
X201443D01*
Y15605D01*
X201414D01*
Y15634D01*
X201386D01*
Y15691D01*
X201357D01*
Y15720D01*
X201328D01*
Y15748D01*
X201300D01*
Y15777D01*
X201272D01*
Y15805D01*
X201243D01*
Y15834D01*
X201215D01*
Y15891D01*
X201186D01*
Y15919D01*
X201157D01*
Y15948D01*
X201129D01*
Y15976D01*
X201100D01*
Y16005D01*
X201072D01*
Y16062D01*
X201043D01*
Y16090D01*
X201015D01*
Y16119D01*
X200986D01*
Y16147D01*
X200958D01*
Y16176D01*
X200929D01*
Y16204D01*
X200901D01*
Y16233D01*
X200872D01*
Y16261D01*
X200844D01*
Y16290D01*
X200815D01*
Y16318D01*
X200787D01*
Y16347D01*
X200758D01*
Y16404D01*
X200730D01*
Y16432D01*
X200701D01*
Y16489D01*
X200673D01*
Y16518D01*
X200644D01*
Y16546D01*
X200587D01*
Y16604D01*
X200558D01*
Y16632D01*
X200530D01*
Y16661D01*
X200501D01*
Y16689D01*
X200473D01*
Y16718D01*
X200445D01*
Y16746D01*
X200416D01*
Y16803D01*
X200387D01*
Y16832D01*
X200359D01*
Y16860D01*
X200330D01*
Y16889D01*
X200302D01*
Y16917D01*
X200273D01*
Y16946D01*
X200245D01*
Y17003D01*
X200216D01*
Y17031D01*
X200188D01*
Y17060D01*
X200159D01*
Y17088D01*
X200131D01*
Y17117D01*
X200102D01*
Y17174D01*
X200074D01*
Y17202D01*
X200045D01*
Y17231D01*
X200017D01*
Y17259D01*
X199988D01*
Y17288D01*
X199960D01*
Y17317D01*
X199931D01*
Y17345D01*
X199903D01*
Y17374D01*
X199846D01*
Y17402D01*
X199817D01*
Y17431D01*
X199788D01*
Y17459D01*
X199760D01*
Y17488D01*
X199703D01*
Y17516D01*
X199674D01*
Y17545D01*
X199617D01*
Y17573D01*
X199589D01*
Y17602D01*
X199532D01*
Y17630D01*
X199475D01*
Y17659D01*
X199418D01*
Y17687D01*
X199304D01*
Y17716D01*
X199218D01*
Y17744D01*
X199076D01*
Y17773D01*
X198790D01*
Y17744D01*
X198819D01*
Y15777D01*
Y15748D01*
Y11328D01*
X198790D01*
Y11299D01*
X196765D01*
Y15548D01*
X195568D01*
Y13780D01*
X195596D01*
Y13752D01*
X195625D01*
Y13723D01*
X195596D01*
Y13695D01*
X195568D01*
Y13723D01*
X195539D01*
Y13752D01*
X195482D01*
Y13780D01*
X195454D01*
Y15577D01*
X195425D01*
Y15520D01*
X195397D01*
Y15548D01*
X195368D01*
Y15491D01*
X195340D01*
Y15520D01*
X195311D01*
Y15463D01*
X195340D01*
Y15434D01*
X195311D01*
Y15463D01*
X195283D01*
Y15491D01*
X195254D01*
Y15434D01*
X195283D01*
Y15406D01*
X195254D01*
Y15434D01*
X195197D01*
Y15406D01*
X195226D01*
Y15377D01*
X195197D01*
Y15406D01*
X195140D01*
Y15377D01*
X195168D01*
Y15349D01*
X195140D01*
Y15377D01*
X195083D01*
Y15349D01*
X195026D01*
Y15320D01*
X194997D01*
Y15292D01*
X194940D01*
Y15263D01*
X194883D01*
Y15235D01*
X194855D01*
Y15263D01*
X194826D01*
Y15235D01*
X194855D01*
Y15206D01*
X194798D01*
Y15235D01*
X194769D01*
Y15206D01*
X194798D01*
Y15178D01*
X194741D01*
Y15206D01*
X194712D01*
Y15178D01*
X194741D01*
Y15149D01*
X194684D01*
Y15178D01*
X194655D01*
Y15149D01*
X194684D01*
Y15121D01*
X194627D01*
Y15149D01*
X194598D01*
Y15092D01*
X194570D01*
Y15121D01*
X194541D01*
Y15064D01*
X194570D01*
Y15035D01*
X194541D01*
Y15064D01*
X194513D01*
Y15092D01*
X194484D01*
Y15035D01*
X194513D01*
Y15007D01*
X194484D01*
Y15035D01*
X194456D01*
Y15064D01*
X194427D01*
Y15007D01*
X194456D01*
Y14978D01*
X194427D01*
Y15007D01*
X194370D01*
Y15035D01*
X194341D01*
Y15007D01*
X194370D01*
Y14978D01*
X194398D01*
Y14950D01*
X194370D01*
Y14978D01*
X194313D01*
Y15007D01*
X194284D01*
Y14978D01*
X194313D01*
Y14950D01*
X194341D01*
Y14921D01*
X194313D01*
Y14950D01*
X194256D01*
Y14978D01*
X194227D01*
Y14950D01*
X194256D01*
Y14921D01*
X194199D01*
Y14950D01*
X194170D01*
Y14921D01*
X194199D01*
Y14893D01*
X194170D01*
Y14864D01*
X194113D01*
Y14835D01*
X194056D01*
Y14807D01*
X193999D01*
Y14835D01*
X193971D01*
Y14807D01*
X193999D01*
Y14778D01*
X193942D01*
Y14807D01*
X193914D01*
Y14778D01*
X193942D01*
Y14750D01*
X193885D01*
Y14778D01*
X193857D01*
Y14750D01*
X193885D01*
Y14721D01*
X193828D01*
Y14750D01*
X193800D01*
Y14693D01*
X193771D01*
Y14721D01*
X193743D01*
Y14664D01*
X193714D01*
Y14693D01*
X193685D01*
Y14636D01*
X193714D01*
Y14607D01*
X193685D01*
Y14636D01*
X193629D01*
Y14607D01*
X193657D01*
Y14579D01*
X193629D01*
Y14607D01*
X193571D01*
Y14579D01*
X193600D01*
Y14550D01*
X193571D01*
Y14579D01*
X193514D01*
Y14607D01*
X193486D01*
Y14579D01*
X193514D01*
Y14550D01*
X193543D01*
Y14522D01*
X193514D01*
Y14550D01*
X193457D01*
Y14522D01*
X193486D01*
Y14493D01*
X193457D01*
Y14522D01*
X193429D01*
Y14550D01*
X193400D01*
Y14522D01*
X193429D01*
Y14493D01*
X193372D01*
Y14522D01*
X193343D01*
Y14493D01*
X193372D01*
Y14465D01*
X193343D01*
Y14436D01*
X193286D01*
Y14408D01*
X193229D01*
Y14379D01*
X193172D01*
Y14408D01*
X193115D01*
Y14379D01*
X193172D01*
Y14351D01*
X193115D01*
Y14379D01*
X193058D01*
Y14351D01*
X193030D01*
Y14322D01*
X192973D01*
Y14265D01*
X192944D01*
Y14294D01*
X192915D01*
Y14236D01*
X192887D01*
Y14265D01*
X192859D01*
Y14208D01*
X192887D01*
Y14179D01*
X192859D01*
Y14208D01*
X192830D01*
Y14236D01*
X192801D01*
Y14179D01*
X192830D01*
Y14151D01*
X192801D01*
Y14179D01*
X192744D01*
Y14208D01*
X192716D01*
Y14179D01*
X192744D01*
Y14151D01*
X192773D01*
Y14122D01*
X192744D01*
Y14151D01*
X192687D01*
Y14179D01*
X192659D01*
Y14151D01*
X192687D01*
Y14122D01*
X192716D01*
Y14094D01*
X192687D01*
Y14122D01*
X192630D01*
Y14151D01*
X192602D01*
Y14122D01*
X192630D01*
Y14094D01*
X192659D01*
Y14065D01*
X192630D01*
Y14094D01*
X192573D01*
Y14122D01*
X192545D01*
Y14094D01*
X192573D01*
Y14065D01*
X192545D01*
Y14037D01*
X192488D01*
Y14008D01*
X192431D01*
Y13980D01*
X192374D01*
Y13951D01*
X192317D01*
Y13923D01*
X192288D01*
Y13951D01*
X192231D01*
Y13923D01*
X192260D01*
Y13894D01*
X192231D01*
Y13923D01*
X192174D01*
Y13866D01*
X192146D01*
Y13894D01*
X192117D01*
Y13837D01*
X192088D01*
Y13866D01*
X192060D01*
Y13837D01*
X192031D01*
Y15520D01*
X192060D01*
Y15548D01*
X190748D01*
Y15520D01*
X190777D01*
Y14978D01*
X185329D01*
Y15548D01*
X185358D01*
Y16404D01*
X190748D01*
Y16062D01*
X190720D01*
Y16033D01*
X190748D01*
Y15720D01*
X192031D01*
Y17374D01*
X192003D01*
Y17402D01*
X192031D01*
Y17374D01*
X192088D01*
Y17402D01*
X192117D01*
Y17374D01*
X192174D01*
Y17345D01*
X192231D01*
Y17317D01*
X192288D01*
Y17288D01*
X192345D01*
Y17259D01*
X192402D01*
Y17231D01*
X192459D01*
Y17202D01*
X192488D01*
Y17174D01*
X192545D01*
Y17145D01*
X192602D01*
Y17117D01*
X192659D01*
Y17088D01*
X192716D01*
Y17060D01*
X192773D01*
Y17031D01*
X192801D01*
Y17060D01*
X192830D01*
Y17031D01*
X192859D01*
Y17003D01*
X192915D01*
Y16974D01*
X192973D01*
Y16946D01*
X193030D01*
Y16917D01*
X193058D01*
Y16889D01*
X193115D01*
Y16860D01*
X193172D01*
Y16832D01*
X193229D01*
Y16803D01*
X193258D01*
Y16775D01*
X193315D01*
Y16746D01*
X193372D01*
Y16718D01*
X193429D01*
Y16689D01*
X193486D01*
Y16661D01*
X193600D01*
Y16632D01*
X193657D01*
Y16604D01*
X193714D01*
Y16575D01*
X193743D01*
Y16546D01*
X193800D01*
Y16518D01*
X193857D01*
Y16489D01*
X193914D01*
Y16461D01*
X193971D01*
Y16432D01*
X194028D01*
Y16404D01*
X194085D01*
Y16375D01*
X194113D01*
Y16347D01*
X194170D01*
Y16318D01*
X194227D01*
Y16290D01*
X194284D01*
Y16261D01*
X194341D01*
Y16233D01*
X194398D01*
Y16204D01*
X194427D01*
Y16233D01*
X194456D01*
Y16204D01*
X194484D01*
Y16176D01*
X194541D01*
Y16147D01*
X194570D01*
Y16119D01*
X194627D01*
Y16090D01*
X194684D01*
Y16062D01*
X194741D01*
Y16033D01*
X194798D01*
Y16005D01*
X194855D01*
Y15976D01*
X194912D01*
Y15948D01*
X194940D01*
Y15919D01*
X194997D01*
Y15891D01*
X195054D01*
Y15862D01*
X195112D01*
Y15834D01*
X195168D01*
Y15805D01*
X195197D01*
Y15834D01*
X195226D01*
Y15777D01*
X195254D01*
Y15805D01*
X195283D01*
Y15777D01*
X195340D01*
Y15748D01*
X195397D01*
Y15720D01*
X195425D01*
Y15634D01*
X195454D01*
Y17345D01*
X195425D01*
Y17374D01*
X195397D01*
Y17402D01*
X195425D01*
Y17374D01*
X195482D01*
Y17402D01*
X195625D01*
Y15720D01*
X196765D01*
Y19798D01*
X199190D01*
Y19769D01*
X199475D01*
Y19741D01*
X199617D01*
Y19712D01*
X199760D01*
Y19684D01*
X199874D01*
Y19655D01*
X199988D01*
Y19627D01*
X200074D01*
Y19598D01*
X200131D01*
Y19569D01*
X200188D01*
Y19541D01*
X200216D01*
Y19569D01*
X200245D01*
Y19541D01*
X200302D01*
Y19512D01*
X200359D01*
Y19484D01*
X200416D01*
Y19455D01*
X200473D01*
Y19427D01*
X200530D01*
Y19398D01*
X200558D01*
Y19370D01*
X200616D01*
Y19341D01*
X200644D01*
Y19313D01*
X200701D01*
Y19284D01*
X200730D01*
Y19256D01*
X200758D01*
Y19227D01*
X200787D01*
Y19199D01*
X200872D01*
Y19142D01*
X200901D01*
Y19113D01*
X200986D01*
Y19056D01*
X201015D01*
Y19028D01*
X201043D01*
Y18999D01*
X201072D01*
Y18971D01*
X201100D01*
Y18942D01*
X201129D01*
Y18914D01*
X201157D01*
Y18885D01*
X201186D01*
Y18857D01*
X201243D01*
Y18828D01*
X201272D01*
Y18771D01*
X201300D01*
Y18743D01*
X201328D01*
Y18714D01*
X201357D01*
Y18686D01*
X201386D01*
Y18657D01*
X201414D01*
Y18628D01*
X201443D01*
Y18600D01*
X201471D01*
Y18571D01*
X201500D01*
Y18543D01*
X201528D01*
Y18514D01*
X201557D01*
Y18457D01*
X201585D01*
Y18429D01*
X201614D01*
Y18400D01*
X201642D01*
Y18372D01*
X201671D01*
Y18343D01*
X201699D01*
Y18286D01*
X201728D01*
Y18258D01*
X201756D01*
Y18229D01*
X201813D01*
Y18201D01*
X201842D01*
Y18172D01*
X201870D01*
Y18144D01*
X201899D01*
Y18087D01*
X201927D01*
Y18058D01*
X201956D01*
Y18030D01*
X201985D01*
Y18001D01*
X202013D01*
Y17973D01*
X202042D01*
Y17916D01*
X202070D01*
Y17887D01*
X202098D01*
Y17858D01*
X202127D01*
Y17830D01*
X202156D01*
Y17801D01*
X202184D01*
Y17773D01*
X202213D01*
Y17744D01*
X202241D01*
Y17687D01*
X202270D01*
Y17659D01*
X202298D01*
Y17630D01*
X202327D01*
Y17602D01*
X202355D01*
Y17573D01*
X202384D01*
Y17545D01*
X202412D01*
Y17488D01*
X202441D01*
Y17459D01*
X202469D01*
Y17431D01*
X202498D01*
Y17402D01*
X202526D01*
Y17374D01*
X202555D01*
Y17345D01*
X202583D01*
Y17288D01*
X202612D01*
Y17259D01*
X202640D01*
Y17231D01*
X202669D01*
Y17202D01*
X202697D01*
Y17174D01*
X202726D01*
Y17145D01*
X202754D01*
Y17117D01*
X202783D01*
Y17060D01*
X202812D01*
Y17031D01*
X202840D01*
Y17003D01*
X202869D01*
Y16974D01*
X202897D01*
Y16946D01*
X202926D01*
Y16889D01*
X202954D01*
Y16860D01*
X202983D01*
Y16832D01*
X203011D01*
Y16803D01*
X203040D01*
Y16775D01*
X203068D01*
Y16746D01*
X203097D01*
Y16718D01*
X203125D01*
Y16661D01*
X203154D01*
Y16632D01*
X203182D01*
Y16604D01*
X203211D01*
Y16575D01*
X203239D01*
Y16546D01*
X203268D01*
Y16489D01*
X203296D01*
Y16461D01*
X203325D01*
Y16432D01*
X203353D01*
Y16404D01*
X203382D01*
Y16375D01*
X203410D01*
Y16347D01*
X203439D01*
Y16318D01*
X203467D01*
Y16261D01*
X203496D01*
Y16233D01*
X203524D01*
Y16204D01*
X203553D01*
Y16176D01*
X203582D01*
Y16147D01*
X203610D01*
Y16119D01*
X203639D01*
Y16062D01*
X203667D01*
Y16033D01*
X203696D01*
Y16005D01*
X203724D01*
Y15976D01*
X203753D01*
Y15948D01*
X203781D01*
Y15919D01*
X203810D01*
Y15862D01*
X203838D01*
Y15834D01*
X203867D01*
Y15805D01*
X203895D01*
Y15777D01*
X203924D01*
Y15748D01*
X203952D01*
Y15720D01*
X203981D01*
Y15691D01*
X204009D01*
Y15663D01*
X204038D01*
Y15605D01*
X204066D01*
Y15577D01*
X204095D01*
Y15548D01*
X204123D01*
Y15520D01*
X204152D01*
Y15463D01*
X204180D01*
Y15434D01*
X204209D01*
Y15406D01*
X204237D01*
Y15377D01*
X204294D01*
Y15349D01*
X204323D01*
Y15320D01*
X204351D01*
Y15263D01*
X204380D01*
Y15235D01*
X204409D01*
Y15206D01*
X204437D01*
Y15178D01*
X204466D01*
Y15149D01*
X204494D01*
Y15092D01*
X204523D01*
Y15064D01*
X204551D01*
Y15035D01*
X204580D01*
Y15007D01*
X204608D01*
Y14978D01*
X204637D01*
Y14950D01*
X204665D01*
Y14921D01*
X204694D01*
Y14864D01*
X204722D01*
Y14835D01*
X204751D01*
Y14807D01*
X204779D01*
Y14778D01*
X204808D01*
Y14750D01*
X204836D01*
Y14721D01*
X204865D01*
Y14664D01*
X204893D01*
Y14636D01*
X204922D01*
Y14607D01*
X204950D01*
Y14579D01*
X204979D01*
Y14550D01*
X205008D01*
Y14522D01*
X205036D01*
Y14465D01*
X205065D01*
Y14436D01*
X205093D01*
Y14408D01*
X205121D01*
Y14379D01*
X205150D01*
Y14351D01*
X205179D01*
Y14322D01*
X205207D01*
Y14265D01*
X205236D01*
Y14236D01*
X205264D01*
Y14208D01*
X205293D01*
Y14179D01*
X205321D01*
Y14151D01*
X205350D01*
Y14122D01*
X205378D01*
Y14094D01*
X205407D01*
Y14037D01*
X205435D01*
Y14008D01*
X205464D01*
Y13980D01*
X205492D01*
Y13951D01*
X205521D01*
Y13923D01*
X205549D01*
Y13894D01*
X205578D01*
Y13866D01*
X205606D01*
Y13837D01*
X205635D01*
Y13809D01*
X205692D01*
Y13780D01*
X205720D01*
Y13752D01*
X205749D01*
Y13723D01*
X205778D01*
Y13666D01*
X205835D01*
Y13638D01*
X205863D01*
Y13609D01*
X205891D01*
Y13581D01*
X205949D01*
Y13552D01*
X205977D01*
Y13524D01*
X206034D01*
Y13495D01*
X206063D01*
Y13466D01*
X206120D01*
Y13438D01*
X206205D01*
Y13409D01*
X206291D01*
Y13381D01*
X206376D01*
Y13352D01*
X206490D01*
Y13324D01*
X206804D01*
Y19798D01*
X208829D01*
Y11299D01*
D02*
G37*
G36*
X245801Y13014D02*
X245727D01*
Y13052D01*
X245801D01*
Y13014D01*
D02*
G37*
G36*
X245914Y12977D02*
X245839D01*
Y13014D01*
X245914D01*
Y12977D01*
D02*
G37*
G36*
X245988Y12940D02*
X245951D01*
Y12977D01*
X245988D01*
Y12940D01*
D02*
G37*
G36*
X246100Y12902D02*
X246063D01*
Y12940D01*
X246100D01*
Y12902D01*
D02*
G37*
G36*
X246175Y12865D02*
X246138D01*
Y12902D01*
X246175D01*
Y12865D01*
D02*
G37*
G36*
X246287Y12828D02*
X246250D01*
Y12865D01*
X246287D01*
Y12828D01*
D02*
G37*
G36*
X246362Y12790D02*
X246324D01*
Y12828D01*
X246362D01*
Y12790D01*
D02*
G37*
G36*
X246474Y12753D02*
X246437D01*
Y12790D01*
X246474D01*
Y12753D01*
D02*
G37*
G36*
X246698Y12641D02*
X246661D01*
Y12678D01*
X246698D01*
Y12641D01*
D02*
G37*
G36*
X246773Y12604D02*
X246736D01*
Y12641D01*
X246773D01*
Y12604D01*
D02*
G37*
G36*
X246848Y12566D02*
X246810D01*
Y12604D01*
X246848D01*
Y12566D01*
D02*
G37*
G36*
X245502D02*
X245465D01*
Y12604D01*
X245502D01*
Y12566D01*
D02*
G37*
G36*
X246922Y12529D02*
X246885D01*
Y12566D01*
X246922D01*
Y12529D01*
D02*
G37*
G36*
X247035Y12491D02*
X246997D01*
Y12529D01*
X247035D01*
Y12491D01*
D02*
G37*
G36*
X245465D02*
X245428D01*
Y12529D01*
X245465D01*
Y12491D01*
D02*
G37*
G36*
X247109Y12454D02*
X247147D01*
Y12417D01*
X247109D01*
Y12454D01*
X247072D01*
Y12491D01*
X247109D01*
Y12454D01*
D02*
G37*
G36*
X247221Y12379D02*
X247184D01*
Y12417D01*
X247221D01*
Y12379D01*
D02*
G37*
G36*
X245428D02*
X245390D01*
Y12417D01*
X245428D01*
Y12379D01*
D02*
G37*
G36*
X247296Y12342D02*
X247259D01*
Y12379D01*
X247296D01*
Y12342D01*
D02*
G37*
G36*
X247371Y12305D02*
X247408D01*
Y12267D01*
X247371D01*
Y12305D01*
X247333D01*
Y12342D01*
X247371D01*
Y12305D01*
D02*
G37*
G36*
X245390Y12267D02*
X245353D01*
Y12305D01*
X245390D01*
Y12267D01*
D02*
G37*
G36*
X247483Y12230D02*
X247446D01*
Y12267D01*
X247483D01*
Y12230D01*
D02*
G37*
G36*
X247558Y12192D02*
X247520D01*
Y12230D01*
X247558D01*
Y12192D01*
D02*
G37*
G36*
X245502D02*
X245465D01*
Y12230D01*
X245502D01*
Y12192D01*
D02*
G37*
G36*
X245615Y12155D02*
X245577D01*
Y12192D01*
X245615D01*
Y12155D01*
D02*
G37*
G36*
X247670Y12118D02*
X247632D01*
Y12155D01*
X247670D01*
Y12118D01*
D02*
G37*
G36*
X245727D02*
X245689D01*
Y12155D01*
X245727D01*
Y12118D01*
D02*
G37*
G36*
X245839Y12081D02*
X245801D01*
Y12118D01*
X245839D01*
Y12081D01*
D02*
G37*
G36*
X247782Y12043D02*
X247744D01*
Y12081D01*
X247782D01*
Y12043D01*
D02*
G37*
G36*
X247856Y12006D02*
X247894D01*
Y11968D01*
X247856D01*
Y12006D01*
X247819D01*
Y12043D01*
X247856D01*
Y12006D01*
D02*
G37*
G36*
X246026D02*
X246100D01*
Y11968D01*
X246026D01*
Y12006D01*
X245988D01*
Y12043D01*
X246026D01*
Y12006D01*
D02*
G37*
G36*
X246175Y11931D02*
X246138D01*
Y11968D01*
X246175D01*
Y11931D01*
D02*
G37*
G36*
X248006Y11894D02*
X248043D01*
Y11856D01*
X248006D01*
Y11894D01*
X247969D01*
Y11931D01*
X248006D01*
Y11894D01*
D02*
G37*
G36*
X248155Y11782D02*
X248081D01*
Y11819D01*
X248155D01*
Y11782D01*
D02*
G37*
G36*
X246661Y11707D02*
X246623D01*
Y11744D01*
X246661D01*
Y11707D01*
D02*
G37*
G36*
X246736Y11669D02*
X246698D01*
Y11707D01*
X246736D01*
Y11669D01*
D02*
G37*
G36*
X245316Y11632D02*
X245278D01*
Y11669D01*
X245316D01*
Y11632D01*
D02*
G37*
G36*
X246848Y11595D02*
X246810D01*
Y11632D01*
X246848D01*
Y11595D01*
D02*
G37*
G36*
X248305Y11632D02*
X248342D01*
Y11595D01*
X248380D01*
Y11557D01*
X248342D01*
Y11595D01*
X248305D01*
Y11632D01*
X248268D01*
Y11669D01*
X248305D01*
Y11632D01*
D02*
G37*
G36*
X246922Y11557D02*
X246885D01*
Y11595D01*
X246922D01*
Y11557D01*
D02*
G37*
G36*
X245615Y11520D02*
X245577D01*
Y11595D01*
X245615D01*
Y11520D01*
D02*
G37*
G36*
X247035Y11483D02*
X246997D01*
Y11520D01*
X247035D01*
Y11483D01*
D02*
G37*
G36*
X194199Y19940D02*
X194741D01*
Y19912D01*
X194769D01*
Y17944D01*
X184987D01*
Y17916D01*
X184902D01*
Y17887D01*
X184845D01*
Y17858D01*
X184788D01*
Y17830D01*
X184759D01*
Y17801D01*
X184731D01*
Y17744D01*
X184702D01*
Y17687D01*
X184674D01*
Y13723D01*
X184702D01*
Y13638D01*
X184731D01*
Y13609D01*
X184759D01*
Y13581D01*
X184788D01*
Y13552D01*
X184816D01*
Y13524D01*
X184873D01*
Y13495D01*
X184930D01*
Y13466D01*
X194769D01*
Y13438D01*
X194798D01*
Y11470D01*
X184702D01*
Y11499D01*
X184445D01*
Y11527D01*
X184274D01*
Y11556D01*
X184132D01*
Y11584D01*
X184103D01*
Y11556D01*
X184046D01*
Y11584D01*
X183961D01*
Y11613D01*
X183875D01*
Y11641D01*
X183790D01*
Y11670D01*
X183704D01*
Y11698D01*
X183675D01*
Y11727D01*
X183618D01*
Y11755D01*
X183561D01*
Y11784D01*
X183504D01*
Y11812D01*
X183447D01*
Y11841D01*
X183390D01*
Y11869D01*
X183362D01*
Y11898D01*
X183305D01*
Y11926D01*
X183276D01*
Y11955D01*
X183219D01*
Y11984D01*
X183191D01*
Y12012D01*
X183162D01*
Y12041D01*
X183134D01*
Y12069D01*
X183105D01*
Y12098D01*
X183077D01*
Y12126D01*
X183048D01*
Y12155D01*
X183019D01*
Y12183D01*
X182991D01*
Y12212D01*
X182963D01*
Y12240D01*
X182934D01*
Y12297D01*
X182905D01*
Y12326D01*
X182877D01*
Y12383D01*
X182848D01*
Y12411D01*
X182820D01*
Y12468D01*
X182791D01*
Y12525D01*
X182763D01*
Y12611D01*
X182734D01*
Y12697D01*
X182706D01*
Y12754D01*
X182677D01*
Y12839D01*
X182649D01*
Y12925D01*
X182620D01*
Y13067D01*
X182592D01*
Y13295D01*
X182563D01*
Y18115D01*
X182592D01*
Y18343D01*
X182620D01*
Y18457D01*
X182649D01*
Y18571D01*
X182677D01*
Y18657D01*
X182706D01*
Y18686D01*
X182677D01*
Y18714D01*
X182706D01*
Y18800D01*
X182734D01*
Y18857D01*
X182763D01*
Y18914D01*
X182791D01*
Y18971D01*
X182820D01*
Y19028D01*
X182848D01*
Y19056D01*
X182877D01*
Y19113D01*
X182905D01*
Y19142D01*
X182963D01*
Y19199D01*
X182991D01*
Y19227D01*
X183019D01*
Y19256D01*
X183048D01*
Y19284D01*
X183077D01*
Y19313D01*
X183105D01*
Y19341D01*
X183134D01*
Y19370D01*
X183162D01*
Y19427D01*
X183219D01*
Y19455D01*
X183248D01*
Y19484D01*
X183276D01*
Y19512D01*
X183333D01*
Y19541D01*
X183362D01*
Y19569D01*
X183419D01*
Y19598D01*
X183476D01*
Y19627D01*
X183533D01*
Y19655D01*
X183618D01*
Y19684D01*
X183675D01*
Y19712D01*
X183732D01*
Y19741D01*
X183818D01*
Y19769D01*
X183904D01*
Y19798D01*
X183989D01*
Y19826D01*
X184075D01*
Y19855D01*
X184217D01*
Y19883D01*
X184360D01*
Y19912D01*
X184560D01*
Y19940D01*
X184930D01*
Y19969D01*
X194199D01*
Y19940D01*
D02*
G37*
G36*
X245876Y11445D02*
X245839D01*
Y11483D01*
X245876D01*
Y11445D01*
D02*
G37*
G36*
X245801D02*
X245764D01*
Y11520D01*
X245801D01*
Y11445D01*
D02*
G37*
G36*
X245988Y11371D02*
X245951D01*
Y11408D01*
X245988D01*
Y11371D01*
D02*
G37*
G36*
X246063Y11333D02*
X246026D01*
Y11371D01*
X246063D01*
Y11333D01*
D02*
G37*
G36*
X234952Y19484D02*
X234981D01*
Y17773D01*
X225170D01*
Y17744D01*
X225056D01*
Y17716D01*
X225028D01*
Y17687D01*
X224971D01*
Y17659D01*
X224942D01*
Y17602D01*
X224914D01*
Y17545D01*
X224885D01*
Y13495D01*
X224914D01*
Y13438D01*
X224942D01*
Y13409D01*
X224971D01*
Y13381D01*
X224999D01*
Y13352D01*
X225056D01*
Y13324D01*
X225113D01*
Y13352D01*
X225142D01*
Y13324D01*
X234981D01*
Y12868D01*
X235009D01*
Y11299D01*
X224971D01*
Y11328D01*
X224685D01*
Y11356D01*
X224486D01*
Y11385D01*
X224372D01*
Y11413D01*
X224258D01*
Y11442D01*
X224144D01*
Y11470D01*
X224058D01*
Y11499D01*
X223972D01*
Y11527D01*
X223915D01*
Y11556D01*
X223858D01*
Y11584D01*
X223801D01*
Y11613D01*
X223716D01*
Y11641D01*
X223659D01*
Y11670D01*
X223630D01*
Y11698D01*
X223573D01*
Y11727D01*
X223516D01*
Y11755D01*
X223488D01*
Y11784D01*
X223459D01*
Y11812D01*
X223402D01*
Y11841D01*
X223374D01*
Y11869D01*
X223345D01*
Y11898D01*
X223317D01*
Y11926D01*
X223288D01*
Y11955D01*
X223259D01*
Y11984D01*
X223231D01*
Y12012D01*
X223202D01*
Y12041D01*
X223174D01*
Y12098D01*
X223145D01*
Y12126D01*
X223117D01*
Y12155D01*
X223088D01*
Y12212D01*
X223060D01*
Y12240D01*
X223031D01*
Y12297D01*
X223003D01*
Y12354D01*
X222974D01*
Y12411D01*
X222946D01*
Y12440D01*
X222917D01*
Y12525D01*
X222889D01*
Y12611D01*
X222860D01*
Y12697D01*
X222832D01*
Y12811D01*
X222803D01*
Y12925D01*
X222775D01*
Y13181D01*
X222746D01*
Y17916D01*
X222775D01*
Y18172D01*
X222803D01*
Y18315D01*
X222832D01*
Y18400D01*
X222860D01*
Y18486D01*
X222889D01*
Y18571D01*
X222917D01*
Y18657D01*
X222946D01*
Y18714D01*
X222974D01*
Y18771D01*
X223003D01*
Y18800D01*
X223031D01*
Y18857D01*
X223060D01*
Y18885D01*
X223088D01*
Y18914D01*
X223060D01*
Y18942D01*
X223117D01*
Y18999D01*
X223145D01*
Y19056D01*
X223174D01*
Y19085D01*
X223202D01*
Y19113D01*
X223259D01*
Y19142D01*
X223288D01*
Y19170D01*
X223317D01*
Y19199D01*
X223345D01*
Y19227D01*
X223374D01*
Y19256D01*
X223402D01*
Y19284D01*
X223459D01*
Y19313D01*
X223488D01*
Y19341D01*
X223516D01*
Y19370D01*
X223545D01*
Y19398D01*
X223602D01*
Y19427D01*
X223630D01*
Y19455D01*
X223687D01*
Y19484D01*
X223744D01*
Y19512D01*
X223801D01*
Y19541D01*
X223858D01*
Y19569D01*
X223944D01*
Y19598D01*
X224058D01*
Y19627D01*
X224172D01*
Y19655D01*
X224286D01*
Y19684D01*
X224372D01*
Y19712D01*
X224514D01*
Y19741D01*
X224714D01*
Y19769D01*
X225028D01*
Y19798D01*
X234952D01*
Y19484D01*
D02*
G37*
G36*
X246138Y11296D02*
X246100D01*
Y11333D01*
X246138D01*
Y11296D01*
D02*
G37*
G36*
X247333Y11258D02*
X247296D01*
Y11296D01*
X247333D01*
Y11258D01*
D02*
G37*
G36*
X246212D02*
X246175D01*
Y11296D01*
X246212D01*
Y11258D01*
D02*
G37*
G36*
X246287Y11221D02*
X246250D01*
Y11258D01*
X246287D01*
Y11221D01*
D02*
G37*
G36*
X246362Y11184D02*
X246324D01*
Y11221D01*
X246362D01*
Y11184D01*
D02*
G37*
G36*
X246437Y11146D02*
X246399D01*
Y11184D01*
X246437D01*
Y11146D01*
D02*
G37*
G36*
X246511Y11109D02*
X246474D01*
Y11146D01*
X246511D01*
Y11109D01*
D02*
G37*
G36*
X248604Y11408D02*
X248641D01*
Y11371D01*
X248678D01*
Y11333D01*
X248716D01*
Y11258D01*
X248753D01*
Y11221D01*
X248791D01*
Y11184D01*
X248828D01*
Y11146D01*
X248865D01*
Y11109D01*
X248903D01*
Y11072D01*
X248865D01*
Y11109D01*
X248828D01*
Y11146D01*
X248791D01*
Y11184D01*
X248753D01*
Y11221D01*
X248716D01*
Y11258D01*
X248678D01*
Y11296D01*
X248641D01*
Y11333D01*
X248604D01*
Y11371D01*
X248566D01*
Y11408D01*
X248529D01*
Y11445D01*
X248604D01*
Y11408D01*
D02*
G37*
G36*
X216301Y20140D02*
X216387D01*
Y20111D01*
X216443D01*
Y20083D01*
X216529D01*
Y20054D01*
X216586D01*
Y20026D01*
X216672D01*
Y19997D01*
X216757D01*
Y19969D01*
X216814D01*
Y19940D01*
X216843D01*
Y19912D01*
X216900D01*
Y19883D01*
X216957D01*
Y19855D01*
X216985D01*
Y19826D01*
X217042D01*
Y19769D01*
X217099D01*
Y19741D01*
X217128D01*
Y19712D01*
X217156D01*
Y19684D01*
X217214D01*
Y19655D01*
X217242D01*
Y19627D01*
X217270D01*
Y19598D01*
X217299D01*
Y19569D01*
X217328D01*
Y19541D01*
X217356D01*
Y19512D01*
X217413D01*
Y19484D01*
X217442D01*
Y19427D01*
X217470D01*
Y19398D01*
X217499D01*
Y19370D01*
X217527D01*
Y19341D01*
X217556D01*
Y19313D01*
X217584D01*
Y19284D01*
X217613D01*
Y19227D01*
X217641D01*
Y19199D01*
X217670D01*
Y19170D01*
X217698D01*
Y19113D01*
X217727D01*
Y19085D01*
X217755D01*
Y19028D01*
X217812D01*
Y18971D01*
X217841D01*
Y18914D01*
X217869D01*
Y18857D01*
X217898D01*
Y18800D01*
X217927D01*
Y18714D01*
X217955D01*
Y18628D01*
X217984D01*
Y18543D01*
X218012D01*
Y18457D01*
X218040D01*
Y18372D01*
X218069D01*
Y18258D01*
X218098D01*
Y18087D01*
X218126D01*
Y17773D01*
X217442D01*
Y11100D01*
X217413D01*
Y11071D01*
X215331D01*
Y11442D01*
X215303D01*
Y17174D01*
X215331D01*
Y17545D01*
X210369D01*
Y19541D01*
X210398D01*
Y19569D01*
X216016D01*
Y19598D01*
X216044D01*
Y19684D01*
X216073D01*
Y19769D01*
X216101D01*
Y19855D01*
X216130D01*
Y19912D01*
X216158D01*
Y19969D01*
X216187D01*
Y20054D01*
X216215D01*
Y20140D01*
X216244D01*
Y20168D01*
X216301D01*
Y20140D01*
D02*
G37*
G36*
X244942Y10997D02*
X244905D01*
Y11034D01*
X244942D01*
Y10997D01*
D02*
G37*
G36*
X247670D02*
X247744D01*
Y10960D01*
X247670D01*
Y10997D01*
X247632D01*
Y11034D01*
X247670D01*
Y10997D01*
D02*
G37*
G36*
X246773Y10960D02*
X246810D01*
Y10922D01*
X246736D01*
Y10997D01*
X246773D01*
Y10960D01*
D02*
G37*
G36*
X249090Y10885D02*
X249052D01*
Y10922D01*
X249090D01*
Y10885D01*
D02*
G37*
G36*
X244905D02*
X244867D01*
Y10922D01*
X244905D01*
Y10885D01*
D02*
G37*
G36*
X246922Y10847D02*
X246885D01*
Y10885D01*
X246922D01*
Y10847D01*
D02*
G37*
G36*
X244867Y10773D02*
X244830D01*
Y10810D01*
X244867D01*
Y10773D01*
D02*
G37*
G36*
X247035D02*
Y10735D01*
X246997D01*
Y10773D01*
X246960D01*
Y10810D01*
X247035D01*
Y10773D01*
D02*
G37*
G36*
X244830Y10698D02*
X244793D01*
Y10735D01*
X244830D01*
Y10698D01*
D02*
G37*
G36*
X249276Y10623D02*
X249239D01*
Y10661D01*
X249276D01*
Y10623D01*
D02*
G37*
G36*
X247184D02*
X247221D01*
Y10586D01*
X247184D01*
Y10623D01*
X247147D01*
Y10661D01*
X247184D01*
Y10623D01*
D02*
G37*
G36*
X244793Y10586D02*
X244755D01*
Y10623D01*
X244793D01*
Y10586D01*
D02*
G37*
G36*
X249388Y10511D02*
X249351D01*
Y10548D01*
X249388D01*
Y10511D01*
D02*
G37*
G36*
X248081Y10623D02*
X248118D01*
Y10586D01*
X248155D01*
Y10548D01*
X248193D01*
Y10511D01*
X248155D01*
Y10548D01*
X248118D01*
Y10586D01*
X248081D01*
Y10623D01*
X248043D01*
Y10661D01*
X248081D01*
Y10623D01*
D02*
G37*
G36*
X244755Y10474D02*
X244718D01*
Y10511D01*
X244755D01*
Y10474D01*
D02*
G37*
G36*
X244718Y10399D02*
X244681D01*
Y10436D01*
X244718D01*
Y10399D01*
D02*
G37*
G36*
X249463D02*
X249500D01*
Y10362D01*
X249463D01*
Y10399D01*
X249426D01*
Y10436D01*
X249463D01*
Y10399D01*
D02*
G37*
G36*
X244793Y10362D02*
X244755D01*
Y10399D01*
X244793D01*
Y10362D01*
D02*
G37*
G36*
X244905Y10324D02*
X244867D01*
Y10362D01*
X244905D01*
Y10324D01*
D02*
G37*
G36*
X249538Y10287D02*
X249500D01*
Y10324D01*
X249538D01*
Y10287D01*
D02*
G37*
G36*
X249613Y10175D02*
X249575D01*
Y10212D01*
X249613D01*
Y10175D01*
D02*
G37*
G36*
X247408Y10474D02*
X247446D01*
Y10436D01*
X247483D01*
Y10399D01*
X247520D01*
Y10324D01*
X247558D01*
Y10287D01*
X247595D01*
Y10250D01*
X247632D01*
Y10212D01*
X247670D01*
Y10175D01*
X247707D01*
Y10137D01*
X247744D01*
Y10100D01*
X247782D01*
Y10063D01*
X247744D01*
Y10100D01*
X247707D01*
Y10137D01*
X247670D01*
Y10175D01*
X247632D01*
Y10212D01*
X247595D01*
Y10250D01*
X247558D01*
Y10287D01*
X247520D01*
Y10324D01*
X247483D01*
Y10362D01*
X247446D01*
Y10399D01*
X247408D01*
Y10436D01*
X247371D01*
Y10511D01*
X247408D01*
Y10474D01*
D02*
G37*
G36*
X245577Y10025D02*
X245540D01*
Y10063D01*
X245577D01*
Y10025D01*
D02*
G37*
G36*
X249725Y9988D02*
X249687D01*
Y10025D01*
X249725D01*
Y9988D01*
D02*
G37*
G36*
X245652D02*
X245615D01*
Y10025D01*
X245652D01*
Y9988D01*
D02*
G37*
G36*
X248641D02*
X248678D01*
Y9951D01*
X248641D01*
Y9988D01*
X248604D01*
Y10025D01*
X248641D01*
Y9988D01*
D02*
G37*
G36*
X245727Y9951D02*
X245764D01*
Y9913D01*
X245727D01*
Y9951D01*
X245689D01*
Y9988D01*
X245727D01*
Y9951D01*
D02*
G37*
G36*
X245839Y9876D02*
X245801D01*
Y9913D01*
X245839D01*
Y9876D01*
D02*
G37*
G36*
X248753Y9839D02*
X248716D01*
Y9876D01*
X248753D01*
Y9839D01*
D02*
G37*
G36*
X249837Y9801D02*
X249799D01*
Y9839D01*
X249837D01*
Y9801D01*
D02*
G37*
G36*
X245951D02*
X245914D01*
Y9839D01*
X245951D01*
Y9801D01*
D02*
G37*
G36*
X249874Y9726D02*
X249837D01*
Y9764D01*
X249874D01*
Y9726D01*
D02*
G37*
G36*
X248828D02*
X248791D01*
Y9764D01*
X248828D01*
Y9726D01*
D02*
G37*
G36*
X249911Y9652D02*
X249874D01*
Y9689D01*
X249911D01*
Y9652D01*
D02*
G37*
G36*
X248903Y9614D02*
X248865D01*
Y9652D01*
X248903D01*
Y9614D01*
D02*
G37*
G36*
X249949Y9577D02*
X249911D01*
Y9614D01*
X249949D01*
Y9577D01*
D02*
G37*
G36*
X246250D02*
X246212D01*
Y9614D01*
X246250D01*
Y9577D01*
D02*
G37*
G36*
X250024Y9428D02*
X249986D01*
Y9465D01*
X250024D01*
Y9428D01*
D02*
G37*
G36*
X248305Y9390D02*
X248268D01*
Y9428D01*
X248305D01*
Y9390D01*
D02*
G37*
G36*
X250061Y9353D02*
X250024D01*
Y9390D01*
X250061D01*
Y9353D01*
D02*
G37*
G36*
X249090Y9278D02*
X249052D01*
Y9315D01*
X249090D01*
Y9278D01*
D02*
G37*
G36*
X248342Y9315D02*
X248380D01*
Y9278D01*
X248342D01*
Y9315D01*
X248305D01*
Y9353D01*
X248342D01*
Y9315D01*
D02*
G37*
G36*
X249127Y9203D02*
X249090D01*
Y9241D01*
X249127D01*
Y9203D01*
D02*
G37*
G36*
X248417D02*
X248380D01*
Y9241D01*
X248417D01*
Y9203D01*
D02*
G37*
G36*
X232243Y9331D02*
Y9189D01*
X232214D01*
Y9160D01*
X231929D01*
Y9189D01*
X231901D01*
Y9360D01*
X232243D01*
Y9331D01*
D02*
G37*
G36*
X226710Y9189D02*
X226682D01*
Y9160D01*
X226396D01*
Y9360D01*
X226710D01*
Y9189D01*
D02*
G37*
G36*
X217841Y9331D02*
X217812D01*
Y9217D01*
X217841D01*
Y9189D01*
X217812D01*
Y9160D01*
X217499D01*
Y9360D01*
X217841D01*
Y9331D01*
D02*
G37*
G36*
X214105Y9303D02*
X214076D01*
Y9160D01*
X213763D01*
Y9246D01*
Y9274D01*
Y9360D01*
X214105D01*
Y9303D01*
D02*
G37*
G36*
X192459Y9246D02*
Y9217D01*
Y9160D01*
X192146D01*
Y9360D01*
X192459D01*
Y9246D01*
D02*
G37*
G36*
X249164Y9129D02*
X249127D01*
Y9166D01*
X249164D01*
Y9129D01*
D02*
G37*
G36*
X246736Y9091D02*
X246698D01*
Y9129D01*
X246736D01*
Y9091D01*
D02*
G37*
G36*
X249202Y9017D02*
X249164D01*
Y9091D01*
X249202D01*
Y9017D01*
D02*
G37*
G36*
X249239Y8942D02*
X249202D01*
Y8979D01*
X249239D01*
Y8942D01*
D02*
G37*
G36*
X246848D02*
X246810D01*
Y8979D01*
X246848D01*
Y8942D01*
D02*
G37*
G36*
X250285Y8792D02*
X250248D01*
Y8830D01*
X250285D01*
Y8792D01*
D02*
G37*
G36*
X246922Y8830D02*
X246960D01*
Y8792D01*
X246922D01*
Y8830D01*
X246885D01*
Y8867D01*
X246922D01*
Y8830D01*
D02*
G37*
G36*
X249351Y8718D02*
X249314D01*
Y8755D01*
X249351D01*
Y8718D01*
D02*
G37*
G36*
X248641D02*
X248604D01*
Y8755D01*
X248641D01*
Y8718D01*
D02*
G37*
G36*
X250323Y8680D02*
X250285D01*
Y8718D01*
X250323D01*
Y8680D01*
D02*
G37*
G36*
X246997Y8718D02*
X247035D01*
Y8680D01*
X246997D01*
Y8718D01*
X246960D01*
Y8755D01*
X246997D01*
Y8718D01*
D02*
G37*
G36*
X248678Y8643D02*
X248641D01*
Y8680D01*
X248678D01*
Y8643D01*
D02*
G37*
G36*
X249388Y8606D02*
X249351D01*
Y8643D01*
X249388D01*
Y8606D01*
D02*
G37*
G36*
X248716Y8568D02*
X248678D01*
Y8606D01*
X248716D01*
Y8568D01*
D02*
G37*
G36*
X247072Y8606D02*
X247109D01*
Y8568D01*
X247072D01*
Y8606D01*
X247035D01*
Y8643D01*
X247072D01*
Y8606D01*
D02*
G37*
G36*
X249426Y8494D02*
X249388D01*
Y8531D01*
X249426D01*
Y8494D01*
D02*
G37*
G36*
X247147D02*
X247109D01*
Y8531D01*
X247147D01*
Y8494D01*
D02*
G37*
G36*
X250397Y8419D02*
X250360D01*
Y8456D01*
X250397D01*
Y8419D01*
D02*
G37*
G36*
X212194Y8333D02*
X212166D01*
Y8276D01*
X212137D01*
Y8248D01*
X212109D01*
Y8219D01*
X212080D01*
Y8191D01*
X212052D01*
Y8162D01*
X211966D01*
Y8134D01*
X211139D01*
Y8162D01*
X211082D01*
Y8191D01*
X211025D01*
Y8219D01*
X210996D01*
Y8248D01*
X210968D01*
Y8305D01*
X210939D01*
Y9018D01*
X211253D01*
Y8419D01*
X211282D01*
Y8390D01*
X211852D01*
Y9018D01*
X212194D01*
Y8333D01*
D02*
G37*
G36*
X250435Y8307D02*
X250397D01*
Y8344D01*
X250435D01*
Y8307D01*
D02*
G37*
G36*
X248828Y8269D02*
X248791D01*
Y8307D01*
X248828D01*
Y8269D01*
D02*
G37*
G36*
X250472Y8157D02*
X250435D01*
Y8195D01*
X250472D01*
Y8157D01*
D02*
G37*
G36*
X248865D02*
X248828D01*
Y8195D01*
X248865D01*
Y8157D01*
D02*
G37*
G36*
X233441Y9018D02*
X233498D01*
Y8989D01*
X233555D01*
Y8961D01*
X233583D01*
Y8932D01*
X233612D01*
Y8875D01*
X233640D01*
Y8134D01*
X233298D01*
Y8789D01*
X233070D01*
Y8818D01*
X232699D01*
Y8134D01*
X232357D01*
Y8390D01*
X232385D01*
Y8875D01*
X232357D01*
Y9046D01*
X233441D01*
Y9018D01*
D02*
G37*
G36*
X232243Y8390D02*
Y8362D01*
Y8134D01*
X231901D01*
Y8390D01*
X231929D01*
Y8875D01*
X231901D01*
Y9046D01*
X232243D01*
Y8390D01*
D02*
G37*
G36*
X231815Y8818D02*
X231359D01*
Y8789D01*
X231330D01*
Y8419D01*
Y8390D01*
Y8134D01*
X231017D01*
Y8903D01*
X231045D01*
Y8961D01*
X231074D01*
Y8989D01*
X231131D01*
Y9018D01*
X231216D01*
Y9046D01*
X231815D01*
Y8818D01*
D02*
G37*
G36*
X230731Y9018D02*
X230760D01*
Y8989D01*
X230788D01*
Y8961D01*
X230817D01*
Y8932D01*
X230845D01*
Y8618D01*
X230817D01*
Y8590D01*
X230788D01*
Y8561D01*
X230760D01*
Y8504D01*
X229961D01*
Y8419D01*
X229990D01*
Y8390D01*
X230817D01*
Y8276D01*
X230845D01*
Y8162D01*
X230817D01*
Y8134D01*
X229819D01*
Y8162D01*
X229762D01*
Y8191D01*
X229733D01*
Y8219D01*
X229705D01*
Y8248D01*
X229676D01*
Y8305D01*
X229648D01*
Y8903D01*
X229676D01*
Y8932D01*
X229705D01*
Y8961D01*
X229733D01*
Y8989D01*
X229762D01*
Y9018D01*
X229819D01*
Y9046D01*
X230731D01*
Y9018D01*
D02*
G37*
G36*
X229363D02*
X229419D01*
Y8989D01*
X229448D01*
Y8961D01*
X229476D01*
Y8590D01*
X229448D01*
Y8561D01*
X229419D01*
Y8533D01*
X229391D01*
Y8504D01*
X228621D01*
Y8390D01*
X229476D01*
Y8134D01*
X228478D01*
Y8162D01*
X228393D01*
Y8191D01*
X228364D01*
Y8219D01*
X228336D01*
Y8248D01*
X228307D01*
Y8305D01*
X228279D01*
Y8903D01*
X228307D01*
Y8932D01*
X228336D01*
Y8961D01*
X228364D01*
Y8989D01*
X228393D01*
Y9018D01*
X228478D01*
Y9046D01*
X229363D01*
Y9018D01*
D02*
G37*
G36*
X227937D02*
X227994D01*
Y8989D01*
X228051D01*
Y8961D01*
X228079D01*
Y8932D01*
X228108D01*
Y8875D01*
X228136D01*
Y8846D01*
X228165D01*
Y8134D01*
X227794D01*
Y8191D01*
X227822D01*
Y8761D01*
X227794D01*
Y8789D01*
X227765D01*
Y8818D01*
X227195D01*
Y8134D01*
X226853D01*
Y8305D01*
X226881D01*
Y9046D01*
X227937D01*
Y9018D01*
D02*
G37*
G36*
X226710Y8875D02*
Y8846D01*
Y8134D01*
X226396D01*
Y9046D01*
X226710D01*
Y8875D01*
D02*
G37*
G36*
X224628Y9018D02*
X224685D01*
Y8989D01*
X224742D01*
Y8961D01*
X224771D01*
Y8932D01*
X224799D01*
Y8875D01*
X224828D01*
Y8846D01*
X224856D01*
Y8134D01*
X224486D01*
Y8789D01*
X224343D01*
Y8818D01*
X223887D01*
Y8134D01*
X223573D01*
Y8162D01*
X223545D01*
Y8618D01*
X223573D01*
Y9046D01*
X224628D01*
Y9018D01*
D02*
G37*
G36*
X223259Y9331D02*
X223431D01*
Y9075D01*
X221976D01*
Y9046D01*
X221948D01*
Y8875D01*
X222832D01*
Y8846D01*
X223402D01*
Y8590D01*
X221948D01*
Y8419D01*
X221976D01*
Y8390D01*
X222005D01*
Y8419D01*
X223431D01*
Y8134D01*
X221833D01*
Y8162D01*
X221748D01*
Y8191D01*
X221691D01*
Y8219D01*
X221662D01*
Y8276D01*
X221634D01*
Y8305D01*
X221605D01*
Y9189D01*
X221634D01*
Y9246D01*
X221662D01*
Y9274D01*
X221691D01*
Y9303D01*
X221748D01*
Y9331D01*
X221833D01*
Y9360D01*
X223259D01*
Y9331D01*
D02*
G37*
G36*
X220465Y9018D02*
X220522D01*
Y8989D01*
X220579D01*
Y8961D01*
X220607D01*
Y8932D01*
X220636D01*
Y8875D01*
X220664D01*
Y8818D01*
X220693D01*
Y8134D01*
X220322D01*
Y8732D01*
Y8761D01*
Y8789D01*
X220293D01*
Y8818D01*
X219723D01*
Y8134D01*
X219381D01*
Y8162D01*
X219409D01*
Y9046D01*
X220465D01*
Y9018D01*
D02*
G37*
G36*
X219067D02*
X219096D01*
Y8989D01*
X219153D01*
Y8961D01*
X219181D01*
Y8932D01*
X219210D01*
Y8875D01*
X219238D01*
Y8818D01*
X219267D01*
Y8333D01*
X219238D01*
Y8276D01*
X219210D01*
Y8248D01*
X219181D01*
Y8219D01*
X219153D01*
Y8191D01*
X219124D01*
Y8162D01*
X219067D01*
Y8134D01*
X218183D01*
Y8162D01*
X218126D01*
Y8191D01*
X218069D01*
Y8219D01*
X218040D01*
Y8276D01*
X218012D01*
Y8305D01*
X217984D01*
Y8875D01*
X218012D01*
Y8903D01*
X218040D01*
Y8961D01*
X218069D01*
Y8989D01*
X218126D01*
Y9018D01*
X218212D01*
Y9046D01*
X219067D01*
Y9018D01*
D02*
G37*
G36*
X217812Y8305D02*
X217841D01*
Y8134D01*
X217499D01*
Y9046D01*
X217812D01*
Y8305D01*
D02*
G37*
G36*
X216985Y9303D02*
X217242D01*
Y9075D01*
Y9046D01*
X217442D01*
Y8903D01*
X217413D01*
Y8818D01*
X217242D01*
Y8134D01*
X216900D01*
Y8219D01*
X216928D01*
Y8789D01*
X216900D01*
Y8818D01*
X216757D01*
Y9046D01*
X216900D01*
Y9303D01*
X216928D01*
Y9331D01*
X216985D01*
Y9303D01*
D02*
G37*
G36*
X216529Y9018D02*
X216586D01*
Y8989D01*
X216643D01*
Y8932D01*
X216672D01*
Y8875D01*
X216700D01*
Y8276D01*
X216672D01*
Y8219D01*
X216643D01*
Y8191D01*
X216586D01*
Y8162D01*
X216529D01*
Y8134D01*
X215616D01*
Y8162D01*
X215559D01*
Y8191D01*
X215531D01*
Y8248D01*
X215502D01*
Y8561D01*
X215531D01*
Y8618D01*
X215559D01*
Y8647D01*
X215616D01*
Y8675D01*
X216387D01*
Y8761D01*
X216358D01*
Y8789D01*
X216272D01*
Y8818D01*
X216101D01*
Y8789D01*
X215731D01*
Y8818D01*
X215588D01*
Y8789D01*
X215531D01*
Y8818D01*
X215502D01*
Y9046D01*
X216529D01*
Y9018D01*
D02*
G37*
G36*
X215388Y8961D02*
X215360D01*
Y8818D01*
X214618D01*
Y8789D01*
X214590D01*
Y8761D01*
X214561D01*
Y8419D01*
X214590D01*
Y8390D01*
X215360D01*
Y8162D01*
X215388D01*
Y8134D01*
X214447D01*
Y8162D01*
X214390D01*
Y8191D01*
X214333D01*
Y8219D01*
X214305D01*
Y8276D01*
X214276D01*
Y8305D01*
X214247D01*
Y8903D01*
X214305D01*
Y8961D01*
X214333D01*
Y8989D01*
X214390D01*
Y9018D01*
X214476D01*
Y9046D01*
X215388D01*
Y8961D01*
D02*
G37*
G36*
X214076Y8305D02*
Y8276D01*
Y8219D01*
X214105D01*
Y8134D01*
X213763D01*
Y9046D01*
X214076D01*
Y8305D01*
D02*
G37*
G36*
X213421Y9018D02*
X213477D01*
Y8989D01*
X213535D01*
Y8961D01*
X213563D01*
Y8932D01*
X213592D01*
Y8875D01*
X213620D01*
Y8818D01*
X213649D01*
Y8134D01*
X213278D01*
Y8789D01*
X213050D01*
Y8818D01*
X212679D01*
Y8134D01*
X212337D01*
Y8333D01*
X212365D01*
Y8818D01*
X212337D01*
Y8846D01*
Y9046D01*
X213421D01*
Y9018D01*
D02*
G37*
G36*
X210597D02*
X210654D01*
Y8989D01*
X210711D01*
Y8961D01*
X210740D01*
Y8932D01*
X210768D01*
Y8903D01*
X210797D01*
Y8875D01*
X210768D01*
Y8846D01*
X210797D01*
Y8191D01*
X210825D01*
Y8134D01*
X210455D01*
Y8789D01*
X210426D01*
Y8818D01*
X210141D01*
Y8134D01*
X209799D01*
Y8789D01*
X209770D01*
Y8818D01*
X209456D01*
Y8134D01*
X209114D01*
Y9046D01*
X210597D01*
Y9018D01*
D02*
G37*
G36*
X208743D02*
X208801D01*
Y8989D01*
X208857D01*
Y8961D01*
X208886D01*
Y8932D01*
X208914D01*
Y8903D01*
X208943D01*
Y8818D01*
X208972D01*
Y8134D01*
X208601D01*
Y8419D01*
X208629D01*
Y8761D01*
X208601D01*
Y8789D01*
X208572D01*
Y8818D01*
X208316D01*
Y8789D01*
X208287D01*
Y8476D01*
X208316D01*
Y8134D01*
X207945D01*
Y8618D01*
X208002D01*
Y8647D01*
X207945D01*
Y8818D01*
X207603D01*
Y8134D01*
X207289D01*
Y9046D01*
X208743D01*
Y9018D01*
D02*
G37*
G36*
X206947D02*
X207004D01*
Y8989D01*
X207061D01*
Y8932D01*
X207089D01*
Y8903D01*
X207118D01*
Y8846D01*
X207146D01*
Y8561D01*
Y8533D01*
Y8333D01*
X207118D01*
Y8276D01*
X207089D01*
Y8248D01*
X207061D01*
Y8219D01*
X207032D01*
Y8191D01*
X207004D01*
Y8162D01*
X206947D01*
Y8134D01*
X206091D01*
Y8162D01*
X206006D01*
Y8191D01*
X205949D01*
Y8219D01*
X205920D01*
Y8276D01*
X205891D01*
Y8305D01*
X205863D01*
Y8875D01*
X205891D01*
Y8903D01*
X205920D01*
Y8961D01*
X205949D01*
Y8989D01*
X206006D01*
Y9018D01*
X206063D01*
Y9046D01*
X206947D01*
Y9018D01*
D02*
G37*
G36*
X205749Y8818D02*
X204979D01*
Y8789D01*
X204950D01*
Y8761D01*
X204922D01*
Y8419D01*
X204950D01*
Y8390D01*
X205720D01*
Y8362D01*
X205749D01*
Y8134D01*
X204836D01*
Y8162D01*
X204751D01*
Y8191D01*
X204694D01*
Y8219D01*
X204665D01*
Y8276D01*
X204637D01*
Y8305D01*
X204608D01*
Y8875D01*
X204637D01*
Y8903D01*
X204665D01*
Y8961D01*
X204694D01*
Y8989D01*
X204751D01*
Y9018D01*
X204836D01*
Y9046D01*
X205749D01*
Y8818D01*
D02*
G37*
G36*
X204351Y9018D02*
X204409D01*
Y8989D01*
X204437D01*
Y8961D01*
X204466D01*
Y8903D01*
X204494D01*
Y8618D01*
X204466D01*
Y8590D01*
X204437D01*
Y8561D01*
X204409D01*
Y8533D01*
X204380D01*
Y8504D01*
X203610D01*
Y8390D01*
X204466D01*
Y8134D01*
X203467D01*
Y8162D01*
X203382D01*
Y8191D01*
X203353D01*
Y8219D01*
X203325D01*
Y8248D01*
X203296D01*
Y8305D01*
X203268D01*
Y8903D01*
X203296D01*
Y8932D01*
X203325D01*
Y8961D01*
X203353D01*
Y8989D01*
X203382D01*
Y9018D01*
X203467D01*
Y9046D01*
X204351D01*
Y9018D01*
D02*
G37*
G36*
X203125Y9132D02*
Y9103D01*
Y8134D01*
X202783D01*
Y8305D01*
X202812D01*
Y8732D01*
X202783D01*
Y9360D01*
X203125D01*
Y9132D01*
D02*
G37*
G36*
X202498Y9018D02*
X202555D01*
Y8989D01*
X202583D01*
Y8961D01*
X202612D01*
Y8903D01*
X202640D01*
Y8618D01*
X202612D01*
Y8590D01*
X202583D01*
Y8561D01*
X202555D01*
Y8533D01*
X202526D01*
Y8504D01*
X201756D01*
Y8419D01*
X201785D01*
Y8390D01*
X202612D01*
Y8134D01*
X201614D01*
Y8162D01*
X201528D01*
Y8219D01*
X201500D01*
Y8248D01*
X201471D01*
Y8305D01*
X201443D01*
Y8932D01*
X201500D01*
Y8961D01*
X201528D01*
Y9018D01*
X201614D01*
Y9046D01*
X202498D01*
Y9018D01*
D02*
G37*
G36*
X201414Y9331D02*
X201443D01*
Y9075D01*
X200701D01*
Y8561D01*
X200673D01*
Y8533D01*
X200701D01*
Y8134D01*
X200359D01*
Y9075D01*
X199617D01*
Y9331D01*
X199931D01*
Y9360D01*
X201414D01*
Y9331D01*
D02*
G37*
G36*
X198705Y8533D02*
X198733D01*
Y8362D01*
X198705D01*
Y8276D01*
X198676D01*
Y8248D01*
X198648D01*
Y8219D01*
X198619D01*
Y8191D01*
X198562D01*
Y8162D01*
X198505D01*
Y8134D01*
X197650D01*
Y8162D01*
X197564D01*
Y8191D01*
X197507D01*
Y8219D01*
X197478D01*
Y8276D01*
X197450D01*
Y8305D01*
X197422D01*
Y8875D01*
X197450D01*
Y8903D01*
X197478D01*
Y8961D01*
X197507D01*
Y8989D01*
X197564D01*
Y9018D01*
X197650D01*
Y9046D01*
X198363D01*
Y9360D01*
X198705D01*
Y8533D01*
D02*
G37*
G36*
X197079Y9018D02*
X197108D01*
Y8989D01*
X197165D01*
Y8961D01*
X197193D01*
Y8932D01*
X197222D01*
Y8875D01*
X197250D01*
Y8818D01*
X197279D01*
Y8134D01*
X196937D01*
Y8561D01*
X196965D01*
Y8590D01*
X196937D01*
Y8761D01*
X196908D01*
Y8789D01*
X196880D01*
Y8818D01*
X196309D01*
Y8134D01*
X195995D01*
Y9046D01*
X197079D01*
Y9018D01*
D02*
G37*
G36*
X195682D02*
X195739D01*
Y8989D01*
X195796D01*
Y8961D01*
X195824D01*
Y8875D01*
X195853D01*
Y8248D01*
X195796D01*
Y8219D01*
X195767D01*
Y8191D01*
X195739D01*
Y8162D01*
X195682D01*
Y8134D01*
X194769D01*
Y8162D01*
X194712D01*
Y8191D01*
X194684D01*
Y8276D01*
X194655D01*
Y8561D01*
X194684D01*
Y8618D01*
X194712D01*
Y8647D01*
X194769D01*
Y8675D01*
X195539D01*
Y8732D01*
X195511D01*
Y8761D01*
X195482D01*
Y8789D01*
X194684D01*
Y8818D01*
X194655D01*
Y9046D01*
X195682D01*
Y9018D01*
D02*
G37*
G36*
X193743Y8818D02*
X193001D01*
Y8789D01*
X192944D01*
Y8419D01*
X192973D01*
Y8390D01*
X193743D01*
Y8134D01*
X192830D01*
Y8162D01*
X192773D01*
Y8191D01*
X192716D01*
Y8219D01*
X192687D01*
Y8276D01*
X192659D01*
Y8305D01*
X192630D01*
Y8875D01*
X192659D01*
Y8903D01*
X192687D01*
Y8961D01*
X192716D01*
Y8989D01*
X192773D01*
Y9018D01*
X192830D01*
Y9046D01*
X193743D01*
Y8818D01*
D02*
G37*
G36*
X192459Y8305D02*
X192488D01*
Y8134D01*
X192146D01*
Y9046D01*
X192459D01*
Y8305D01*
D02*
G37*
G36*
X191775Y9018D02*
X191832D01*
Y8989D01*
X191889D01*
Y8961D01*
X191917D01*
Y8932D01*
X191946D01*
Y8875D01*
X191974D01*
Y8818D01*
X192003D01*
Y8134D01*
X191632D01*
Y8789D01*
X191604D01*
Y8818D01*
X191033D01*
Y8134D01*
X190691D01*
Y8333D01*
X190720D01*
Y8818D01*
X190691D01*
Y9046D01*
X191775D01*
Y9018D01*
D02*
G37*
G36*
X190377D02*
X190406D01*
Y8989D01*
X190463D01*
Y8961D01*
X190491D01*
Y8932D01*
X190520D01*
Y8875D01*
X190549D01*
Y8818D01*
X190577D01*
Y8675D01*
Y8647D01*
Y8333D01*
X190549D01*
Y8276D01*
X190520D01*
Y8248D01*
X190491D01*
Y8219D01*
X190463D01*
Y8191D01*
X190406D01*
Y8162D01*
X190377D01*
Y8134D01*
X189522D01*
Y8162D01*
X189436D01*
Y8191D01*
X189379D01*
Y8219D01*
X189351D01*
Y8276D01*
X189322D01*
Y8305D01*
X189294D01*
Y8903D01*
X189351D01*
Y8961D01*
X189379D01*
Y8989D01*
X189436D01*
Y9018D01*
X189493D01*
Y9046D01*
X190377D01*
Y9018D01*
D02*
G37*
G36*
X189180Y8818D02*
X188752D01*
Y8789D01*
X188723D01*
Y8761D01*
X188695D01*
Y8675D01*
Y8647D01*
Y8219D01*
X188723D01*
Y8134D01*
X188381D01*
Y8875D01*
X188409D01*
Y8903D01*
X188438D01*
Y8961D01*
X188467D01*
Y8989D01*
X188524D01*
Y9018D01*
X188609D01*
Y9046D01*
X189180D01*
Y8818D01*
D02*
G37*
G36*
X187868Y9303D02*
X188124D01*
Y9046D01*
X188324D01*
Y8961D01*
X188295D01*
Y8875D01*
Y8846D01*
Y8818D01*
X188124D01*
Y8134D01*
X187782D01*
Y8162D01*
X187811D01*
Y8647D01*
X187839D01*
Y8675D01*
X187811D01*
Y8789D01*
X187782D01*
Y8818D01*
X187640D01*
Y9046D01*
X187782D01*
Y9303D01*
X187811D01*
Y9331D01*
X187868D01*
Y9303D01*
D02*
G37*
G36*
X187583Y8818D02*
X186812D01*
Y8789D01*
X186784D01*
Y8419D01*
X186812D01*
Y8390D01*
X187583D01*
Y8134D01*
X186670D01*
Y8162D01*
X186584D01*
Y8191D01*
X186527D01*
Y8219D01*
X186499D01*
Y8276D01*
X186470D01*
Y8875D01*
X186499D01*
Y8961D01*
X186527D01*
Y8989D01*
X186584D01*
Y9018D01*
X186670D01*
Y9046D01*
X187583D01*
Y8818D01*
D02*
G37*
G36*
X186185Y9018D02*
X186242D01*
Y8989D01*
X186271D01*
Y8961D01*
X186299D01*
Y8932D01*
X186328D01*
Y8618D01*
X186299D01*
Y8590D01*
X186271D01*
Y8561D01*
X186242D01*
Y8533D01*
X186214D01*
Y8504D01*
X185444D01*
Y8419D01*
X185472D01*
Y8390D01*
X186299D01*
Y8134D01*
X185301D01*
Y8162D01*
X185244D01*
Y8191D01*
X185215D01*
Y8219D01*
X185187D01*
Y8248D01*
X185158D01*
Y8305D01*
X185130D01*
Y8903D01*
X185158D01*
Y8932D01*
X185187D01*
Y8961D01*
X185215D01*
Y8989D01*
X185244D01*
Y9018D01*
X185329D01*
Y9046D01*
X186185D01*
Y9018D01*
D02*
G37*
G36*
X184987Y9303D02*
X184959D01*
Y8333D01*
X184987D01*
Y8134D01*
X184645D01*
Y9331D01*
Y9360D01*
X184987D01*
Y9303D01*
D02*
G37*
G36*
X184474Y9331D02*
X184531D01*
Y9075D01*
X183048D01*
Y9046D01*
X183019D01*
Y8875D01*
X184274D01*
Y8846D01*
X184502D01*
Y8590D01*
X183019D01*
Y8419D01*
X184502D01*
Y8390D01*
X184531D01*
Y8362D01*
X184502D01*
Y8333D01*
X184531D01*
Y8134D01*
X182905D01*
Y8162D01*
X182848D01*
Y8191D01*
X182791D01*
Y8219D01*
X182763D01*
Y8276D01*
X182706D01*
Y9189D01*
X182734D01*
Y9246D01*
X182763D01*
Y9274D01*
X182791D01*
Y9303D01*
X182848D01*
Y9331D01*
X182934D01*
Y9360D01*
X184474D01*
Y9331D01*
D02*
G37*
G36*
X234895Y9018D02*
X234952D01*
Y8989D01*
X235009D01*
Y8961D01*
X235038D01*
Y8932D01*
X235066D01*
Y8903D01*
X235095D01*
Y8048D01*
X235066D01*
Y7991D01*
X235038D01*
Y7934D01*
X235009D01*
Y7905D01*
X234952D01*
Y7877D01*
X234895D01*
Y7848D01*
X233868D01*
Y8105D01*
X233897D01*
Y8077D01*
X234667D01*
Y8105D01*
X234696D01*
Y8134D01*
X234752D01*
Y8276D01*
X233926D01*
Y8305D01*
X233897D01*
Y8333D01*
X233868D01*
Y8362D01*
X233840D01*
Y8419D01*
X233811D01*
Y8903D01*
X233840D01*
Y8932D01*
X233868D01*
Y8961D01*
X233897D01*
Y8989D01*
X233926D01*
Y9018D01*
X233982D01*
Y9046D01*
X234895D01*
Y9018D01*
D02*
G37*
G36*
X248903Y8045D02*
X248865D01*
Y8083D01*
X248903D01*
Y8045D01*
D02*
G37*
G36*
X250509Y7970D02*
X250472D01*
Y8008D01*
Y8045D01*
X250509D01*
Y7970D01*
D02*
G37*
G36*
X248940Y7896D02*
X248903D01*
Y7933D01*
X248940D01*
Y7896D01*
D02*
G37*
G36*
X226054Y9018D02*
X226140D01*
Y8989D01*
X226197D01*
Y8932D01*
X226225D01*
Y8903D01*
X226254D01*
Y8048D01*
X226225D01*
Y7962D01*
X226197D01*
Y7934D01*
X226168D01*
Y7905D01*
X226111D01*
Y7877D01*
X226054D01*
Y7848D01*
X225028D01*
Y8077D01*
X225855D01*
Y8105D01*
X225912D01*
Y8276D01*
X225113D01*
Y8305D01*
X225056D01*
Y8333D01*
X225028D01*
Y8362D01*
X224999D01*
Y8419D01*
X224971D01*
Y8903D01*
X224999D01*
Y8932D01*
X225028D01*
Y8961D01*
X225056D01*
Y8989D01*
X225085D01*
Y9018D01*
X225170D01*
Y9046D01*
X226054D01*
Y9018D01*
D02*
G37*
G36*
X250547Y7784D02*
X250509D01*
Y7821D01*
Y7858D01*
X250547D01*
Y7784D01*
D02*
G37*
G36*
X247446Y7746D02*
X247408D01*
Y7784D01*
X247446D01*
Y7746D01*
D02*
G37*
G36*
X248977D02*
Y7709D01*
X248940D01*
Y7821D01*
X248977D01*
Y7746D01*
D02*
G37*
G36*
X247483Y7597D02*
X247446D01*
Y7671D01*
X247483D01*
Y7597D01*
D02*
G37*
G36*
X250584Y7634D02*
Y7522D01*
X250547D01*
Y7671D01*
X250584D01*
Y7634D01*
D02*
G37*
G36*
X249650Y7447D02*
X249613D01*
Y7597D01*
X249650D01*
Y7447D01*
D02*
G37*
G36*
X247520Y7485D02*
Y7410D01*
X247483D01*
Y7522D01*
X247520D01*
Y7485D01*
D02*
G37*
G36*
X247558Y7223D02*
X247520D01*
Y7298D01*
X247558D01*
Y7223D01*
D02*
G37*
G36*
X249687Y7111D02*
X249650D01*
Y7148D01*
Y7186D01*
Y7298D01*
X249687D01*
Y7111D01*
D02*
G37*
G36*
X250621Y7298D02*
Y7074D01*
X250584D01*
Y7335D01*
X250621D01*
Y7298D01*
D02*
G37*
G36*
X247595Y6812D02*
X247558D01*
Y6849D01*
X247595D01*
Y6812D01*
D02*
G37*
G36*
X250621Y6775D02*
X250584D01*
Y6812D01*
X250621D01*
Y6775D01*
D02*
G37*
G36*
X249725D02*
X249687D01*
Y6812D01*
X249725D01*
Y6775D01*
D02*
G37*
G36*
X249052D02*
X249015D01*
Y6812D01*
X249052D01*
Y6775D01*
D02*
G37*
G36*
X217405Y1506D02*
X217367D01*
Y1544D01*
X217405D01*
Y1506D01*
D02*
G37*
G36*
X217292D02*
X217255D01*
Y1544D01*
X217292D01*
Y1506D01*
D02*
G37*
%LPC*%
G36*
X238860Y61873D02*
X238697D01*
Y61792D01*
X238615D01*
Y61710D01*
X238533D01*
Y61628D01*
X238452D01*
Y61547D01*
X238370D01*
Y61465D01*
X238288D01*
Y61383D01*
X238207D01*
Y61302D01*
X238125D01*
Y61220D01*
X238043D01*
Y61138D01*
X237962D01*
Y61057D01*
X237880D01*
Y60975D01*
X237798D01*
Y60893D01*
X237717D01*
Y60812D01*
X237635D01*
Y60730D01*
X237553D01*
Y60649D01*
X237472D01*
Y60567D01*
X237390D01*
Y60485D01*
X237308D01*
Y60404D01*
X237227D01*
Y60322D01*
X237145D01*
Y60240D01*
X237064D01*
Y60158D01*
X236982D01*
Y60077D01*
X236900D01*
Y59995D01*
X236819D01*
Y59914D01*
X236737D01*
Y59832D01*
X236655D01*
Y59750D01*
X236574D01*
Y59669D01*
X236492D01*
Y59587D01*
X236410D01*
Y59505D01*
X236329D01*
Y59424D01*
X236247D01*
Y59342D01*
X236165D01*
Y59260D01*
X236084D01*
Y59179D01*
X236002D01*
Y59097D01*
X235920D01*
Y59015D01*
X235839D01*
Y58934D01*
X235757D01*
Y58852D01*
X235675D01*
Y58770D01*
X235594D01*
Y58689D01*
X235512D01*
Y58607D01*
X235430D01*
Y58526D01*
X235349D01*
Y58444D01*
X235267D01*
Y58362D01*
X235186D01*
Y58280D01*
X235104D01*
Y58199D01*
X235022D01*
Y58117D01*
X234941D01*
Y58036D01*
X234859D01*
Y57954D01*
X234777D01*
Y57872D01*
X234696D01*
Y57791D01*
X234614D01*
Y57709D01*
X234532D01*
Y57627D01*
X234451D01*
Y57546D01*
X234369D01*
Y57464D01*
X234287D01*
Y57382D01*
X234206D01*
Y57301D01*
X234124D01*
Y57219D01*
X234042D01*
Y57137D01*
X233961D01*
Y57056D01*
X233879D01*
Y56974D01*
X233797D01*
Y56892D01*
X233716D01*
Y56811D01*
X233634D01*
Y56729D01*
X233552D01*
Y56647D01*
X233471D01*
Y56566D01*
X233389D01*
Y56484D01*
X233307D01*
Y56402D01*
X233226D01*
Y56321D01*
X233144D01*
Y56239D01*
X233063D01*
Y56157D01*
X232981D01*
Y56076D01*
X232899D01*
Y55994D01*
X232818D01*
Y55913D01*
X232736D01*
Y55831D01*
X232654D01*
Y55749D01*
X232573D01*
Y55668D01*
X232491D01*
Y55586D01*
X232409D01*
Y55504D01*
X232328D01*
Y55423D01*
X232246D01*
Y55341D01*
X232164D01*
Y55259D01*
X232083D01*
Y55178D01*
X232001D01*
Y55096D01*
X231919D01*
Y55014D01*
X231838D01*
Y54933D01*
X231756D01*
Y54851D01*
X231674D01*
Y54769D01*
X231593D01*
Y54688D01*
X231511D01*
Y54606D01*
X231429D01*
Y54524D01*
X231348D01*
Y54443D01*
X231266D01*
Y54361D01*
X231185D01*
Y54280D01*
X231103D01*
Y54198D01*
X231021D01*
Y54116D01*
X230940D01*
Y54035D01*
X230858D01*
Y53953D01*
X230776D01*
Y53871D01*
X230695D01*
Y53790D01*
X230613D01*
Y53708D01*
X230531D01*
Y53626D01*
X230450D01*
Y53545D01*
X230368D01*
Y53463D01*
X230286D01*
Y53381D01*
X230205D01*
Y53300D01*
X230123D01*
Y53218D01*
X230041D01*
Y53136D01*
X229960D01*
Y53055D01*
X229878D01*
Y52973D01*
X229796D01*
Y52891D01*
X229715D01*
Y52810D01*
X229633D01*
Y52728D01*
X229551D01*
Y52646D01*
X229470D01*
Y52565D01*
X229388D01*
Y52483D01*
X229306D01*
Y52402D01*
X229225D01*
Y52320D01*
X229143D01*
Y52238D01*
X229062D01*
Y52157D01*
X228980D01*
Y52075D01*
X228898D01*
Y51993D01*
X228817D01*
Y51912D01*
X228735D01*
Y51830D01*
X228653D01*
Y51748D01*
X228572D01*
Y51667D01*
X228490D01*
Y51585D01*
X228408D01*
Y51503D01*
X228327D01*
Y51422D01*
X228245D01*
Y51340D01*
X228163D01*
Y51258D01*
X228082D01*
Y51177D01*
X228000D01*
Y51095D01*
X227918D01*
Y51013D01*
X227837D01*
Y50932D01*
X227755D01*
Y50850D01*
X227673D01*
Y50768D01*
X227592D01*
Y50687D01*
X227510D01*
Y50605D01*
X227428D01*
Y50524D01*
X227510D01*
Y50442D01*
X227592D01*
Y50360D01*
X227673D01*
Y50279D01*
X227755D01*
Y50197D01*
X227837D01*
Y50115D01*
X227918D01*
Y50033D01*
X228000D01*
Y49952D01*
X228082D01*
Y49870D01*
X228163D01*
Y49789D01*
X228245D01*
Y49707D01*
X228327D01*
Y49625D01*
X228408D01*
Y49544D01*
X228490D01*
Y49462D01*
X228572D01*
Y49380D01*
X228653D01*
Y49299D01*
X228735D01*
Y49217D01*
X228817D01*
Y49135D01*
X228898D01*
Y49054D01*
X228980D01*
Y48972D01*
X229062D01*
Y48890D01*
X229143D01*
Y48809D01*
X229225D01*
Y48727D01*
X229306D01*
Y48645D01*
X229388D01*
Y48564D01*
X229470D01*
Y48482D01*
X229551D01*
Y48401D01*
X229633D01*
Y48319D01*
X229715D01*
Y48237D01*
X229796D01*
Y48156D01*
X229878D01*
Y48074D01*
X229960D01*
Y47992D01*
X230041D01*
Y47911D01*
X230123D01*
Y47829D01*
X230205D01*
Y47747D01*
X230286D01*
Y47666D01*
X230368D01*
Y47584D01*
X230450D01*
Y47502D01*
X230531D01*
Y47421D01*
X230613D01*
Y47339D01*
X230695D01*
Y47257D01*
X230776D01*
Y47176D01*
X230858D01*
Y47094D01*
X230940D01*
Y47012D01*
X231021D01*
Y46931D01*
X231103D01*
Y46849D01*
X231185D01*
Y46767D01*
X231266D01*
Y46686D01*
X231348D01*
Y46604D01*
X231429D01*
Y46522D01*
X231511D01*
Y46441D01*
X231593D01*
Y46359D01*
X231674D01*
Y46277D01*
X231756D01*
Y46196D01*
X231838D01*
Y46114D01*
X231919D01*
Y46033D01*
X232001D01*
Y45951D01*
X232083D01*
Y45869D01*
X232164D01*
Y45788D01*
X232246D01*
Y45706D01*
X232328D01*
Y45624D01*
X232409D01*
Y45543D01*
X232491D01*
Y45461D01*
X232573D01*
Y45379D01*
X232654D01*
Y45298D01*
X232736D01*
Y45216D01*
X232818D01*
Y45134D01*
X232899D01*
Y45053D01*
X232981D01*
Y44971D01*
X233063D01*
Y44889D01*
X233144D01*
Y44808D01*
X233226D01*
Y44726D01*
X233307D01*
Y44644D01*
X233389D01*
Y44563D01*
X233471D01*
Y44481D01*
X233552D01*
Y44399D01*
X233634D01*
Y44318D01*
X233716D01*
Y44236D01*
X233797D01*
Y44155D01*
X233879D01*
Y44073D01*
X233961D01*
Y43991D01*
X234042D01*
Y43910D01*
X234124D01*
Y43828D01*
X234206D01*
Y43746D01*
X234287D01*
Y43665D01*
X234369D01*
Y43583D01*
X234451D01*
Y43501D01*
X234532D01*
Y43420D01*
X234614D01*
Y43338D01*
X234696D01*
Y43256D01*
X234777D01*
Y43175D01*
X234859D01*
Y43093D01*
X234941D01*
Y43011D01*
X235022D01*
Y42930D01*
X235104D01*
Y42848D01*
X235186D01*
Y42766D01*
X235267D01*
Y42685D01*
X235349D01*
Y42603D01*
X235430D01*
Y42521D01*
X235512D01*
Y42440D01*
X235594D01*
Y42358D01*
X235675D01*
Y42276D01*
X235757D01*
Y42195D01*
X235839D01*
Y42113D01*
X235920D01*
Y42031D01*
X236002D01*
Y41950D01*
X236084D01*
Y41868D01*
X236165D01*
Y41787D01*
X236247D01*
Y41705D01*
X236329D01*
Y41623D01*
X236410D01*
Y41542D01*
X236492D01*
Y41460D01*
X236574D01*
Y41378D01*
X236655D01*
Y41297D01*
X236737D01*
Y41215D01*
X236819D01*
Y41133D01*
X236900D01*
Y41052D01*
X236982D01*
Y40970D01*
X237064D01*
Y40888D01*
X237145D01*
Y40807D01*
X237227D01*
Y40725D01*
X237308D01*
Y40643D01*
X237390D01*
Y40562D01*
X237472D01*
Y40480D01*
X237553D01*
Y40398D01*
X237635D01*
Y40317D01*
X237717D01*
Y40235D01*
X237798D01*
Y40154D01*
X237880D01*
Y40072D01*
X237962D01*
Y39990D01*
X238043D01*
Y39908D01*
X238125D01*
Y39827D01*
X238207D01*
Y39745D01*
X238288D01*
Y39664D01*
X238370D01*
Y39582D01*
X238452D01*
Y39500D01*
X238533D01*
Y39419D01*
X238615D01*
Y39337D01*
X238697D01*
Y39255D01*
X238860D01*
Y39337D01*
X238942D01*
Y39419D01*
X239023D01*
Y39500D01*
X239105D01*
Y39582D01*
X239187D01*
Y39664D01*
X239268D01*
Y39745D01*
X239350D01*
Y39827D01*
X239431D01*
Y39908D01*
X239513D01*
Y39990D01*
X239595D01*
Y40072D01*
X239676D01*
Y40154D01*
X239758D01*
Y40235D01*
X239840D01*
Y40317D01*
X239921D01*
Y40398D01*
X240003D01*
Y40480D01*
X240085D01*
Y40562D01*
X240166D01*
Y40643D01*
X240248D01*
Y40725D01*
X240330D01*
Y40807D01*
X240411D01*
Y40888D01*
X240493D01*
Y40970D01*
X240575D01*
Y41052D01*
X240656D01*
Y41133D01*
X240738D01*
Y41215D01*
X240820D01*
Y41297D01*
X240901D01*
Y41378D01*
X240983D01*
Y41460D01*
X241065D01*
Y41542D01*
X241146D01*
Y41623D01*
X241228D01*
Y41705D01*
X241309D01*
Y41787D01*
X241391D01*
Y41868D01*
X241473D01*
Y41950D01*
X241554D01*
Y42031D01*
X241636D01*
Y42113D01*
X241718D01*
Y42195D01*
X241799D01*
Y42276D01*
X241881D01*
Y42358D01*
X241963D01*
Y42440D01*
X242044D01*
Y42521D01*
X242126D01*
Y42603D01*
X242208D01*
Y42685D01*
X242289D01*
Y42766D01*
X242371D01*
Y42848D01*
X242453D01*
Y42930D01*
X242534D01*
Y43011D01*
X242616D01*
Y43093D01*
X242698D01*
Y43175D01*
X242779D01*
Y43256D01*
X242861D01*
Y43338D01*
X242943D01*
Y43420D01*
X243024D01*
Y43501D01*
X243106D01*
Y43583D01*
X243187D01*
Y43665D01*
X243269D01*
Y43746D01*
X243351D01*
Y43828D01*
X243432D01*
Y43910D01*
X243514D01*
Y43991D01*
X243596D01*
Y44073D01*
X243677D01*
Y44155D01*
X243759D01*
Y44236D01*
X243841D01*
Y44318D01*
X243922D01*
Y44399D01*
X244004D01*
Y44481D01*
X244086D01*
Y44563D01*
X244167D01*
Y44644D01*
X244249D01*
Y44726D01*
X244331D01*
Y44808D01*
X244412D01*
Y44889D01*
X244494D01*
Y44971D01*
X244576D01*
Y45053D01*
X244657D01*
Y45134D01*
X244739D01*
Y45216D01*
X244820D01*
Y45298D01*
X244902D01*
Y45379D01*
X244984D01*
Y45461D01*
X245065D01*
Y45543D01*
X245147D01*
Y45624D01*
X245229D01*
Y45706D01*
X245310D01*
Y45788D01*
X245392D01*
Y45869D01*
X245474D01*
Y45951D01*
X245555D01*
Y46033D01*
X245637D01*
Y46114D01*
X245719D01*
Y46196D01*
X245800D01*
Y46277D01*
X245882D01*
Y46359D01*
X245964D01*
Y46441D01*
X246045D01*
Y46522D01*
X246127D01*
Y46604D01*
X246209D01*
Y46686D01*
X246290D01*
Y46767D01*
X246372D01*
Y46849D01*
X246454D01*
Y46931D01*
X246535D01*
Y47012D01*
X246617D01*
Y47094D01*
X246699D01*
Y47176D01*
X246780D01*
Y47257D01*
X246862D01*
Y47339D01*
X246943D01*
Y47421D01*
X247025D01*
Y47502D01*
X247107D01*
Y47584D01*
X247188D01*
Y47666D01*
X247270D01*
Y47747D01*
X247352D01*
Y47829D01*
X247433D01*
Y47911D01*
X247515D01*
Y47992D01*
X247597D01*
Y48074D01*
X247678D01*
Y48156D01*
X247760D01*
Y48237D01*
X247842D01*
Y48319D01*
X247923D01*
Y48401D01*
X248005D01*
Y48482D01*
X248087D01*
Y48564D01*
X248168D01*
Y48645D01*
X248250D01*
Y48727D01*
X248332D01*
Y48809D01*
X248413D01*
Y48890D01*
X248495D01*
Y48972D01*
X248577D01*
Y49054D01*
X248658D01*
Y49135D01*
X248740D01*
Y49217D01*
X248821D01*
Y49299D01*
X248903D01*
Y49380D01*
X248985D01*
Y49462D01*
X249066D01*
Y49544D01*
X249148D01*
Y49625D01*
X249230D01*
Y49707D01*
X249311D01*
Y49789D01*
X249393D01*
Y49870D01*
X249475D01*
Y49952D01*
X249556D01*
Y50033D01*
X249638D01*
Y50115D01*
X249720D01*
Y50197D01*
X249801D01*
Y50279D01*
X249883D01*
Y50360D01*
X249965D01*
Y50442D01*
X250046D01*
Y50524D01*
X250128D01*
Y50605D01*
X250046D01*
Y50687D01*
X249965D01*
Y50768D01*
X249883D01*
Y50850D01*
X249801D01*
Y50932D01*
X249720D01*
Y51013D01*
X249638D01*
Y51095D01*
X249556D01*
Y51177D01*
X249475D01*
Y51258D01*
X249393D01*
Y51340D01*
X249311D01*
Y51422D01*
X249230D01*
Y51503D01*
X249148D01*
Y51585D01*
X249066D01*
Y51667D01*
X248985D01*
Y51748D01*
X248903D01*
Y51830D01*
X248821D01*
Y51912D01*
X248740D01*
Y51993D01*
X248658D01*
Y52075D01*
X248577D01*
Y52157D01*
X248495D01*
Y52238D01*
X248413D01*
Y52320D01*
X248332D01*
Y52402D01*
X248250D01*
Y52483D01*
X248168D01*
Y52565D01*
X248087D01*
Y52646D01*
X248005D01*
Y52728D01*
X247923D01*
Y52810D01*
X247842D01*
Y52891D01*
X247760D01*
Y52973D01*
X247678D01*
Y53055D01*
X247597D01*
Y53136D01*
X247515D01*
Y53218D01*
X247433D01*
Y53300D01*
X247352D01*
Y53381D01*
X247270D01*
Y53463D01*
X247188D01*
Y53545D01*
X247107D01*
Y53626D01*
X247025D01*
Y53708D01*
X246943D01*
Y53790D01*
X246862D01*
Y53871D01*
X246780D01*
Y53953D01*
X246699D01*
Y54035D01*
X246617D01*
Y54116D01*
X246535D01*
Y54198D01*
X246454D01*
Y54280D01*
X246372D01*
Y54361D01*
X246290D01*
Y54443D01*
X246209D01*
Y54524D01*
X246127D01*
Y54606D01*
X246045D01*
Y54688D01*
X245964D01*
Y54769D01*
X245882D01*
Y54851D01*
X245800D01*
Y54933D01*
X245719D01*
Y55014D01*
X245637D01*
Y55096D01*
X245555D01*
Y55178D01*
X245474D01*
Y55259D01*
X245392D01*
Y55341D01*
X245310D01*
Y55423D01*
X245229D01*
Y55504D01*
X245147D01*
Y55586D01*
X245065D01*
Y55668D01*
X244984D01*
Y55749D01*
X244902D01*
Y55831D01*
X244820D01*
Y55913D01*
X244739D01*
Y55994D01*
X244657D01*
Y56076D01*
X244576D01*
Y56157D01*
X244494D01*
Y56239D01*
X244412D01*
Y56321D01*
X244331D01*
Y56402D01*
X244249D01*
Y56484D01*
X244167D01*
Y56566D01*
X244086D01*
Y56647D01*
X244004D01*
Y56729D01*
X243922D01*
Y56811D01*
X243841D01*
Y56892D01*
X243759D01*
Y56974D01*
X243677D01*
Y57056D01*
X243596D01*
Y57137D01*
X243514D01*
Y57219D01*
X243432D01*
Y57301D01*
X243351D01*
Y57382D01*
X243269D01*
Y57464D01*
X243187D01*
Y57546D01*
X243106D01*
Y57627D01*
X243024D01*
Y57709D01*
X242943D01*
Y57791D01*
X242861D01*
Y57872D01*
X242779D01*
Y57954D01*
X242698D01*
Y58036D01*
X242616D01*
Y58117D01*
X242534D01*
Y58199D01*
X242453D01*
Y58280D01*
X242371D01*
Y58362D01*
X242289D01*
Y58444D01*
X242208D01*
Y58526D01*
X242126D01*
Y58607D01*
X242044D01*
Y58689D01*
X241963D01*
Y58770D01*
X241881D01*
Y58852D01*
X241799D01*
Y58934D01*
X241718D01*
Y59015D01*
X241636D01*
Y59097D01*
X241554D01*
Y59179D01*
X241473D01*
Y59260D01*
X241391D01*
Y59342D01*
X241309D01*
Y59424D01*
X241228D01*
Y59505D01*
X241146D01*
Y59587D01*
X241065D01*
Y59669D01*
X240983D01*
Y59750D01*
X240901D01*
Y59832D01*
X240820D01*
Y59914D01*
X240738D01*
Y59995D01*
X240656D01*
Y60077D01*
X240575D01*
Y60158D01*
X240493D01*
Y60240D01*
X240411D01*
Y60322D01*
X240330D01*
Y60404D01*
X240248D01*
Y60485D01*
X240166D01*
Y60567D01*
X240085D01*
Y60649D01*
X240003D01*
Y60730D01*
X239921D01*
Y60812D01*
X239840D01*
Y60893D01*
X239758D01*
Y60975D01*
X239676D01*
Y61057D01*
X239595D01*
Y61138D01*
X239513D01*
Y61220D01*
X239431D01*
Y61302D01*
X239350D01*
Y61383D01*
X239268D01*
Y61465D01*
X239187D01*
Y61547D01*
X239105D01*
Y61628D01*
X239023D01*
Y61710D01*
X238942D01*
Y61792D01*
X238860D01*
Y61873D01*
D02*
G37*
%LPD*%
G36*
Y55423D02*
X239595D01*
Y55341D01*
X240003D01*
Y55259D01*
X240248D01*
Y55178D01*
X240493D01*
Y55096D01*
X240738D01*
Y55014D01*
X240901D01*
Y54933D01*
X241065D01*
Y54851D01*
X241228D01*
Y54769D01*
X241309D01*
Y54688D01*
X241473D01*
Y54606D01*
X241554D01*
Y54524D01*
X241718D01*
Y54443D01*
X241799D01*
Y54361D01*
X241881D01*
Y54280D01*
X241963D01*
Y54198D01*
X242126D01*
Y54116D01*
X242208D01*
Y54035D01*
X242289D01*
Y53953D01*
X242371D01*
Y53790D01*
X242453D01*
Y53708D01*
X242534D01*
Y53626D01*
X242616D01*
Y53545D01*
X242698D01*
Y53381D01*
X242779D01*
Y53300D01*
X242861D01*
Y53136D01*
X242943D01*
Y53055D01*
X243024D01*
Y52891D01*
X243106D01*
Y52728D01*
X243187D01*
Y52646D01*
X243269D01*
Y52565D01*
X243351D01*
Y52157D01*
X243432D01*
Y51912D01*
X243514D01*
Y51585D01*
X243596D01*
Y50768D01*
X243677D01*
Y50279D01*
X243596D01*
Y49625D01*
X243514D01*
Y49299D01*
X243432D01*
Y49054D01*
X243351D01*
Y48809D01*
X243269D01*
Y48564D01*
X243187D01*
Y48482D01*
X243106D01*
Y48319D01*
X243024D01*
Y48156D01*
X242943D01*
Y47992D01*
X242861D01*
Y47911D01*
Y47829D01*
X242779D01*
Y47747D01*
X242698D01*
Y47666D01*
X242616D01*
Y47502D01*
X242534D01*
Y47421D01*
X242453D01*
Y47339D01*
X242371D01*
Y47176D01*
X242289D01*
Y47094D01*
X242208D01*
Y47012D01*
X242044D01*
Y46931D01*
X241963D01*
Y46849D01*
X241881D01*
Y46767D01*
X241799D01*
Y46686D01*
X241636D01*
Y46604D01*
X241554D01*
Y46522D01*
X241391D01*
Y46441D01*
X241309D01*
Y46359D01*
X241146D01*
Y46277D01*
X240983D01*
Y46196D01*
X240820D01*
Y46114D01*
X240656D01*
Y46033D01*
X240411D01*
Y45951D01*
X240166D01*
Y45869D01*
X239840D01*
Y45788D01*
X239268D01*
Y45706D01*
X238207D01*
Y45788D01*
X237717D01*
Y45869D01*
X237390D01*
Y45951D01*
X237145D01*
Y46033D01*
X236900D01*
Y46114D01*
X236819D01*
Y46196D01*
X236655D01*
Y46277D01*
X236492D01*
Y46359D01*
X236329D01*
Y46441D01*
X236165D01*
Y46522D01*
X236084D01*
Y46604D01*
X235920D01*
Y46686D01*
X235839D01*
Y46767D01*
X235757D01*
Y46849D01*
X235594D01*
Y46931D01*
X235512D01*
Y47012D01*
X235430D01*
Y47094D01*
X235267D01*
Y47257D01*
X235186D01*
Y47339D01*
X235104D01*
Y47502D01*
X235022D01*
Y47584D01*
X234941D01*
Y47666D01*
X234859D01*
Y47829D01*
X234777D01*
Y47911D01*
X234696D01*
Y48074D01*
X234614D01*
Y48156D01*
X234532D01*
Y48319D01*
X234451D01*
Y48482D01*
X234369D01*
Y48645D01*
X234287D01*
Y48890D01*
X234206D01*
Y49135D01*
X234124D01*
Y49462D01*
X234042D01*
Y49870D01*
X233961D01*
Y50442D01*
X233879D01*
Y50687D01*
X233961D01*
Y51340D01*
X234042D01*
Y51748D01*
X234124D01*
Y52075D01*
X234206D01*
Y52320D01*
X234287D01*
Y52565D01*
X234369D01*
Y52646D01*
X234451D01*
Y52810D01*
X234532D01*
Y52973D01*
X234614D01*
Y53136D01*
X234696D01*
Y53218D01*
X234777D01*
Y53381D01*
X234859D01*
Y53463D01*
X234941D01*
Y53545D01*
X235022D01*
Y53708D01*
X235104D01*
Y53790D01*
X235186D01*
Y53871D01*
X235267D01*
Y53953D01*
X235349D01*
Y54116D01*
X235512D01*
Y54198D01*
X235594D01*
Y54280D01*
X235675D01*
Y54361D01*
X235757D01*
Y54443D01*
X235920D01*
Y54524D01*
X236002D01*
Y54606D01*
X236165D01*
Y54688D01*
X236247D01*
Y54769D01*
X236410D01*
Y54851D01*
X236574D01*
Y54933D01*
X236737D01*
Y55014D01*
X236900D01*
Y55096D01*
X237064D01*
Y55178D01*
X237308D01*
Y55259D01*
X237635D01*
Y55341D01*
X238043D01*
Y55423D01*
X238697D01*
Y55504D01*
X238860D01*
Y55423D01*
D02*
G37*
%LPC*%
G36*
X239513Y54688D02*
X239187D01*
Y53953D01*
X239350D01*
Y53871D01*
X239758D01*
Y53953D01*
X239840D01*
Y54198D01*
X239921D01*
Y54361D01*
X240003D01*
Y54524D01*
X239840D01*
Y54606D01*
X239513D01*
Y54688D01*
D02*
G37*
G36*
X238452D02*
X238043D01*
Y54606D01*
X237717D01*
Y54524D01*
X237553D01*
Y54443D01*
X237635D01*
Y54280D01*
X237717D01*
Y54035D01*
X237798D01*
Y53871D01*
X238207D01*
Y53953D01*
X238452D01*
Y54035D01*
Y54688D01*
D02*
G37*
G36*
X240820Y54198D02*
X240656D01*
Y54116D01*
Y54035D01*
X240575D01*
Y53790D01*
X240493D01*
Y53626D01*
X240411D01*
Y53545D01*
X240493D01*
Y53463D01*
X240575D01*
Y53381D01*
X240738D01*
Y53300D01*
X240820D01*
Y53218D01*
X240901D01*
Y53300D01*
X240983D01*
Y53381D01*
X241065D01*
Y53463D01*
X241146D01*
Y53545D01*
X241228D01*
Y53626D01*
X241309D01*
Y53708D01*
X241391D01*
Y53790D01*
X241309D01*
Y53871D01*
X241228D01*
Y53953D01*
X241146D01*
Y54035D01*
X240983D01*
Y54116D01*
X240820D01*
Y54198D01*
D02*
G37*
G36*
X236900D02*
X236737D01*
Y54116D01*
X236574D01*
Y54035D01*
X236492D01*
Y53953D01*
X236410D01*
Y53871D01*
X236247D01*
Y53790D01*
X236165D01*
Y53708D01*
X236247D01*
Y53626D01*
X236329D01*
Y53545D01*
X236410D01*
Y53463D01*
X236492D01*
Y53381D01*
X236574D01*
Y53300D01*
X236655D01*
Y53218D01*
X236737D01*
Y53300D01*
X236900D01*
Y53381D01*
X236982D01*
Y53463D01*
X237145D01*
Y53708D01*
X237064D01*
Y53871D01*
X236982D01*
Y54116D01*
X236900D01*
Y54198D01*
D02*
G37*
G36*
X241963Y53218D02*
X241881D01*
Y53136D01*
X241799D01*
Y53055D01*
X241718D01*
Y52973D01*
X241636D01*
Y52891D01*
X241554D01*
Y52810D01*
X241473D01*
Y52565D01*
X241554D01*
Y52402D01*
X241636D01*
Y52320D01*
X241718D01*
Y52238D01*
X241881D01*
Y52320D01*
X242126D01*
Y52402D01*
X242289D01*
Y52483D01*
X242453D01*
Y52565D01*
X242371D01*
Y52728D01*
X242289D01*
Y52810D01*
X242208D01*
Y52973D01*
X242126D01*
Y53055D01*
X242044D01*
Y53136D01*
X241963D01*
Y53218D01*
D02*
G37*
G36*
X235675D02*
X235594D01*
Y53136D01*
X235512D01*
Y52973D01*
X235430D01*
Y52891D01*
X235349D01*
Y52810D01*
X235267D01*
Y52646D01*
X235186D01*
Y52483D01*
X235267D01*
Y52402D01*
X235512D01*
Y52320D01*
X235675D01*
Y52238D01*
X235920D01*
Y52320D01*
Y52402D01*
X236002D01*
Y52483D01*
X236084D01*
Y52646D01*
X236165D01*
Y52728D01*
X236084D01*
Y52810D01*
X236002D01*
Y52891D01*
X235920D01*
Y52973D01*
X235839D01*
Y53055D01*
X235757D01*
Y53136D01*
X235675D01*
Y53218D01*
D02*
G37*
G36*
X242779Y51748D02*
X242453D01*
Y51667D01*
X242289D01*
Y51585D01*
X242044D01*
Y51340D01*
X242126D01*
Y50932D01*
X242861D01*
Y51422D01*
X242779D01*
Y51748D01*
D02*
G37*
G36*
X234941Y51830D02*
X234859D01*
Y51585D01*
X234777D01*
Y51258D01*
X234696D01*
Y50932D01*
X235430D01*
Y51013D01*
X235512D01*
Y51095D01*
Y51177D01*
Y51585D01*
X235349D01*
Y51667D01*
X235104D01*
Y51748D01*
X234941D01*
Y51830D01*
D02*
G37*
G36*
X242861Y50197D02*
X242126D01*
Y49870D01*
X242044D01*
Y49625D01*
X242208D01*
Y49544D01*
X242371D01*
Y49462D01*
X242616D01*
Y49380D01*
X242779D01*
Y49707D01*
X242861D01*
Y49870D01*
Y49952D01*
Y50197D01*
D02*
G37*
G36*
X235430D02*
X234696D01*
Y49952D01*
X234777D01*
Y49544D01*
X234859D01*
Y49380D01*
X235022D01*
Y49462D01*
X235186D01*
Y49544D01*
X235430D01*
Y49625D01*
X235594D01*
Y49707D01*
X235512D01*
Y50033D01*
X235430D01*
Y50197D01*
D02*
G37*
G36*
X241799Y48972D02*
X241718D01*
Y48809D01*
X241636D01*
Y48727D01*
X241554D01*
Y48564D01*
X241473D01*
Y48401D01*
X241554D01*
Y48319D01*
X241636D01*
Y48237D01*
X241718D01*
Y48156D01*
X241799D01*
Y48074D01*
X241881D01*
Y47992D01*
X242044D01*
Y48074D01*
X242126D01*
Y48237D01*
X242208D01*
Y48319D01*
X242289D01*
Y48482D01*
X242371D01*
Y48564D01*
X242453D01*
Y48645D01*
X242371D01*
Y48727D01*
X242208D01*
Y48809D01*
X241963D01*
Y48890D01*
X241799D01*
Y48972D01*
D02*
G37*
G36*
X239268Y53218D02*
X238370D01*
Y53136D01*
X238043D01*
Y53055D01*
X237798D01*
Y52973D01*
X237635D01*
Y52891D01*
X237472D01*
Y52810D01*
X237308D01*
Y52728D01*
X237227D01*
Y52646D01*
X237145D01*
Y52565D01*
X237064D01*
Y52483D01*
X236900D01*
Y52320D01*
X236819D01*
Y52238D01*
X236737D01*
Y52157D01*
X236655D01*
Y52075D01*
X236574D01*
Y51912D01*
X236492D01*
Y51748D01*
X236410D01*
Y51585D01*
X236329D01*
Y51340D01*
X236247D01*
Y51013D01*
X236165D01*
Y50197D01*
X236247D01*
Y49789D01*
X236329D01*
Y49625D01*
X236410D01*
Y49380D01*
X236492D01*
Y49217D01*
X236574D01*
Y49135D01*
X236655D01*
Y48972D01*
X236737D01*
Y48890D01*
X236819D01*
Y48809D01*
X236900D01*
Y48727D01*
X236982D01*
Y48645D01*
X237064D01*
Y48564D01*
X237145D01*
Y48482D01*
X237308D01*
Y48401D01*
X237390D01*
Y48319D01*
X237553D01*
Y48237D01*
X237717D01*
Y48156D01*
X237880D01*
Y48074D01*
X238125D01*
Y47992D01*
X238697D01*
Y47911D01*
X238860D01*
Y47992D01*
X239431D01*
Y48074D01*
X239676D01*
Y48156D01*
X239921D01*
Y48237D01*
X240085D01*
Y48319D01*
X240166D01*
Y48401D01*
X240330D01*
Y48482D01*
X240411D01*
Y48564D01*
X240493D01*
Y48645D01*
X240575D01*
Y48727D01*
X240656D01*
Y48809D01*
X240738D01*
Y48890D01*
X240820D01*
Y48972D01*
X240901D01*
Y49054D01*
X240983D01*
Y49217D01*
X241065D01*
Y49299D01*
X241146D01*
Y49462D01*
X241228D01*
Y49707D01*
X241309D01*
Y50033D01*
X241391D01*
Y51177D01*
X241309D01*
Y51422D01*
X241228D01*
Y51667D01*
X241146D01*
Y51830D01*
X241065D01*
Y51993D01*
X240983D01*
Y52075D01*
X240901D01*
Y52238D01*
X240820D01*
Y52320D01*
X240738D01*
Y52402D01*
X240656D01*
Y52483D01*
X240575D01*
Y52565D01*
X240493D01*
Y52646D01*
X240330D01*
Y52728D01*
X240248D01*
Y52810D01*
X240166D01*
Y52891D01*
X240003D01*
Y52973D01*
X239758D01*
Y53055D01*
X239595D01*
Y53136D01*
X239268D01*
Y53218D01*
D02*
G37*
G36*
X235839Y48972D02*
X235757D01*
Y48890D01*
X235594D01*
Y48809D01*
X235430D01*
Y48727D01*
X235186D01*
Y48482D01*
X235267D01*
Y48401D01*
X235349D01*
Y48237D01*
X235430D01*
Y48156D01*
X235512D01*
Y47992D01*
X235594D01*
Y47911D01*
X235675D01*
Y47992D01*
X235757D01*
Y48074D01*
X235839D01*
Y48156D01*
X235920D01*
Y48237D01*
X236002D01*
Y48319D01*
X236084D01*
Y48401D01*
X236165D01*
Y48564D01*
X236084D01*
Y48645D01*
X236002D01*
Y48809D01*
X235920D01*
Y48890D01*
X235839D01*
Y48972D01*
D02*
G37*
G36*
X240983Y47911D02*
X240820D01*
Y47829D01*
X240656D01*
Y47747D01*
X240575D01*
Y47666D01*
X240411D01*
Y47502D01*
X240493D01*
Y47339D01*
X240575D01*
Y47176D01*
X240656D01*
Y46931D01*
X240820D01*
Y47012D01*
X240901D01*
Y47094D01*
X241065D01*
Y47176D01*
X241228D01*
Y47257D01*
X241309D01*
Y47339D01*
X241391D01*
Y47502D01*
X241309D01*
Y47584D01*
X241228D01*
Y47666D01*
X241146D01*
Y47747D01*
X241065D01*
Y47829D01*
X240983D01*
Y47911D01*
D02*
G37*
G36*
X236819D02*
X236574D01*
Y47747D01*
X236492D01*
Y47666D01*
X236410D01*
Y47584D01*
X236329D01*
Y47502D01*
X236247D01*
Y47421D01*
X236165D01*
Y47339D01*
X236329D01*
Y47257D01*
X236410D01*
Y47176D01*
X236492D01*
Y47094D01*
X236655D01*
Y47012D01*
X236819D01*
Y46931D01*
X236900D01*
Y47094D01*
X236982D01*
Y47257D01*
X237064D01*
Y47421D01*
X237145D01*
Y47666D01*
X237064D01*
Y47747D01*
X236900D01*
Y47829D01*
X236819D01*
Y47911D01*
D02*
G37*
G36*
X238043Y47339D02*
X237798D01*
Y47094D01*
X237717D01*
Y46931D01*
X237635D01*
Y46604D01*
X237880D01*
Y46522D01*
X238452D01*
Y47176D01*
X238370D01*
Y47257D01*
X238043D01*
Y47339D01*
D02*
G37*
G36*
X239758D02*
X239595D01*
Y47257D01*
X239187D01*
Y46441D01*
X239268D01*
Y46522D01*
X239676D01*
Y46604D01*
X240003D01*
Y46767D01*
X239921D01*
Y47012D01*
X239840D01*
Y47176D01*
X239758D01*
Y47339D01*
D02*
G37*
%LPD*%
G36*
X239676Y51912D02*
X239758D01*
Y51830D01*
X239840D01*
Y51748D01*
X239921D01*
Y51667D01*
X240003D01*
Y51585D01*
X240085D01*
Y51503D01*
X240166D01*
Y51340D01*
X240085D01*
Y51258D01*
X240003D01*
Y51177D01*
X239921D01*
Y51095D01*
X239840D01*
Y51013D01*
X239758D01*
Y50932D01*
X239676D01*
Y50850D01*
X239595D01*
Y50768D01*
X239513D01*
Y50687D01*
X239431D01*
Y50605D01*
X239350D01*
Y50524D01*
X239431D01*
Y50442D01*
X239513D01*
Y50360D01*
X239595D01*
Y50279D01*
X239676D01*
Y50197D01*
X239758D01*
Y50115D01*
X239840D01*
Y50033D01*
X239921D01*
Y49952D01*
X240003D01*
Y49870D01*
X240085D01*
Y49789D01*
X240166D01*
Y49625D01*
X240085D01*
Y49544D01*
X240003D01*
Y49462D01*
X239921D01*
Y49380D01*
X239840D01*
Y49299D01*
X239758D01*
Y49217D01*
X239595D01*
Y49299D01*
X239513D01*
Y49380D01*
X239431D01*
Y49462D01*
X239350D01*
Y49544D01*
X239268D01*
Y49625D01*
X239187D01*
Y49707D01*
X239105D01*
Y49789D01*
X239023D01*
Y49870D01*
X238942D01*
Y49952D01*
X238860D01*
Y50033D01*
X238778D01*
Y49952D01*
X238697D01*
Y49870D01*
X238615D01*
Y49789D01*
X238533D01*
Y49707D01*
X238452D01*
Y49625D01*
X238370D01*
Y49544D01*
X238288D01*
Y49462D01*
X238207D01*
Y49380D01*
X238125D01*
Y49299D01*
X238043D01*
Y49217D01*
X237880D01*
Y49299D01*
X237798D01*
Y49380D01*
X237717D01*
Y49462D01*
X237635D01*
Y49544D01*
X237553D01*
Y49625D01*
X237472D01*
Y49707D01*
X237390D01*
Y49789D01*
X237472D01*
Y49870D01*
X237553D01*
Y49952D01*
X237635D01*
Y50033D01*
X237717D01*
Y50115D01*
X237798D01*
Y50197D01*
X237880D01*
Y50279D01*
X237962D01*
Y50360D01*
X238043D01*
Y50442D01*
X238125D01*
Y50524D01*
X238207D01*
Y50687D01*
X238125D01*
Y50768D01*
X238043D01*
Y50850D01*
X237962D01*
Y50932D01*
X237880D01*
Y51013D01*
X237798D01*
Y51095D01*
X237717D01*
Y51177D01*
X237635D01*
Y51258D01*
X237553D01*
Y51340D01*
X237472D01*
Y51422D01*
X237390D01*
Y51503D01*
X237472D01*
Y51585D01*
X237553D01*
Y51667D01*
X237635D01*
Y51748D01*
X237717D01*
Y51830D01*
X237798D01*
Y51912D01*
X237880D01*
Y51993D01*
X237962D01*
Y51912D01*
X238043D01*
Y51830D01*
X238125D01*
Y51748D01*
X238207D01*
Y51667D01*
X238288D01*
Y51585D01*
X238370D01*
Y51503D01*
X238452D01*
Y51422D01*
X238533D01*
Y51340D01*
X238615D01*
Y51258D01*
X238697D01*
Y51177D01*
X238860D01*
Y51258D01*
X238942D01*
Y51340D01*
X239023D01*
Y51422D01*
X239105D01*
Y51503D01*
X239187D01*
Y51585D01*
X239268D01*
Y51667D01*
X239350D01*
Y51748D01*
X239431D01*
Y51830D01*
X239513D01*
Y51912D01*
X239595D01*
Y51993D01*
X239676D01*
Y51912D01*
D02*
G37*
%LPC*%
G36*
X232818Y36152D02*
X231756D01*
Y35581D01*
Y35499D01*
Y32805D01*
X232818D01*
Y32886D01*
X232899D01*
Y32968D01*
X232981D01*
Y35989D01*
X232899D01*
Y36071D01*
X232818D01*
Y36152D01*
D02*
G37*
G36*
X248413Y30110D02*
X248005D01*
Y30029D01*
X247923D01*
Y29947D01*
X247842D01*
Y29049D01*
Y28967D01*
Y28885D01*
X247923D01*
Y28804D01*
X248005D01*
Y28722D01*
X248413D01*
Y28804D01*
X248577D01*
Y30029D01*
X248413D01*
Y30110D01*
D02*
G37*
G36*
X241473Y29375D02*
X240820D01*
Y29294D01*
X240738D01*
Y28804D01*
X240820D01*
Y28722D01*
X241309D01*
Y28804D01*
X241391D01*
Y28885D01*
X241473D01*
Y29375D01*
D02*
G37*
G36*
X239023Y30110D02*
X238697D01*
Y30029D01*
X238533D01*
Y29539D01*
X239187D01*
Y30029D01*
X239023D01*
Y30110D01*
D02*
G37*
G36*
X229633Y30845D02*
X229143D01*
Y30763D01*
X229062D01*
Y30274D01*
Y30192D01*
Y30029D01*
X229143D01*
Y29947D01*
X229633D01*
Y30029D01*
X229715D01*
Y30110D01*
X229796D01*
Y30682D01*
X229715D01*
Y30763D01*
X229633D01*
Y30845D01*
D02*
G37*
G36*
X229715Y29702D02*
X229062D01*
Y28804D01*
X229143D01*
Y28722D01*
X229633D01*
Y28804D01*
X229796D01*
Y29620D01*
X229715D01*
Y29702D01*
D02*
G37*
G36*
X224979Y30845D02*
X224407D01*
Y29784D01*
X225061D01*
Y29865D01*
X225142D01*
Y30682D01*
X225061D01*
Y30763D01*
X224979D01*
Y30845D01*
D02*
G37*
G36*
X217242Y22564D02*
X217185D01*
Y22535D01*
X217242D01*
Y22564D01*
D02*
G37*
G36*
X217328Y22535D02*
X217270D01*
Y22507D01*
X217328D01*
Y22535D01*
D02*
G37*
G36*
X217385Y22507D02*
X217356D01*
Y22479D01*
X217385D01*
Y22507D01*
D02*
G37*
G36*
X217470Y22479D02*
X217442D01*
Y22450D01*
X217470D01*
Y22479D01*
D02*
G37*
G36*
X217527Y22450D02*
X217499D01*
Y22421D01*
X217527D01*
Y22450D01*
D02*
G37*
G36*
X217613Y22421D02*
X217584D01*
Y22393D01*
X217613D01*
Y22421D01*
D02*
G37*
G36*
X217670Y22393D02*
X217641D01*
Y22364D01*
X217670D01*
Y22393D01*
D02*
G37*
G36*
X217755Y22364D02*
X217727D01*
Y22336D01*
X217755D01*
Y22364D01*
D02*
G37*
G36*
X217927Y22279D02*
X217898D01*
Y22250D01*
X217927D01*
Y22279D01*
D02*
G37*
G36*
X217984Y22250D02*
X217955D01*
Y22222D01*
X217984D01*
Y22250D01*
D02*
G37*
G36*
X218040Y22222D02*
X218012D01*
Y22193D01*
X218040D01*
Y22222D01*
D02*
G37*
G36*
X217014D02*
X216985D01*
Y22193D01*
X217014D01*
Y22222D01*
D02*
G37*
G36*
X218098Y22193D02*
X218069D01*
Y22165D01*
X218098D01*
Y22193D01*
D02*
G37*
G36*
X218183Y22165D02*
X218155D01*
Y22136D01*
X218183D01*
Y22165D01*
D02*
G37*
G36*
X216985D02*
X216957D01*
Y22136D01*
X216985D01*
Y22165D01*
D02*
G37*
G36*
X218240Y22136D02*
X218212D01*
Y22108D01*
X218240D01*
Y22079D01*
X218269D01*
Y22108D01*
X218240Y22136D01*
D02*
G37*
G36*
X218326Y22079D02*
X218297D01*
Y22051D01*
X218326D01*
Y22079D01*
D02*
G37*
G36*
X216957D02*
X216928D01*
Y22051D01*
X216957D01*
Y22079D01*
D02*
G37*
G36*
X218383Y22051D02*
X218354D01*
Y22022D01*
X218383D01*
Y22051D01*
D02*
G37*
G36*
X218440Y22022D02*
X218411D01*
Y21994D01*
X218440D01*
Y21965D01*
X218468D01*
Y21994D01*
X218440D01*
Y22022D01*
D02*
G37*
G36*
X216928Y21994D02*
X216900D01*
Y21965D01*
X216928D01*
Y21994D01*
D02*
G37*
G36*
X218525Y21965D02*
X218497D01*
Y21937D01*
X218525D01*
Y21965D01*
D02*
G37*
G36*
X218582Y21937D02*
X218554D01*
Y21908D01*
X218582D01*
Y21937D01*
D02*
G37*
G36*
X217014D02*
X216985D01*
Y21908D01*
X217014D01*
Y21937D01*
D02*
G37*
G36*
X217099Y21908D02*
X217071D01*
Y21880D01*
X217099D01*
Y21908D01*
D02*
G37*
G36*
X218668Y21880D02*
X218639D01*
Y21851D01*
X218668D01*
Y21880D01*
D02*
G37*
G36*
X217185D02*
X217156D01*
Y21851D01*
X217185D01*
Y21880D01*
D02*
G37*
G36*
X217270Y21851D02*
X217242D01*
Y21823D01*
X217270D01*
Y21851D01*
D02*
G37*
G36*
X218754Y21823D02*
X218725D01*
Y21794D01*
X218754D01*
Y21823D01*
D02*
G37*
G36*
X218811Y21794D02*
X218782D01*
Y21766D01*
X218811D01*
Y21737D01*
X218839D01*
Y21766D01*
X218811D01*
Y21794D01*
D02*
G37*
G36*
X217413D02*
X217385D01*
Y21766D01*
X217413D01*
Y21737D01*
X217470D01*
Y21766D01*
X217413D01*
Y21794D01*
D02*
G37*
G36*
X218925Y21708D02*
X218896D01*
Y21680D01*
X218925D01*
Y21651D01*
X218953D01*
Y21680D01*
X218925D01*
Y21708D01*
D02*
G37*
G36*
X219039Y21623D02*
X218982D01*
Y21594D01*
X219039D01*
Y21623D01*
D02*
G37*
G36*
X217898Y21566D02*
X217869D01*
Y21537D01*
X217898D01*
Y21566D01*
D02*
G37*
G36*
X217955Y21537D02*
X217927D01*
Y21509D01*
X217955D01*
Y21537D01*
D02*
G37*
G36*
X218040Y21480D02*
X218012D01*
Y21452D01*
X218040D01*
Y21480D01*
D02*
G37*
G36*
X219153Y21509D02*
X219124D01*
Y21480D01*
X219153D01*
Y21452D01*
X219181D01*
Y21423D01*
X219210D01*
Y21452D01*
X219181D01*
Y21480D01*
X219153D01*
Y21509D01*
D02*
G37*
G36*
X218098Y21452D02*
X218069D01*
Y21423D01*
X218098D01*
Y21452D01*
D02*
G37*
G36*
X218183Y21395D02*
X218155D01*
Y21366D01*
X218183D01*
Y21395D01*
D02*
G37*
G36*
X219381Y21338D02*
X219324D01*
Y21309D01*
X219352D01*
Y21281D01*
X219381D01*
Y21252D01*
X219409D01*
Y21224D01*
X219438D01*
Y21195D01*
X219466D01*
Y21167D01*
X219495D01*
Y21138D01*
X219524D01*
Y21110D01*
X219552D01*
Y21081D01*
X219581D01*
Y21053D01*
X219609D01*
Y21081D01*
X219581D01*
Y21110D01*
X219552D01*
Y21138D01*
X219524D01*
Y21167D01*
X219495D01*
Y21195D01*
X219466D01*
Y21252D01*
X219438D01*
Y21281D01*
X219409D01*
Y21309D01*
X219381D01*
Y21338D01*
D02*
G37*
G36*
X218668Y21024D02*
X218639D01*
Y20996D01*
X218668D01*
Y20967D01*
X218725D01*
Y20996D01*
X218668D01*
Y21024D01*
D02*
G37*
G36*
X219894Y20739D02*
X219866D01*
Y20710D01*
X219894D01*
Y20739D01*
D02*
G37*
G36*
X219980Y20653D02*
X219951D01*
Y20625D01*
X219980D01*
Y20653D01*
D02*
G37*
G36*
X220037Y20568D02*
X220008D01*
Y20539D01*
X220037D01*
Y20511D01*
X220065D01*
Y20539D01*
X220037D01*
Y20568D01*
D02*
G37*
G36*
X220236Y20254D02*
X220208D01*
Y20225D01*
X220236D01*
Y20254D01*
D02*
G37*
G36*
X219409D02*
X219381D01*
Y20225D01*
X219409D01*
Y20197D01*
X219438D01*
Y20225D01*
X219409D01*
Y20254D01*
D02*
G37*
G36*
X219495Y20140D02*
X219466D01*
Y20111D01*
X219495D01*
Y20140D01*
D02*
G37*
G36*
X220322Y20111D02*
X220293D01*
Y20083D01*
X220322D01*
Y20111D01*
D02*
G37*
G36*
X220351Y20054D02*
X220322D01*
Y20026D01*
X220351D01*
Y20054D01*
D02*
G37*
G36*
X219552D02*
X219524D01*
Y20026D01*
X219552D01*
Y20054D01*
D02*
G37*
G36*
X220379Y19997D02*
X220351D01*
Y19969D01*
X220379D01*
Y19997D01*
D02*
G37*
G36*
X219609Y19969D02*
X219581D01*
Y19940D01*
X219609D01*
Y19969D01*
D02*
G37*
G36*
X220408Y19940D02*
X220379D01*
Y19912D01*
X220408D01*
Y19940D01*
D02*
G37*
G36*
X220465Y19826D02*
X220436D01*
Y19798D01*
X220465D01*
Y19826D01*
D02*
G37*
G36*
X219752Y19712D02*
X219723D01*
Y19684D01*
X219752D01*
Y19712D01*
D02*
G37*
G36*
X219780Y19655D02*
X219752D01*
Y19627D01*
X219780D01*
Y19655D01*
D02*
G37*
G36*
X219809Y19598D02*
X219780D01*
Y19569D01*
X219809D01*
Y19598D01*
D02*
G37*
G36*
X219837Y19541D02*
X219809D01*
Y19484D01*
X219837D01*
Y19541D01*
D02*
G37*
G36*
X219866Y19455D02*
X219837D01*
Y19427D01*
X219866D01*
Y19455D01*
D02*
G37*
G36*
X220664Y19341D02*
X220636D01*
Y19313D01*
X220664D01*
Y19341D01*
D02*
G37*
G36*
X219951Y19284D02*
X219923D01*
Y19256D01*
X219951D01*
Y19284D01*
D02*
G37*
G36*
X220693Y19256D02*
X220664D01*
Y19227D01*
X220693D01*
Y19256D01*
D02*
G37*
G36*
X219980Y19199D02*
X219951D01*
Y19170D01*
X219980D01*
Y19199D01*
D02*
G37*
G36*
X220008Y19113D02*
X219980D01*
Y19085D01*
X220008D01*
Y19113D01*
D02*
G37*
G36*
X220750Y19056D02*
X220721D01*
Y19028D01*
X220750D01*
Y19056D01*
D02*
G37*
G36*
X220778Y18971D02*
X220750D01*
Y18942D01*
X220778D01*
Y18971D01*
D02*
G37*
G36*
X220807Y18857D02*
X220778D01*
Y18828D01*
X220807D01*
Y18857D01*
D02*
G37*
G36*
X220835Y18743D02*
X220807D01*
Y18686D01*
X220835D01*
Y18714D01*
Y18743D01*
D02*
G37*
G36*
X220864Y18600D02*
X220835D01*
Y18571D01*
Y18543D01*
X220864D01*
Y18600D01*
D02*
G37*
G36*
X220892Y18457D02*
X220864D01*
Y18343D01*
X220892D01*
Y18457D01*
D02*
G37*
G36*
X220179Y18400D02*
X220151D01*
Y18286D01*
X220179D01*
Y18400D01*
D02*
G37*
G36*
X220208Y18172D02*
X220179D01*
Y18030D01*
X220208D01*
Y18172D01*
D02*
G37*
G36*
X220921Y18201D02*
X220892D01*
Y18001D01*
X220921D01*
Y18201D01*
D02*
G37*
G36*
X220236Y17801D02*
X220208D01*
Y17773D01*
X220236D01*
Y17801D01*
D02*
G37*
G36*
X216871Y21509D02*
X216843D01*
Y21480D01*
X216871D01*
Y21509D01*
D02*
G37*
G36*
X217099Y21452D02*
X217071D01*
Y21395D01*
X217099D01*
Y21452D01*
D02*
G37*
G36*
X217299Y21366D02*
X217270D01*
Y21338D01*
X217299D01*
Y21366D01*
D02*
G37*
G36*
X217242Y21395D02*
X217214D01*
Y21338D01*
X217242D01*
Y21366D01*
Y21395D01*
D02*
G37*
G36*
X217385Y21309D02*
X217356D01*
Y21281D01*
X217385D01*
Y21309D01*
D02*
G37*
G36*
X217442Y21281D02*
X217413D01*
Y21252D01*
X217442D01*
Y21281D01*
D02*
G37*
G36*
X217499Y21252D02*
X217470D01*
Y21224D01*
X217499D01*
Y21252D01*
D02*
G37*
G36*
X217556Y21224D02*
X217527D01*
Y21195D01*
X217556D01*
Y21224D01*
D02*
G37*
G36*
X217613Y21195D02*
X217584D01*
Y21167D01*
X217613D01*
Y21195D01*
D02*
G37*
G36*
X217670Y21167D02*
X217641D01*
Y21138D01*
X217670D01*
Y21167D01*
D02*
G37*
G36*
X217727Y21138D02*
X217698D01*
Y21110D01*
X217727D01*
Y21138D01*
D02*
G37*
G36*
X217784Y21110D02*
X217755D01*
Y21081D01*
X217784D01*
Y21110D01*
D02*
G37*
G36*
X216586Y21024D02*
X216558D01*
Y20996D01*
X216586D01*
Y21024D01*
D02*
G37*
G36*
X217984Y20996D02*
X217955D01*
Y20938D01*
X218012D01*
Y20967D01*
X217984D01*
Y20996D01*
D02*
G37*
G36*
X216558Y20938D02*
X216529D01*
Y20910D01*
X216558D01*
Y20938D01*
D02*
G37*
G36*
X218098Y20910D02*
X218069D01*
Y20881D01*
X218098D01*
Y20910D01*
D02*
G37*
G36*
X216529Y20853D02*
X216500D01*
Y20824D01*
X216529D01*
Y20853D01*
D02*
G37*
G36*
X218183D02*
X218126D01*
Y20824D01*
X218155D01*
Y20796D01*
X218183D01*
Y20853D01*
D02*
G37*
G36*
X216500Y20796D02*
X216472D01*
Y20767D01*
X216500D01*
Y20796D01*
D02*
G37*
G36*
X218297Y20739D02*
X218269D01*
Y20710D01*
X218297D01*
Y20682D01*
X218326D01*
Y20710D01*
X218297D01*
Y20739D01*
D02*
G37*
G36*
X216472Y20710D02*
X216443D01*
Y20682D01*
X216472D01*
Y20710D01*
D02*
G37*
G36*
X216443Y20625D02*
X216415D01*
Y20596D01*
X216443D01*
Y20625D01*
D02*
G37*
G36*
X216472Y20539D02*
X216443D01*
Y20511D01*
X216472D01*
Y20539D01*
D02*
G37*
G36*
X218468Y20625D02*
X218440D01*
Y20568D01*
X218468D01*
Y20539D01*
X218497D01*
Y20511D01*
X218525D01*
Y20482D01*
X218554D01*
Y20454D01*
X218582D01*
Y20425D01*
X218611D01*
Y20397D01*
X218639D01*
Y20368D01*
X218668D01*
Y20339D01*
X218696D01*
Y20311D01*
X218725D01*
Y20282D01*
X218754D01*
Y20311D01*
X218725D01*
Y20339D01*
X218696D01*
Y20368D01*
X218668D01*
Y20397D01*
X218639D01*
Y20425D01*
X218611D01*
Y20454D01*
X218582D01*
Y20482D01*
X218554D01*
Y20539D01*
X218525D01*
Y20568D01*
X218497D01*
Y20596D01*
X218468D01*
Y20625D01*
D02*
G37*
G36*
X217071Y20282D02*
X217042D01*
Y20254D01*
X217071D01*
Y20282D01*
D02*
G37*
G36*
X217128Y20254D02*
X217099D01*
Y20225D01*
X217128D01*
Y20254D01*
D02*
G37*
G36*
X217185Y20225D02*
X217156D01*
Y20197D01*
X217185D01*
Y20168D01*
X217214D01*
Y20197D01*
X217185D01*
Y20225D01*
D02*
G37*
G36*
X217270Y20168D02*
X217242D01*
Y20140D01*
X217270D01*
Y20168D01*
D02*
G37*
G36*
X219153Y19798D02*
X219124D01*
Y19769D01*
X219153D01*
Y19798D01*
D02*
G37*
G36*
X219181Y19741D02*
X219153D01*
Y19712D01*
X219181D01*
Y19684D01*
X219210D01*
Y19712D01*
X219181D01*
Y19741D01*
D02*
G37*
G36*
X219238Y19655D02*
X219210D01*
Y19627D01*
X219238D01*
Y19655D01*
D02*
G37*
G36*
X218098Y19370D02*
X218069D01*
Y19341D01*
X218098D01*
Y19313D01*
X218126D01*
Y19341D01*
X218098D01*
Y19370D01*
D02*
G37*
G36*
X219409Y19284D02*
X219381D01*
Y19256D01*
X219409D01*
Y19284D01*
D02*
G37*
G36*
X218155D02*
X218126D01*
Y19256D01*
X218155D01*
Y19227D01*
X218183D01*
Y19256D01*
X218155D01*
Y19284D01*
D02*
G37*
G36*
X219438Y19227D02*
X219409D01*
Y19199D01*
X219438D01*
Y19227D01*
D02*
G37*
G36*
X219466Y19170D02*
X219438D01*
Y19142D01*
X219466D01*
Y19170D01*
D02*
G37*
G36*
X218212Y19199D02*
X218183D01*
Y19170D01*
X218212D01*
Y19142D01*
X218240D01*
Y19170D01*
X218212D01*
Y19199D01*
D02*
G37*
G36*
X218269Y19113D02*
X218240D01*
Y19085D01*
X218269D01*
Y19113D01*
D02*
G37*
G36*
X219552Y18942D02*
X219524D01*
Y18914D01*
X219552D01*
Y18942D01*
D02*
G37*
G36*
X219581Y18857D02*
X219552D01*
Y18828D01*
X219581D01*
Y18857D01*
D02*
G37*
G36*
X219609Y18771D02*
X219581D01*
Y18743D01*
X219609D01*
Y18771D01*
D02*
G37*
G36*
X219638Y18657D02*
X219609D01*
Y18628D01*
X219638D01*
Y18657D01*
D02*
G37*
G36*
X219666Y18571D02*
X219638D01*
Y18486D01*
X219666D01*
Y18571D01*
D02*
G37*
G36*
X218525Y18457D02*
X218497D01*
Y18400D01*
X218525D01*
Y18457D01*
D02*
G37*
G36*
X218554Y18343D02*
X218525D01*
Y18258D01*
X218554D01*
Y18343D01*
D02*
G37*
G36*
X218582Y18172D02*
X218554D01*
Y18115D01*
X218582D01*
Y18172D01*
D02*
G37*
G36*
X218611Y17830D02*
X218582D01*
Y17801D01*
X218611D01*
Y17830D01*
D02*
G37*
G36*
X192345Y17231D02*
X192317D01*
Y17202D01*
X192345D01*
Y17231D01*
D02*
G37*
G36*
X192402Y17202D02*
X192374D01*
Y17174D01*
X192402D01*
Y17202D01*
D02*
G37*
G36*
X192459Y17174D02*
X192431D01*
Y17145D01*
X192459D01*
Y17174D01*
D02*
G37*
G36*
X192516Y17145D02*
X192488D01*
Y17117D01*
X192516D01*
Y17145D01*
D02*
G37*
G36*
X192573Y17117D02*
X192545D01*
Y17088D01*
X192573D01*
Y17117D01*
D02*
G37*
G36*
X192630Y17088D02*
X192602D01*
Y17060D01*
X192630D01*
Y17088D01*
D02*
G37*
G36*
X192687Y17060D02*
X192659D01*
Y17031D01*
X192687D01*
Y17060D01*
D02*
G37*
G36*
X192744Y17031D02*
X192716D01*
Y17003D01*
X192744D01*
Y17031D01*
D02*
G37*
G36*
X192801Y17003D02*
X192773D01*
Y16974D01*
X192801D01*
Y17003D01*
D02*
G37*
G36*
X192944Y16946D02*
X192915D01*
Y16889D01*
X192944D01*
Y16917D01*
Y16946D01*
D02*
G37*
G36*
X193001Y16917D02*
X192973D01*
Y16860D01*
X193001D01*
Y16917D01*
D02*
G37*
G36*
X193400Y16689D02*
X193372D01*
Y16661D01*
X193400D01*
Y16689D01*
D02*
G37*
G36*
X193457Y16661D02*
X193429D01*
Y16632D01*
X193457D01*
Y16661D01*
D02*
G37*
G36*
X193514Y16632D02*
X193486D01*
Y16604D01*
X193514D01*
Y16632D01*
D02*
G37*
G36*
X193571Y16604D02*
X193543D01*
Y16575D01*
X193571D01*
Y16604D01*
D02*
G37*
G36*
X193771Y16518D02*
X193743D01*
Y16489D01*
X193771D01*
Y16518D01*
D02*
G37*
G36*
X193828Y16489D02*
X193800D01*
Y16461D01*
X193828D01*
Y16489D01*
D02*
G37*
G36*
X193885Y16461D02*
X193857D01*
Y16432D01*
X193885D01*
Y16461D01*
D02*
G37*
G36*
X193942Y16432D02*
X193914D01*
Y16404D01*
X193942D01*
Y16375D01*
X193999D01*
Y16347D01*
X194028D01*
Y16375D01*
X193999D01*
Y16404D01*
X193942D01*
Y16432D01*
D02*
G37*
G36*
X194085Y16347D02*
X194056D01*
Y16318D01*
X194085D01*
Y16347D01*
D02*
G37*
G36*
X194142Y16318D02*
X194113D01*
Y16290D01*
X194142D01*
Y16318D01*
D02*
G37*
G36*
X194199Y16290D02*
X194170D01*
Y16261D01*
X194199D01*
Y16290D01*
D02*
G37*
G36*
X194256Y16261D02*
X194227D01*
Y16233D01*
X194256D01*
Y16261D01*
D02*
G37*
G36*
X194313Y16233D02*
X194284D01*
Y16204D01*
X194313D01*
Y16233D01*
D02*
G37*
G36*
X194370Y16204D02*
X194341D01*
Y16176D01*
X194370D01*
Y16204D01*
D02*
G37*
G36*
X194427Y16176D02*
X194398D01*
Y16147D01*
X194427D01*
Y16176D01*
D02*
G37*
G36*
X194712Y16033D02*
X194684D01*
Y16005D01*
X194712D01*
Y16033D01*
D02*
G37*
G36*
X194912Y15919D02*
X194883D01*
Y15891D01*
X194912D01*
Y15919D01*
D02*
G37*
G36*
X194969Y15891D02*
X194940D01*
Y15862D01*
X194969D01*
Y15891D01*
D02*
G37*
G36*
X195026Y15862D02*
X194997D01*
Y15834D01*
X195026D01*
Y15862D01*
D02*
G37*
G36*
X195083Y15834D02*
X195054D01*
Y15805D01*
X195083D01*
Y15834D01*
D02*
G37*
G36*
X195140Y15805D02*
X195112D01*
Y15777D01*
X195140D01*
Y15805D01*
D02*
G37*
G36*
X195197Y15777D02*
X195168D01*
Y15748D01*
X195197D01*
Y15777D01*
D02*
G37*
G36*
X195254Y15748D02*
X195226D01*
Y15720D01*
X195254D01*
Y15748D01*
D02*
G37*
G36*
X195596Y17345D02*
X195568D01*
Y15663D01*
X196737D01*
Y15691D01*
X195596D01*
Y16746D01*
Y16775D01*
Y17345D01*
D02*
G37*
G36*
X195397Y15691D02*
X195368D01*
Y15663D01*
X195397D01*
Y15691D01*
D02*
G37*
G36*
X192060D02*
X190748D01*
Y15663D01*
X192060D01*
Y15691D01*
D02*
G37*
G36*
X193315Y14493D02*
X193286D01*
Y14465D01*
X193315D01*
Y14493D01*
D02*
G37*
G36*
X193258Y14465D02*
X193229D01*
Y14436D01*
X193258D01*
Y14465D01*
D02*
G37*
G36*
X193201Y14436D02*
X193172D01*
Y14408D01*
X193201D01*
Y14436D01*
D02*
G37*
G36*
X195568Y13780D02*
X195539D01*
Y13752D01*
X195568D01*
Y13780D01*
D02*
G37*
G36*
X230503Y8818D02*
X230018D01*
Y8789D01*
X229990D01*
Y8761D01*
X229961D01*
Y8675D01*
X230503D01*
Y8732D01*
X230532D01*
Y8761D01*
X230503D01*
Y8818D01*
D02*
G37*
G36*
X229134Y8789D02*
X228621D01*
Y8675D01*
X229134D01*
Y8732D01*
X229163D01*
Y8761D01*
X229134D01*
Y8789D01*
D02*
G37*
G36*
X218896Y8818D02*
X218354D01*
Y8789D01*
X218326D01*
Y8761D01*
X218297D01*
Y8419D01*
X218326D01*
Y8390D01*
X218896D01*
Y8419D01*
X218925D01*
Y8789D01*
X218896D01*
Y8818D01*
D02*
G37*
G36*
X216387Y8504D02*
X215845D01*
Y8476D01*
X215816D01*
Y8419D01*
X215845D01*
Y8390D01*
X216358D01*
Y8419D01*
X216387D01*
Y8504D01*
D02*
G37*
G36*
X206776Y8818D02*
X206234D01*
Y8789D01*
X206205D01*
Y8761D01*
X206177D01*
Y8419D01*
X206205D01*
Y8390D01*
X206776D01*
Y8419D01*
X206804D01*
Y8789D01*
X206776D01*
Y8818D01*
D02*
G37*
G36*
X204123D02*
X203639D01*
Y8789D01*
X203610D01*
Y8675D01*
X204123D01*
Y8732D01*
X204152D01*
Y8789D01*
X204123D01*
Y8818D01*
D02*
G37*
G36*
X202270D02*
X201785D01*
Y8789D01*
X201756D01*
Y8675D01*
X202298D01*
Y8732D01*
X202327D01*
Y8761D01*
X202298D01*
Y8789D01*
X202270D01*
Y8818D01*
D02*
G37*
G36*
X198363D02*
X197792D01*
Y8789D01*
X197764D01*
Y8390D01*
X198334D01*
Y8419D01*
X198363D01*
Y8675D01*
Y8704D01*
Y8818D01*
D02*
G37*
G36*
X195539Y8504D02*
X194997D01*
Y8476D01*
X194969D01*
Y8419D01*
X194997D01*
Y8390D01*
X195254D01*
Y8362D01*
X195283D01*
Y8390D01*
X195511D01*
Y8419D01*
X195539D01*
Y8504D01*
D02*
G37*
G36*
X190178Y8818D02*
X189664D01*
Y8789D01*
X189607D01*
Y8419D01*
X189636D01*
Y8390D01*
X190206D01*
Y8419D01*
X190235D01*
Y8789D01*
X190178D01*
Y8818D01*
D02*
G37*
G36*
X186014Y8846D02*
X185444D01*
Y8818D01*
X185415D01*
Y8647D01*
X186014D01*
Y8704D01*
X186042D01*
Y8789D01*
X186014D01*
Y8846D01*
D02*
G37*
G36*
X234724Y8818D02*
X234182D01*
Y8789D01*
X234154D01*
Y8761D01*
X234125D01*
Y8533D01*
X234154D01*
Y8504D01*
X234724D01*
Y8533D01*
X234752D01*
Y8789D01*
X234724D01*
Y8818D01*
D02*
G37*
G36*
X225883Y8789D02*
X225313D01*
Y8533D01*
X225341D01*
Y8504D01*
X225912D01*
Y8761D01*
X225883D01*
Y8789D01*
D02*
G37*
%LPD*%
D10*
X26848Y165354D02*
X26803Y166349D01*
X26670Y167336D01*
X26448Y168307D01*
X26140Y169255D01*
X25749Y170170D01*
X25277Y171047D01*
X24728Y171879D01*
X24107Y172657D01*
X23419Y173377D01*
X22669Y174033D01*
X21863Y174618D01*
X21008Y175129D01*
X20111Y175561D01*
X19178Y175911D01*
X18218Y176176D01*
X17238Y176354D01*
X16246Y176443D01*
X15250D01*
X14258Y176354D01*
X13278Y176176D01*
X12318Y175911D01*
X11385Y175561D01*
X10488Y175129D01*
X9633Y174618D01*
X8827Y174033D01*
X8077Y173377D01*
X7389Y172657D01*
X6768Y171879D01*
X6219Y171047D01*
X5747Y170170D01*
X5356Y169255D01*
X5048Y168307D01*
X4826Y167336D01*
X4693Y166349D01*
X4648Y165354D01*
X4693Y164359D01*
X4826Y163372D01*
X5048Y162401D01*
X5356Y161454D01*
X5747Y160538D01*
X6219Y159661D01*
X6768Y158830D01*
X7389Y158051D01*
X8077Y157331D01*
X8827Y156676D01*
X9633Y156091D01*
X10488Y155580D01*
X11385Y155148D01*
X12318Y154798D01*
X13278Y154533D01*
X14258Y154355D01*
X15250Y154265D01*
X16246D01*
X17238Y154355D01*
X18218Y154533D01*
X19178Y154798D01*
X20111Y155148D01*
X21008Y155580D01*
X21863Y156091D01*
X22669Y156676D01*
X23419Y157331D01*
X24107Y158051D01*
X24728Y158830D01*
X25277Y159661D01*
X25749Y160538D01*
X26140Y161454D01*
X26448Y162401D01*
X26670Y163372D01*
X26803Y164359D01*
X26848Y165354D01*
X176454Y15748D02*
X176410Y16743D01*
X176276Y17730D01*
X176054Y18701D01*
X175747Y19648D01*
X175355Y20564D01*
X174883Y21441D01*
X174334Y22273D01*
X173713Y23051D01*
X173025Y23771D01*
X172275Y24426D01*
X171469Y25012D01*
X170614Y25523D01*
X169717Y25955D01*
X168784Y26305D01*
X167824Y26570D01*
X166844Y26748D01*
X165852Y26837D01*
X164856D01*
X163864Y26748D01*
X162884Y26570D01*
X161924Y26305D01*
X160992Y25955D01*
X160094Y25523D01*
X159239Y25012D01*
X158434Y24426D01*
X157684Y23771D01*
X156995Y23051D01*
X156374Y22272D01*
X155825Y21441D01*
X155354Y20564D01*
X154962Y19648D01*
X154654Y18701D01*
X154433Y17730D01*
X154299Y16743D01*
X154254Y15748D01*
X154299Y14753D01*
X154433Y13766D01*
X154654Y12795D01*
X154962Y11848D01*
X155354Y10932D01*
X155825Y10055D01*
X156374Y9224D01*
X156995Y8445D01*
X157684Y7725D01*
X158434Y7070D01*
X159239Y6484D01*
X160094Y5973D01*
X160992Y5541D01*
X161924Y5191D01*
X162884Y4926D01*
X163864Y4749D01*
X164856Y4659D01*
X165852D01*
X166844Y4749D01*
X167824Y4926D01*
X168784Y5191D01*
X169717Y5541D01*
X170614Y5973D01*
X171469Y6484D01*
X172275Y7070D01*
X173025Y7725D01*
X173713Y8445D01*
X174334Y9224D01*
X174883Y10055D01*
X175355Y10932D01*
X175747Y11848D01*
X176054Y12795D01*
X176276Y13766D01*
X176410Y14753D01*
X176454Y15748D01*
D11*
X114673Y127953D02*
X113923Y128386D01*
Y127520D01*
X114673Y127953D01*
X239272Y149016D02*
X238533Y149442D01*
Y148590D01*
X239272Y149016D01*
X188976Y90256D02*
X188238Y90682D01*
Y89830D01*
X188976Y90256D01*
X203445Y123327D02*
X202707Y123753D01*
Y122901D01*
X203445Y123327D01*
X17823Y62984D02*
X17073Y63417D01*
Y62551D01*
X17823Y62984D01*
X121260Y61417D02*
X120522Y61844D01*
Y60991D01*
X121260Y61417D01*
X221063Y44488D02*
X220325Y44914D01*
Y44062D01*
X221063Y44488D01*
X194173Y170866D02*
X193435Y171292D01*
Y170440D01*
X194173Y170866D01*
D12*
X128543Y70276D02*
X128099Y71199D01*
X127099Y71427D01*
X126298Y70788D01*
Y69763D01*
X127099Y69124D01*
X128099Y69352D01*
X128543Y70276D01*
D13*
X192717Y44882D02*
X193110D01*
X192717D01*
D14*
X213976Y58740D02*
Y75709D01*
Y58740D02*
X216142D01*
Y75709D01*
X213976D02*
X216142D01*
X192421Y132776D02*
X193209D01*
X192421Y137303D02*
X193209D01*
X103720Y70787D02*
Y81968D01*
X93130Y70787D02*
X103720D01*
X93130D02*
Y81968D01*
X103720D01*
X194882Y121236D02*
Y129158D01*
X188189Y121236D02*
Y129158D01*
X192520Y80512D02*
X201181D01*
X192520Y72047D02*
X201181D01*
X229823Y146457D02*
X230807D01*
X229823Y151772D02*
X230807D01*
X176279Y140650D02*
X178642D01*
Y129429D02*
Y140650D01*
X176279Y129429D02*
X178642D01*
X176279D02*
Y140650D01*
X170177Y141437D02*
X174902D01*
X33268Y135433D02*
Y142126D01*
X84842Y135433D02*
Y142126D01*
X33268Y135433D02*
X84842D01*
X233249Y166160D02*
Y170913D01*
X232732Y166160D02*
X233249D01*
X203759Y166142D02*
X204272D01*
X203759Y166142D02*
Y170913D01*
X124311Y42126D02*
X126083D01*
X124311Y47638D02*
X126083D01*
X192224Y95748D02*
X209941D01*
Y84764D02*
Y85472D01*
Y95039D02*
Y95748D01*
X192224Y84764D02*
X209941D01*
X192224D02*
Y85472D01*
Y95039D02*
Y95748D01*
X199508Y85020D02*
Y95492D01*
X208150Y98858D02*
Y120827D01*
X197756Y98858D02*
X208150D01*
X197756D02*
Y120827D01*
X208150D01*
X7323Y115551D02*
X29842D01*
X7323Y65551D02*
Y115551D01*
Y65551D02*
X29842D01*
Y115551D01*
X161024Y129035D02*
X161811D01*
X161024Y133563D02*
X161811D01*
X146653Y66339D02*
Y89567D01*
X123425Y66339D02*
Y89567D01*
X146653D01*
X123425Y66339D02*
X146653D01*
X184055Y50394D02*
Y54134D01*
X139173D02*
X184055D01*
X139173Y50394D02*
Y54134D01*
Y35630D02*
Y39370D01*
Y35630D02*
X184055D01*
Y39370D01*
X212795Y140276D02*
X218799D01*
X170354Y158827D02*
X184921D01*
Y147291D02*
Y158827D01*
X170354Y147291D02*
X184921D01*
X170354D02*
Y158827D01*
X163169Y159161D02*
X168976D01*
X185945Y114547D02*
X196535D01*
X185945Y103366D02*
Y114547D01*
Y103366D02*
X196535D01*
Y114547D01*
X164961Y59744D02*
Y61516D01*
X159449Y59744D02*
Y61516D01*
X93799Y89370D02*
X95571D01*
X93799Y83858D02*
X95571D01*
X131398Y106693D02*
X133169D01*
X131398Y101181D02*
X133169D01*
X196102Y39291D02*
X218071D01*
X196102D02*
Y49685D01*
X218071D01*
Y39291D02*
Y49685D01*
X192323Y61713D02*
X200984D01*
X192323Y70177D02*
X200984D01*
X156201Y107480D02*
Y116142D01*
X139075D02*
X156201D01*
X139075Y107480D02*
Y116142D01*
Y107480D02*
X156201D01*
X96850Y98032D02*
X97638D01*
X96850Y102559D02*
X97638D01*
X102165Y135394D02*
X153740D01*
Y142087D01*
X102165Y135394D02*
Y142087D01*
X245177Y160138D02*
X245965D01*
X245177Y155610D02*
X245965D01*
X230315Y160531D02*
X231299D01*
X230315Y155217D02*
X231299D01*
X205020Y152165D02*
Y152953D01*
X200492Y152165D02*
Y152953D01*
X245177Y151378D02*
X245965D01*
X245177Y146850D02*
X245965D01*
X221752Y148819D02*
Y157480D01*
X213287Y148819D02*
Y157480D01*
X207579Y126476D02*
Y135138D01*
X199114Y126476D02*
Y135138D01*
X11417Y134744D02*
X20079D01*
Y151870D01*
X11417D02*
X20079D01*
X11417Y134744D02*
Y151870D01*
X169213Y165669D02*
X191181D01*
X169213D02*
Y176063D01*
X191181D01*
Y165669D02*
Y176063D01*
X105610Y24016D02*
X122736D01*
Y15354D02*
Y24016D01*
X105610Y15354D02*
X122736D01*
X105610D02*
Y24016D01*
X150295Y15354D02*
Y24016D01*
X133169D02*
X150295D01*
X133169Y15354D02*
Y24016D01*
Y15354D02*
X150295D01*
X78051D02*
Y24016D01*
Y15354D02*
X95177D01*
Y24016D01*
X78051D02*
X95177D01*
X202428Y92683D02*
X202756Y93011D01*
Y93667D01*
X202428Y93995D01*
X202100D01*
X201772Y93667D01*
Y93011D01*
X201444Y92683D01*
X201116D01*
X200788Y93011D01*
Y93667D01*
X201116Y93995D01*
X202428Y90715D02*
X202756Y91043D01*
Y91699D01*
X202428Y92027D01*
X202100D01*
X201772Y91699D01*
Y91043D01*
X201444Y90715D01*
X201116D01*
X200788Y91043D01*
Y91699D01*
X201116Y92027D01*
X200788Y90059D02*
Y89403D01*
Y89731D01*
X202756D01*
X202428Y90059D01*
X200788Y87435D02*
X202756D01*
X201772Y88419D01*
Y87107D01*
D15*
X3307Y130551D02*
X83307D01*
X3307Y50551D02*
Y130551D01*
X2165Y2165D02*
Y12008D01*
Y2165D02*
X48425D01*
X2165Y47441D02*
X33661D01*
X2165Y35630D02*
Y47441D01*
D16*
X118126Y166447D02*
Y161449D01*
X119126Y160449D01*
X121125D01*
X122125Y161449D01*
Y166447D01*
X128123Y165447D02*
X127123Y166447D01*
X125124D01*
X124124Y165447D01*
Y164447D01*
X125124Y163448D01*
X127123D01*
X128123Y162448D01*
Y161449D01*
X127123Y160449D01*
X125124D01*
X124124Y161449D01*
X130122Y166447D02*
Y160449D01*
X133121D01*
X134121Y161449D01*
Y162448D01*
X133121Y163448D01*
X130122D01*
X133121D01*
X134121Y164447D01*
Y165447D01*
X133121Y166447D01*
X130122D01*
X51197D02*
Y161449D01*
X52197Y160449D01*
X54196D01*
X55196Y161449D01*
Y166447D01*
X61194Y165447D02*
X60194Y166447D01*
X58195D01*
X57195Y165447D01*
Y164447D01*
X58195Y163448D01*
X60194D01*
X61194Y162448D01*
Y161449D01*
X60194Y160449D01*
X58195D01*
X57195Y161449D01*
X63193Y166447D02*
Y160449D01*
X66192D01*
X67192Y161449D01*
Y162448D01*
X66192Y163448D01*
X63193D01*
X66192D01*
X67192Y164447D01*
Y165447D01*
X66192Y166447D01*
X63193D01*
X197161Y34069D02*
Y29346D01*
X199523D01*
X200310Y30134D01*
Y30921D01*
X199523Y31708D01*
X197161D01*
X199523D01*
X200310Y32495D01*
Y33282D01*
X199523Y34069D01*
X197161D01*
X201884Y31708D02*
X205033D01*
X213007Y105694D02*
Y107661D01*
X211531D01*
X212023Y106677D01*
Y106185D01*
X211531Y105694D01*
X210547D01*
X210055Y106185D01*
Y107169D01*
X210547Y107661D01*
X212023Y104710D02*
X210055Y103726D01*
X212023Y102742D01*
X207988Y34069D02*
Y29346D01*
X210350D01*
X211137Y30134D01*
Y30921D01*
X210350Y31708D01*
X207988D01*
X210350D01*
X211137Y32495D01*
Y33282D01*
X210350Y34069D01*
X207988D01*
X212711Y31708D02*
X215860D01*
X214285Y33282D02*
Y30134D01*
X170212Y163484D02*
X168376D01*
Y162106D01*
X169294D01*
X168376D01*
Y160729D01*
X172967Y163025D02*
X172508Y163484D01*
X171590D01*
X171131Y163025D01*
Y162566D01*
X171590Y162106D01*
X172508D01*
X172967Y161647D01*
Y161188D01*
X172508Y160729D01*
X171590D01*
X171131Y161188D01*
X173886Y163025D02*
X174345Y163484D01*
X175263D01*
X175722Y163025D01*
Y162566D01*
X175263Y162106D01*
X175722Y161647D01*
Y161188D01*
X175263Y160729D01*
X174345D01*
X173886Y161188D01*
Y161647D01*
X174345Y162106D01*
X173886Y162566D01*
Y163025D01*
X174345Y162106D02*
X175263D01*
X178477Y160729D02*
X176641D01*
X178477Y162566D01*
Y163025D01*
X178018Y163484D01*
X177100D01*
X176641Y163025D01*
X179396D02*
X179855Y163484D01*
X180773D01*
X181232Y163025D01*
Y161188D01*
X180773Y160729D01*
X179855D01*
X179396Y161188D01*
Y163025D01*
X183987Y163484D02*
X182151D01*
Y162106D01*
X183069Y162566D01*
X183528D01*
X183987Y162106D01*
Y161188D01*
X183528Y160729D01*
X182610D01*
X182151Y161188D01*
X184906Y160729D02*
Y162566D01*
X185824Y163484D01*
X186742Y162566D01*
Y160729D01*
Y162106D01*
X184906D01*
X217588Y118503D02*
X219425D01*
X218506D01*
Y115749D01*
X220343D02*
Y118503D01*
X221720D01*
X222180Y118044D01*
Y117126D01*
X221720Y116667D01*
X220343D01*
X224475Y115749D02*
Y118503D01*
X223098Y117126D01*
X224935D01*
X225853Y118044D02*
X226312Y118503D01*
X227230D01*
X227690Y118044D01*
Y116208D01*
X227230Y115749D01*
X226312D01*
X225853Y116208D01*
Y118044D01*
X230445Y118503D02*
X228608D01*
Y117126D01*
X229526Y117585D01*
X229985D01*
X230445Y117126D01*
Y116208D01*
X229985Y115749D01*
X229067D01*
X228608Y116208D01*
X233200Y118503D02*
X232281Y118044D01*
X231363Y117126D01*
Y116208D01*
X231822Y115749D01*
X232740D01*
X233200Y116208D01*
Y116667D01*
X232740Y117126D01*
X231363D01*
X149118Y30414D02*
X150102D01*
X149610D01*
Y33366D01*
X149118Y32874D01*
X153546Y33366D02*
X152562Y32874D01*
X151578Y31890D01*
Y30906D01*
X152070Y30414D01*
X153054D01*
X153546Y30906D01*
Y31398D01*
X153054Y31890D01*
X151578D01*
X154530Y30414D02*
Y30906D01*
X155022D01*
Y30414D01*
X154530D01*
X156990Y32874D02*
X157482Y33366D01*
X158466D01*
X158958Y32874D01*
Y30906D01*
X158466Y30414D01*
X157482D01*
X156990Y30906D01*
Y32874D01*
X159941D02*
X160433Y33366D01*
X161417D01*
X161909Y32874D01*
Y30906D01*
X161417Y30414D01*
X160433D01*
X159941Y30906D01*
Y32874D01*
X162893D02*
X163385Y33366D01*
X164369D01*
X164861Y32874D01*
Y30906D01*
X164369Y30414D01*
X163385D01*
X162893Y30906D01*
Y32874D01*
X165845Y30414D02*
Y33366D01*
X166829Y32382D01*
X167813Y33366D01*
Y30414D01*
X168797Y33366D02*
Y30414D01*
Y31890D01*
X170765D01*
Y33366D01*
Y30414D01*
X171749Y33366D02*
X173716D01*
Y32874D01*
X171749Y30906D01*
Y30414D01*
X173716D01*
X163057Y126574D02*
X162139D01*
X162598D01*
Y123819D01*
X163057Y124278D01*
X160761Y126574D02*
Y123819D01*
Y125656D02*
X159384Y124738D01*
X160761Y125656D02*
X159384Y126574D01*
X191175Y138780D02*
X192094D01*
X191634D01*
Y141535D01*
X191175Y141076D01*
X193471Y138780D02*
Y141535D01*
Y139698D02*
X194849Y140617D01*
X193471Y139698D02*
X194849Y138780D01*
X120300Y35342D02*
X121284D01*
X120792D01*
Y38293D01*
X120300Y37802D01*
X122760D02*
X123252Y38293D01*
X124236D01*
X124728Y37802D01*
Y37310D01*
X124236Y36818D01*
X124728Y36326D01*
Y35834D01*
X124236Y35342D01*
X123252D01*
X122760Y35834D01*
Y36326D01*
X123252Y36818D01*
X122760Y37310D01*
Y37802D01*
X123252Y36818D02*
X124236D01*
X125712Y34358D02*
Y37310D01*
X127188D01*
X127680Y36818D01*
Y35834D01*
X127188Y35342D01*
X125712D01*
X129155D02*
Y37802D01*
Y36818D01*
X128664D01*
X129647D01*
X129155D01*
Y37802D01*
X129647Y38293D01*
X157728Y49213D02*
X158712D01*
X158220D01*
Y52165D01*
X157728Y51673D01*
X160188D02*
X160680Y52165D01*
X161664D01*
X162156Y51673D01*
Y51181D01*
X161664Y50689D01*
X162156Y50197D01*
Y49705D01*
X161664Y49213D01*
X160680D01*
X160188Y49705D01*
Y50197D01*
X160680Y50689D01*
X160188Y51181D01*
Y51673D01*
X160680Y50689D02*
X161664D01*
X163139Y48229D02*
Y51181D01*
X164615D01*
X165107Y50689D01*
Y49705D01*
X164615Y49213D01*
X163139D01*
X166583D02*
Y51673D01*
Y50689D01*
X166091D01*
X167075D01*
X166583D01*
Y51673D01*
X167075Y52165D01*
X85630Y76282D02*
X85138Y76774D01*
Y77758D01*
X85630Y78250D01*
X87598D01*
X88090Y77758D01*
Y76774D01*
X87598Y76282D01*
X85630D01*
X88090Y79233D02*
X87598D01*
Y79725D01*
X88090D01*
Y79233D01*
Y81693D02*
Y82677D01*
Y82185D01*
X85138D01*
X85630Y81693D01*
X86122Y84153D02*
X87598D01*
X88090Y84645D01*
Y86121D01*
X86122D01*
X85138Y89073D02*
Y87105D01*
X86614D01*
Y88089D01*
Y87105D01*
X88090D01*
X125494Y111220D02*
X125986Y111712D01*
X126970D01*
X127462Y111220D01*
Y109252D01*
X126970Y108760D01*
X125986D01*
X125494Y109252D01*
Y111220D01*
X128446Y108760D02*
Y109252D01*
X128938D01*
Y108760D01*
X128446D01*
X130906D02*
X131890D01*
X131398D01*
Y111712D01*
X130906Y111220D01*
X133366Y110728D02*
Y109252D01*
X133858Y108760D01*
X135334D01*
Y110728D01*
X138285Y111712D02*
X136318D01*
Y110236D01*
X137301D01*
X136318D01*
Y108760D01*
X230118Y58615D02*
X227166D01*
X228150Y59599D01*
X227166Y60583D01*
X230118D01*
X227166Y63534D02*
Y61567D01*
X230118D01*
Y63534D01*
X228642Y61567D02*
Y62551D01*
X230118Y66486D02*
Y64518D01*
X228150Y66486D01*
X227658D01*
X227166Y65994D01*
Y65010D01*
X227658Y64518D01*
X230118Y67470D02*
Y68454D01*
Y67962D01*
X227166D01*
X227658Y67470D01*
Y69930D02*
X227166Y70422D01*
Y71406D01*
X227658Y71898D01*
X229626D01*
X230118Y71406D01*
Y70422D01*
X229626Y69930D01*
X227658D01*
Y72882D02*
X227166Y73374D01*
Y74358D01*
X227658Y74850D01*
X228150D01*
X228642Y74358D01*
X229134Y74850D01*
X229626D01*
X230118Y74358D01*
Y73374D01*
X229626Y72882D01*
X229134D01*
X228642Y73374D01*
X228150Y72882D01*
X227658D01*
X228642Y73374D02*
Y74358D01*
X174739Y145669D02*
Y142914D01*
X176116D01*
X176575Y143373D01*
Y145210D01*
X176116Y145669D01*
X174739D01*
X177494D02*
Y142914D01*
X178412Y143832D01*
X179330Y142914D01*
Y145669D01*
X180249Y142914D02*
X181167D01*
X180708D01*
Y145669D01*
X180249Y145210D01*
X7905Y144307D02*
X8905Y145306D01*
Y147306D01*
X7905Y148305D01*
X6905D01*
X5906Y147306D01*
Y145306D01*
X4906Y144307D01*
X3906D01*
X2906Y145306D01*
Y147306D01*
X3906Y148305D01*
X8905Y142307D02*
X2906D01*
X4906Y140308D01*
X2906Y138309D01*
X8905D01*
X24653Y34057D02*
Y36056D01*
Y35057D01*
X19654D01*
X18654Y36056D01*
Y37056D01*
X19654Y38056D01*
X22653Y31058D02*
Y29059D01*
X21654Y28059D01*
X18654D01*
Y31058D01*
X19654Y32058D01*
X20654Y31058D01*
Y28059D01*
X22653Y22061D02*
Y25060D01*
X21654Y26059D01*
X19654D01*
X18654Y25060D01*
Y22061D01*
Y20062D02*
X24653D01*
X20654D02*
X22653Y17062D01*
X20654Y20062D02*
X18654Y17062D01*
X111459Y32015D02*
X110869Y32605D01*
X109688D01*
X109098Y32015D01*
Y31424D01*
X109688Y30834D01*
X110869D01*
X111459Y30244D01*
Y29653D01*
X110869Y29063D01*
X109688D01*
X109098Y29653D01*
X112640Y32605D02*
Y29063D01*
X113821Y30244D01*
X115001Y29063D01*
Y32605D01*
X116182Y32015D02*
X116772Y32605D01*
X117953D01*
X118544Y32015D01*
Y31424D01*
X117953Y30834D01*
X117363D01*
X117953D01*
X118544Y30244D01*
Y29653D01*
X117953Y29063D01*
X116772D01*
X116182Y29653D01*
X83900Y32015D02*
X83310Y32605D01*
X82129D01*
X81539Y32015D01*
Y31424D01*
X82129Y30834D01*
X83310D01*
X83900Y30244D01*
Y29653D01*
X83310Y29063D01*
X82129D01*
X81539Y29653D01*
X85081Y32605D02*
Y29063D01*
X86262Y30244D01*
X87442Y29063D01*
Y32605D01*
X90984Y29063D02*
X88623D01*
X90984Y31424D01*
Y32015D01*
X90394Y32605D01*
X89213D01*
X88623Y32015D01*
X139961Y31692D02*
X139371Y32283D01*
X138190D01*
X137600Y31692D01*
Y31102D01*
X138190Y30512D01*
X139371D01*
X139961Y29921D01*
Y29331D01*
X139371Y28741D01*
X138190D01*
X137600Y29331D01*
X141142Y32283D02*
Y28741D01*
X142323Y29921D01*
X143503Y28741D01*
Y32283D01*
X144684Y28741D02*
X145865D01*
X145274D01*
Y32283D01*
X144684Y31692D01*
X100934Y95866D02*
X99950D01*
X100442D01*
Y92914D01*
X100934Y93406D01*
X98474D02*
X97982Y92914D01*
X96998D01*
X96506Y93406D01*
Y95374D01*
X96998Y95866D01*
X97982D01*
X98474Y95374D01*
Y93406D01*
X95522Y92914D02*
Y95866D01*
Y94882D01*
X93554Y92914D01*
X95030Y94390D01*
X93554Y95866D01*
X200919Y159745D02*
X201838D01*
X201378D01*
Y162499D01*
X200919Y162040D01*
X203215Y159745D02*
Y162499D01*
Y160663D02*
X204593Y161581D01*
X203215Y160663D02*
X204593Y159745D01*
X252264Y155216D02*
Y154035D01*
Y154625D01*
X255806D01*
X255216Y155216D01*
X255806Y152264D02*
X252264D01*
X253445D01*
X255806Y149902D01*
X254035Y151673D01*
X252264Y149902D01*
X219785Y105808D02*
X217817D01*
X219785Y107775D01*
Y108267D01*
X219293Y108759D01*
X218309D01*
X217817Y108267D01*
X222736Y105808D02*
X220768D01*
X222736Y107775D01*
Y108267D01*
X222244Y108759D01*
X221260D01*
X220768Y108267D01*
X223720Y107775D02*
Y106299D01*
X224212Y105808D01*
X225688D01*
Y107775D01*
X226672Y108759D02*
Y105808D01*
Y107283D01*
X228640D01*
Y108759D01*
Y105808D01*
X166830Y169095D02*
X165780D01*
X166305D01*
Y172244D01*
X166830D01*
X165780D01*
X164206D02*
Y170144D01*
X162632D01*
X162107Y170669D01*
Y172244D01*
X235992Y144488D02*
Y140552D01*
X237960D01*
X238616Y141208D01*
Y143832D01*
X237960Y144488D01*
X235992D01*
X242551Y140552D02*
X239928D01*
X242551Y143176D01*
Y143832D01*
X241896Y144488D01*
X240584D01*
X239928Y143832D01*
X235565Y167322D02*
Y163386D01*
X237533D01*
X238189Y164042D01*
Y166666D01*
X237533Y167322D01*
X235565D01*
X239501Y163386D02*
X240813D01*
X240157D01*
Y167322D01*
X239501Y166666D01*
X188771Y65651D02*
Y66570D01*
Y66110D01*
X186016D01*
X186475Y65651D01*
Y67947D02*
X186016Y68406D01*
Y69324D01*
X186475Y69784D01*
X188312D01*
X188771Y69324D01*
Y68406D01*
X188312Y67947D01*
X186475D01*
X186934Y70702D02*
X188312D01*
X188771Y71161D01*
Y72539D01*
X186934D01*
X186016Y75294D02*
Y73457D01*
X187394D01*
Y74375D01*
Y73457D01*
X188771D01*
X208727Y148952D02*
X208268Y149411D01*
Y150329D01*
X208727Y150788D01*
X210564D01*
X211023Y150329D01*
Y149411D01*
X210564Y148952D01*
X208727D01*
X211023Y151707D02*
X210564D01*
Y152166D01*
X211023D01*
Y151707D01*
Y154002D02*
Y154921D01*
Y154462D01*
X208268D01*
X208727Y154002D01*
X209187Y156298D02*
X210564D01*
X211023Y156757D01*
Y158135D01*
X209187D01*
X198755Y140682D02*
X199214Y141141D01*
X200133D01*
X200592Y140682D01*
Y138845D01*
X200133Y138386D01*
X199214D01*
X198755Y138845D01*
Y140682D01*
X201510Y138386D02*
Y138845D01*
X201969D01*
Y138386D01*
X201510D01*
X203806D02*
X204724D01*
X204265D01*
Y141141D01*
X203806Y140682D01*
X206102Y140223D02*
Y138845D01*
X206561Y138386D01*
X207939D01*
Y140223D01*
X210694Y141141D02*
X208857D01*
Y139764D01*
X209775D01*
X208857D01*
Y138386D01*
X195865Y116536D02*
X195373Y116044D01*
X194389D01*
X193897Y116536D01*
Y118504D01*
X194389Y118996D01*
X195373D01*
X195865Y118504D01*
Y116536D01*
X192913Y118996D02*
Y118504D01*
X192421D01*
Y118996D01*
X192913D01*
X190453D02*
X189469D01*
X189961D01*
Y116044D01*
X190453Y116536D01*
X187993Y117028D02*
Y118504D01*
X187501Y118996D01*
X186025D01*
Y117028D01*
M02*
