G04*
G04 #@! TF.GenerationSoftware,Altium Limited,Altium Designer,23.4.1 (23)*
G04*
G04 Layer_Color=16711935*
%FSLAX25Y25*%
%MOIN*%
G70*
G04*
G04 #@! TF.SameCoordinates,34C706FF-D981-4061-8AA4-72CC7803A1E3*
G04*
G04*
G04 #@! TF.FilePolarity,Negative*
G04*
G01*
G75*
%ADD38C,0.15748*%
G04:AMPARAMS|DCode=39|XSize=84.65mil|YSize=45.28mil|CornerRadius=12.8mil|HoleSize=0mil|Usage=FLASHONLY|Rotation=270.000|XOffset=0mil|YOffset=0mil|HoleType=Round|Shape=RoundedRectangle|*
%AMROUNDEDRECTD39*
21,1,0.08465,0.01968,0,0,270.0*
21,1,0.05906,0.04528,0,0,270.0*
1,1,0.02559,-0.00984,-0.02953*
1,1,0.02559,-0.00984,0.02953*
1,1,0.02559,0.00984,0.02953*
1,1,0.02559,0.00984,-0.02953*
%
%ADD39ROUNDEDRECTD39*%
%ADD40C,0.14173*%
%ADD41C,0.06299*%
%ADD42C,0.05740*%
%ADD43R,0.05740X0.05740*%
%ADD44C,0.06102*%
%ADD45C,0.06890*%
%ADD46C,0.07677*%
%ADD47R,0.07677X0.07677*%
%ADD48O,0.11614X0.06102*%
%ADD49O,0.06102X0.11614*%
%ADD50C,0.06181*%
%ADD51C,0.06693*%
%ADD52R,0.06693X0.06693*%
%ADD53R,0.05118X0.05118*%
%ADD54C,0.05118*%
%ADD55R,0.06181X0.06181*%
%ADD56C,0.06181*%
%ADD57R,0.07677X0.07677*%
%ADD58R,0.06181X0.06181*%
%ADD59R,0.05118X0.05118*%
%ADD60C,0.04528*%
%ADD61C,0.12402*%
%ADD62C,0.05591*%
D38*
X165354Y15748D02*
D03*
X15748Y165354D02*
D03*
D39*
X232283Y176181D02*
D03*
X204724D02*
D03*
D40*
X153819Y150039D02*
D03*
X102087D02*
D03*
X84921Y150079D02*
D03*
X33189D02*
D03*
D41*
X228346Y165551D02*
D03*
X208661D02*
D03*
D42*
X48307Y126051D02*
D03*
X38307D02*
D03*
X48307Y55051D02*
D03*
X38307D02*
D03*
X28307Y126051D02*
D03*
X58307D02*
D03*
Y55051D02*
D03*
X28307D02*
D03*
X68307Y126051D02*
D03*
Y55051D02*
D03*
X18307Y126051D02*
D03*
Y55051D02*
D03*
X78307D02*
D03*
X8307Y126051D02*
D03*
Y55051D02*
D03*
D43*
X78307Y126051D02*
D03*
D44*
X87795Y110236D02*
D03*
X77795D02*
D03*
X52795Y60236D02*
D03*
X72795D02*
D03*
X82795D02*
D03*
X42795Y120236D02*
D03*
X92795D02*
D03*
X112795D02*
D03*
X32795D02*
D03*
D45*
X98425Y76378D02*
D03*
X191240Y108957D02*
D03*
D46*
X142795Y123228D02*
D03*
X132795D02*
D03*
X152795D02*
D03*
X17323Y110551D02*
D03*
Y80551D02*
D03*
Y90551D02*
D03*
Y100551D02*
D03*
D47*
X122795Y123228D02*
D03*
D48*
X23425Y6102D02*
D03*
X40748Y44291D02*
D03*
X35236Y34055D02*
D03*
D49*
X53347Y8071D02*
D03*
X10039Y23819D02*
D03*
D50*
X72835Y139409D02*
D03*
X45276D02*
D03*
X62992D02*
D03*
X55118D02*
D03*
X124016Y139370D02*
D03*
X131890D02*
D03*
X114173D02*
D03*
X141732D02*
D03*
D51*
X59055Y45276D02*
D03*
X69055D02*
D03*
D52*
X79055D02*
D03*
D53*
X33366Y113484D02*
D03*
X151575Y111811D02*
D03*
X110236Y19685D02*
D03*
X145669D02*
D03*
X82677D02*
D03*
D54*
X41240Y113484D02*
D03*
X143701Y111811D02*
D03*
X15748Y147244D02*
D03*
X118110Y19685D02*
D03*
X137795D02*
D03*
X90551D02*
D03*
D55*
X202953Y114842D02*
D03*
D56*
Y104842D02*
D03*
X202087Y44488D02*
D03*
X175197Y170866D02*
D03*
D57*
X17323Y70551D02*
D03*
D58*
X212087Y44488D02*
D03*
X185197Y170866D02*
D03*
D59*
X15748Y139370D02*
D03*
D60*
X97441Y35433D02*
D03*
X206693Y75787D02*
D03*
X88583Y94488D02*
D03*
X102539Y40074D02*
D03*
X53150Y80709D02*
D03*
X53754Y90171D02*
D03*
X161811Y70472D02*
D03*
D61*
X246063Y11811D02*
D03*
Y170276D02*
D03*
D62*
X221457Y142717D02*
D03*
X141495Y77261D02*
D03*
X163309Y95254D02*
D03*
X163287Y103051D02*
D03*
X172539Y125591D02*
D03*
X182972Y122736D02*
D03*
X177165Y148721D02*
D03*
X209646Y122736D02*
D03*
X189173Y142224D02*
D03*
M02*
